/* XPM */
static char *_dcd66bf5d504d7eb9f17f4a55888f965Gmr6gZUJNMN50Jj[] = {
/* columns rows colors chars-per-pixel */
"70 70 239 2 ",
"   c None",
".  c #3D7C1F",
"X  c #387C23",
"o  c #2C7F27",
"O  c #7A641B",
"+  c #4D7525",
"@  c #6F6A2D",
"#  c #765D13",
"$  c #487A46",
"%  c #B23804",
"&  c #CB3402",
"*  c #D33600",
"=  c #D53A06",
"-  c #CC330B",
";  c #E92804",
":  c #E9370D",
">  c #DB1A02",
",  c #9B520F",
"<  c #955611",
"1  c #935411",
"2  c #B5480A",
"3  c #AA4A0F",
"4  c #A75620",
"5  c #DA4904",
"6  c #D24C10",
"7  c #E24801",
"8  c #E85701",
"9  c #EA4E0B",
"0  c #D07416",
"q  c #E96501",
"w  c #F56B00",
"e  c #F87900",
"r  c #ED700E",
"t  c #D55B32",
"y  c #9E7254",
"u  c #D1614F",
"i  c #E77E59",
"p  c #D47668",
"a  c #2E9B1D",
"s  c #398529",
"d  c #3C8933",
"f  c #28812B",
"g  c #24A21B",
"h  c #438B37",
"j  c #46933A",
"k  c #4A9737",
"l  c #549D3B",
"z  c #589A34",
"x  c #4E932B",
"c  c #5CA33E",
"v  c #57A03C",
"b  c #64AA3E",
"n  c #6CAE3D",
"m  c #64A639",
"M  c #73B23C",
"N  c #7BB63A",
"B  c #7EB737",
"V  c #6FAB31",
"C  c #54A01E",
"Z  c #4A8A45",
"A  c #4D9744",
"S  c #539747",
"D  c #5A8758",
"F  c #5F915C",
"G  c #55A242",
"H  c #5BA541",
"J  c #5CA34A",
"K  c #5DA655",
"L  c #66A945",
"P  c #64A659",
"I  c #79B24C",
"U  c #748E71",
"Y  c #6BA964",
"T  c #77AB72",
"R  c #76B370",
"E  c #7CC177",
"W  c #7BC06D",
"Q  c #99BB2A",
"!  c #91BE2E",
"~  c #85BC36",
"^  c #8BBE37",
"/  c #83BB39",
"(  c #88BB39",
")  c #8FB92F",
"_  c #B8A727",
"`  c #B3B82E",
"'  c #BF831F",
"]  c #C8911C",
"[  c #F98600",
"{  c #FC9500",
"}  c #FDB007",
"|  c #C19223",
" . c #EF8F3C",
".. c #C5A924",
"X. c #C3B325",
"o. c #8EC136",
"O. c #8EC03A",
"+. c #93C335",
"@. c #9AC633",
"#. c #9DC933",
"$. c #95C43A",
"%. c #A8C92A",
"&. c #B6C72B",
"*. c #ADD12F",
"=. c #B5D52D",
"-. c #BDD92C",
";. c #B9D52A",
":. c #A3CB32",
">. c #A7CA31",
",. c #ADD131",
"<. c #B1D336",
"1. c #DDD31C",
"2. c #F2DB09",
"3. c #E9D616",
"4. c #F4E507",
"5. c #F2EC10",
"6. c #C6C828",
"7. c #C4DD2A",
"8. c #C8DB28",
"9. c #D2D728",
"0. c #CDE229",
"q. c #D2E52A",
"w. c #D2E427",
"e. c #D2E532",
"r. c #CEE233",
"t. c #8CB54B",
"y. c #84987D",
"u. c #84BA76",
"i. c #8DB07B",
"p. c #AAB178",
"a. c #F0965B",
"s. c #D2867B",
"d. c #E48E70",
"f. c #F9AE71",
"g. c #FBB85F",
"h. c #9AC54A",
"j. c #ABD04D",
"k. c #88C778",
"l. c #8DC56C",
"z. c #ACD36C",
"x. c #7DBD8F",
"c. c #7F8880",
"v. c #7AC5F5",
"b. c #899D87",
"n. c #818C81",
"m. c #91B38F",
"M. c #AAB8AA",
"N. c #A2AFA0",
"B. c #8DBCAD",
"V. c #CD8C83",
"C. c #F1AE8E",
"Z. c #E8B5AB",
"A. c #E2A497",
"S. c #98C887",
"D. c #9AD685",
"F. c #98C99B",
"G. c #8BC888",
"H. c #A7D98A",
"J. c #ACD593",
"K. c #A8E38C",
"L. c #B8E996",
"P. c #95C9AF",
"I. c #A8C9A8",
"U. c #B8DBAB",
"Y. c #B8C8B7",
"T. c #A9D5B6",
"R. c #BAD8B9",
"E. c #A2D2A9",
"W. c #F8C698",
"Q. c #C2EE9D",
"!. c #ECC7BC",
"~. c #C9EEA1",
"^. c #D4F5A9",
"/. c #CCEEB0",
"(. c #C4DFBF",
"). c #9ACCC5",
"_. c #9BD3C7",
"`. c #95D1D5",
"'. c #A5D7C9",
"]. c #A6D8DA",
"[. c #B5D9CC",
"{. c #BAE1D9",
"}. c #88CAF6",
"|. c #96CEF5",
" X c #9AD3F7",
".X c #9DD6E0",
"XX c #ABDCE3",
"oX c #A6DAE2",
"OX c #B2DEE3",
"+X c #A8D8F7",
"@X c #B6DDF7",
"#X c #B5E0E5",
"$X c #BCE3E4",
"%X c #BBE3EF",
"&X c #BAE2F7",
"*X c #C9D8C9",
"=X c #D6DBD6",
"-X c #C9D2CC",
";X c #F1D9D2",
":X c #CAE3C8",
">X c #C7E5D9",
",X c #DDE8DC",
"<X c #D6EEC7",
"1X c #F9E7DC",
"2X c #E3F3D7",
"3X c #C1DEF8",
"4X c #C4E6E5",
"5X c #CDE9E6",
"6X c #CCE9E9",
"7X c #C9E7E6",
"8X c #D5EBE5",
"9X c #D4ECE9",
"0X c #DAEEEA",
"qX c #D7E5E4",
"wX c #DDF0EB",
"eX c #C4E6FA",
"rX c #CBEAF9",
"tX c #C8E7F7",
"yX c #D4EDF9",
"uX c #D9EEFA",
"iX c #D1ECF4",
"pX c #DCF1FB",
"aX c #DBF0F7",
"sX c #E5ECE5",
"dX c #E8ECEA",
"fX c #F8EAE5",
"gX c #EAF4EA",
"hX c #FBF3E9",
"jX c #EBF6F5",
"kX c #E3F3FB",
"lX c #EAF6FB",
"zX c #EAF6F7",
"xX c #F5F9F4",
"cX c #F4FAFD",
"vX c #FAFDFE",
"bX c #FDFDFE",
"nX c #F9FCFD",
"mX c #F1F7F4",
"MX c #E3EEF8",
/* pixels */
"                                                                                                                                            ",
"                                                                                                                                            ",
"                                                                                                                                            ",
"                                                                                                                                            ",
"                                                                                                                                            ",
"                                                                                                                                            ",
"                                                                                                                                            ",
"                                                                                                                                            ",
"                                                                                                                                            ",
"                                                                                                                                            ",
"                                                                                                                                            ",
"                                                                                                                                            ",
"                                                                                                                                            ",
"                                                                                                                                            ",
"                                                            pXyXeX@X3X3X3XrXuX                                                              ",
"                                                      lX3X X}.}.}.v.v.v.v.}.}.|.+XrX                                                        ",
"                                                  MX+X}.}.}. X X X+X+X+X+X+X X X|.}.|.tX                                                    ",
"                                                eX}.|. X+X@X&X&XeXeXeXrXrXeXeXeX@X+X+X}.+XlX                                                ",
"                                            lX+X X+X&XeXrXyXuXuXkXpXkXkXkXkXkXpXuXuXeX@X+X|.yX                                              ",
"                                          pX@X+XeXuXpXkXkXlXlXcXcXcXcXcXcXcXmXjXaX=X9XpXrX@X+XrX                                            ",
"                                        kX@XeXaXlXcXcXcXnXvXvXvXvXbXvXbXnX2X<X(.Y.b.M.cXlXpXeX&XuX                                          ",
"                                        eXyXqXqXgXxXmXnXbXbXbXbXbXbXbXbX2X2XmXxXdXM.=XbXnXcXlXyX&XkX                                        ",
"                                      rXuXqXN.c.U.(./.<XxXbXcXxXxXxXxXsX/.xXbXbXbXnXbXbXvXvXcXlXuXtX                                        ",
"                                    yXyXkXjX[.Y.nXbXbXgX<X2X:XU.L.J.H.J.U.,XmXbXvXbXbXbXvXnXcXlXkXyXrX                                      ",
"                                  kXrXaXkXcXcXnXnXvXvXmXU.D.D.L.L.~.~.~.L.H.R.hXbXnXbXvXvXvXcXcXlXpXrXpX                                    ",
"                                  rXrXpXlXcXcXnXnXnXmX:XS.K.L.L.^.^.^.^.Q.L.H.:XcXnXvXvXvXvXcXcXlXpXiXeXlX                                  ",
"                                aXeXyXkXlXcXcXnXnXcX,XS.D.H.J.U.^.^.^.m.b.S.H.R.cXcXcXcXnXcXnXcXcXkXpXtXyX                                  ",
"                                &XrXaXkXlXcXcXcXcXcX:Xk.S.x.y b.L.~.~.b.n.U k.(.lXcXcXcXcXcXcXcXcXkXaXiXeXlX                                ",
"                              aX%XyXpXpXzXzXzXjXjXgXR.l.R U $ N.H.L.L.S.M.U u.*XgXwXzXjXgXzXzXzXzXpXaXiX&XaX                                ",
"                              &X%XtX9XiXwXwXwXwXwXwX*Xk.b.$ y.I.H.K.K.D.u.u.F.,XwXwXwXwXwXwX9XwX9XwXiX6X%X%X8XdX                            ",
"                      ,X*XI.).oX#X$X6X6X9XwXwXwXwXwX9XT.m.T T k.k.u.i.k.k.k.*XwXwXwXwXwX9XwXwXwXwX9X6X4X#XoXP.m.N.U.:XmX                    ",
"                dXR.m.R P H ).oX#X$X6X6X6XiX9X0X9X9XwX8X[.S.u.l.k.p.p.l.k.T.9X9XwXwX9X9XwX9X9X9X9X6X6X$X#X.X`.K G G Y R m.*X                ",
"            =XF.Y K H H H R `.oXOX$X4X7X5X5X8X9X9X9X8X9X9X8XT.G.l.W W R E.5X8X9X9X8X9X9X9X9X8X5X5X7X4X$X#XXX.XR L c c c G K Y I.sX          ",
"        sXI.Y P L H c n n x.`.].XX#X$X4X4X4X4X5X5X>X5X9X5X5X5XP.R k.k.x.E.T.T.{.9X5X5X5X5X9X8X7X4X4X$X%X#XoX.Xx.L b b c H G G G Y I.sX      ",
"      R.Y P T Y L L n M N I G._..XXXXX#X$X$X4X4X5X4X4X4X5X7X>XF.k.K.K.D.T.{.E.T.4X7X4X4X4X7X7X7X$X$XOXOX].`.P.I N M n n m l G J K K R [.    ",
"    Y.P J I h.&.6.%.~ N B o.o.l.F._.].oXXXOXOXOX$X$X$X$X4X$X{.E E k.D.D.F.{.{.$X$X4X$X$X$X$X$XOXOXXXoX_.E.k./ ~ B N M c k k j J L J A K *X  ",
"  ,XY G L t.6.2.4.5.1.>.o.+.@.#.:.j.z.E.'.].].].].OX].'.).).P.E D.W k.k.E x.B.).).P.'.'.].].oX].'.E.D.z.^ +.^ ^ ~ B m k v z k L L H G G T dX",
"  *Xk c b M X.2.4.5.5.6.+.#.#.%.:.*.,.j.j.z.z.S.P S S Z Z h Z h d d d h d d d Z Z Z S D L t.h.j.j.j.:.:.:.#.@.+.^ ) z x z k z L b H H G j sX",
"  *Xj H n n / ` 9.1.6.>.#.:.>.*.,.=.*.-.-.-.-.7.7.;.&.%.%.Q @.Q Q Q Q Q Q Q ! >.>.*.&.7.7.7.-.=.=.=.,.,.>.>.:.@.@.o.B V m V M M n b G l j ,X",
"  ,XF v m n M / ~ o.$.#.:.>.*.&.....X.;.-.7.7.0.8.0.w.8.w.w.w.w.q.w.q.q.q.0.8.r.0.0.8.7.7.7.-.-.=.=.&..._ ` >.@.@.+.$.^ ( / M n b c G j U sX",
"    M.Z l b b N / ^ ! @.:.:.*.] ; > : 0 6.7.7.9.0.0.0.0.q.w.w.w.e.e.w.q.q.e.0.0.0.q.0.0.7.7.-.-.6...0 : : 6 _ #.@.+.O.( / N M n m G j $ Y.  ",
"      M.$ h v b M / ( $.$.:.%._ : ; ; * ..7.7.r.0.q.0.7.%.%.&.w.q.e.q.q.e.e.q.0.w.1.8.0.0.7.7.-.;.0 ; ; ; - _ @.+.o.( N M n c c S h $ -X    ",
"        =XU $ j J b n M / ^ $.@.` | 0 | &.-.-.7.7.8.6.C a a a ) 7.0.e.e.e.0.0.3.2.4.2.3.8.7.-.=.=.` | 0 ' ` ! ^ / N N n L G l h $ b.dX      ",
"            [.y.$ h k z L n N t.t.! $.:.:.:.,.,.=.;.>.C a g g C %.0.r.r.7.7.8.3.4.4.2.2.6.*.*.:.:.#.+.! ( N B I n b c l j Z D b.-X          ",
"                -XN.@ X d j l c n n M B / ^ o.+.@.#.:.) V V C ) *.,.<.*.<.,.*.6.1.1.1.6.:.+.+.o.o.~ B M M n m G A d d D b.M.=X              ",
"                    V., 1 O + f d k k v m b n M N N / / ) ^ +.o.$.$.+.o.O.$.o.^ ^ ) O.N N N M M n c v l k h s o + O y -X                    ",
"                    ;X- 6 6 6 3 < O + s . . d j k z z v v m b L L n n V n n L b L b v v l k k k s o f . + # , 2 2 & Z.                      ",
"                      A.t 5 8 8 8 8 6 6 2 y b.m.F . . . . s . h s s s h s s s h X . . + Z D U @ 1 , 2 6 6 5 5 5 5 s.fX                      ",
"                        Z.a.r e e e w r p !.    fXt % % 2 3 4 , , , , , < < , , 4 % % V.dX    Z.u 5 5 q 8 q q  .d.1X                        ",
"                          ;XC.C.f.f.C.W.fX        p % > & - & * * = = = * * * & - - % Z.        ;XA.d.a.a.f.C.!.                            ",
"                                hXhX              ;X- - 5 5 5 7 7 7 7 7 7 5 5 5 & & u ;X            hX1X1XhX                                ",
"                                                    V.5 5 8 8 8 q 8 8 8 8 8 8 5 5 - Z.                                                      ",
"                                                    ;Xp t q q q w w w w w w q 8 9 s.fX                                                      ",
"                                                      ;Xd.r e e e [ [ [ [ e w r d.dX                                                        ",
"                                                        ;XC. .[ { { { { { [ a.C.fX                                                          ",
"                                                            ;XW.g.} } } g.W.;X                                                              ",
"                                                                hXfX1XhXhX                                                                  ",
"                                                                                                                                            ",
"                                                                                                                                            ",
"                                                                                                                                            ",
"                                                                                                                                            ",
"                                                                                                                                            ",
"                                                                                                                                            ",
"                                                                                                                                            ",
"                                                                                                                                            ",
"                                                                                                                                            ",
"                                                                                                                                            ",
"                                                                                                                                            ",
"                                                                                                                                            ",
"                                                                                                                                            "
};
