/* XPM */
static char *_ce3fdbb1ef34be9ce6eed6dc47c37b4AvGlfuiB42BocLCj[] = {
/* columns rows colors chars-per-pixel */
"70 70 154 2 ",
"   c black",
".  c #010201",
"X  c #070203",
"o  c #050402",
"O  c #050502",
"+  c #050503",
"@  c #010205",
"#  c #070704",
"$  c #0B0304",
"%  c #080803",
"&  c #0A0A04",
"*  c #0B0B05",
"=  c #0C0B05",
"-  c #0C0C06",
";  c #010408",
":  c #02060D",
">  c #120608",
",  c #130708",
"<  c #15080A",
"1  c #100F08",
"2  c #180A0C",
"3  c #1B0B0E",
"4  c #1E0D0F",
"5  c #101008",
"6  c #111109",
"7  c #111208",
"8  c #14140A",
"9  c #17170C",
"0  c #18170D",
"q  c #18180D",
"w  c #19190E",
"e  c #1A1B0F",
"r  c #1C1C0F",
"t  c #020912",
"y  c #030C15",
"u  c #040D18",
"i  c #040F1B",
"p  c #1F0E10",
"a  c #04111D",
"s  c #1D1D11",
"d  c #1E1E12",
"f  c #210F12",
"g  c #261215",
"h  c #341A1D",
"j  c #341B1F",
"k  c #212013",
"l  c #232215",
"z  c #262617",
"x  c #272618",
"c  c #2B2B1B",
"v  c #302F1E",
"b  c #2F301D",
"n  c #31311F",
"m  c #061321",
"M  c #061421",
"N  c #071725",
"B  c #081827",
"V  c #0B1D2E",
"C  c #0B1F31",
"Z  c #0C2032",
"A  c #0D2133",
"S  c #11293D",
"D  c #3F2226",
"F  c #333221",
"G  c #363623",
"H  c #3A3A25",
"J  c #3B3A26",
"K  c #3E3D28",
"L  c #3F3F2A",
"P  c #422427",
"I  c #46262A",
"U  c #49282C",
"Y  c #4A282D",
"T  c #5A3238",
"R  c #5F353B",
"E  c #62373E",
"W  c #42432A",
"Q  c #42412C",
"!  c #43442C",
"~  c #44442D",
"^  c #47472F",
"/  c #48492F",
"(  c #4C4B32",
")  c #4C4C33",
"_  c #4E4F33",
"`  c #4D4D34",
"'  c #505036",
"]  c #535537",
"[  c #5B5A3D",
"{  c #5B5B3E",
"}  c #5C5C3E",
"|  c #132D43",
" . c #153048",
".. c #18344D",
"X. c #193650",
"o. c #1A3954",
"O. c #1B3A56",
"+. c #1E3F5D",
"@. c #6A3C42",
"#. c #1E405E",
"$. c #214464",
"%. c #214666",
"&. c #224869",
"*. c #23496C",
"=. c #274F73",
"-. c #285175",
";. c #2B577E",
":. c #714047",
">. c #7A464D",
",. c #7D484F",
"<. c #626142",
"1. c #646543",
"2. c #646344",
"3. c #666545",
"4. c #696A47",
"5. c #6A6C47",
"6. c #6C6B49",
"7. c #6D6C4B",
"8. c #706F4D",
"9. c #757450",
"0. c #777652",
"q. c #7A7C53",
"w. c #807F58",
"e. c #975860",
"r. c #A15E67",
"t. c #A25F68",
"y. c #A6616B",
"u. c #AC666F",
"i. c #B16872",
"p. c #8A895F",
"a. c #8D8D62",
"s. c #8E9161",
"d. c #959468",
"f. c #969568",
"g. c #98966A",
"h. c #A1A171",
"j. c #A3A272",
"k. c #A5A472",
"l. c #AEAD7B",
"z. c #2C5981",
"x. c #2E5B84",
"c. c #31608B",
"v. c #32628E",
"b. c #336491",
"n. c #346693",
"m. c #396E9F",
"M. c #3970A1",
"N. c #3B73A5",
"B. c #3C74A7",
"V. c #3E77AA",
"C. c #3E77AB",
"Z. c #417CB2",
"A. c #427FB6",
"S. c #4280B7",
/* pixels */
"                                                                                                                                            ",
"                                                                                                                                            ",
"                                                                                                                                            ",
"                                                                                                                                            ",
"                                                      &                                                                                     ",
"                                                    w L w                                                                                   ",
"                                                  & ~ d.~ &                                                                                 ",
"                                                  - ) h.) -                                                                                 ",
"                                                  + c <.c +                                                                                 ",
"                                                    & l &                                                                                   ",
"                                                                                                              +                             ",
"                                                                                                            8 x -                           ",
"                                                                                                          8 ~ 7.n %                         ",
"                                                                                                          c 8.k.( -                         ",
"                                                                                                          0 / 6.v +                         ",
"                                                                                                          + 0 z -                           ",
"                                                                                                              +                             ",
"                                                                                                                                            ",
"                                + +                                                                                                         ",
"                              6 n n 1                                                                                                       ",
"                            + n 9.9.n +                                             @                                                       ",
"                            + G w.w.G %                                         @ M A i @   @                                               ",
"                              d ) ) d                                           a O.x...B V B ;                               +             ",
"                              + 0 0 +                                       @ ; B $.N.v.$.=.+.N @                         % d d &           ",
"                                                                          @ i A | -.A.Z.M.v.X.u                           l { { l           ",
"                                                                          t S =.b.m.A.A.C.=.C @                         & L a.a.L #         ",
"                                                                          ; M  .$.x.Z.A.C.c.| t                           z { } x           ",
"                                                                            ; i A *.C.M.;.;.+.N @                         + l d &           ",
"                                                                              @ m #.n.&.S  .S y                               +             ",
"                                                                                : A o.V t y t @                                             ",
"                                                                                  : i ;                                                     ",
"                                                                                                                                            ",
"                                  o $ +                   .   +                                                                             ",
"                              o p g h 3 +               . % % +                                                                             ",
"                            + f T @.:.P >               w W U e                                                                             ",
"                            $ P e.u.y.E f             & W f.g.Q &                                                                           ",
"                            > U e.i.t.R p             & ~ h.k.^ &                                                                           ",
"                            3 U >.r.,.D >             + c 3.3.c +                                                                           ",
"                            o 4 I ,.T f +               & l l -                                                                             ",
"                              + < h f $                   +                                                                                 ",
"+ - . . .                         X                                                                                                         ",
"F ' g + .                                                                                         + +                                       ",
"9.l.' -                                                                                         6 v n 6                                     ",
"` 0.G +                             +                                                         + n 9.9.n +                                   ",
"w c 6                           + 8 x -                                                       + G w.w.G +                                   ",
"  +                             8 ~ 7.v +                                                       d ( ( d +                                   ",
"                              + x 8.h.) -                                                       + w 0 +                                     ",
"                                0 / 6.F +                                                                                                   ",
"                                + 8 c -                                                                                                     ",
"                                  +                                                                                                         ",
"                                                                                                                                            ",
"                                                                                                                                            ",
"                                                                                                                                            ",
"                                                                                                                                            ",
"                                                                                                                                            ",
"                                                                                                                                            ",
"                    .   .                                                       .                                                           ",
"                  + w q e - .                                                   . . *                                                       ",
"                + r / ^ _ b - .                                                 * l H 8                                                     ",
"                  c 5.p.q.~ 8                                                   g } p.K *                                                   ",
"                  w ] s.5.b %                                                   l 2.d.~ &                                                   ",
"                  % b 1.W q                                                     6 H { z                                                     ",
"                    7 n e +                                                     + 6 d &                                         %           ",
"                      -                                                                                                     & z H w         ",
"                                                                                                                          . g } p.L %       ",
"                                                                                                                          . l 1.d.! *       ",
"                                                                                                                            7 H } z         ",
"                                                                                                                            + 6 d % . .     ",
"                                                                                                                              . .           ",
"                                                                                                                                            "
};
