/* XPM */
static char *f555e498cd424bd0b024cd2debf6aa94ou0YUfjDrolIzyGp[] = {
/* columns rows colors chars-per-pixel */
"70 70 88 1 ",
"  c #000000",
". c #0A0304",
"X c #0B0B05",
"o c #01050B",
"O c #100506",
"+ c #140709",
"@ c #1A0B0D",
"# c #101007",
"$ c #14130A",
"% c #18170D",
"& c #17180C",
"* c #18180D",
"= c #030A13",
"- c #040F1A",
"; c #1F0E10",
": c #1D1D11",
"> c #210F12",
", c #261315",
"< c #2C1619",
"1 c #2F181B",
"2 c #1F2013",
"3 c #242316",
"4 c #262618",
"5 c #2C2C1C",
"6 c #31321F",
"7 c #061421",
"8 c #091A29",
"9 c #0B1F30",
"0 c #391D22",
"q c #0D2335",
"w c #10263B",
"e c #11293E",
"r c #353522",
"t c #383724",
"y c #3C3C27",
"u c #3E3E29",
"i c #46262B",
"p c #4B292D",
"a c #502C31",
"s c #5C3439",
"d c #62373D",
"f c #44442D",
"g c #47482E",
"h c #484730",
"j c #4C4B32",
"k c #4F5135",
"l c #515036",
"z c #55553A",
"x c #56583A",
"c c #5A5A3D",
"v c #16324A",
"b c #18334D",
"n c #1A3955",
"m c #1D3D5A",
"M c #6D3E44",
"N c #703F46",
"B c #1F415F",
"V c #224667",
"C c #244B6D",
"Z c #254D71",
"A c #2A547B",
"S c #5F5E40",
"D c #7A464D",
"F c #7E4950",
"G c #646443",
"H c #696947",
"J c #6C6B4A",
"K c #73744F",
"L c #787752",
"P c #7F7E57",
"I c #91555D",
"U c #9D5B65",
"Y c #A6626B",
"T c #AC656F",
"R c #83845A",
"E c #88875F",
"W c #89885F",
"Q c #8F8E64",
"! c #949367",
"~ c #9A996C",
"^ c #2E5C85",
"/ c #2F5E88",
"( c #305E89",
") c #32628D",
"_ c #386E9E",
"` c #3B73A5",
"' c #3F79AD",
"] c #417EB4",
/* pixels */
"                         :lJyX                                        ",
"                        XrK~x*                                        ",
"                         :uz5                                         ",
"                          #*X                                         ",
"                                                                      ",
"                                                                      ",
"                                                                      ",
"                                                                      ",
"          X                                                           ",
"        #353X                                                         ",
"       &txHg*X                                                        ",
"      X6SRRk2                                                         ",
"      X2gHKk2                                                         ",
"       X:rf6$                                                         ",
"         #&#                   .;@+.            #X                    ",
"          X            X      .,pap<.         X3ut*                   ",
"                      36:.    ,pDIIs,         :lLJtX                  ",
"                     3jJh:   .0DUTYM1.        :jLJrX                  ",
"                    .5H!H5X  .<sFUUN0O        X3ut*                   ",
"                     $rlt$    .<iddi>.          X#                    ",
"                      #&X      .@,<@.                                 ",
"                                  .                                   ",
"                                                                      ",
"                                                                      ",
"                                                                      ",
"                                                             X**.     ",
"                                                            #rlj3     ",
"                                X$$                         3c!Wg#    ",
"                               $rjh3                        #rzj3X    ",
"                               5G~Qg$                        X&#      ",
"                               5G~Qg$                                 ",
"                               $rlj3.                                 ",
"                                .$$                                   ",
"                                                                      ",
"                                                                      ",
"                                                                      ",
"                                                                      ",
"                                           o-                         ",
"                                          o8v-o                       ",
"         X                               o7bVw=                       ",
"        &53#                            -8wV(n97=                     ",
"       *uGS4X                          =wBZ^_AVm8                     ",
"      .3cEPu#                          7n(`']'_Awo                    ",
"       #5jf2                           =wZ_]]')n7                     ",
"        X##.                            -v^``_Cqo                     ",
"                                        -vA/A^Cqo                     ",
"                                        =emvwnn8o                     ",
"                         ##             o-8-=78=                      ",
"                       X4ut*              o   o                       ",
"                       :jLJrX                                         ",
"                       :jKJtX                                         ",
"                       X4ut*                                          ",
"                        .#X                             X             ",
"                                                      X26*X           ",
"                                                     .2jJh:           ",
"                                                      5H!H6           ",
"                                                      $tlt$           ",
"                                                       X%X            ",
"                                                                      ",
"                                                                      ",
"                                           X#X                        ",
"    X                                     #5f5#                       ",
"   *53X                                  X3cRc3                       ",
"  %fGc5X                                  4cRc5                       ",
"  3cWIg#                                  X5f5X                       ",
"  #6hf2X                                   XXX                        ",
"   X$$X                                                               ",
"                                                                      ",
"                                                                      ",
"                                                                      "
};
