/* XPM */
static char *ZW5kMg__[] = {
/* columns rows colors chars-per-pixel */
"70 70 6 1 ",
"  c #008503",
". c #00A304",
"X c #00C004",
"o c #00DF05",
"O c #00FF06",
"+ c None",
/* pixels */
"++++++++++++++++++++++++++++++++++++++++++++++++++++++++++++++++++++++",
"++++++++++++++++++++++++++++++++++++++++++++++++++++++++++++++++++++++",
"++++++++++++++++++++++++++++++++++++++++++++++++++++++++++++++++++++++",
"++++++++++++++++++++++++++++++++++++++++++++++++++++++++++++++++++++++",
"+++++++++++++++++++++++++++++            +++++++++++++++++++++++++++++",
"+++++++++++++++++++++++++     ++++++++++     +++++++++++++++++++++++++",
"+++++++++++++++++++++++   ++++++++++++++++++   +++++++++++++++++++++++",
"+++++++++++++++++++++   ++++++++++++++++++++++   +++++++++++++++++++++",
"+++++++++++++++++++   ++++++++++++++++++++++++++   +++++++++++++++++++",
"+++++++++++++++++   ++++++++++++++++++++++++++++++   +++++++++++++++++",
"++++++++++++++++  ++++++++++++..........++++++++++++  ++++++++++++++++",
"+++++++++++++++  +++++++++.....++++++++.....+++++++++  +++++++++++++++",
"++++++++++++++  ++++++++...++++++++++++++++...++++++++  ++++++++++++++",
"+++++++++++++  +++++++...++++++++++++++++++++...+++++++  +++++++++++++",
"++++++++++++  +++++++..++++++++++++++++++++++++..+++++++  ++++++++++++",
"+++++++++++  ++++++...++++++++++++++++++++++++++...++++++  +++++++++++",
"++++++++++  ++++++..++++++++++++++++++++++++++++++..++++++  ++++++++++",
"+++++++++  ++++++..++++++++++++XXXXXXXX++++++++++++..++++++  +++++++++",
"+++++++++ ++++++..++++++++++XXXX++++++XXXX++++++++++..++++++ +++++++++",
"++++++++  +++++..+++++++++XXX++++++++++++XXX+++++++++..+++++  ++++++++",
"++++++++ ++++++.++++++++XXX++++++++++++++++XXX++++++++.++++++ ++++++++",
"+++++++  +++++..+++++++XX++++++++++++++++++++XX+++++++..+++++  +++++++",
"+++++++ +++++..+++++++XX++++++++++++++++++++++XX+++++++..+++++ +++++++",
"++++++  +++++.+++++++XX++++++++++++++++++++++++XX+++++++.+++++  ++++++",
"++++++ +++++..++++++XX++++++++++oooooo++++++++++XX++++++..+++++ ++++++",
"+++++  +++++.+++++++X++++++++oooo++++oooo++++++++X+++++++.+++++  +++++",
"+++++ +++++..++++++XX+++++++oo++++++++++oo+++++++XX++++++..+++++ +++++",
"+++++ +++++.+++++++X+++++++oo++++++++++++oo+++++++X+++++++.+++++ +++++",
"+++++ +++++.++++++XX++++++oo++++++++++++++oo++++++XX++++++.+++++ +++++",
"++++  +++++.++++++X++++++oo++++++++++++++++oo++++++X++++++.+++++  ++++",
"++++ +++++..++++++X++++++o++++++++++++++++++o++++++X++++++..+++++ ++++",
"++++ +++++.++++++XX++++++o+++++++OOOO+++++++o++++++XX++++++.+++++ ++++",
"++++ +++++.++++++X++++++oo++++++OO++OO++++++oo++++++X++++++.+++++ ++++",
"++++ +++++.++++++X++++++o++++++OO++++OO++++++o++++++X++++++.+++++ ++++",
"++++ +++++.++++++X++++++o++++++O++++++O++++++o++++++X++++++.+++++ ++++",
"++++ +++++.++++++X++++++o++++++O++++++O++++++o++++++X++++++.+++++ ++++",
"++++ +++++.++++++X++++++o++++++OO++++OO++++++o++++++X++++++.+++++ ++++",
"++++ +++++.++++++X++++++oo++++++OO++OO++++++oo++++++X++++++.+++++ ++++",
"++++ +++++.++++++XX++++++o+++++++OOOO+++++++o++++++XX++++++.+++++ ++++",
"++++ +++++..++++++X++++++o++++++++++++++++++o++++++X++++++..+++++ ++++",
"++++  +++++.++++++X++++++oo++++++++++++++++oo++++++X++++++.+++++  ++++",
"+++++ +++++.++++++XX++++++oo++++++++++++++oo++++++XX++++++.+++++ +++++",
"+++++ +++++.+++++++X+++++++oo++++++++++++oo+++++++X+++++++.+++++ +++++",
"+++++ +++++..++++++XX+++++++oo++++++++++oo+++++++XX++++++..+++++ +++++",
"+++++  +++++.+++++++X++++++++oooo++++oooo++++++++X+++++++.+++++  +++++",
"++++++ +++++..++++++XX++++++++++oooooo++++++++++XX++++++..+++++ ++++++",
"++++++  +++++.+++++++XX++++++++++++++++++++++++XX+++++++.+++++  ++++++",
"+++++++ +++++..+++++++XX++++++++++++++++++++++XX+++++++..+++++ +++++++",
"+++++++  +++++..+++++++XX++++++++++++++++++++XX+++++++..+++++  +++++++",
"++++++++ ++++++.++++++++XXX++++++++++++++++XXX++++++++.++++++ ++++++++",
"++++++++  +++++..+++++++++XXX++++++++++++XXX+++++++++..+++++  ++++++++",
"+++++++++ ++++++..++++++++++XXXX++++++XXXX++++++++++..++++++ +++++++++",
"+++++++++  ++++++..++++++++++++XXXXXXXX++++++++++++..++++++  +++++++++",
"++++++++++  ++++++..++++++++++++++++++++++++++++++..++++++  ++++++++++",
"+++++++++++  ++++++...++++++++++++++++++++++++++...++++++  +++++++++++",
"++++++++++++  +++++++..++++++++++++++++++++++++..+++++++  ++++++++++++",
"+++++++++++++  +++++++...++++++++++++++++++++...+++++++  +++++++++++++",
"++++++++++++++  ++++++++...++++++++++++++++...++++++++  ++++++++++++++",
"+++++++++++++++  +++++++++.....++++++++.....+++++++++  +++++++++++++++",
"++++++++++++++++  ++++++++++++..........++++++++++++  ++++++++++++++++",
"+++++++++++++++++   ++++++++++++++++++++++++++++++   +++++++++++++++++",
"+++++++++++++++++++   ++++++++++++++++++++++++++   +++++++++++++++++++",
"+++++++++++++++++++++   ++++++++++++++++++++++   +++++++++++++++++++++",
"+++++++++++++++++++++++   ++++++++++++++++++   +++++++++++++++++++++++",
"+++++++++++++++++++++++++     ++++++++++     +++++++++++++++++++++++++",
"+++++++++++++++++++++++++++++            +++++++++++++++++++++++++++++",
"++++++++++++++++++++++++++++++++++++++++++++++++++++++++++++++++++++++",
"++++++++++++++++++++++++++++++++++++++++++++++++++++++++++++++++++++++",
"++++++++++++++++++++++++++++++++++++++++++++++++++++++++++++++++++++++",
"++++++++++++++++++++++++++++++++++++++++++++++++++++++++++++++++++++++"
};
