/* XPM */
static char *ZmxhbWVzMw__[] = {
/* columns rows colors chars-per-pixel */
"70 22 110 2 ",
"   c #AC3A00",
".  c #B73404",
"X  c #B23B07",
"o  c #C71E00",
"O  c #C82B00",
"+  c #CD3302",
"@  c #CB3906",
"#  c #D23500",
"$  c #D43D03",
"%  c #D23C0E",
"&  c #9E4E0E",
"*  c #9A520F",
"=  c #965611",
"-  c #AB4309",
";  c #A84A11",
":  c #A7521D",
">  c #A75620",
",  c #D64100",
"<  c #DD4500",
"1  c #DB4D04",
"2  c #DD540E",
"3  c #D34519",
"4  c #E44C01",
"5  c #E45302",
"6  c #EA5501",
"7  c #E65C00",
"8  c #ED5C01",
"9  c #F05E02",
"0  c #EE6301",
"q  c #EE6A04",
"w  c #ED610F",
"e  c #F16401",
"r  c #F36C01",
"t  c #F26408",
"y  c #F26C0A",
"u  c #EE7200",
"i  c #F37301",
"p  c #F47B01",
"a  c #F97D02",
"s  c #F6770A",
"d  c #F87F0A",
"f  c #EC6313",
"g  c #EF6812",
"h  c #EE641A",
"j  c #F36B1A",
"k  c #F37614",
"l  c #F67B17",
"z  c #F2751B",
"x  c #F47A1C",
"c  c #F87C1C",
"v  c #C24130",
"b  c #EF6820",
"n  c #EB6B2C",
"m  c #F36C23",
"M  c #E8722D",
"N  c #F37B20",
"B  c #D35F48",
"V  c #CF6154",
"C  c #E36541",
"Z  c #EA7243",
"A  c #F17442",
"S  c #E37C5F",
"D  c #CF726B",
"F  c #F78101",
"G  c #FA8501",
"H  c #F9880F",
"J  c #F88311",
"K  c #F58D12",
"L  c #FBA312",
"P  c #F98822",
"I  c #F38629",
"U  c #FB9321",
"Y  c #F38634",
"T  c #F68638",
"R  c #FA9C36",
"E  c #FBA324",
"W  c #F48441",
"Q  c #F78F42",
"!  c #F5874D",
"~  c #F28355",
"^  c #F3905B",
"/  c #F79C5A",
"(  c #DB867A",
")  c #E38265",
"_  c #EF8B64",
"`  c #F6956E",
"'  c #ED8972",
"]  c #C28980",
"[  c #D88F86",
"{  c #E69781",
"}  c #F3A584",
"|  c #E0ABA6",
" . c #EDAEA3",
".. c #EAAFA3",
"X. c #F4B4A1",
"o. c #E1B6B2",
"O. c #E1B6B3",
"+. c #E6BBB5",
"@. c #E4C1BF",
"#. c #EEC4BD",
"$. c #EFDFDE",
"%. c #F0DAD6",
"&. c #F6DDD6",
"*. c #F0DCDB",
"=. c #F2E0DF",
"-. c #F4E1DE",
";. c #EEEAE8",
":. c #F6EAE9",
">. c None",
",. c black",
/* pixels */
">.>.>.>.>.>.>.>.>.>.>.>...Z 0 e r e 8 h S +.>.>.$.v . X - ; : * = = * = = = * & : ;   ] ;.>.>.O.B 5 7 5 7 r q M { -.>.>.>.>.>.>.>.>.>.>.>.>.",
">.>.>.>.>.>.>.>.>.>.>.>.>.' h 8 5 0 y _ &.>.>.>.>.D O + + % # # $ < 6 $ # # # # + @ o O.>.>.>.>.#.A y g f a z } >.>.>.>.>.>.>.>.>.>.>.>.>.>.",
">.>.>.>.>.>.>.>.>.>.>.>.>.>.e 9 6 0 p u >.>.>.>.>.%.@ $ , < < < 5 8 6 8 4 < < , , + V *.>.>.>.>.>.0 c y e p 0 >.>.>.>.>.>.>.>.>.>.>.>.>.>.>.",
">.>.>.>.>.>.>.>.>.>.>.>.>.>.>.e e r 7 >.>.>.>.>.>.,.[ 1 8 r 7 6 9 6 6 9 8 6 5 5 < 3 | >.>.>.>.>.>.>.e 8 0 s r >.>.>.>.>.>.>.>.>.>.>.>.>.>.>.",
">.>.>.>.>.>.>.>.>.>.>.>.>.>.>.e i r >.>.>.>.>.>.>.>.%.C 0 a i r r 9 8 e r e 0 0 2 ( :.>.>.>.>.>.>.>.e r r p >.>.>.>.>.>.>.>.>.>.>.>.>.>.>.>.",
">.>.>.>.>.>.>.>.>.>.>.>.>.>.>.e a >.>.>.>.>.>.>.>.>.>. .h q 0 i e 6 6 0 a i q q ) -.>.>.>.>.>.>.>.>.8 r a >.>.>.>.>.>.>.>.>.>.>.>.>.>.>.>.>.",
">.>.>.>.>.>.>.>.>.>.>.>.>.>.>.>.>.>.>.>.>.>.>.>.>.>.>.>.j r y r r e 8 e p 0 a k X.>.>.>.>.>.>.>.>.>.>.r p >.>.>.>.>.>.>.>.>.>.>.>.>.>.>.>.>.",
">.>.>.>.>.>.>.>.>.>.>.>.>.>.>.>.>.>.>.>.>.>.>.>.>.>.>.>.e a k h a i 6 p h 0 p 0 >.>.>.>.>.>.>.>.>.>.>.>.>.>.>.>.>.>.>.>.>.>.>.>.>.>.>.>.>.>.",
">.>.>.>.>.>.>.>.>.>.>.>.>.>.>.>.>.>.>.>.>.>.>.>.>.>.>.>.>.p 0 e T n m ~ t r g >.>.>.>.>.>.>.>.>.>.>.>.>.>.>.>.>.>.>.>.>.>.>.>.>.>.>.>.>.>.>.",
">.>.>.>.>.>.>.>.>.>.>.>.>.>.>.>.>.>.>.>.>.>.>.>.>.>.>.>.>.j y r w p G e e i p >.>.>.>.>.>.>.>.>.>.>.>.>.>.>.>.>.>.>.>.>.>.>.>.>.>.>.>.>.>.>.",
">.>.>.>.>.>.>.>.>.>.>.>.>.>.>.>.>.>.>.>.>.>.>.>.>.>.>.>.>.e a p 9 p J e r r p >.>.>.>.>.>.>.>.>.>.>.>.>.>.>.>.>.>.>.>.>.>.>.>.>.>.>.>.>.>.>.",
">.>.>.>.>.>.>.>.>.>.>.>.>.>.>.>.>.>.>.>.>.>.>.>.>.>.>.>.>.>.x z r 0 F e e a i >.>.>.>.>.>.>.>.>.>.>.>.>.>.>.>.>.>.>.>.>.>.>.>.>.>.>.>.>.>.>.",
">.>.>.>.>.>.>.>.>.>.>.>.>.>.>.>.>.>.>.>.>.>.>.>.>.>.>.>.>.>.e d p r J r i p >.>.>.>.>.>.>.>.>.>.>.>.>.>.>.>.>.>.>.>.>.>.>.>.>.>.>.>.>.>.>.>.",
">.>.>.>.>.>.>.>.>.>.>.>.>.>.>.>.>.>.>.>.>.>.>.>.>.>.>.>.>.>.>.I N y l r G p >.>.>.>.>.>.>.>.>.>.>.>.>.>.>.>.>.>.>.>.>.>.>.>.>.>.>.>.>.>.>.>.",
">.>.>.>.>.>.>.>.>.>.>.>.>.>.>.>.>.>.>.>.>.>.>.>.>.>.>.>.>.>.>.^ T e r r P Y >.>.>.>.>.>.>.>.>.>.>.>.>.>.>.>.>.>.>.>.>.>.>.>.>.>.>.>.>.>.>.>.",
">.>.>.>.>.>.>.>.>.>.>.>.>.>.>.>.>.>.>.>.>.>.>.>.>.>.>.>.>.>.>.p ! f r j U / >.>.>.>.>.>.>.>.>.>.>.>.>.>.>.>.>.>.>.>.>.>.>.>.>.>.>.>.>.>.>.>.",
">.>.>.>.>.>.>.>.>.>.>.>.>.>.>.>.>.>.>.>.>.>.>.>.>.>.>.>.>.>.>.K p 8 W ` R >.>.>.>.>.>.>.>.>.>.>.>.>.>.>.>.>.>.>.>.>.>.>.>.>.>.>.>.>.>.>.>.>.",
">.>.>.>.>.>.>.>.>.>.>.>.>.>.>.>.>.>.>.>.>.>.>.>.>.>.>.>.>.>.>.>.Q >.E L >.>.>.>.>.>.>.>.>.>.>.>.>.>.>.>.>.>.>.>.>.>.>.>.>.>.>.>.>.>.>.>.>.>.",
">.>.>.>.>.>.>.>.>.>.>.>.>.>.>.>.>.>.>.>.>.>.>.>.>.>.>.>.>.>.>.>.>.>.>.>.>.>.>.>.>.>.>.>.>.>.>.>.>.>.>.>.>.>.>.>.>.>.>.>.>.>.>.>.>.>.>.>.>.>.",
">.>.>.>.>.>.>.>.>.>.>.>.>.>.>.>.>.>.>.>.>.>.>.>.>.>.>.>.>.>.>.>.>.>.>.>.>.>.>.>.>.>.>.>.>.>.>.>.>.>.>.>.>.>.>.>.>.>.>.>.>.>.>.>.>.>.>.>.>.>.",
">.>.>.>.>.>.>.>.>.>.>.>.>.>.>.>.>.>.>.>.>.>.>.>.>.>.>.>.>.>.>.>.>.>.>.>.>.>.>.>.>.>.>.>.>.>.>.>.>.>.>.>.>.>.>.>.>.>.>.>.>.>.>.>.>.>.>.>.>.>.",
">.>.>.>.>.>.>.>.>.>.>.>.>.>.>.>.>.>.>.>.>.>.>.>.>.>.>.>.>.>.>.>.>.>.>.>.>.>.>.>.>.>.>.>.>.>.>.>.>.>.>.>.>.>.>.>.>.>.>.>.>.>.>.>.>.>.>.>.>.>."
};
