/* XPM */
static char *aDJnMl8x[] = {
/* columns rows colors chars-per-pixel */
"70 70 248 2 ",
"   c #1A0C01",
".  c #1C1303",
"X  c #181509",
"o  c #1C1A12",
"O  c #1E1D1B",
"+  c #250A02",
"@  c #370B02",
"#  c #2B1204",
"$  c #221A0C",
"%  c #281A04",
"&  c #3B1604",
"*  c #3D1A04",
"=  c #341805",
"-  c #231D13",
";  c #291E11",
":  c #3B2508",
">  c #343201",
",  c #3D3601",
"<  c #23221C",
"1  c #2A241B",
"2  c #2B2519",
"3  c #362618",
"4  c #2D2A25",
"5  c #2B2825",
"6  c #332C23",
"7  c #342E2A",
"8  c #3A2D24",
"9  c #35322C",
"0  c #3B342D",
"q  c #3C352B",
"w  c #3C3631",
"e  c #3C3A33",
"r  c #3A3935",
"t  c #4C1604",
"y  c #431D04",
"u  c #4C1C05",
"i  c #451707",
"p  c #531504",
"a  c #541B05",
"s  c #5C1A04",
"d  c #591B07",
"f  c #47190D",
"g  c #641C04",
"h  c #6B1B03",
"j  c #681803",
"k  c #741B02",
"l  c #7A1D02",
"z  c #721702",
"x  c #4B2305",
"c  c #432B0C",
"v  c #492707",
"b  c #542304",
"n  c #5B2C06",
"m  c #5B240A",
"M  c #572707",
"N  c #493602",
"B  c #5C3403",
"V  c #593A06",
"C  c #492715",
"Z  c #582915",
"A  c #463212",
"S  c #4A371A",
"D  c #583516",
"F  c #6C2304",
"G  c #622C05",
"H  c #63240B",
"J  c #6C240B",
"K  c #632C0B",
"L  c #6A2908",
"P  c #732304",
"I  c #73240A",
"U  c #7A2606",
"Y  c #643B05",
"T  c #683609",
"R  c #733C05",
"E  c #723C0C",
"W  c #7A3807",
"Q  c #672D14",
"!  c #683A19",
"~  c #753516",
"^  c #722A11",
"/  c #482A23",
"(  c #483929",
")  c #423C33",
"_  c #473B36",
"`  c #543B28",
"'  c #683925",
"]  c #763A23",
"[  c #5E4415",
"{  c #694207",
"}  c #7C4305",
"|  c #784709",
" . c #764717",
".. c #714C14",
"X. c #58452A",
"o. c #44423B",
"O. c #4C4439",
"+. c #4B4437",
"@. c #544A3D",
"#. c #5A4C3C",
"$. c #564536",
"%. c #69472C",
"&. c #7E5726",
"*. c #664936",
"=. c #7A4A35",
"-. c #765437",
";. c #6C4F35",
":. c #4D4A44",
">. c #4A4845",
",. c #564E44",
"<. c #55534B",
"1. c #5D594D",
"2. c #595347",
"3. c #5C5955",
"4. c #655948",
"5. c #795645",
"6. c #625E59",
"7. c #78624B",
"8. c #69655B",
"9. c #786B58",
"0. c #7D715D",
"q. c #6D614E",
"w. c #6C6964",
"e. c #797467",
"r. c #7F7A74",
"t. c #822405",
"y. c #842B04",
"u. c #853607",
"i. c #903507",
"p. c #A43B04",
"a. c #854306",
"s. c #844B06",
"d. c #8B4B07",
"f. c #8C4A0B",
"g. c #89460A",
"h. c #944A0A",
"j. c #98480B",
"k. c #8A5608",
"l. c #985808",
"z. c #9A4E11",
"x. c #885618",
"c. c #9A5516",
"v. c #864A16",
"b. c #A94508",
"n. c #B84907",
"m. c #A6550C",
"M. c #A65A16",
"N. c #B05A13",
"B. c #B65809",
"V. c #996209",
"C. c #976418",
"Z. c #8D600D",
"A. c #A46A0B",
"S. c #A66809",
"D. c #B1670A",
"F. c #B3740B",
"G. c #B97609",
"H. c #A86817",
"J. c #B76616",
"K. c #B87615",
"L. c #AC7111",
"P. c #885926",
"I. c #895434",
"U. c #A85C2F",
"Y. c #956534",
"T. c #A66A28",
"R. c #B76929",
"E. c #A96839",
"W. c #B37430",
"Q. c #C14A05",
"!. c #CA5708",
"~. c #D75907",
"^. c #C95611",
"/. c #D85C11",
"(. c #D7650A",
"). c #C37D0C",
"_. c #C8750B",
"`. c #D9750C",
"'. c #C76B17",
"]. c #D86A14",
"[. c #C77919",
"{. c #D87617",
"}. c #C5680A",
"|. c #EB6B07",
" X c #E46A0C",
".X c #E46608",
"XX c #E7770C",
"oX c #F47C0A",
"OX c #F57A09",
"+X c #E36914",
"@X c #E97817",
"#X c #F47A12",
"$X c #C66824",
"%X c #D87828",
"&X c #C77330",
"*X c #E57E27",
"=X c #E15906",
"-X c #897157",
";X c #8D6952",
":X c #A37C4C",
">X c #857B6D",
",X c #877765",
"<X c #927D64",
"1X c #847266",
"2X c #B8811E",
"3X c #BE8826",
"4X c #C9820A",
"5X c #D48B0D",
"6X c #D98E0B",
"7X c #D5890B",
"8X c #DD910B",
"9X c #C98515",
"0X c #D68A16",
"qX c #DB9113",
"wX c #D69419",
"eX c #FB820D",
"rX c #F4840E",
"tX c #EB9B0C",
"yX c #E5950A",
"uX c #F19E0C",
"iX c #E98516",
"pX c #FB8312",
"aX c #FD8D13",
"sX c #FA8C1C",
"dX c #F38219",
"fX c #EC9C13",
"gX c #E39817",
"hX c #FC9418",
"jX c #ED800E",
"kX c #F4A41B",
"lX c #F7A61A",
"zX c #EBA71E",
"xX c #C58727",
"cX c #CD9029",
"vX c #EB8921",
"bX c #E3A524",
"nX c #B38753",
"mX c #8D806C",
"MX c #8B8477",
"NX c #928578",
"BX c #94836A",
"VX c #A68969",
"CX c #CD964C",
"ZX c #958C82",
"AX c #958F85",
"SX c #A59D94",
"DX c #A8A29B",
"FX c None",
/* pixels */
"FXFXFXFXFXFXFXFXFXFXFXFXFXFXFXFXFXFXFXFXFXFXFXFXFXFXFXFXFXFXFXFXFXFXFXFXFXFXFXFXFXFXFXFXFXFXFXFXFXFXFXFXFXFXFXFXFXFXFXFXFXFXFXFXFXFXFXFXFXFX",
"FXFXFXFXFXFXFXFXFXFXFXFXFXFXFXFXFXFXFXFXFXFXFXFXFXFXFXFXFXFXFXFXFXFXFXFXFXFXFXFXFXFXFXFXFXFXFXFXFXFXFXFXFXFXFXFXFXFXFXFXFXFXFXFXFXFXFXFXFXFX",
"FXFXFXFXFXFXFXFXFXFXFXFXFXFXFXFXFXFXFXFXFXFXFXFXFXFXFXFXFXFXFXFXFXFXFXFXFXFXFXFXFXFXFXFXFXFXFXFXFXFXFXFXFXFXFXFXFXFXFXFXFXFXFXFXFXFXFXFXFXFX",
"FXFXFXFXFXFXFXFXFXFXFXFXFXFXFXFXFXFXFXFXFXFXFXFXFXFXFXFXFXFXFXFXFXFXFXFXFXFXFXFXFXFXFXFXFXFXFXFXFXFXFXFXFXFXFXFXFXFXFXFXFXFXFXFXFXFXFXFXFXFX",
"FXFXFXFXFXFXFXFXFXFXFXFXFXFXFXFXFXFXFXFXFXFXFXFXFXFXFXFXFXAXMXFXFXFXFXFXFXFXFXFXFXFXFXFXFXFXFXFXFXFXFXFXFXFXFXFXFXFXFXFXFXFXFXFXFXFXFXFXFXFX",
"FXFXFXFXFXFXFXFXFXFXFXFXFXFXFXFXFXFXFXFXFXFXFXFXFXFXFXFXw.w.w.w.e.FXFXFXFXFXFXFXFXFXFXFXFXFXFXFXFXFXFXFXFXFXFXFXFXFXFXFXFXFXFXFXFXFXFXFXFXFX",
"FXFXFXFXFXFXFXFXFXFXFXFXFXFXFXFXFXFXFXFXFXFXFXFXFXFXFXFX<.e 9 o.:.<.1.6.FXFXFXFXFXFXFXFXFXFXFXFXFXFXFXFXFXFXFXFXFXFXFXFXFXFXFXFXFXFXFXFXFXFX",
"FXFXFXFXFXFXFXFXFXFXFXFXFXFXFXFXFXFXFXFXFXFXFXFXFXFXFX8.:.e < o < 4 e +.<.1.FXFXFXFXFXFXFXFXFXFXFXFXFXFXFXFXFXFXFXFXFXFXFXFXFXFXFXFXFXFXFXFX",
"FXFXFXFXFXFXFXFXFXFXFXFXFXFXFXFXFXFXFXFXFXFXFXFXFXFXFX8.8.1.o.2 o X o < 2 e o.@.<.FXFXFXFXFXFXFXFXFXFXFXFXFXFXFXFXFXFXFXFXFXFXFXFXFXFXFXFXFX",
"FXFXFXFXFXFXFXFXFXFXFXFXFXFXFXFXFXFXFXFXFXFXFXFXFXFXFXw.MXMXe.1.e < o o o o < 4 e +.@.FXFXFXFXFXFXFXFXFXFXFXFXFXFXFXFXFXFXFXFXFXFXFXFXFXFXFX",
"FXFXFXFXFXFXFXFXFXFXFXFXFXFXFXFXFXFXFXFXFXFXFXFXFXFX1.1.e.MXNXmX8.q.@.o.4 o X X o 2 e e o.FXFXFXFXFXFXFXFXFXFXFXFXFXFXFXFXFXFXFXFXFXFXFXFXFX",
"FXFXFXFXFXFXFXFXFXFXFXFXFXFXFXFXFXFXFXFXFXFXFXFXFXFX<.e o.<.8.e.mXmXmX0.q.+.2 $ o X X o 2 q ) ) FXFXFXFXFXFXFXFXFXFXFXFXFXFXFXFXFXFXFXFXFXFX",
"FXFXFXFXFXFXFXFXFXFXFXFXFXFXFXFXFXFXFXFXFXFXFXFXFX1.@.4 o < 6 +.8.mXMXBXmX0.#.+.#.6 $ X X X 2 2 q ) ) FXFXFXFXFXFXFXFXFXFXFXFXFXFXFXFXFXFXFX",
"FXFXFXFXFXFXFXFXFXFXFXFXFXFXFXFXFXFXFXFXFXFXFXFXFX1.e 2 $ . X X q @.#.q.0.0.q.9.,Xq.#.S 2 % % X o 2 8 q o.FXFXFXFXFXFXFXFXFXFXFXFXFXFXFXFXFX",
"FXFXFXFXFXFXFXFXFXFXFXFXFXFXFXFXFXFXFXFXFXFXFXFXFX@.6 - $ X . . X $ o 2 ) +.$.q.mXBXmX7.4.X.q ; . . % 2 3 q +.FXFXFXFXFXFXFXFXFXFXFXFXFXFXFX",
"FXFXFXFXFXFXFXFXFXFXFXFXFXFXFXFXFXFXFXFXFXFXFXFX1.e < > . .   . X $ . . . $ 2 +.#.9.BXBXBX-X7.$.3 = v Y | x.x.P.;.+.FXFXFXFXFXFXFXFXFXFXFXFX",
"FXFXFXFXFXFXFXFXFXFXFXFXFXFXFXFXFXFXFXFXFXFXFXFX2.q > > % > , % N { { N % % > { x.T.W.nX:X,X<X-XX.| A.K.9X0XwXxXR.&.( ) FXFXFXFXFXFXFXFXFXFX",
"FXFXFXFXFXFXFXFXFXFXFXFXFXFXFXFXFXFXFXFXFXFXFX1.@.X...[ { Z.| | S.2X4XV.B B k.2X9XwXbXgXxXY.7.7.C.9XqXfXgXfXfXkXgXL.D 6 r FXFXFXFXFXFXFXFXFX",
"FXFXFXFXFXFXFXFXFXFXFXFXFXFXFXFXFXFXFXFXFXFXFX2.X.C.2XZ.A.9X2XG.5XyXtX2Xk.A.4X8X5X5XgXfX0XC.[ C.9XfXgX4XK.qXlXlXkX9X..; r FXFXFXFXFXFXFXFXFX",
"FXFXFXFXFXFXFXFXFXFXFXFXFXFXFXFXFXFXFXFXFXFX,.#.&.3XwX2XcXwXG.2X2X5X8X4XF.6X6XF.Z.Z.F.4XG.s.Y A.5XwXF.| | 9XlXlXkXxX{ 8 ) FXFXFXFXFXFXFXFXFX",
"FXFXFXFXFXFXFXFXFXFXFXFXFXFXFXFXFXFXFXFXFXFX*.;.T.bXzXbXwXK.k.V.F.6X6X2X8X8XG.k.k.V.S.S.k.B N | k.k.| Y V.qXlXlXgXV.D w FXFXFXFXFXFXFXFXFXFX",
"FXFXFXFXFXFXFXFXFXFXFXFXFXFXFXFXFXFXFXFXFXFX*.Y.cXbXzXzX9Xk.} S.5X5XG.4XyX7Xk.V.7X8X6X7XD.Y y u x v { A.8XlXlXgXL.{ 8 ) FXFXFXFXFXFXFXFXFXFX",
"FXFXFXFXFXFXFXFXFXFXFXFXFXFXFXFXFXFXFXFXFX#.-.3XcX2XwXgXL.k.F.6X7XS.S.6XtXG.} V.6XuXuXyXS.B a a M | F.qXfXuXqXL.| : w FXFXFXFXFXFXFXFXFXFXFX",
"FXFXFXFXFXFXFXFXFXFXFXFXFXFXFXFXFXFXFXFXFX#.P.xXxXH.wX9XL.4XfXtX4Xl.S.8XuX2Xs.V.4XtXyX4Xs.b G R V.4X8XtXqX2XZ.Y * 5 ) FXFXFXFXFXFXFXFXFXFXFX",
"FXFXFXFXFXFXFXFXFXFXFXFXFXFXFXFXFXFXFXFX@.` I.T.H.H.K.K.K.8XtXfX6XV.l.8XuXyX_.).8XyX4Xl.G G l.G.7XtXtX5XK.k.{ v # 7 FXFXFXFXFXFXFXFXFXFXFXFX",
"FXFXFXFXFXFXFXFXFXFXFXFXFXFXFXFXFXFXFXFX,.' ' v.C.c.c.z.M.D.G.).D.} W G.8XyXyXyX7X).l.Y R S._.yXuXuXtXgX9X).A.{ 3 w FXFXFXFXFXFXFXFXFXFXFXFX",
"FXFXFXFXFXFXFXFXFXFXFXFXFXFXFXFXFXFXFXFX$.' ] ~ c.U.z.z.z.z.h.h.h.W W d.S.G.G.D.l.R b G l.).8XyXtXuXuXuXuXgX).| 8 ) FXFXFXFXFXFXFXFXFXFXFXFX",
"FXFXFXFXFXFXFXFXFXFXFXFXFXFXFXFXFXFXFX@.$.' Q Q ~ u.u.u.g.j.j.z.m.l.m.d.a.s.} } T n n G } V.S.G.)._.4X5X5X`.V.D ( FXFXFXFXFXFXFXFXFXFXFXFXFX",
"FXFXFXFXFXFXFXFXFXFXFXFXFXFXFXFXFXFXFXO.` S Z H H H I F L W u.u.u.d.j.a.a.d.a.s.Z.k.s.} } u.W R R R | k.k.k.Y / ) FXFXFXFXFXFXFXFXFXFXFXFXFX",
"FXFXFXFXFXFXFXFXFXFXFXFXFXFXFXFXFXFX@.+.` A b Q H g g g m v.D.j.F F P F P W } | | | k.s.m.l.l.h.R } R B v x = 7 FXFXFXFXFXFXFXFXFXFXFXFXFXFX",
"FXFXFXFXFXFXFXFXFXFXFXFXFXFXFXFXFXFX:.$.S A v H I h g s t | '.D.u.P l k P W V [ N [ V Y R a.a.d.g.l.f.f.E M 3 ( FXFXFXFXFXFXFXFXFXFXFXFXFXFX",
"FXFXFXFXFXFXFXFXFXFXFXFXFXFXFXFXFXFX@.( S A c m I t.I g u T l.z.U P P k l T V > > > > v b F H G G E E | E m 8 _ FXFXFXFXFXFXFXFXFXFXFXFXFXFX",
"FXFXFXFXFXFXFXFXFXFXFXFXFXFXFXFXFX2.+.X.A c v K U y.t.U H K h.u.h h z k k G V , > > > N a s s p s p s n d f ( FXFXFXFXFXFXFXFXFXFXFXFXFXFXFX",
"FXFXFXFXFXFXFXFXFXFXFXFXFXFXFXFXFX1.+.X.S : v ^ t.t.t.U F n k.d.h h z j h F V N N , N x s g g g s p p t t / _ FXFXFXFXFXFXFXFXFXFXFXFXFXFXFX",
"FXFXFXFXFXFXFXFXFXFXFXFXFXFXFXFX8.4.X.S A c v J ^ t.t.k p x s.h.k h z h h k L Y V B n F g j g h j s p t a / FXFXFXFXFXFXFXFXFXFXFXFXFXFXFXFX",
"FXFXFXFXFXFXFXFXFXFXFXFXFXFXFXFX9.2.X.S : c M I U t.l g @ = R u.l k z z z z U y.y.y.W y.U U F F g s p t f _ FXFXFXFXFXFXFXFXFXFXFXFXFXFXFXFX",
"FXFXFXFXFXFXFXFXFXFXFXFXFXFXFXFX8.#.X.A c v J I I I j t + y W u.l z l l t.i.p.p.Q.Q.Q.n.n.b.j.i.y.F d t / _ FXFXFXFXFXFXFXFXFXFXFXFXFXFXFXFX",
"FXFXFXFXFXFXFXFXFXFXFXFXFXFXFX>X9.#.S A D H I I l j t @ + n u.U z z t.i.p.Q.=X=X=X~.~.~.~.!.!.!.B.b.u.Q ` FXFXFXFXFXFXFXFXFXFXFXFXFXFXFXFXFX",
"FXFXFXFXFXFXFXFXFXFXFXFXFXFXFX1X7.;.[ D Q I ^ k z p @ + # T i.U t.t.p.Q.~.=X|.|.|.|.|.|..X(.(.(./.^.N.v.=.FXFXFXFXFXFXFXFXFXFXFXFXFXFXFXFXFX",
"FXFXFXFXFXFXFXFXFXFXFXFXFXFXZX1X-.%.~ ~ ^ ^ ^ J d f @ + * R u.P i.p.!..X|.|.OXOXoXeXOXOXXX X(..X].}.'.U.FXFXFXFXFXFXFXFXFXFXFXFXFXFXFXFXFXFX",
"FXFXFXFXFXFXFXFXFXFXFXFXFXFX>X1XI.] ~ ^ ^ J J K m y # = G g.u.y.p.~.|.OXOXXX(.}.}.`.eXeXeXjX#X@X+X$X$XE.FXFXFXFXFXFXFXFXFXFXFXFXFXFXFXFXFXFX",
"FXFXFXFXFXFXFXFXFXFXFXFXFXAX1X5.=.] Q Q m ~ Q b i = + v } g.i.b.=X|.OXOXXXB.} T R m.`.rXaXaXrX@X+X/.$XE.FXFXFXFXFXFXFXFXFXFXFXFXFXFXFXFXFXFX",
"FXFXFXFXFXFXFXFXFXFXFXFXFXZXe.5.' Z Z Z m E T * +   + x E W p.!.|.OXOXXXB.h.s.s.} f._.rXaXaXsXdX+X$XU.FXFXFXFXFXFXFXFXFXFXFXFXFXFXFXFXFXFXFX",
"FXFXFXFXFXFXFXFXFXFXFXFXFXZX9.=.' Z d d m H v #   + + * K u.n./.OXOXOX`.J._.`._._._.jXaXaXhXhXsX*X$XE.FXFXFXFXFXFXFXFXFXFXFXFXFXFXFXFXFXFXFX",
"FXFXFXFXFXFXFXFXFXFXFXFXAXr.5.' Q Q H J J H d = + # # * L b.!.|.OXOXeXOX`.oXrXjX{._.@XaXaXhXhXsX*XE.FXFXFXFXFXFXFXFXFXFXFXFXFXFXFXFXFXFXFXFX",
"FXFXFXFXFXFXFXFXFXFXFXFXZX1X5.' Z Z Z Q J g b & # # # y u.Q.~.|.OXeXeXeXXXoX`.m.g.f.D.iXaXhXsXvX*X&XFXFXFXFXFXFXFXFXFXFXFXFXFXFXFXFXFXFXFXFX",
"FXFXFXFXFXFXFXFXFXFXFXFXZX;XI.' ' Z m g d t & f v = + M b.^.=X#XeXeXeXOXeXXXm.G i y R '.sXsXsXvX%XFXFXFXFXFXFXFXFXFXFXFXFXFXFXFXFXFXFXFXFXFX",
"FXFXFXFXFXFXFXFXFXFXFXZX1X;X' ` Z f f d t i = n T a = Q n./. XOXeXeXeXeXeXXXh.b & & B J.dXsXdX*X&XFXFXFXFXFXFXFXFXFXFXFXFXFXFXFXFXFXFXFXFXFX",
"FXFXFXFXFXFXFXFXFXFXFXAX-X5.' Z C C b b i = M T H a @ n b./.+XOXeXeXeXeXpX`.z.K x u E J.dX#X*X%X&XFXFXFXFXFXFXFXFXFXFXFXFXFXFXFXFXFXFXFXFXFX",
"FXFXFXFXFXFXFXFXFXFXDXZX;XI.' Z C Z Z f * M T T d p i b b./.+X#XpXeXpXpXpX`.m.g.E K m.{.dX*X*X&XFXFXFXFXFXFXFXFXFXFXFXFXFXFXFXFXFXFXFXFXFXFX",
"FXFXFXFXFXFXFXFXFXFXSXVXnXE.I.v.{ A C Z Z Z K b t t i i j./.+X#XpXpXpXaXpX].N.J.N.j.'.*X*X*X%XE.FXFXFXFXFXFXFXFXFXFXFXFXFXFXFXFXFXFXFXFXFXFX",
"FXFXFXFXFXFXFXFXFXDXAXnXCXCXcXW.W.H.x.c.x.E G M t t i y i.^./.@XpXpXpX#XXXJ.z.J.J.J.{.@X@X{.&XE.FXFXFXFXFXFXFXFXFXFXFXFXFXFXFXFXFXFXFXFXFXFX",
"FXFXFXFXFXFXFXFXFXSX>X;X:X:X:XW.3XxX[.9X[.K.H.c.| G y M j.^./.+X#X#X#X].N.R n { c.'.%X{.{.$XW.FXFXFXFXFXFXFXFXFXFXFXFXFXFXFXFXFXFXFXFXFXFXFX",
"FXFXFXFXFXFXFXFXFXSXe.<.,.,.,.;.5.E.W.W.W.[.K.K.L.x.{  .M.].].+X@X@X].h.G M x x E J.{.{.$XR.:XFXFXFXFXFXFXFXFXFXFXFXFXFXFXFXFXFXFXFXFXFXFXFX",
"FXFXFXFXFXFXFXFXFXDXZX8.:.e ) _ $.*.-.-.P.x.C.H.K.H.H.K.0XgXdXiX@X@XJ.W E | E * v c.'.[.'.U.FXFXFXFXFXFXFXFXFXFXFXFXFXFXFXFXFXFXFXFXFXFXFXFX",
"FXFXFXFXFXFXFXFXFXFXFX>Xw.3.@.w 7 ) o.+._ $.` !  .&.x.H.W.0X0XiX0X@X[.H.H.[.f.v =  .J.J.U.:XFXFXFXFXFXFXFXFXFXFXFXFXFXFXFXFXFXFXFXFXFXFXFXFX",
"FXFXFXFXFXFXFXFXFXFXFXFXFXFXw.<.:.) 7 7 w w ) 0 8 6 / D .. .x.c.C.H.J.H.[.0XM.M = T c.M.I.FXFXFXFXFXFXFXFXFXFXFXFXFXFXFXFXFXFXFXFXFXFXFXFXFX",
"FXFXFXFXFXFXFXFXFXFXFXFXFXFXFXFXFX3.<.o.7 4 7 7 w w r 7 6 3 3 3 c v D P.K.[.H. .! v.H.U.I.FXFXFXFXFXFXFXFXFXFXFXFXFXFXFXFXFXFXFXFXFXFXFXFXFX",
"FXFXFXFXFXFXFXFXFXFXFXFXFXFXFXFXFXFXFX6.3.>.w 5 5 7 _ _ ( 7 5 ; - - 8 ` -.P.P. .x.H.J.:X;XFXFXFXFXFXFXFXFXFXFXFXFXFXFXFXFXFXFXFXFXFXFXFXFXFX",
"FXFXFXFXFXFXFXFXFXFXFXFXFXFXFXFXFXFXFXFXFX8.6.<.) 7 4 7 7 w 0 w 7 6 6 _ ,.,.,.*.%.! P.Y.FXFXFXFXFXFXFXFXFXFXFXFXFXFXFXFXFXFXFXFXFXFXFXFXFXFX",
"FXFXFXFXFXFXFXFXFXFXFXFXFXFXFXFXFXFXFXFXFXFXFXFX6.3.>.9 5 5 7 9 w w 0 7 7 _ O.$.( 3 ( 2.FXFXFXFXFXFXFXFXFXFXFXFXFXFXFXFXFXFXFXFXFXFXFXFXFXFX",
"FXFXFXFXFXFXFXFXFXFXFXFXFXFXFXFXFXFXFXFXFXFXFXFXFXFXw.6.<._ 7 5 5 9 9 9 0 6 8 ( / O r FXFXFXFXFXFXFXFXFXFXFXFXFXFXFXFXFXFXFXFXFXFXFXFXFXFXFX",
"FXFXFXFXFXFXFXFXFXFXFXFXFXFXFXFXFXFXFXFXFXFXFXFXFXFXFXFXFXw.6.>.w 5 5 5 7 9 0 8 < 7 3.FXFXFXFXFXFXFXFXFXFXFXFXFXFXFXFXFXFXFXFXFXFXFXFXFXFXFX",
"FXFXFXFXFXFXFXFXFXFXFXFXFXFXFXFXFXFXFXFXFXFXFXFXFXFXFXFXFXFXFXw.6.<.r 5 5 5 4 5 O >.3.FXFXFXFXFXFXFXFXFXFXFXFXFXFXFXFXFXFXFXFXFXFXFXFXFXFXFX",
"FXFXFXFXFXFXFXFXFXFXFXFXFXFXFXFXFXFXFXFXFXFXFXFXFXFXFXFXFXFXFXFXFXFXw.3.>.9 O O 7 <.FXFXFXFXFXFXFXFXFXFXFXFXFXFXFXFXFXFXFXFXFXFXFXFXFXFXFXFX",
"FXFXFXFXFXFXFXFXFXFXFXFXFXFXFXFXFXFXFXFXFXFXFXFXFXFXFXFXFXFXFXFXFXFXFXFXw.6.<.o.>.6.FXFXFXFXFXFXFXFXFXFXFXFXFXFXFXFXFXFXFXFXFXFXFXFXFXFXFXFX",
"FXFXFXFXFXFXFXFXFXFXFXFXFXFXFXFXFXFXFXFXFXFXFXFXFXFXFXFXFXFXFXFXFXFXFXFXFXFXFXw.r.FXFXFXFXFXFXFXFXFXFXFXFXFXFXFXFXFXFXFXFXFXFXFXFXFXFXFXFXFX",
"FXFXFXFXFXFXFXFXFXFXFXFXFXFXFXFXFXFXFXFXFXFXFXFXFXFXFXFXFXFXFXFXFXFXFXFXFXFXFXFXFXFXFXFXFXFXFXFXFXFXFXFXFXFXFXFXFXFXFXFXFXFXFXFXFXFXFXFXFXFX",
"FXFXFXFXFXFXFXFXFXFXFXFXFXFXFXFXFXFXFXFXFXFXFXFXFXFXFXFXFXFXFXFXFXFXFXFXFXFXFXFXFXFXFXFXFXFXFXFXFXFXFXFXFXFXFXFXFXFXFXFXFXFXFXFXFXFXFXFXFXFX",
"FXFXFXFXFXFXFXFXFXFXFXFXFXFXFXFXFXFXFXFXFXFXFXFXFXFXFXFXFXFXFXFXFXFXFXFXFXFXFXFXFXFXFXFXFXFXFXFXFXFXFXFXFXFXFXFXFXFXFXFXFXFXFXFXFXFXFXFXFXFX"
};
