/* XPM */
static char *bmJfMQ__[] = {
/* columns rows colors chars-per-pixel */
"20 38 58 1 ",
"  c black",
". c #001C00",
"X c #00041C",
"o c #001C1C",
"O c #002A00",
"+ c #003800",
"@ c #004900",
"# c #005100",
"$ c #005600",
"% c #006200",
"& c #006900",
"* c #007000",
"= c #007800",
"- c #007C00",
"; c #000B47",
": c #000C53",
"> c #007979",
", c #007E7E",
"< c #008C00",
"1 c #001E83",
"2 c #0029AC",
"3 c #0025B0",
"4 c #0027B9",
"5 c #0027BA",
"6 c #0029C4",
"7 c #003BC7",
"8 c #0034CB",
"9 c #002DD1",
"0 c #0038E2",
"q c #0033E8",
"w c #0034EC",
"e c #0035F0",
"r c #0036F4",
"t c #0038F7",
"y c #0037F8",
"u c #0038FB",
"i c #0039FF",
"p c #003AFF",
"a c #0049EC",
"s c #0043FF",
"d c #0044FF",
"f c #0052FF",
"g c #0089FF",
"h c #00A2FB",
"j c #00A1FF",
"k c #00C2C2",
"l c #00C7C7",
"z c #00DFFF",
"x c #00E0E0",
"c c #00E5E5",
"v c #00E9E9",
"b c #00ECEC",
"n c #00F2F2",
"m c #00F5F5",
"M c #00F7F7",
"N c #00F9F9",
"B c #00FCFC",
"V c #00FDFD",
/* pixels */
"                    ",
"                    ",
"                    ",
"                    ",
"                    ",
"     9tq238m*       ",
"    :iiiiidV<       ",
"    ocVmhisV=       ",
"        >iiV&       ",
"         tij%       ",
"         wiz$       ",
"         qig@       ",
"         qiV+       ",
"         qis.       ",
"         wiV        ",
"         wiV        ",
"         wiB        ",
"         wim        ",
"         wiM        ",
"         eiB        ",
"         eiV        ",
"         eiV        ",
"         eiV        ",
"         eiV        ",
"         tid.       ",
"         uiVO       ",
"        XifV+       ",
"        ;iiV#       ",
"        1iiV-       ",
"    1y65addd760Bl   ",
"    4iiiVVVVVisVn   ",
"    ,MVMbcxxvnVVk   ",
"                    ",
"                    ",
"                    ",
"                    ",
"                    ",
"                    "
};
