/* XPM */
static char *_876a484cbd44bc5b353ef882cd2588eQqXaqDTxXQBOJt4D[] = {
/* columns rows colors chars-per-pixel */
"20 38 73 1 ",
"  c black",
". c #001C00",
"X c #000226",
"o c #00062E",
"O c #000535",
"+ c #00083D",
"@ c #004700",
"# c #005A00",
"$ c #000F63",
"% c #00116C",
"& c #00136E",
"* c #001371",
"= c #001572",
"- c #001678",
"; c #005A5A",
": c #006666",
"> c #006C6C",
", c #007F7F",
"< c #001D96",
"1 c #001F9B",
"2 c #001E9D",
"3 c #0021A3",
"4 c #0023A9",
"5 c #0026B6",
"6 c #0027BA",
"7 c #0029BE",
"8 c #0032B7",
"9 c #0029C4",
"0 c #0035CE",
"q c #002DD3",
"w c #002ED5",
"e c #002FDA",
"r c #0031DE",
"t c #0031E2",
"y c #0036F3",
"u c #0038FB",
"i c #0039FF",
"p c #0040F4",
"a c #0043FF",
"s c #0044FF",
"d c #0052F9",
"f c #0052FF",
"g c #009090",
"h c #009B9B",
"j c #00A1A1",
"k c #00A8A8",
"l c #00AFAF",
"z c #00B2B2",
"x c #00B9B9",
"c c #00BDBD",
"v c #0095FF",
"b c #009BFF",
"n c #009CFF",
"m c #00A3FE",
"M c #00ADFF",
"N c #00AFFF",
"B c #00BBFF",
"V c #00BEFF",
"C c #00CACA",
"Z c #00CECE",
"A c #00D2D2",
"S c #00D3D3",
"D c #00D5D5",
"F c #00DDDD",
"G c #00E2E2",
"H c #00E7E7",
"J c #00E8E8",
"K c #00EFEF",
"L c #00F1F1",
"P c #00F5F5",
"I c #00F9F9",
"U c #00FCFC",
"Y c cyan",
/* pixels */
"                    ",
"                    ",
"                    ",
"                    ",
"                    ",
"          XqiJ:     ",
"          6iiYc     ",
"         $uiaYZ     ",
"         eiiaYA     ",
"        <iawaYA     ",
"       OyiK-aYA     ",
"       7iag%aYA     ",
"      %ifD &iNA     ",
"      rid# &iNA     ",
"     2ibl  %inA     ",
"    +yiJ.  %inA     ",
"    9im,   &ibA     ",
"   =iVC    &ibA     ",
"   tiP@    %ibA     ",
"  3iBj     %ivA     ",
" oyYG      &ibA     ",
" 3iaaiiiiiiiiiiiaYx ",
" cYYYaiiiiiiiiiiaYH ",
" >HYYYYYYYYiiiiYYPk ",
"           %ibA     ",
"           *inA     ",
"           *ivD     ",
"           -inF     ",
"           4iML     ",
"       $y85paasq0Iz ",
"       1iiiYYYYiaYF ",
"       ;KYPKGFHLIIh ",
"                    ",
"                    ",
"                    ",
"                    ",
"                    ",
"                    "
};
