/* XPM */
static char *_1fa14f923dd4b2f9c8ae9ffec8ed6d7J5Ze6ZOwUx9ExDwP[] = {
/* columns rows colors chars-per-pixel */
"20 38 118 2 ",
"   c black",
".  c #000C00",
"X  c #00000D",
"o  c #001C00",
"O  c #002200",
"+  c #002E00",
"@  c #00062E",
"#  c #00133B",
"$  c #002E2E",
"%  c #003B3B",
"&  c #004200",
"*  c #004900",
"=  c #004F00",
"-  c #005600",
";  c #005A00",
":  c #007700",
">  c #007C00",
",  c #000B47",
"<  c #000A49",
"1  c #00094D",
"2  c #001266",
"3  c #001666",
"4  c #001371",
"5  c #001777",
"6  c #001779",
"7  c #004545",
"8  c #004D4D",
"9  c #005555",
"0  c #005858",
"q  c #005F5F",
"w  c #006A6A",
"e  c #007979",
"r  c #007C7C",
"t  c #008D00",
"y  c #009200",
"u  c #009800",
"i  c #001C91",
"p  c #001E9A",
"a  c #0020A0",
"s  c #0038A8",
"d  c #0025B5",
"f  c #0028B4",
"g  c #0033BD",
"h  c #0029C4",
"j  c #002BCB",
"k  c #002BCC",
"l  c #002DCE",
"z  c #0030C0",
"x  c #002DD4",
"c  c #0030D6",
"v  c #0037DB",
"b  c #0030DD",
"n  c #0031E2",
"m  c #0032E6",
"M  c #0033E8",
"N  c #0034EB",
"B  c #0036EB",
"V  c #003AEB",
"C  c #003EEB",
"Z  c #0037F3",
"A  c #0037F6",
"S  c #0039F2",
"D  c #0037F8",
"F  c #0038F8",
"G  c #0038FA",
"H  c #0039FF",
"J  c #003DFD",
"K  c #0075D4",
"L  c #0042FB",
"P  c #0043FF",
"I  c #0044FF",
"U  c #004BF9",
"Y  c #0049FF",
"T  c #0054FF",
"R  c #008383",
"E  c #008686",
"W  c #008C8C",
"Q  c #009191",
"!  c #009494",
"~  c #009B9B",
"^  c #009C9C",
"/  c #00A1A1",
"(  c #00A6A6",
")  c #00ABAB",
"_  c #00ADAD",
"`  c #00B1B1",
"'  c #00B6B6",
"]  c #00BABA",
"[  c #00BFBF",
"{  c #0081FD",
"}  c #0093FF",
"|  c #0095FF",
" . c #0099FF",
".. c #009CFF",
"X. c #00A4FF",
"o. c #00AAFF",
"O. c #00AFFF",
"+. c #00BDFF",
"@. c #00C2C2",
"#. c #00C8C8",
"$. c #00CCCC",
"%. c #00D2D2",
"&. c #00D6D6",
"*. c #00DBDB",
"=. c #00DEDE",
"-. c #00DFDF",
";. c #00C1FF",
":. c #00DEFF",
">. c #00E3E3",
",. c #00E8E8",
"<. c #00EAEA",
"1. c #00EEEE",
"2. c #00F2F2",
"3. c #00F6F6",
"4. c #00F7F7",
"5. c #00F8F8",
"6. c #00FBFB",
"7. c cyan",
/* pixels */
"                                        ",
"                                        ",
"                                        ",
"                                        ",
"                                        ",
"              1 d m G G V @.0           ",
"            i D H H H H H I 6.W         ",
"          p H H X.X.7.7.X.H P 6.e       ",
"        4 G H H =.W 7 7 Q B P 7.=.      ",
"        n H +.#.          1 G H { +     ",
"      i H H >.o           f P P 7.-     ",
"      b H X.R             K o.7.6.O     ",
"    < H ;.,.              r 1.4.)       ",
"    a H X.]                             ",
"    h H T t   , d M D G C [ 9           ",
"    b H H . 6 Z H H H H H P 4.!         ",
"    B H s 5 G H | +.T :. .H P 7.W       ",
"    A H v S H 6.[ w $ q ` 6.H I 2.&     ",
"    G H H P 7.W           e U H 7.'     ",
"    H H H 7.]               ` H X.1.    ",
"    D H J 7.&               % G H 7.;   ",
"    A H X.=.                  b H O.y   ",
"    m H O.$.                  l H O./   ",
"    c H  .#.                  j H } (   ",
"    g H X.&.                  x H ..u   ",
"    W H ..1.                  B H +.>   ",
"    % L H 7.:               2 H H 6.O   ",
"      %.H X.&.              k H ..&.    ",
"      W I H 7._           p H H 7.E     ",
"        &.I P H j # @ 3 z J Y 7.%.      ",
"        9 1.7.H H H H H H H 7.,.*       ",
"          8 >.7.X.| 7.;.X.7.=.=         ",
"            X ^ *.4.7.2.*.~             ",
"                                        ",
"                                        ",
"                                        ",
"                                        ",
"                                        "
};
