/* XPM */
static char *_bed91c03cdc49a387965b8a2d65a3c6ICL6EQp7KDlkrPNv[] = {
/* columns rows colors chars-per-pixel */
"20 38 108 2 ",
"   c black",
".  c #00000D",
"X  c #000016",
"o  c #00041C",
"O  c #00081E",
"+  c #001C1C",
"@  c #003500",
"#  c #000322",
"$  c #000226",
"%  c #00102C",
"&  c #000532",
"*  c #00043B",
"=  c #002E2E",
"-  c #003535",
";  c #004000",
":  c #004700",
">  c #004D00",
",  c #005300",
"<  c #000B47",
"1  c #000D5F",
"2  c #001058",
"3  c #000F65",
"4  c #001773",
"5  c #001678",
"6  c #002979",
"7  c #004F4F",
"8  c #005656",
"9  c #005D5D",
"0  c #006262",
"q  c #006363",
"w  c #006E6E",
"e  c #007272",
"r  c #007878",
"t  c #001B8C",
"y  c #001C90",
"u  c #001F9B",
"i  c #001F9E",
"p  c #00209F",
"a  c #0020A0",
"s  c #0022A7",
"d  c #0023AA",
"f  c #0024AC",
"g  c #0025B8",
"h  c #002AC9",
"j  c #002DCD",
"k  c #002FD4",
"l  c #002DD6",
"z  c #002FDB",
"x  c #0031E0",
"c  c #0032E5",
"v  c #0034EB",
"b  c #0037EE",
"n  c #0035F0",
"m  c #0036F5",
"M  c #0037F5",
"N  c #003BF8",
"B  c #0038FD",
"V  c #0039FF",
"C  c #003FFF",
"Z  c #0040F5",
"A  c #0043F9",
"S  c #0042FA",
"D  c #0043FF",
"F  c #0045FE",
"G  c #004AFF",
"H  c #004DFF",
"J  c #0055FF",
"K  c #007FFF",
"L  c #008383",
"P  c #008888",
"I  c #009292",
"U  c #009B9B",
"Y  c #009D9D",
"T  c #00A1A1",
"R  c #00A4A4",
"E  c #00A7A7",
"W  c #00B5B5",
"Q  c #00B8B8",
"!  c #00B9B9",
"~  c #00BFBF",
"^  c #0097EE",
"/  c #0093FF",
"(  c #0094FF",
")  c #009AFF",
"_  c #009CFF",
"`  c #00A1FF",
"'  c #00A4FF",
"]  c #00AFFF",
"[  c #00B6FF",
"{  c #00B9FF",
"}  c #00C4C4",
"|  c #00C6C6",
" . c #00C9C9",
".. c #00CDCD",
"X. c #00D2D2",
"o. c #00D6D6",
"O. c #00DADA",
"+. c #00DFDF",
"@. c #00C6FF",
"#. c #00E3E3",
"$. c #00E7E7",
"%. c #00EBEB",
"&. c #00ECEC",
"*. c #00F4F4",
"=. c #00F8F8",
"-. c #00FAFA",
";. c #00FBFB",
":. c #00FEFE",
/* pixels */
"                                        ",
"                                        ",
"                                        ",
"                                        ",
"                                        ",
"            . a z n V Z O.U             ",
"          1 c V V V V V V C +.:         ",
"        1 n V V ] ) J ' ' V D &.,       ",
"      X x B V -.Q 0 = w | :.D :.o.      ",
"      i B V -.L           U F V :.P     ",
"      c V [ W               | V _ X.    ",
"    < V V -.;               8 V V -.@   ",
"    t V ' +.                  c V / P   ",
"    p V ) ..                  k V ` ~   ",
"    s V ]  .                  h V _ o.  ",
"    u V { o.                  l V _ $.  ",
"    6 V ' *.                o M G :.*.  ",
"    + S G :.U               s V V :.-.  ",
"       .F V *.0           5 N V D :.:.  ",
"      0 -.D V M f % $ 3 g N G V D :.-.  ",
"        R :.F V V V V V V V :.a S :.*.  ",
"          E -.:._ [ K / ( ;.U & H :.&.  ",
"            0 | &.-.-.%.~ 9   4 V @.+.  ",
"                              a V ] |   ",
"                              j V { T   ",
"        d M ^ r             o M G :.>   ",
"      # N B :.o.            a V _ +.    ",
"      2 V D :.W           * b V :.I     ",
"      - D B -.>         $ l C :.#.      ",
"        +.D V v t o < y c V F -.e       ",
"        L -.D D B V V V V H :.Y         ",
"          U -.:._ ] / ) :.-.I           ",
"            0 | &.:.*.%.Q 8             ",
"                                        ",
"                                        ",
"                                        ",
"                                        ",
"                                        "
};
