/* XPM */
static char *cG91cG91cjA_[] = {
/* columns rows colors chars-per-pixel */
"70 70 226 2 ",
"   c #391C07",
".  c #2B1910",
"X  c #2E2115",
"o  c #372519",
"O  c #3E2408",
"+  c #3B2D23",
"@  c #3F3127",
"#  c #45240B",
"$  c #482916",
"%  c #512F15",
"&  c #54351D",
"*  c #513113",
"=  c #4F301D",
"-  c #782C16",
";  c #6E3719",
":  c #75341B",
">  c #70280E",
",  c #442B22",
"<  c #4A2D23",
"1  c #402E29",
"2  c #4B332A",
"3  c #493528",
"4  c #553A2D",
"5  c #5A3C2F",
"6  c #563926",
"7  c #4B3C33",
"8  c #483C37",
"9  c #5A3E32",
"0  c #553C33",
"q  c #7B3928",
"w  c #7D362A",
"e  c #771605",
"r  c #6A411D",
"t  c #5B432A",
"y  c #5C4236",
"u  c #54433A",
"i  c #5D443B",
"p  c #58473A",
"a  c #66462B",
"s  c #62463B",
"d  c #65483C",
"f  c #684A35",
"g  c #774C33",
"h  c #6C523B",
"j  c #74543B",
"k  c #79563A",
"l  c #774B2B",
"z  c #5C4C43",
"x  c #574843",
"c  c #644C43",
"v  c #6A4F45",
"b  c #6C5344",
"n  c #64534B",
"m  c #6C544A",
"M  c #6C5A4B",
"N  c #675244",
"B  c #725443",
"V  c #745B45",
"C  c #7B5B45",
"Z  c #745A4A",
"A  c #7C5C4B",
"S  c #71554A",
"D  c #6A5954",
"F  c #745B52",
"G  c #765F59",
"H  c #7D624C",
"J  c #7F6043",
"K  c #6D6258",
"L  c #7B6254",
"P  c #72635B",
"I  c #7B635B",
"U  c #7D6B59",
"Y  c #786A65",
"T  c #7D726A",
"R  c #970E03",
"E  c #8D1A0A",
"W  c #881807",
"Q  c #941409",
"!  c #901A11",
"~  c #A70C03",
"^  c #B50804",
"/  c #A7120A",
"(  c #B41209",
")  c #A21E12",
"_  c #892719",
"`  c #932014",
"'  c #833829",
"]  c #8B2A24",
"[  c #C70803",
"{  c #CC100A",
"}  c #E70604",
"|  c #854937",
" . c #86553D",
".. c #824128",
"X. c #865947",
"o. c #86574E",
"O. c #826245",
"+. c #83644C",
"@. c #8B654B",
"#. c #856A4E",
"$. c #8C6B4C",
"%. c #8C6644",
"&. c #946C49",
"*. c #97724D",
"=. c #856B54",
"-. c #8B6D54",
";. c #826D5B",
":. c #8B6C5A",
">. c #886656",
",. c #926D54",
"<. c #906B57",
"1. c #8D7255",
"2. c #8D735C",
"3. c #83715D",
"4. c #937455",
"5. c #9A7553",
"6. c #957957",
"7. c #9C7A54",
"8. c #93745B",
"9. c #9A755A",
"0. c #957A5B",
"q. c #9C7C5C",
"w. c #A17D5C",
"e. c #A07E57",
"r. c #856D67",
"t. c #827467",
"y. c #8C7465",
"u. c #8A756C",
"i. c #887869",
"p. c #927661",
"a. c #957A63",
"s. c #9B7D63",
"d. c #947C6C",
"f. c #9B7E6A",
"g. c #90756B",
"h. c #8E7A72",
"j. c #877874",
"k. c #957E74",
"l. c #A27F60",
"z. c #9F815E",
"x. c #A4825E",
"c. c #AA855E",
"v. c #AE895F",
"b. c #B0895F",
"n. c #9D8164",
"m. c #9C826B",
"M. c #98846D",
"N. c #8B817A",
"B. c #958273",
"V. c #9B8673",
"C. c #9D8974",
"Z. c #9A847C",
"A. c #9D8B7B",
"S. c #968579",
"D. c #A58462",
"F. c #AA8662",
"G. c #A78964",
"H. c #AC8964",
"J. c #A3856B",
"K. c #A5896C",
"L. c #AA8B6B",
"P. c #A88568",
"I. c #B28B64",
"U. c #B38D69",
"Y. c #AF906E",
"T. c #B5916C",
"R. c #BA936C",
"E. c #B89067",
"W. c #A38672",
"Q. c #A58A73",
"!. c #AA8C73",
"~. c #A48D79",
"^. c #A98D79",
"/. c #AD9175",
"(. c #A5917D",
"). c #AB927C",
"_. c #B39473",
"`. c #BB9674",
"'. c #BC9975",
"]. c #B3967C",
"[. c #B4997D",
"{. c #BC9C7B",
"}. c #B79876",
"|. c #BFA17F",
" X c #C29B75",
".X c #C39E7B",
"XX c #C4A17E",
"oX c #C8A07A",
"OX c #978C84",
"+X c #9D9189",
"@X c #8F8581",
"#X c #A18E81",
"$X c #A59382",
"%X c #AB9582",
"&X c #AD9884",
"*X c #AD9B8A",
"=X c #A5988C",
"-X c #B29682",
";X c #B39A84",
":X c #B99E84",
">X c #B39E8B",
",X c #BA9E8B",
"<X c #AA9E93",
"1X c #A59C94",
"2X c #B09F90",
"3X c #B4A18E",
"4X c #BBA18D",
"5X c #AEA399",
"6X c #B4A393",
"7X c #BBA492",
"8X c #B4A69B",
"9X c #BAA799",
"0X c #BBAA9D",
"qX c #B6A99D",
"wX c #BCADA1",
"eX c #B5ABA3",
"rX c #C3A382",
"tX c #C4A98C",
"yX c #C2A694",
"uX c #C3AC9B",
"iX c #C6AD97",
"pX c #CAB49C",
"aX c #C2AFA2",
"sX c #CDB1A0",
"dX c None",
"fX c black",
/* pixels */
"dXdXdXdXdXdXdXdXdXdXdXdXdXdXdXdXfXfXfXfXfXfXfXfXfXfXfXfXdXdXdXdXdXdXdXdXdXdXdXdXfXfXfXfXfXfXfXfXfXfXfXfXfXfXfXfXfXfXfXfXfXfXfXfXfXfXfXfXfXfX",
"dXdXdXdXdXdXdXdXdXdXdXdXdXdXdXdXfXfXfXfXfXfXfXfXfXfXfXfXdXdXdXdXdXdXdXdXdXdXdXdXfXfXfXfXfXfXfXfXfXfXfXfXfXfXfXfXfXfXfXfXfXfXfXfXfXfXfXfXfXfX",
"dXdXdXdXdXdXdXdXdXdXdXdXdXdXdXdXfXfXfXfXfXfXfXfXfXfXfXfXdXdXdXdXdXdXdXdXdXdXdXdXfXfXfXfXfXfXfXfXfXfXfXfXfXfXfXfXfXfXfXfXfXfXfXfXfXfXfXfXfXfX",
"dXdXdXdXdXdXdXdXdXdXdXdXdXdXdXdXfXfXfXfXfXfXfXfXfXfXfXfXdXdXdXdXdXdXdXdXdXdXdXdXfXfXfXfXfXfXfXfXfXfXfXfXfXfXfXfXfXfXfXfXfXfXfXfXfXfXfXfXfXfX",
"dXdXdXdXdXdXdXdXdXdXdXdXdXdXdXdXfXfXfXfXfXfXfXfXfXfXfXfXfXfXdXdXdXdXdXdXdXdXdXdXfXfXfXfXfXfXfXfXfXfXfXfXfXfXfXfXfXfXfXfXfXfXfXfXfXfXfXfXfXfX",
"dXdXdXdXdXdXdXdXdXdXdXdXdXdXdXdXfXfXfXfXfXfXfXfXfXfXfXfXfXfXdXdXdXdXdXdXdXdXdXdXfXfXfXfXfXfXfXfXfXfXfXfXfXfXfXfXfXfXfXfXfXfXfXfXfXfXfXfXfXfX",
"dXdXdXdXdXdXdXdXdXdXdXdXdXdXdXdXfXfXfXfXfXfXfXfXfXfXfXfXK.K._.{.{.T.x.5.6.+.& O t M K M.i.j.N.fXfXfXfXfXfXfXfXfXfXfXfXfXfXfXfXfXfXfXfXfXfXfX",
"dXdXdXdXdXdXdXdXdXdXdXdXdXdXdXdXfXfXfXfXfXfX[.).&X[.[.[._._.{.|..X'.U.D.q.J * # t t t M K T N.fXfXfXfXfXfXfXfXfXfXfXfXfXfXfXfXfXfXfXfXfXfXfX",
"fXfXfXfXfXfXfXfXdXdXdXdXdXdXdXdXfXfXfXfX4X|.|.|.{.:XrX.X.X.XrXrX.X.X X`.F.@.g t a a t & p T fXfXfXfXfXfXfXfXfXfXfXfXfXfXfXfXfXfXfXfXfXfXfXfX",
"fXfXfXfXfXfXfXfXdXdXdXdXdXdXdXdXfXfXpXtXrX4X|.|..X.XrXrXrXrX.X.XXXoXoX.X`.l.5.J k f f t t U fXfXfXfXfXfXfXfXfXfXfXfXfXfXfXfXfXfXfXfXfXfXfXfX",
"fXfXfXfXfXfXfXfXdXdXdXdXdXdXdXqX0XpXpXpXtXtXXX|.rXrXrX.X.XrX.X.XoXoXoX.X X_.L.l.6.$.O.V h T fXfXfXfXfXfXfXfXfXfXfXfXfXfXfXfXfXfXfXfXfXfXfXfX",
"fXfXfXfXfXfXfXfXdXdXdXdXdX<X6X9XiXiXiXtXrXXX|.|.:X.XrX.X.X.X X X X X X.X X_.U.P.G.z.z.z.1.2.fXfXfXfXfXfXfXfXfXfXfXfXfXfXfXfXfXfXfXfXfXfXfXfX",
"fXfXfXfXfXfXfXfXfXfXfXfX=X<X6X3X>X:X].].[.'.'.{..X.XrX.X.X.X X XR.R.R.R.`.R.U.I.c.x.x.z.z.a.M.fXfXfXfXfXfXfXfXfXfXfXfXfXfXfXfXfXfXfXfXfXfXfX",
"fXfXfXfXfXfXfXfXfXfXfX+X+X$X%X&X&X/.)././.!.L.L.{.rXrX.X X X XE.I.R.E.R.R.R.I.H.c.c.x.x.z.n.M.M.fXfXfXfXfXfXfXfXfXfXfXfXfXfXfXfXfXfXfXfXfXfX",
"fXfXfXfXfXfXfXfXfXfX+XA.B.B.M.Q.~.!.^.Q.!.s.X.O.l. X.X.X X X XE.I.E.I.R.U.U.H.H.v.v.c.x.z.n.m.M.C.fXfXfXfXfXfXfXfXfXfXfXfXfXfXfXfXfXfXfXfXfX",
"fXfXfXfXfXfXfXfXfXS.S.B.a.1.2.n.J.W.J.l.s.j % l @.l. X X X XR.T.E.I.I.I.I.U.I.I.I.v.v.v.x.n.n.C.C.fXfXfXfXfXfXfXfXfXfXfXfXfXfXfXfXfXfXfXfXfX",
"fXfXfXfXfXfXfXfXdXB.d.a.2.-.1.s.m.J.W.l.:.< # g &.9.P.I.U.E.R.T.E.I.U.U.I.H.H.v.b.I.b.b.c.G.z.C.C.S.fXfXfXfXfXfXfXfXfXfXfXfXfXfXfXfXfXfXfXfX",
"fXfXfXfXfXfXfXfXdXg.2.8.4.-.8.n.m.m.f.f.S   = C ,.w.w.w.w.H.I.I.U.U.U.H.v.v.v.v.b.I.I.b.H.G.G.C.C.C.A.fXfXfXfXfXfXfXfXfXfXfXfXfXfXfXfXfXfXfX",
"fXfXfXfXfXfXfXfXdXa.-.-.8.4.8.f.m.f.f.p.d # 5 @.9.w.e.w.l.I.F.I.H.H.H.H.v.c.c.v.b.b.b.I.H.H.K.K.C.C.A.fXfXfXfXfXfXfXfXfXfXfXfXfXfXfXfXfXfXfX",
"fXfXfXfXfXfXfXfXdXm.@.-.-.-.8.f.s.a.p.y.5 & j ,.D.D.w.x.I.I.l.I.H.H.H.H.I.v.c.c.c.b.v.H.U.L.H.m.K.C.A.A.fXfXfXfXfXfXfXfXfXfXfXfXfXfXfXfXfXfX",
"fXfXfXfXfXfXfXfXdX!.$.+.-.-.8.p.a.8.p.;.6 a @.J.H.D.x.D.F.H.F.F.c.G.F.H.T.H.H.x.w.e.b.I.H.Y.L.K.K.C.W.A.dXdXfXfXfXfXfXfXfXfXfXfXfXfXfXfXfXfX",
"fXfXfXfXfXfXfXfXdX-X8.X.X.+.=.2.2.y.f.L & k 9.K.L.G.x.F.F.F.F.c.c.c.G.F.T.'.T.z.e.5.w.w.H.H.G.L.K.K.C.A.dXdXfXfXfXfXfXfXfXfXfXfXfXfXfXfXfXfX",
"fXfXfXfXfXfXfXfXdX,XK.#.V C +.=.:.2.a.A & +.f.P.G.G.c.c.F.F.F.x.x.x.x.G.U.|. XF.5.*.e.w.c.x.x.v.K.M.M.V.A.fXfXfXfXfXfXfXfXfXfXfXfXfXfXfXfXfX",
"fXfXfXfXfXfXfXfXdXtX-Xp.C B V H =.2.0.V g 8.K.G.G.D.D.x.G.c.F.x.x.x.x.x.G.`.XX Xe.*.*.5.7.%.%.*.z.M.M.M.B.fXfXfXfXfXfXfXfXfXfXfXfXfXfXfXfXfX",
"fXfXfXfXfXfXfXfXfX4X[.!.y.V b V :.2.a.#.O.0.K.K.D.x.D.D.c.D.D.x.c.D.x.x.x.G.'.XXT.7.&.*.&.l r k o.<.>.r.g.fXfXfXfXfXfXfXfXfXfXfXfXfXfXfXfXfX",
"fXfXfXfXfXfXfXfXfX[.[.;XW.y.V V =.0.n.1.$.6.D.D.D.D.x.x.D.D.D.F.G.D.x.x.z.7.v.|.|.H.*.&.&.l > : ' ' ' w o.r.fXfXfXfXfXfXfXfXfXfXfXfXfXfXfXfX",
"fXfXfXfXfXfXfXfXdX}.:X:X;XW.;.V H 2.0.8.,.9.l.l.D.D.D.D.D.F.D.G.F.G.x.x.x.7.z.Y.4XR.z.&.%.k > > ! ! Q ! w o.fXfXfXfXfXfXfXfXfXfXfXfXfXfXfXfX",
"fXfXfXfXfXfXfXfXdX/.[.;X>X).M.;.H -.s.0.4.9.9.l.w.l.D.D.D.D.D.D.F.F.G.x.x.z.6.z.}.{.L.1.$.O.r E R ^ ^ R _ o.fXfXfXfXfXfXfXfXfXfXfXfXfXfXfXfX",
"fXfXfXfXfXfXfXfXdXK.].;X,X>X(.n.1.1.s.0.4.9.w.w.l.l.l.P.l.P.H.H.H.L.P.G.z.z.6.6.G.].].z.$.%...W ^ [ } ^ ! | fXfXfXfXfXfXfXfXfXfXfXfXfXfXfXfX",
"fXfXfXfXfXfXfXfXdXs./.;X;X>X&X~.y.0.0.4.@.5.9.9.w.w.l.l.l.F.P.P.G.G.K.G.z.1.$.$.1.n./.L.*.%.| ` ~ [ } ( ] o.fXfXfXfXfXfXfXfXfXfXfXfXfXfXfXfX",
"fXfXfXfXfXfXfXfXdXdX!.-X;X;X;X).M.a.n.8.@.5.9.w.w.l.l.l.F.D.P.P.L.K.K.G.4.O.k k O.4.K./.s.1.X.' ` R ~ ! | >.fXfXfXfXfXfXfXfXfXfXfXfXfXfXfXfX",
"fXfXfXfXfXfXfXfXdXdXK.;X3X;X*X).Q.n.m.n.9.5.w.w.w.w.w.l.l.l.D.D.P.K.K.q.$.l ; l k +.s./.Q.m.<.o.| ' w w >.g.fXfXfXfXfXfXfXfXfXfXfXfXfXfXfXfX",
"fXfXfXfXfXfXfXfXfXfXD.3X4X3X*X$X~.V.W.Q.n.q.q.z.z.x.z.z.z.z.z.z.n.n.n.4.| : > - : k :.W.).-XW.y.>.o.o.F y.B.dXdXdXdXdXdXdXdXdXdXfXfXfXfXfXfX",
"fXfXfXfXfXfXfXfXfXfXK.4X4X3X*X*X$X~.~.).K.s.6.7.z.x.x.z.z.z.z.z.n.q.1. ._ E R R W q X.a.^.4X-XV.f.f.g.u.h.dXdXdXdXdXdXdXdXdXdXdXfXfXfXfXfXfX",
"fXfXfXfXfXfXfXfXfXfX[.4X4X3X2X*X*X$X(.).^.n.0.z.x.x.x.c.c.z.z.*.#.O.l q W / { ^ R - X.<.W.,X4X%X^.~.A.S.S.dXdXdXdXdXdXdXdXdXdXdXfXfXfXfXfXfX",
"fXfXfXfXfXfXfXfXfXfXfX4X7X7X3X*X*X*X$X(.(.V.0.z.7.x.x.c.c.x.z.$.J a > e Q { } { R _ | <.J.-X4X,X%X%X$X~.OXdXdXdXdXdXdXdXdXdXdXdXfXfXfXfXfXfX",
"fXfXfXfXfXfXfXfXfXfXfX7X7X3X3X3X3X*X&X(.(.~.z.6.x.z.c.c.G.G.G.z.8.@.g _ W ( { ( ) ' X.<.l.].,XyXyX9X6X2X=XdXdXdXdXdXdXdXdXdXdXdXfXfXfXfXfXfX",
"fXfXfXfXfXfXfXfXfXfXfXfX7X4X3X3X>X*X*X(.(.(.M.z.*.z.x.x.G.G.G.G.K.D.9.| _ ` ) ) ` | @.f.f.^.-XyXsXuX0X9X<X=XdXdXdXdXdXdXdXdXdXdXfXfXfXfXfXfX",
"fXfXfXfXfXfXfXfXfXfXfXfX3X3X3X3X2X*X*X&X(.(.M.n.6.6.z.x.G.G.G.Y.L.U.P.9.| | ' ..o.o.l.f.^.^.-XyXsXuXaXaXeX5X1XdXdXdXdXdXdXdXdXdXfXfXfXfXfXfX",
"fXfXfXfXfXfXfXfXfXfXfXfXdX3X3X3X2X2X*X*X(.~.C.M.6.6.z.z.G.G.Y.Y.T./.!.l.w.&.%.X.<.l.^.!.!.^.-XyXiXsXsXwXwXqX5X1XdXdXdXdXdXdXdXdXfXfXfXfXfXfX",
"fXfXfXfXfXfXfXfXdXdXdXdXdXdX6X6X6X8X3X3X*X(.~.M.1.z.1.z.z.z.Y.Y.Y.Y.L.J.s.s.9.8.a.W.^.Q.W.^.-X4XiXiXpXwXwXwXeX5X<XfXfXfXfXfXfXfXfXfXfXfXfXfX",
"fXfXfXfXfXfXfXfXdXdXdXdXdXdX8XqX8X8X8X6X3X&X~.n.z.z.z.z.z.z.G.K.L./.!.K.l.s.f.s.l.Q.^.^.W.^.-X,X7XiXwX0XwXeXeXeXeX1XfXfXfXfXfXfXfXfXfXfXfXfX",
"fXfXfXfXfXfXfXfXdXdXdXdXdXdX9X0X0X8X0X0X0X4X).m.z.U #.z.z.z.z.G.L./.L.!.K.J.J.K.!.Q.^.Q.^.^.-X-X7XuX0X0X8XqXeXeX5X1XfXfXfXfXfXfXfXfXfXfXfXfX",
"fXfXfXfXfXfXfXfXdXdXdXdXdXdXdX0X0X0X0X0XuX7X*XQ.z.U z.z.z.z.z.G.K.L.L./.!.K.L.Q.Q.Q.Q.^.W.^.^.-X4XuX0X6X=X1X+X+XOX+X+XfXfXfXfXfXfXfXfXfXfXfX",
"fXfXfXfXfXfXfXfXdXdXdXdXdXdXdXdXwXwX0X0X0X7X3X).n.2.6.1.1.z.z.z.D.K.K././.!.!.!.!.!.Q.Q.W.W.^.).>X7X7X=XN.T P K K Y @X@XfXfXfXfXfXfXfXfXfXfX",
"fXfXfXfXfXfXfXfXdXdXdXdXdXdXdXdXaXwXwXwX0X0X6X).M.2.1.1.1.6.2.n.m.G.L././.L.L.!.!.Q.Q.J.f.f.f.^.-X;X*Xk.M p p z x x Y @XfXfXfXfXfXfXfXfXfXfX",
"fXfXfXfXfXfXfXfXdXdXdXdXdXdXdXdXdXwXwX0X0X0X6X&XM.M.6.1.1.1.6.z.z.n.m.K.K.L.K.!.!.W.J.f.l.a.l.W.^.%XW.G u 3 u x x @ x T fXfXfXfXfXfXfXfXfXfX",
"fXfXfXfXfXfXfXfXdXdXdXdXdXdXdXdXdXdXwXwXwX0X6X;XA.M.z.1.1.1.4.0.z.z.n.G.J.J.J.K.J.f.9.8.<.<.g.f.W.~.g.N @ @ 8 u @ @ 8 T fXfXfXfXfXfXfXfXfXfX",
"fXfXfXfXfXfXfXfXfXfXfXfXfXfXfXfXdXdXwX0XwX0X0X3X&XC.n.1.#.1.1.0.8.0.q.q.8.8.s.s.s.s.8.=.+.#.:.8.p.f.y.N , o o o o o 8 T fXfXfXfXfXfXfXfXfXfX",
"fXfXfXfXfXfXfXfXfXfXfXfXfXfXfXfXdXdXdXwX0X0X7X6X*XA.M.2.#.#.#.1.=.#.J k j k -.-.-.2.=.+.X.+.@.:.:.g.g.L p o X X X X 8 N.fXfXfXfXfXfXfXfXfXfX",
"fXfXfXfXfXfXfXfXfXfXfXfXfXfXfXfXdXdXdXdXwX0X0X6X*X%X~.M.2.=.H H J h & # * 6 j C C >.>.A C V o.A =.p.d.i.M 3 1 o o X u @XfXfXfXfXfXfXfXfXfXfX",
"fXfXfXfXfXfXfXfXfXfXfXfXfXfXfXfXdXdXdXdXdX0X0X8X3X*X%X(.V.p.U H V t #   # * 6 a f C >.A C B B S L r.M.B.t.n u 1 + + D @XfXfXfXfXfXfXfXfXfXfX",
"fXfXfXfXfXfXfXfXfXfXfXfXfXfXfXfXdXdXdXdXdXdX9X8X6X2X*X&X$XC.d.U H h 3     # # = 9 f B A F v d v b L d.A.Z.u.M 7 @ 8 Y fXfXfXfXfXfXfXfXfXfXfX",
"fXfXfXfXfXfXfXfXfXfXfXfXfXfXfXfXdXdXdXdXdXdXdXdX2X2X6X*X&X$X(.M.U L t . o 6 $ # 6 9 d v o.S d w d B r.Z.~.Z.i.n x n T fXfXfXfXfXfXfXfXfXfXfX",
"fXfXfXfXfXfXfXfXfXfXfXfXfXfXfXfXdXdXdXdXdXdXdXdXdXdXdX*X*X$X$X$XB.M.3.t o f v 9 5 5 5 9 d d s i 9 d G k.A.OXu.n x D fXfXfXfXfXfXfXfXfXfXfXfX",
"fXfXfXfXfXfXfXfXfXfXfXfXfXfXfXfXdXdXdXdXdXdXdXdXdXdXdXdXdX$X$X$X(.(.S.U i 9 S G o.S d 9 5 < 5 9 5 9 B :.g.r.m 1 @ n fXfXfXfXfXfXfXfXfXfXfXfX",
"fXfXfXfXfXfXfXfXfXfXfXfXfXfXfXfXdXdXdXdXdXdXdXdXdXdXdXdXdXdXdXdX(.+X$XA.B.M t m >.r.S v 9 2 < < = 2 i v m s $ . @ D fXfXfXfXfXfXfXfXfXfXfXfX",
"fXfXfXfXfXfXfXfXfXfXfXfXfXfXfXfXdXdXdXdXdXdXdXdXdXdXdXdXdXdXdXdXfXfX(.=X+XB.L 4 i F F F v 9 < < < < < 4 2 , X o 8 Y fXfXfXfXfXfXfXfXfXfXfXfX",
"fXfXfXfXfXfXfXfXfXfXfXfXfXfXfXfXdXdXdXdXdXdXdXdXdXdXdXdXdXdXdXdXfXfXfXfXdX$XZ.I i i v F m 9 < < < 2 9 v i 4 2 7 x T fXfXfXfXfXfXfXfXfXfXfXfX",
"fXfXfXfXfXfXfXfXfXfXfXfXfXfXfXfXdXdXdXdXdXdXdXdXdXdXdXdXdXdXdXdXfXfXfXfXdXdXdXk.I G G D i 2 < 2 0 9 c v c x x p n j.fXfXfXfXfXfXfXfXfXfXfXfX",
"fXfXfXfXfXfXfXfXfXfXfXfXfXfXfXfXdXdXdXdXdXdXdXdXdXdXdXdXdXdXdXdXdXdXdXdXdXdXdXdXk.h.h.I c , 2 u s 9 c c c m m z D j.fXfXfXfXfXfXfXfXfXfXfXfX",
"fXfXfXfXfXfXfXfXfXfXfXfXfXfXfXfXdXdXdXdXdXdXdXdXdXdXdXdXdXdXdXdXdXdXdXdXdXdXdXdXfXOXZ.k.r.D i m m c 9 9 c x u z Y fXfXfXfXfXfXfXfXfXfXfXfXfX",
"fXfXfXfXfXfXfXfXfXfXfXfXfXfXfXfXdXdXdXdXdXdXdXdXdXdXdXdXdXdXdXdXdXdXdXdXdXdXdXdXfXfXfXZ.Z.@XT G G c u i u 7 u K j.dXfXfXfXfXfXfXfXfXfXfXfXfX",
"fXfXfXfXfXfXfXfXfXfXfXfXfXfXfXfXdXdXdXdXdXdXdXdXdXdXdXdXdXdXdXdXdXdXdXdXdXdXdXdXfXfXfXfXfXfXfXT r.Y n n n D G j.dXdXfXfXfXfXfXfXfXfXfXfXfXfX",
"fXfXfXfXfXfXfXfXfXfXfXfXfXfXfXfXfXfXfXfXfXfXfXfXfXfXfXfXfXfXfXfXfXfXfXfXfXfXfXfXfXfXfXfXfXfXfXfXfXfXfXfXfXfXfXfXfXfXfXfXfXfXfXfXfXfXfXfXfXfX",
"fXfXfXfXfXfXfXfXfXfXfXfXfXfXfXfXfXfXfXfXfXfXfXfXfXfXfXfXfXfXfXfXfXfXfXfXfXfXfXfXfXfXfXfXfXfXfXfXfXfXfXfXfXfXfXfXfXfXfXfXfXfXfXfXfXfXfXfXfXfX",
"fXfXfXfXfXfXfXfXfXfXfXfXfXfXfXfXfXfXfXfXfXfXfXfXfXfXfXfXfXfXfXfXfXfXfXfXfXfXfXfXfXfXfXfXfXfXfXfXfXfXfXfXfXfXfXfXfXfXfXfXfXfXfXfXfXfXfXfXfXfX",
"fXfXfXfXfXfXfXfXfXfXfXfXfXfXfXfXfXfXfXfXfXfXfXfXfXfXfXfXfXfXfXfXfXfXfXfXfXfXfXfXfXfXfXfXfXfXfXfXfXfXfXfXfXfXfXfXfXfXfXfXfXfXfXfXfXfXfXfXfXfX",
"fXfXfXfXfXfXfXfXfXfXfXfXfXfXfXfXfXfXfXfXfXfXfXfXfXfXfXfXfXfXfXfXfXfXfXfXfXfXfXfXfXfXfXfXfXfXfXfXfXfXfXfXfXfXfXfXfXfXfXfXfXfXfXfXfXfXfXfXfXfX",
"fXfXfXfXfXfXfXfXfXfXfXfXfXfXfXfXfXfXfXfXfXfXfXfXfXfXfXfXfXfXfXfXfXfXfXfXfXfXfXfXfXfXfXfXfXfXfXfXfXfXfXfXfXfXfXfXfXfXfXfXfXfXfXfXfXfXfXfXfXfX"
};
