/* XPM */
static char *cG91cG91cjM_[] = {
/* columns rows colors chars-per-pixel */
"70 70 223 2 ",
"   c #3A1D06",
".  c #3C200A",
"X  c #33251B",
"o  c #382619",
"O  c #2D2015",
"+  c #3D2D24",
"@  c #3E3026",
"#  c #791F0D",
"$  c #46270C",
"%  c #492A18",
"&  c #4C311B",
"*  c #55351C",
"=  c #75341A",
"-  c #732E15",
";  c #4A2D24",
":  c #442D25",
">  c #4D352B",
",  c #483428",
"<  c #5D3D26",
"1  c #52362B",
"2  c #593B2C",
"3  c #543828",
"4  c #4B3C33",
"5  c #463A33",
"6  c #543C33",
"7  c #5B3E33",
"8  c #7E3A26",
"9  c #5A422C",
"0  c #4E423A",
"q  c #554134",
"w  c #54443B",
"e  c #5C443B",
"r  c #5E4B3C",
"t  c #5B4437",
"y  c #65462C",
"u  c #78482C",
"i  c #78512D",
"p  c #604336",
"a  c #6A4D33",
"s  c #62463A",
"d  c #65493C",
"f  c #664A35",
"g  c #794933",
"h  c #6A523F",
"j  c #77553A",
"k  c #5C4A43",
"l  c #594A43",
"z  c #5C5049",
"x  c #644C43",
"c  c #684D44",
"v  c #6D5243",
"b  c #64534B",
"n  c #6B544B",
"m  c #685748",
"M  c #745944",
"N  c #7B5C45",
"B  c #72564B",
"V  c #725A4D",
"C  c #7B5D4B",
"Z  c #725545",
"A  c #695A53",
"S  c #745C53",
"D  c #765E57",
"F  c #7F6246",
"G  c #7D624D",
"H  c #76604A",
"J  c #6D6059",
"K  c #726254",
"L  c #7C6B5B",
"P  c #7A6459",
"I  c #7C6E6A",
"U  c #7A6B63",
"Y  c #7E736B",
"T  c #7E7470",
"R  c #6F6560",
"E  c #8C1706",
"W  c #991709",
"Q  c #8B1E16",
"!  c #9F1E16",
"~  c #9A0F02",
"^  c #A50D05",
"/  c #B50903",
"(  c #A7140A",
")  c #B81108",
"_  c #AE1B10",
"`  c #8A2718",
"'  c #8B2B18",
"]  c #8C2D22",
"[  c #843222",
"{  c #883728",
"}  c #883D35",
"|  c #D60905",
" . c #C30D07",
".. c #874736",
"X. c #825739",
"o. c #85462F",
"O. c #864F42",
"+. c #865444",
"@. c #8A5B45",
"#. c #855A47",
"$. c #836145",
"%. c #84654B",
"&. c #8A664E",
"*. c #82684F",
"=. c #8D6C4C",
"-. c #8D6845",
";. c #926B4B",
":. c #98724C",
">. c #846A54",
",. c #8B6C53",
"<. c #856D5A",
"1. c #8C6B5D",
"2. c #876353",
"3. c #936E55",
"4. c #8D7254",
"5. c #8D725B",
"6. c #8F785D",
"7. c #947455",
"8. c #957957",
"9. c #9D7A55",
"0. c #93745B",
"q. c #9A775A",
"w. c #95795B",
"e. c #9B7C5B",
"r. c #9A7553",
"t. c #A17E5C",
"y. c #A17C57",
"u. c #846E63",
"i. c #857265",
"p. c #8D7462",
"a. c #84736C",
"s. c #8A736B",
"d. c #8E7B6D",
"f. c #88796A",
"g. c #927662",
"h. c #947A64",
"j. c #9B7D63",
"k. c #947C6B",
"l. c #9C7E6A",
"z. c #887A72",
"x. c #937D73",
"c. c #957F7B",
"v. c #A27F61",
"b. c #9E815E",
"n. c #A4825E",
"m. c #AA855E",
"M. c #AC885F",
"N. c #B0885F",
"B. c #9C8164",
"V. c #97826E",
"C. c #9D836B",
"Z. c #958373",
"A. c #9C8672",
"S. c #9D8974",
"D. c #95857B",
"F. c #9B857B",
"G. c #9D8A7B",
"H. c #96887C",
"J. c #8F857E",
"K. c #A48462",
"L. c #AA8662",
"P. c #AC8964",
"I. c #A2856B",
"U. c #A5896C",
"Y. c #AB8C6B",
"T. c #A68865",
"R. c #B28C64",
"E. c #B38E69",
"W. c #AF906E",
"Q. c #B4916D",
"!. c #BA936C",
"~. c #A38672",
"^. c #A58A74",
"/. c #AA8C73",
"(. c #A48D7A",
"). c #A98D7A",
"_. c #AD9073",
"`. c #A5917D",
"'. c #AD927C",
"]. c #B49473",
"[. c #B99471",
"{. c #B2957B",
"}. c #B59A7D",
"|. c #BD9D7B",
" X c #BB9976",
".X c #BEA07E",
"XX c #C19A74",
"oX c #C39E7B",
"OX c #C4A17E",
"+X c #968B83",
"@X c #9D9187",
"#X c #A49382",
"$X c #AA9582",
"%X c #AC9986",
"&X c #AD9B8B",
"*X c #A2968C",
"=X c #B49A84",
"-X c #B99D85",
";X c #B29D8B",
":X c #BA9E8B",
">X c #B29481",
",X c #AB9E93",
"<X c #A59C94",
"1X c #AA978A",
"2X c #B4A18E",
"3X c #BAA28D",
"4X c #BAA084",
"5X c #ADA399",
"6X c #B4A393",
"7X c #BAA392",
"8X c #B4A69B",
"9X c #BBAA9C",
"0X c #B8A89A",
"qX c #BCADA1",
"wX c #B5ABA3",
"eX c #C2A281",
"rX c #C3A88B",
"tX c #C3AC9C",
"yX c #C4A997",
"uX c #C9B298",
"iX c #C1AEA1",
"pX c None",
"aX c black",
/* pixels */
"pXpXpXpXpXpXpXpXpXpXpXpXpXpXpXpXpXpXpXpXpXpXpXpXpXpXpXpXpXpXpXpXpXpXpXpXpXpXpXpXaXaXaXaXaXaXaXaXaXaXaXaXaXaXaXaXaXaXaXaXaXaXaXaXpXpXpXpXpXpX",
"pXpXpXpXpXpXpXpXpXpXpXpXpXpXpXpXpXpXpXpXpXpXpXpXpXpXpXpXpXpXpXpXpXpXpXpXpXpXpXpXaXaXaXaXaXaXaXaXaXaXaXaXaXaXaXaXaXaXaXaXaXaXaXaXpXpXpXpXpXpX",
"pXpXpXpXpXpXpXpXpXpXpXpXpXpXpXpXpXpXpXpXpXpXpXpXpXpXpXpXpXpXpXpXpXpXpXpXpXpXpXpXaXaXaXaXaXaXaXaXaXaXaXaXaXaXaXaXaXaXaXaXaXaXaXaXpXpXpXpXpXpX",
"pXpXpXpXpXpXpXpXpXpXpXpXpXpXpXpXpXpXpXpXpXpXpXpXpXpXpXpXpXpXpXpXpXpXpXpXpXpXpXpXaXaXaXaXaXaXaXaXaXaXaXaXaXaXaXaXaXaXaXaXaXaXaXaXpXpXpXpXpXpX",
"pXpXpXpXpXpXpXpXpXpXpXpXpXpXpXpXpXpXpXpXpXpXpXpXpXpXpXpXpXpXpXpXaXaXaXaXpXpXpXpXaXaXaXaXaXaXaXaXaXaXaXaXaXaXaXaXaXaXaXaXaXaXaXaXpXpXpXpXpXpX",
"pXpXpXpXpXpXpXpXpXpXpXpXpXpXpXpXpXpXpXpXpXpXpXpXpXpXpXpXpXpXpXpXaXaXaXh K L U i.Z.aXaXaXaXaXaXaXaXaXaXaXaXaXaXaXaXaXaXaXaXaXaXaXpXpXpXpXpXpX",
"pXpXpXpXpXpXpXpXpXpXpXpXpXpXpXpXpXpXpXpXpXpXpXpXpXpXpXpXpXpXr.3.M $ & 9 9 r m K f.aXaXaXaXaXaXaXaXaXaXaXaXaXaXaXaXaXaXaXaXaXaXaXpXpXpXpXpXpX",
"pXpXpXpXpXpXpXpXpXpXpXpXpXpXpXpXpXpXpXpXpXpXpXpXY.].|.|.Q.T.v.8.j < * 9 y 9 9 r L aXaXaXaXaXaXaXaXaXaXaXaXaXaXaXaXaXaXaXaXaXaXaXpXpXpXpXpXpX",
"aXaXaXaXaXaXaXaXpXpXpXpXpXpXpXpXpXpXpXaXaXaX_._.].oXoXoXXX!.!.v.:.F i a a a y f L aXaXaXaXaXaXaXaXaXaXaXaXaXaXaXaXaXaXaXaXaXaXaXpXpXpXpXpXpX",
"aXaXaXaXaXaXaXaXpXpXpXpXpXpXpXpXpXpX%X'.%X}.{. X XoXoXOXoXoXoX!.T.b.8.4.=.%.%.F <.V.aXaXaXaXaXaXaXaXaXaXaXaXaXaXaXaXaXaXaXaXaXaXpXpXpXpXpXpX",
"aXaXaXaXaXaXaXaXpXpXpXpXpXpXpXpXpX}.-X}..X.X.X.XeXeXeXOXoXoXXXXX!.Q.T.K.K.e.e.8.6.V.aXaXaXaXaXaXaXaXaXaXaXaXaXaXaXaXaXaXaXaXaXaXpXpXpXpXpXpX",
"aXaXaXaXaXaXaXaXpXpXpXpXpXpXpXpX4X.X}.-X.X.XOXOXeXoXoXoXoXoXXXXX[.Q.Y.P.K.m.b.b.b.B.V.Z.aXaXaXaXaXaXaXaXaXaXaXaXaXaXaXaXaXaXaXaXpXpXpXpXpXpX",
"aXaXaXaXaXaXaXaXaXaXaXaXpXpXyXrXrXeXoX|.eXeXOXOXoXoXoXXXXXXXXXXX!.Q.E.P.L.m.n.n.b.B.C.V.S.aXaXaXaXaXaXaXaXaXaXaXaXaXaXaXaXaXaXaXpXpXpXpXpXpX",
"aXaXaXaXaXaXaXaXaXaXaXaXtXuXuXuXrXeXoXeXoXoXOXOXoXoXXXXX!.XXN.XX!.Q.R.P.M.M.m.M.n.B.B.A.S.S.aXaXaXaXaXaXaXaXaXaXaXaXaXaXaXaXaXaXpXpXpXpXpXpX",
"aXaXaXaXaXaXaXaXaXaXaX9XuXuXuXrXeXeXoXoXoXeXOXOXoXXXXX!.!.R.E.E.E.E.R.R.P.N.N.N.M.T.K.C.S.S.H.aXaXaXaXaXaXaXaXaXaXaXaXaXaXaXaXaXpXpXpXpXpXpX",
"aXaXaXaXaXaXaXaXaXaX6X9X9X3X4X}.{.{.].!.oXeXOXoXoXXXXXR.R.R.E.R.R.R.P.R.R.N.R.N.M.T.T.I.V.S.S.G.aXaXaXaXaXaXaXaXaXaXaXaXaXaXaXaXpXpXpXpXpXpX",
"aXaXaXaXaXaXaXaXaX5X2X2X4X%X{._._._.j.8.L.[.oXoXXXXXXX!.R.R.E.R.R.R.N.P.N.R.N.N.P.P.T.I.I.S.S.S.aXaXaXaXpXpXpXpXpXpXpXpXpXpXpXpXpXpXpXpXpXpX",
"aXaXaXaXaXaXaXaX@X*X#X$X'._./././.h.F g $.y.E.Q.E.XX!.E.E.!.E.E.P.M.M.M.R.N.N.N.R.P.Y.Y.U.A.^.S.G.aXaXaXpXpXpXpXpXpXpXpXpXpXpXpXpXpXpXpXpXpX",
"aXaXaXaXaXaXaX@XG.G.A.S.^./.U.I.C.>.< * X.3.v.v.R.L.R.R.R.R.R.L.P.M.m.m.M.M.m.M.P.R.Y.Y.U.U.~.S.G.pXaXaXpXpXpXpXpXpXpXpXpXpXpXpXpXpXpXpXpXpX",
"aXaXaXaXaXaXaXG.Z.k.5.w.C.C.A.I.j.C % 3 #.3.y.t.t.t.L.P.R.R.L.R.R.R.P.M.m.y.n.m.P.P.P.Y.T.I.~.~.S.G.aXaXpXpXpXpXpXpXpXpXpXpXpXpXpXpXpXpXpXpX",
"pXpXpXpXaXaXH.Z.l.5.,.5.l.C.I.l.j.v % < $.q.e.t.t.L.P.L.P.K.P.P.P.R.Q.Q.n.9.9.y.n.L.L.K.K.K.C.l.C.Z.c.pXpXpXpXpXpXpXpXpXpXpXpXpXpXpXpXpXpXpX",
"pXpXpXpXaXaXZ.h.0.5.4.0.B.l.l.l.g.h ; y &.j.K.t.t.P.P.N.m.m.m.K.P.Y. X XP.n.:.r.y.y.r.-.-.3.g.0.1.1.s.aXpXpXpXpXpXpXpXpXpXpXpXpXpXpXpXpXpXpX",
"pXpXpXpXpXpXk.5.0.5.,.0.j.l.l.h.g.v < j 0.I.L.K.m.K.P.P.K.m.n.n.n.T.Q..X|.R.y.:.:.:.-.i y i O.X...g +.2.pXpXpXpXpXpXpXpXpXpXpXpXpXpXpXpXpXpX",
"pXpXpXpXpXpXh.5.,.,.3.0.h.j.h.h.1.v < N e.Y.T.K.m.L.K.L.K.m.m.n.n.M.T.Q.|.|.P.9.:.;.-.i - = [ ' Q Q } O.pXpXpXpXpXpXpXpXpXpXpXpXpXpXpXpXpXpX",
"pXpXpXpXpXpX~.0.&.&.,.,.0.0.g.g.g.Z y %.j.U.T.L.m.K.K.L.K.m.K.K.n.n.n.n.E..X.XP.9.;.-.X.= # E ^ / ^ Q } pXpXpXpXpXpXpXpXpXpXpXpXpXpXpXpXpXpX",
"pXpXpXpXpXpX'.I.,.$.%.>.<.,.5.p.g.M f ,.K.U.T.K.K.m.m.m.K.K.K.n.K.n.b.b.b.Q..X.XT.8.=.$.i ' ~ / | | ! } pXpXpXpXpXpXpXpXpXpXpXpXpXpXpXpXpXpX",
"pXpXpXpXpXpXpX{.j.%.N C G >.<.5.0.N j 5.I.L.L.K.K.K.K.K.K.T.L.L.m.b.n.b.b.b.W.].].I.4.-.X.[ ( / | | ! } pXpXpXpXpXpXpXpXpXpXpXpXpXpXpXpXpXpX",
"pXpXpXpXpXpXpX:X/.0.N M M F <.5.h.,.%.7.v.K.K.K.K.n.K.K.K.L.K.T.T.m.n.b.b.8.b.Y.]._.j.7.X.o.' ( / ^ ] O.u.pXpXpXpXpXpXpXpXpXpXpXpXpXpXpXpXpX",
"pXpXpXpXpXpXpXrX=X~.0.G Z M G 6.w.0.,.7.e.v.v.v.m.K.K.K.K.T.T.P.P.L.K.b.8.=.=.8.I._.U.w.3.@.} { [ ] 8 u.d.pXpXpXpXpXpXpXpXpXpXpXpXpXpXpXpXpX",
"pXpXpXpXpXpXpX-X=X{.).k.>.V F <.w.w.7.7.q.v.v.v.K.K.K.K.L.T.L.Y.Y.T.I.8.-.F F F 4.B._.U.v.g.2.+.+.C S a.x.pXpXpXpXpXpXpXpXpXpXpXpXpXpXpXpXpX",
"pXpXpXpXpXpXpXpX}.=X=X'.V.>.G G 5.j.q.7.q.e.t.v.t.K.v.K.v.L.I.Y.Y.Y.I.7.j u i i #.5.~.).$X).l.g.g.s.s.d.D.pXpXpXpXpXpXpXpXpXpXpXpXpXpXpXpXpX",
"pXpXpXpXpXpXpXpX{.}.-X=X`.A.5.<.5.w.0.7.r.q.t.t.t.v.K.v.K.L.L.I.T.C.K.,.o.- - = g #.g.~.>X:X$X(.(.~.F.F.H.pXpXpXpXpXpXpXpXpXpXpXpXpXpXpXpXpX",
"pXpXpXpXpXpXpXpX_.{.=X4X2X{.A.6.5.h.8.;.r.q.9.t.e.t.n.n.b.m.b.b.B.I.q.@.[ E E E ` g 2.k.).:X:X>X>X1X#X@X@XaXaXaXaXaXaXaXaXaXaXaXpXpXpXpXpXpX",
"pXpXpXpXpXpXpXpXI._.}.2X=X%X`.A.h.j.q.3.3.q.9.t.t.n.e.b.n.T.b.b.B.w.&...Q ( ) ^ E 8 +.0.~.=X:X:X:X:X:X,X1X*XaXaXaXaXaXaXaXaXaXaXpXpXpXpXpXpX",
"pXpXpXpXpXpXpXpXpXU.'.}.=X=X'.(.C.C.I.j.q.q.e.t.t.t.b.n.b.n.b.4.4.F g - W  .|  .W ] O.q.l.>X-X:XiXyXtX9X8X<X,XaXaXaXaXaXaXaXaXaXpXpXpXpXpXpX",
"pXpXpXpXpXpXpXpXpXC.`.4X;X;X=X`.^.C.^.~.I.e.e.b.n.n.M.n.n.b.b.-.F i = # W ) |  .( } @.g.l.{.>XyXyXiXiXiXqXwX5X<X<XaXaXaXaXaXaXaXpXpXpXpXpXpX",
"pXpXpXpXpXpXpXpXpXpX_.;X3X2X%X#X#XG.(.'.U.B.e.9.t.n.n.M.T.b.b.b.,.$.g { ' ( _ ! ] ..3.v.l./.{.:XyXtXiXiXiXiXwX8X5X<XaXaXaXaXaXaXpXpXpXpXpXpX",
"pXpXpXpXpXpXpXpXpXpX^.4X7X2X;X&X%X#X`.`.(.A.B.e.t.n.n.n.T.M.M.b.K.K.q.;...o.{ { } 2.v.~.)./.).:XyXyXiXiXiXiXwXwXwXwX<XaXaXaXaXaXpXpXpXpXpXpX",
"pXpXpXpXpXpXpXpXpXpX/.4X3X2X2X2X&X%X$X`.`.S.C.e.e.n.n.n.M.T.Y.T.Y.Y.Y.v.q.@.@.@.2.j.v./.).l.).>XyXyXyXtX9X8X8XwXwX<X*X@XaXaXaXaXpXpXpXpXpXpX",
"pXpXpXpXpXpXpXpXpXpXpX3X7X2X2X2X2X&X%X$X`.`.S.B.w.e.e.n.T.T.P.Y.W.W./.Y.v.q.8.r.g.v.~.).).).).>X:X:XyXiX8X,X,X1X+X+X+X+X+XaXaXaXpXpXpXpXpXpX",
"pXpXpXpXpXpXpXpXaXaXaXaX7X7X2X2X2X&X;X$X`.`.`.A.b.4.b.b.b.b.W.W.Y.W._.Y.U.j.j.j.j.I.^./.).).).).>X:X9XtX6X@XD.f.R A J U T aXaXaXpXpXpXpXpXpX",
"pXpXpXpXpXpXpXpXaXaXaXaX7X7X2X2X2X&X,X&X%X`.(.S.V.6.4.b.b.b.T.T.Y.W.W._.Y.U.v.I.I.~.^././.).~.).$X>X:X6X%XZ.K z z z w z R z.aXaXpXpXpXpXpXpX",
"pXpXpXpXpXpXpXpXaXaXaXaXaX7X2X2X2X2X,X&X&X$X`.S.V.b.L b.b.b.b.T.Y.Y.Y._.Y./.Y.U.Y.^./././.~.~.(.~.>X=X=XG.L w q 0 w 0 5 z Y aXaXpXpXpXpXpXpX",
"pXpXpXpXpXpXpXpXaXaXaXaXaXaX2X2X2X6X6X6X5X;X=X`.V.b.b.b.b.b.b.b.B.Y.Y.U._./././././.)././.c.v.v.l.).'.`.x.n > , 4 5 @ @ l T aXaXpXpXpXpXpXpX",
"pXpXpXpXpXpXpXpXaXaXaXaXaXaXaX6X0X6X8X8X0X6X3X;X^.B.b.4.8.8.b.b.b.K.T.Y.Y././././././.~.U.j.j.0.l.v.~.~.k.m , + + X X X @ T aXaXpXpXpXpXpXpX",
"pXpXpXpXpXpXpXpXaXaXaXaXaXaXaXaX9X8X9X9X0X9X9X3X'.A.B.4.4.7.7.8.b.B.B.A.U.Y.Y./.Y.I.U.I.j.0.,.4.1.g.l.x.p.K q o O X O O 5 T aXaXpXpXpXpXpXpX",
"pXpXpXpXpXpXpXpXaXaXaXaXaXaXaXaX9X9X9X9X9X9X9X7X&X(.V.b.4.4.7.8.8.b.b.B.U.Y.I.U.I.I.C.l.0.,.&.2.2.1.1.g.h.<.V 0 @ + X O l T aXaXpXpXpXpXpXpX",
"pXpXpXpXpXpXpXpXaXaXaXaXaXaXaXaXaX9XqXqXtX9X9X9X2X`.V.B.4.4.4.7.8.6.b.b.B.B.B.w.j.j.0.0.5.2.$.C %.%.2.p.f.V.i.K w 0 + + l T aXaXpXpXpXpXpXpX",
"pXpXpXpXpXpXpXpXpXpXpXpXpXpXpXpXaXaXqXqXqXqX9X9X7X%X(.A.h.5.4.4.4.6.w.w.8.8.%.$.%.,.2.,.,.2.#.C M C C 2.u.x.c.x.U n w 4 z I aXaXpXpXpXpXpXpX",
"pXpXpXpXpXpXpXpXpXpXpXpXpXpXpXpXaXaXaXqXqXqX9X9X9X2X%XS.V.w.4.*.,.4.4.=.F a < < y j M N #.D C C Z a v Z 2.k.~.+XD.s.b l A aXaXaXpXpXpXpXpXpX",
"pXpXpXpXpXpXpXpXpXpXpXpXpXpXpXpXaXaXaXaXqXqXqXqX9X6X;X`.S.h.6.>.*.*.*.F y & $ $ * < p a v B #.B Z h s d Z u.x.+XF.d.b 6 b aXaXaXpXpXpXpXpXpX",
"pXpXpXpXpXpXpXpXpXpXpXpXpXpXpXpXaXaXaXaXaXqXqXqX9X0X2X;X`.S.V.g.4.G H H y & . . $ % % < 7 d Z B v d p p d B u.x.d.S 4 : l aXaXaXpXpXpXpXpXpX",
"pXpXpXpXpXpXpXpXpXpXpXpXpXpXpXpXaXaXaXaXaXaXaX9X9X9X6X2X&X#X`.S.V.p.L H h 9 o . & ; % 3 1 7 7 d 7 7 7 7 2 7 D 2.V 6 X + l R aXaXpXpXpXpXpXpX",
"pXpXpXpXpXpXpXpXpXpXpXpXpXpXpXpXaXaXaXaXaXaXaXpX9X0X6X6X2X&X%X$XG.S.V.6.L H 9 o 1 d d d x x 7 7 2 2 1 ; ; 2 7 7 6 : o : z I aXaXpXpXpXpXpXpX",
"pXpXpXpXpXpXpXpXpXpXpXpXpXpXpXpXaXaXaXaXaXaXpXpXaXaX0X6X2X2X&X&X#X#X`.H.Z.d.L z q d B P 2.D B c 7 1 ; ; ; ; 6 e 6 1 , 4 A a.aXaXpXpXpXpXpXpX",
"pXpXpXpXpXpXpXpXpXpXpXpXpXpXpXpXaXaXaXaXaXaXpXpXaXaXaXaXpXpX&X&X&X#X#X`.`.G.S.V.<.n s c B S D S c 7 ; ; 1 1 7 c x x l l A a.aXaXpXpXpXpXpXpX",
"pXpXpXpXpXpXpXpXpXpXpXpXpXpXpXpXpXpXpXpXpXpXpXpXpXpXpXpXpXpXpXpXaXaXaXaX#X#X#X@X#Xd.P c 7 c c B n 6 ; ; 6 6 e c x x b k A I pXpXpXpXpXpXpXpX",
"pXpXpXpXpXpXpXpXpXpXpXpXpXpXpXpXpXpXpXpXpXpXpXpXpXpXpXpXpXpXpXpXaXaXaXaXaXaXpXpXaX*X+Xs.S B D S c 1 : 1 7 s e k k x l l D pXpXpXpXpXpXpXpXpX",
"pXpXpXpXpXpXpXpXpXpXpXpXpXpXpXpXpXpXpXpXpXpXpXpXpXpXpXpXpXpXpXpXaXaXaXaXpXpXpXpXaXaXaX@Xs.s.s.u.D b e k n n e 7 7 6 6 b I pXpXpXpXpXpXpXpXpX",
"pXpXpXpXpXpXpXpXpXpXpXpXpXpXpXpXpXpXpXpXpXpXpXpXpXpXpXpXpXpXpXpXaXaXaXaXpXpXpXpXaXaXaXaXpXc.c.c.c.a.U J D D b x z b A aXpXpXpXpXpXpXpXpXpXpX",
"pXpXpXpXpXpXpXpXpXpXpXpXpXpXpXpXpXpXpXpXpXpXpXpXpXpXpXpXpXpXpXpXpXpXpXpXpXpXpXpXaXaXaXaXaXaXaXaXc.+Xc.a.I u.U A pXpXpXpXpXpXpXpXpXpXpXpXpXpX",
"pXpXpXpXpXpXpXpXpXpXpXpXpXpXpXpXpXpXpXpXpXpXpXpXpXpXpXpXpXpXpXpXpXpXpXpXpXpXpXpXaXaXaXaXaXaXaXaXaXaXaXaXpXpXpXpXpXpXpXpXpXpXpXpXpXpXpXpXpXpX",
"pXpXpXpXpXpXpXpXpXpXpXpXpXpXpXpXpXpXpXpXpXpXpXpXpXpXpXpXpXpXpXpXpXpXpXpXpXpXpXpXaXaXaXaXaXaXaXaXaXaXaXaXpXpXpXpXpXpXpXpXpXpXpXpXpXpXpXpXpXpX",
"pXpXpXpXpXpXpXpXpXpXpXpXpXpXpXpXpXpXpXpXpXpXpXpXpXpXpXpXpXpXpXpXpXpXpXpXpXpXpXpXaXaXaXaXaXaXaXaXaXaXaXaXpXpXpXpXpXpXpXpXpXpXpXpXpXpXpXpXpXpX",
"pXpXpXpXpXpXpXpXpXpXpXpXpXpXpXpXpXpXpXpXpXpXpXpXpXpXpXpXpXpXpXpXpXpXpXpXpXpXpXpXpXpXpXpXpXpXpXpXpXpXpXpXpXpXpXpXpXpXpXpXpXpXpXpXpXpXpXpXpXpX",
"pXpXpXpXpXpXpXpXpXpXpXpXpXpXpXpXpXpXpXpXpXpXpXpXpXpXpXpXpXpXpXpXpXpXpXpXpXpXpXpXpXpXpXpXpXpXpXpXpXpXpXpXpXpXpXpXpXpXpXpXpXpXpXpXpXpXpXpXpXpX",
"pXpXpXpXpXpXpXpXpXpXpXpXpXpXpXpXpXpXpXpXpXpXpXpXpXpXpXpXpXpXpXpXpXpXpXpXpXpXpXpXpXpXpXpXpXpXpXpXpXpXpXpXpXpXpXpXpXpXpXpXpXpXpXpXpXpXpXpXpXpX",
"pXpXpXpXpXpXpXpXpXpXpXpXpXpXpXpXpXpXpXpXpXpXpXpXpXpXpXpXpXpXpXpXpXpXpXpXpXpXpXpXpXpXpXpXpXpXpXpXpXpXpXpXpXpXpXpXpXpXpXpXpXpXpXpXpXpXpXpXpXpX",
"pXpXpXpXpXpXpXpXpXpXpXpXpXpXpXpXpXpXpXpXpXpXpXpXpXpXpXpXpXpXpXpXpXpXpXpXpXpXpXpXpXpXpXpXpXpXpXpXpXpXpXpXpXpXpXpXpXpXpXpXpXpXpXpXpXpXpXpXpXpX",
"pXpXpXpXpXpXpXpXpXpXpXpXpXpXpXpXpXpXpXpXpXpXpXpXpXpXpXpXpXpXpXpXpXpXpXpXpXpXpXpXpXpXpXpXpXpXpXpXpXpXpXpXpXpXpXpXpXpXpXpXpXpXpXpXpXpXpXpXpXpX"
};
