/* XPM */
static char *cG91cG91cjI_[] = {
/* columns rows colors chars-per-pixel */
"70 70 220 2 ",
"   c #3D220C",
".  c #33251A",
"X  c #37271D",
"o  c #3D3026",
"O  c #3F2D20",
"+  c #492D18",
"@  c #54351C",
"#  c #44260D",
"$  c #78361D",
"%  c #782B13",
"&  c #4A2D24",
"*  c #412D23",
"=  c #43342A",
"-  c #4D332A",
";  c #483526",
":  c #52342A",
">  c #5A3C2C",
",  c #563827",
"<  c #4D3C32",
"1  c #473933",
"2  c #553D33",
"3  c #5A3E32",
"4  c #7A3B25",
"5  c #5D432B",
"6  c #4D413A",
"7  c #5D4335",
"8  c #52433B",
"9  c #5C443C",
"0  c #574539",
"q  c #65462E",
"w  c #79512F",
"e  c #6B4D34",
"r  c #624539",
"t  c #654A3D",
"y  c #664A38",
"u  c #7A4E35",
"i  c #65513C",
"p  c #72543C",
"a  c #785639",
"s  c #724727",
"d  c #5C4C43",
"f  c #584C46",
"g  c #644C44",
"h  c #694F43",
"j  c #6C5245",
"k  c #64534C",
"l  c #6C534B",
"z  c #635244",
"x  c #725444",
"c  c #745943",
"v  c #795A45",
"b  c #71564C",
"n  c #765B4A",
"m  c #7B5D4B",
"M  c #7E5346",
"N  c #695A54",
"B  c #725B54",
"V  c #785E55",
"C  c #7D614B",
"Z  c #7E6145",
"A  c #6D6258",
"S  c #766353",
"D  c #7A645E",
"F  c #7B6A5C",
"G  c #7B6756",
"H  c #746661",
"J  c #7A6E6A",
"K  c #786963",
"L  c #7F7265",
"P  c #7D726D",
"I  c #6F6460",
"U  c #8A1E0C",
"Y  c #99180B",
"T  c #A40D04",
"R  c #BA0C06",
"E  c #A61308",
"W  c #BB1209",
"Q  c #AB1C12",
"!  c #8A2918",
"~  c #96251B",
"^  c #84230E",
"/  c #8A2D24",
"(  c #952C22",
")  c #8A3627",
"_  c #8C372C",
"`  c #C80904",
"'  c #CF0C07",
"]  c #82442B",
"[  c #884636",
"{  c #85563D",
"}  c #844E42",
"|  c #845343",
" . c #895746",
".. c #855C53",
"X. c #836345",
"o. c #8B6542",
"O. c #83644B",
"+. c #8C6A4D",
"@. c #88674D",
"#. c #93694B",
"$. c #97724D",
"%. c #836552",
"&. c #856B53",
"*. c #8B6C53",
"=. c #846C5C",
"-. c #896B5A",
";. c #916C53",
":. c #946E5A",
">. c #8D7155",
",. c #8D735C",
"<. c #86705C",
"1. c #937455",
"2. c #9B7654",
"3. c #93745B",
"4. c #95795B",
"5. c #9C7C5C",
"6. c #997957",
"7. c #8F704E",
"8. c #A17D5C",
"9. c #A17C56",
"0. c #826E66",
"q. c #8C7464",
"w. c #8C746B",
"e. c #897769",
"r. c #937662",
"t. c #947B63",
"y. c #9B7D63",
"u. c #937D6B",
"i. c #9B7E69",
"p. c #8C7B74",
"a. c #887874",
"s. c #937E72",
"d. c #947D79",
"f. c #916F60",
"g. c #A27F60",
"h. c #9E815E",
"j. c #A4825E",
"k. c #AA855F",
"l. c #AD885F",
"z. c #9D8165",
"x. c #9C826B",
"c. c #99836D",
"v. c #8C827A",
"b. c #968374",
"n. c #9B8673",
"m. c #9D8974",
"M. c #9C8A7A",
"N. c #988379",
"B. c #A48462",
"V. c #AA8662",
"C. c #A68866",
"Z. c #AC8964",
"A. c #A3856B",
"S. c #A5896B",
"D. c #AB8C6B",
"F. c #B28B64",
"G. c #B38E69",
"H. c #AF906E",
"J. c #B4906C",
"K. c #BB946C",
"L. c #B79067",
"P. c #A38672",
"I. c #A58A74",
"U. c #AA8C73",
"Y. c #A38E7A",
"T. c #AA8D7A",
"R. c #A6917D",
"E. c #AC927C",
"W. c #AE9174",
"Q. c #B59573",
"!. c #BA9572",
"~. c #BA9976",
"^. c #B2957C",
"/. c #B5997D",
"(. c #BD9D7B",
"). c #B79876",
"_. c #BEA17F",
"`. c #C29B75",
"'. c #C39E7B",
"]. c #C4A07E",
"[. c #8F8581",
"{. c #998B81",
"}. c #9E938A",
"|. c #A49382",
" X c #AA9582",
".X c #AD9984",
"XX c #A49689",
"oX c #AD9B8A",
"OX c #AA998C",
"+X c #B29583",
"@X c #B59B85",
"#X c #B99D83",
"$X c #B39D8B",
"%X c #B99E8B",
"&X c #AA9E95",
"*X c #A59B93",
"=X c #B19F91",
"-X c #A08B81",
";X c #BEA284",
":X c #B5A18E",
">X c #BCA38D",
",X c #ADA29A",
"<X c #AEA195",
"1X c #B4A393",
"2X c #BBA493",
"3X c #B5A699",
"4X c #BAA799",
"5X c #BBAA9D",
"6X c #B7AA9E",
"7X c #B5AAA1",
"8X c #BCADA1",
"9X c #C2A382",
"0X c #C7AC8E",
"qX c #C1A593",
"wX c #C4AB9B",
"eX c #C4AB96",
"rX c #C8B199",
"tX c #C2AFA1",
"yX c None",
"uX c black",
/* pixels */
"yXyXyXyXyXyXyXyXyXyXyXyXyXyXyXyXyXyXyXyXyXyXyXyXyXyXyXyXyXyXyXyXyXyXyXyXyXyXyXyXuXuXuXuXuXuXuXuXuXuXuXuXuXuXuXuXuXuXuXuXuXuXuXuXyXyXyXyXyXyX",
"yXyXyXyXyXyXyXyXyXyXyXyXyXyXyXyXyXyXyXyXyXyXyXyXyXyXyXyXyXyXyXyXyXyXyXyXyXyXyXyXuXuXuXuXuXuXuXuXuXuXuXuXuXuXuXuXuXuXuXuXuXuXuXuXyXyXyXyXyXyX",
"yXyXyXyXyXyXyXyXyXyXyXyXyXyXyXyXyXyXyXyXyXyXyXyXyXyXyXyXyXyXyXyXyXyXyXyXyXyXyXyXuXuXuXuXuXuXuXuXuXuXuXuXuXuXuXuXuXuXuXuXuXuXuXuXyXyXyXyXyXyX",
"yXyXyXyXyXyXyXyXyXyXyXyXyXyXyXyXyXyXyXyXyXyXyXyXyXyXyXyXyXyXyXyXyXyXyXyXyXyXyXyXuXuXuXuXuXuXuXuXuXuXuXuXuXuXuXuXuXuXuXuXuXuXuXuXyXyXyXyXyXyX",
"yXyXyXyXyXyXyXyXyXyXyXyXyXyXyXyXyXyXyXyXyXyXyXyXyXyXyXyXyXyXyXyXuXuXuXuXyXyXyXyXuXuXuXuXuXuXuXuXuXuXuXuXuXuXuXuXuXuXuXuXuXuXuXuXyXyXyXyXyXyX",
"yXyXyXyXyXyXyXyXyXyXyXyXyXyXyXyXyXyXyXyXyXyXyXyXyXyXyXyXyXyXyXyXuXuXuXuXyXyXyXF L L v.uXuXuXuXuXuXuXuXuXuXuXuXuXuXuXuXuXuXuXuXuXyXyXyXyXyXyX",
"yXyXyXyXyXyXyXyXyXyXyXyXyXyXyXyXyXyXyXyXyXyXyXyXyXyXyXyXyX~.Q.g.h.1.Z @ + 5 i j S G L uXuXuXuXuXuXuXuXuXuXuXuXuXuXuXuXuXuXuXuXuXyXyXyXyXyXyX",
"yXyXyXyXyXyXyXyXyXyXyXyXyXyXyXyXyXyXyXyXyXyXyXyXyXH.H./.(.`.!.G.B.h.Z q @ 5 5 5 0 i L uXuXuXuXuXuXuXuXuXuXuXuXuXuXuXuXuXuXuXuXuXyXyXyXyXyXyX",
"yXyXyXyXyXyXyXyXyXyXyXyXyXyXyXyXyXyXyXyX.X^.@X/./.).`.`.'.'.`.`.!.Z.1.X.a e e q q 0 S uXuXuXuXuXuXuXuXuXuXuXuXuXuXuXuXuXuXuXuXuXyXyXyXyXyXyX",
"yXyXyXyXyXyXyXyXyXyXyXyXyXyXyXyXyXyX;X/./.;X/.(.(.'.'.].].].'.'.].K.Z.5.:.+.X.Z a Z G uXuXuXuXuXuXuXuXuXuXuXuXuXuXuXuXuXuXuXuXuXyXyXyXyXyXyX",
"yXyXyXyXyXyXyXyXyXyXyXyXyXyXyXyXyX;X;X(._._._._.9X].].].].].'.'.'.`.!.D.A.g.5.2.7.&.,.c.uXuXuXuXuXuXuXuXuXuXuXuXuXuXuXuXuXuXuXuXyXyXyXyXyXyX",
"yXyXyXyXyXyXyXyXyXyXyXyXyXyXyXrX0X0X0X9X_._._.9X].].].].'.'.`.`.`.`.!.G.F.V.B.k.h.h.,.c.uXuXuXuXuXuXuXuXuXuXuXuXuXuXuXuXuXuXuXuXyXyXyXyXyXyX",
"yXyXyXyXyXyXyXyXyXyXyXyXyX5XrXrXrX0X9X9X'.'.9X9X].].'.'.`.L.L.`.`.K.K.G.G.Z.k.k.h.h.z.c.c.c.uXuXuXuXuXuXuXuXuXuXuXuXuXuXuXuXuXuXyXyXyXyXyXyX",
"yXyXyXyXyXyXyXyXyXyXyX<X3X5XeXeXqX9X_.(./.(.'.'.].].'.`.`.`.L.L.K.L.G.G.G.F.k.k.k.k.h.z.c.c.m.uXuXuXuXuXuXuXuXuXuXuXuXuXuXuXuXuXyXyXyXyXyXyX",
"yXyXyXyXyXyXyXyXyXyX*XoX1X:X:X/.^.^.^.Q.G.Q.(.9X'.'.`.`.L.L.L.L.F.L.G.G.F.Z.Z.l.l.l.k.C.C.c.m.uXuXuXuXuXuXuXuXuXuXuXuXuXuXuXuXuXyXyXyXyXyXyX",
"yXyXyXyXyXyXyXyXyX}.XXXX.X.X^.E.W.U.U.g.:.r.G.`.'.'.`.`.`.L.F.G.F.F.F.F.F.Z.F.F.l.l.l.h.C.c.m.m.uXuXuXuXuXuXuXuXuXuXuXuXuXuXuXuXyXyXyXyXyXyX",
"yXyXyXyXyXyXyXyXyX{.M.m.m.Y.I.U.I.A.i.%.p a 2.Z.!.!.!.!.K.G.G.F.F.F.F.Z.l.l.l.F.F.l.l.V.C.x.m.m.M.uXuXuXyXyXyXyXyXyXyXyXyXyXyXyXyXyXyXyXyXyX",
"yXyXyXyXyXyXyXyXM.m.b.r.4.x.A.P.A.x.3.t @ u +.5.V.F.F.F.G.G.G.G.F.F.l.l.l.l.F.l.F.F.Z.D.D.S.x.m.m.M.uXuXyXyXyXyXyXyXyXyXyXyXyXyXyXyXyXyXyXyX",
"yXyXyXyXyXyXyXN.b.u.r.>.,.t.x.A.x.i.%.> @ a ;.6.9.8.k.Z.F.F.F.G.D.Z.Z.l.l.l.l.k.l.F.Z.D.C.D.S.m.m.Y.uXuXyXyXyXyXyXyXyXyXyXyXyXyXyXyXyXyXyXyX",
"yXyXyXyXyXyXyXb.u.r.,.>.1.z.z.x.x.i.n , , v :.8.8.8.k.V.V.F.V.V.Z.F.F.Z.l.k.k.j.k.l.Z.D.D.S.S.m.m.m.Y.uXyXyXyXyXyXyXyXyXyXyXyXyXyXyXyXyXyXyX",
"yXyXyXyXyXyXyXu.r.,.,.*.3.y.i.i.u.r.n , q  .4.B.h.k.B.V.V.k.V.V.Z.V.F.J.F.k.j.9.9.k.Z.Z.Z.S.S.A.m.m.m.yXyXyXyXyXyXyXyXyXyXyXyXyXyXyXyXyXyXyX",
"yXyXyXyXyXyXyXi.:.*.*.:.3.t.y.t.r.,.x 5 p :.B.C.B.k.k.V.V.V.k.j.k.V.D.).!.D.j.$.2.9.8.8.8.5.z.z.x.c.b.N.yXyXyXyXyXyXyXyXyXyXyXyXyXyXyXyXyXyX",
"yXyXyXyXyXyXyXA.r.@.@.*.*.3.t.t.r.f.c q  .y.A.C.B.k.V.V.V.V.B.k.j.k.V.K.(.).V.9.$.$.9.$.o.o.+.1.3.f.f.w.yXyXyXyXyXyXyXyXyXyXyXyXyXyXyXyXyXyX",
"yXyXyXyXyXyXyXE.g.*.O.O.*.,.,.3.r.,.j e &.i.Z.C.k.B.k.k.B.k.j.k.j.j.j.D.K.(.!.l.9.$.#.o.w s u {  .} | ..yXyXyXyXyXyXyXyXyXyXyXyXyXyXyXyXyXyX",
"yXyXyXyXyXyXyX#XT.3.O.m C %.&.,.q.,.p p :.B.S.C.V.B.k.k.B.k.k.j.B.j.h.j.l.)._.J.j.$.#.o.w $ % ) / / / [ | yXyXyXyXyXyXyXyXyXyXyXyXyXyXyXyXyX",
"yXyXyXyXyXyXyXyX#XP.*.m c C C <.,.,.C O.3.A.C.B.j.B.k.B.V.B.B.B.B.j.j.j.h.k.Q._.J.j.7.o.w s % Y T T Y / [ yXyXyXyXyXyXyXyXyXyXyXyXyXyXyXyXyX",
"yXyXyXyXyXyXyXyX#X^.x.-.C j C &.,.4.*.+.4.B.B.g.k.B.B.j.B.B.B.V.C.j.j.h.h.h.Z._./.D.6.+.{ w U T R ` W ( _ uXyXyXyXyXyXyXyXyXyXyXyXyXyXyXyXyX",
"yXyXyXyXyXyXyXyX#X^.E.c.F C C &.,.4.>.1.3.g.g.g.B.B.B.B.B.B.C.C.Z.k.C.h.h.6.h.C.W.W.B.1.o.[ ! E ` ' ` ( } uXyXyXyXyXyXyXyXyXyXyXyXyXyXyXyXyX",
"yXyXyXyXyXyXyXyX/./.@XE.n.<.C C >.4.4.:.2.5.g.g.B.g.g.B.V.V.C.V.Z.C.C.B.6.4.7.h.B.U.D.5.#.{ ) ~ R W Q _  .yXyXyXyXyXyXyXyXyXyXyXyXyXyXyXyXyX",
"yXyXyXyXyXyXyXyX^./.@X@X Xc.<.-.-.4.4.2.2.5.8.g.g.g.B.B.B.A.A.Z.Z.S.C.y.7.o.X.Z 3.B.I.S.5.;.| _ / / _ } -.yXyXyXyXyXyXyXyXyXyXyXyXyXyXyXyXyX",
"yXyXyXyXyXyXyXyXyX^./.%X@XR.x.,.<.4.4.1.:.2.5.5.8.g.g.g.B.V.A.Z.S.S.A.5.+.w w a X.3.A.U.P.i.f...| } M ..w.yXyXyXyXyXyXyXyXyXyXyXyXyXyXyXyXyX",
"yXyXyXyXyXyXyXyXyXU.^.#X%X.XR.x.4.t.3.1.;.2.8.g.5.g.g.B.g.V.B.B.S.S.g.2.{ s $ s u O.t.I. XE.P.r.r.q.0.w.p.yXyXyXyXyXyXyXyXyXyXyXyXyXyXyXyXyX",
"yXyXyXyXyXyXyXyXyXA.E.@X:X:XE.I.x.y.y.2.1.6.6.8.j.h.h.j.j.j.h.h.B.y.4.#._ ! ^ ^ / u *.x.R.%X+Xd.P.d.P.d.N.yXyXyXyXyXyXyXyXyXyXyXyXyXyXyXyXyX",
"yXyXyXyXyXyXyXyXyXx.W././..XoXR.m.c.A.z.5.6.8.6.2.j.j.h.h.h.h.h.y.4.#.[ ! Y T Y ^ 4  .r.I.%X%X+X+X X|.Y.{.yXyXyXyXyXyXyXyXyXyXyXyXyXyXyXyXyX",
"yXyXyXyXyXyXyXyXyXyXW.:X:X:X.X XY.m.P.I.A.5.6.h.j.j.j.j.j.h.h.7.7.X.u 4 Y W ' W Y /  .:.P.+X%X%X%X%X=XOXXXXXyXyXyXyXyXyXyXyXyXyXyXyXyXyXyXyX",
"yXyXyXyXyXyXyXyXyXyXU./.:X:XoXoX|.Y.R.T.P.i.h.6.j.j.h.k.l.h.h.7.X.e 4 % Y W ' ` E _  .:.g. X#XqXwXwX4X3X<X*XyXyXyXyXyXyXyXyXyXyXyXyXyXyXyXyX",
"yXyXyXyXyXyXyXyXyXyXE.;X>X:X=XoXoX X|.R.R.c.h.h.h.j.j.k.C.h.h.h.1.@.[ ) ! Q W Q ( [ :.g.i.U.+XqXwXwXwXtX6X=X&X*XyXyXyXyXyXyXyXyXyXyXyXyXyXyX",
"yXyXyXyXyXyXyXyXyXyXyX:X2X>X:XoXoXoX.XR.R.m.c.h.2.j.j.k.C.l.l.C.B.y.2. .[ ) ( ) _  .:.i.U.U.^.%XwXtXtXtX8X7X7X&X,XyXyXyXyXyXyXyXyXyXyXyXyXyX",
"yXyXyXyXyXyXyXyXyXyXyX>X2X:X:X:X$XoX.X XR.Y.c.h.6.h.j.j.C.C.l.C.D.D.P.g.#.{ { {  .f.i.i.U.T.+X%XqXwXwXtXtX8X7X7X,X,XyXyXyXyXyXyXyXyXyXyXyXyX",
"yXyXyXyXyXyXyXyXyXyXyXyX1X:X:XoX:XoXoX.XR.R.m.z.4.6.h.h.l.C.H.H.D.J.J.g.g.:.;.#.f.g.^.E.i.U.E.@XqXeXwXtX8X7X8X7X7X,X*XyXyXyXyXyXyXyXyXyXyXyX",
"yXyXyXyXyXyXyXyXyXyXyXyXyX1X:X:XoX:XoXoX|.R.Y.c.<.h.h.h.h.C.H.H.H.H.D.S.B.y.y.r.i.A.I.I.T.P.T.+X%X4XwXwX3X3X,X,X&X*X}.uXuXuXuXuXyXyXyXyXyXyX",
"yXyXyXyXyXyXyXyXyXyXyXyXyX:X:X:X:X<X=X=XoX|.R.m.h.h.F h.h.h.C.C.H.H.U.U.A.A.i.B.B.P.I.T.T.T.T.+X%X2XwX4X1XOX}.v.v.a.v.[.uXuXuXuXyXyXyXyXyXyX",
"yXyXyXyXyXyXyXyXyXyXyXyXyXyX1X1X1X1X3X1X=X.XE.I.h.L >.h.h.h.h.l.S.D.H.U.D.S.S.S.A.U.U.U.T.P.T.T.+X%X2X=X|.p.L F A A A P v.uXuXuXyXyXyXyXyXyX",
"yXyXyXyXyXyXyXyXyXyXyXyXyXyXyX4X3X3X3X3X4X:X:XR.c.h.h.>.h.h.h.h.C.D.D.D.U.U.U.D.U.U.T.I.P.P.P.P. X+X$XOXb.S z 0 f 8 f N J uXuXuXyXyXyXyXyXyX",
"yXyXyXyXyXyXyXyXyXyXyXyXyXyXyX4X5X5X5X5X4X5X>X/.m.h.h.h.7.h.h.h.z.x.D.D.H.U.U.U.U.U.I.P.P.g.i.A.P. X X-XF 9 6 6 6 6 o f I uXuXuXyXyXyXyXyXyX",
"yXyXyXyXyXyXyXyXyXyXyXyXyXyXyXyX5X5X5X5X5X5X4XoXR.c.>.>.h.>.7.h.h.C.x.S.U.U.I.S.S.U.P.A.i.t.r.y.g.P.P.s.C 8 ; = o o o f I uXuXuXyXyXyXyXyXyX",
"yXyXyXyXyXyXyXyXyXyXyXyXyXyXyXyXyX8X8X8X5X5X4X:XR.m.h.7.&.7.h.>.h.h.z.z.C.D.S.S.A.A.A.y.3.:.,.:.r.i.i.w.S 8 o . X X . 1 H uXuXuXyXyXyXyXyXyX",
"yXyXyXyXyXyXyXyXyXyXyXyXyXyXyXyXyXyX8X8X8X8X5X2X.Xm.c.L h.>.>.1.4.h.h.z.z.z.z.z.g.i.t.3.*.@.O.*.*.f.r.u.=.z = X . . . 1 J [.uXuXyXyXyXyXyXyX",
"yXyXyXyXyXyXyXyXyXyXyXyXyXyXyXyXuXuX8X8X8X8X5X2X$XR.m.c.4.>.>.>.1.4.4.4.3.>.+.>.3.,.3.*.&. .m ..%.-.,.w.w.F g < o X X f J [.yXyXyXyXyXyXyXyX",
"yXyXyXyXyXyXyXyXyXyXyXyXyXyXyXyXuXuXuX8X8X8X5X4X1X.XY.c.t.&.&.&.>.7.&.Z a e e a Z O.@.%.G m v M M %.-.q.s.u.F k 8 = o f J yXyXyXyXyXyXyXyXyX",
"yXyXyXyXyXyXyXyXyXyXyXyXyXyXyXyXuXuXuXuX8X8X8X5X3X$XR.Y.c.3.&.&.C C c e @ + @ > e p M v C m b x x x n q.s.N.s.0.N 0 8 k J yXyXyXyXyXyXyXyXyX",
"yXyXyXyXyXyXyXyXyXyXyXyXyXyXyXyXuXuXuXuXuX8X5X5X3X1XoXR.M.m.t.&.G C p 5 +   # + @ > y h x m M M y y h S w.m.M.b.0.k d N yXyXyXyXyXyXyXyXyXyX",
"yXyXyXyXyXyXyXyXyXyXyXyXyXyXyXyXuXuXuXuXuXuX8X8X5X1X$X.X.X|.m.b.h.G c i ;   # + + + > 3 x x x h t r y x 0.w.N.d.K d f k yXyXyXyXyXyXyXyXyXyX",
"yXyXyXyXyXyXyXyXyXyXyXyXyXyXyXyXuXuXuXuXuXuXuXuX5X1X=X=XoXoX|.R.b.c.L S i ; + 2 2 > 3 3 3 3 3 t 3 3 3 3 b f.w.K g = 1 f yXyXyXyXyXyXyXyXyXyX",
"yXyXyXyXyXyXyXyXyXyXyXyXyXyXyXyXuXuXuXuXuXuXuXuXuXuX1X:X=XoXoX|.}.M.c.c.F z 2 r h x b j h 3 3 : > : : , 3 b b g - . 1 k yXyXyXyXyXyXyXyXyXyX",
"yXyXyXyXyXyXyXyXyXyXyXyXyXyXyXyXuXuXuXuXuXuXuXuXuXuXuXuXyXoXoX|.R.R.M.m.n.e.S h h b V V B h g 3 : & & & : 3 3 - * * 8 N a.yXyXyXyXyXyXyXyXyX",
"yXyXyXyXyXyXyXyXyXyXyXyXyXyXyXyXuXuXuXuXuXuXuXuXuXuXuXuXuXuXuXuXuXuX|.R.}.R.b.e.B h j b B b l 9 - & & - 2 7 9 2 2 < f H a.uXuXuXyXyXyXyXyXyX",
"yXyXyXyXyXyXyXyXyXyXyXyXyXyXyXyXuXuXuXuXuXuXuXuXuXuXuXuXuXuXuXuXuXuXuXuXuX|.}.M.w.D h h l b l 9 - & - 2 7 h h g g d k K uXuXuXuXyXyXyXyXyXyX",
"yXyXyXyXyXyXyXyXyXyXyXyXyXyXyXyXuXuXuXuXuXuXuXuXuXuXuXuXuXuXuXuXuXuXuXuXuXuXuXuX-Xd.0.V V V k 2 & - 2 9 9 9 g k g g k K uXuXuXuXyXyXyXyXyXyX",
"yXyXyXyXyXyXyXyXyXyXyXyXyXyXyXyXuXuXuXuXuXuXuXuXuXuXuXuXuXuXuXuXuXuXuXuXuXuXuXuXuXuXw.a.w.w.D l 9 3 g g 9 9 9 9 2 f N J uXuXuXuXyXyXyXyXyXyX",
"yXyXyXyXyXyXyXyXyXyXyXyXyXyXyXyXuXuXuXuXuXuXuXuXuXuXuXuXuXuXuXuXuXuXuXuXuXuXuXuXuXuXuXuXd.d.a.w.D B B N g 9 9 9 d k K uXuXuXuXuXyXyXyXyXyXyX",
"yXyXyXyXyXyXyXyXyXyXyXyXyXyXyXyXuXuXuXuXuXuXuXuXuXuXuXuXuXuXuXuXuXuXuXuXuXuXuXuXuXuXuXuXuXuXd.[.a.0.H D B k k k N yXyXuXuXuXuXuXyXyXyXyXyXyX",
"yXyXyXyXyXyXyXyXyXyXyXyXyXyXyXyXuXuXuXuXuXuXuXuXuXuXuXuXuXuXuXuXuXuXuXuXuXuXuXuXuXuXuXuXuXuXuXuXuXuXuXuXyXyXyXyXyXyXuXuXuXuXuXuXyXyXyXyXyXyX",
"yXyXyXyXyXyXyXyXyXyXyXyXyXyXyXyXuXuXuXuXuXuXuXuXuXuXuXuXuXuXuXuXuXuXuXuXuXuXuXuXuXuXuXuXuXuXuXuXuXuXuXuXyXyXyXyXyXyXuXuXuXuXuXuXyXyXyXyXyXyX",
"yXyXyXyXyXyXyXyXyXyXyXyXyXyXyXyXyXyXyXyXyXyXyXyXyXyXyXyXyXyXyXyXyXyXyXyXyXyXyXyXyXyXyXyXyXyXyXyXyXyXyXyXyXyXyXyXyXyXyXyXyXyXyXyXyXyXyXyXyXyX",
"yXyXyXyXyXyXyXyXyXyXyXyXyXyXyXyXyXyXyXyXyXyXyXyXyXyXyXyXyXyXyXyXyXyXyXyXyXyXyXyXyXyXyXyXyXyXyXyXyXyXyXyXyXyXyXyXyXyXyXyXyXyXyXyXyXyXyXyXyXyX",
"yXyXyXyXyXyXyXyXyXyXyXyXyXyXyXyXyXyXyXyXyXyXyXyXyXyXyXyXyXyXyXyXyXyXyXyXyXyXyXyXyXyXyXyXyXyXyXyXyXyXyXyXyXyXyXyXyXyXyXyXyXyXyXyXyXyXyXyXyXyX",
"yXyXyXyXyXyXyXyXyXyXyXyXyXyXyXyXyXyXyXyXyXyXyXyXyXyXyXyXyXyXyXyXyXyXyXyXyXyXyXyXyXyXyXyXyXyXyXyXyXyXyXyXyXyXyXyXyXyXyXyXyXyXyXyXyXyXyXyXyXyX",
"yXyXyXyXyXyXyXyXyXyXyXyXyXyXyXyXyXyXyXyXyXyXyXyXyXyXyXyXyXyXyXyXyXyXyXyXyXyXyXyXyXyXyXyXyXyXyXyXyXyXyXyXyXyXyXyXyXyXyXyXyXyXyXyXyXyXyXyXyXyX",
"yXyXyXyXyXyXyXyXyXyXyXyXyXyXyXyXyXyXyXyXyXyXyXyXyXyXyXyXyXyXyXyXyXyXyXyXyXyXyXyXyXyXyXyXyXyXyXyXyXyXyXyXyXyXyXyXyXyXyXyXyXyXyXyXyXyXyXyXyXyX"
};
