/* XPM */
static char *_a1bbdf9931d47e589342260808320efCpTV8xCquVFy6ohw[] = {
/* columns rows colors chars-per-pixel */
"70 70 221 2 ",
"   c None",
".  c #3D220C",
"X  c #33251A",
"o  c #37271D",
"O  c #3D3026",
"+  c #3F2D20",
"@  c #492D18",
"#  c #54351C",
"$  c #44260D",
"%  c #78361D",
"&  c #782B13",
"*  c #4A2D24",
"=  c #412D23",
"-  c #43342A",
";  c #4D332A",
":  c #483526",
">  c #52352A",
",  c #563A2D",
"<  c #5A3C2C",
"1  c #573823",
"2  c #4D3C32",
"3  c #473933",
"4  c #553D33",
"5  c #5A3E32",
"6  c #7A3B25",
"7  c #5D432B",
"8  c #4D413A",
"9  c #5D4335",
"0  c #52433B",
"q  c #5C443C",
"w  c #574539",
"e  c #65462E",
"r  c #79512F",
"t  c #6B4D34",
"y  c #624539",
"u  c #654A3D",
"i  c #664A38",
"p  c #7A4E35",
"a  c #65513C",
"s  c #72543C",
"d  c #785639",
"f  c #724727",
"g  c #5C4C43",
"h  c #584C46",
"j  c #644C44",
"k  c #694F43",
"l  c #6C5246",
"z  c #64534C",
"x  c #6C534B",
"c  c #645244",
"v  c #725444",
"b  c #745943",
"n  c #795A45",
"m  c #71564C",
"M  c #765B4A",
"N  c #7B5D4B",
"B  c #7E5346",
"V  c #695A54",
"C  c #725B54",
"Z  c #785E55",
"A  c #7D614B",
"S  c #7E6145",
"D  c #6D6258",
"F  c #766353",
"G  c #7A645E",
"H  c #7B6A5C",
"J  c #7B6756",
"K  c #746661",
"L  c #7A6E6A",
"P  c #786963",
"I  c #7F7265",
"U  c #7D726D",
"Y  c #6F6460",
"T  c #8A1E0C",
"R  c #99180B",
"E  c #A40D04",
"W  c #BA0C06",
"Q  c #A61308",
"!  c #BB1209",
"~  c #AB1C13",
"^  c #8A2918",
"/  c #96251B",
"(  c #84230E",
")  c #8A2D24",
"_  c #952C22",
"`  c #8A3627",
"'  c #8C372C",
"]  c #C80904",
"[  c #D60A05",
"{  c #C1100B",
"}  c #82442B",
"|  c #884636",
" . c #85563D",
".. c #844E42",
"X. c #845343",
"o. c #895746",
"O. c #855C53",
"+. c #836345",
"@. c #8B6542",
"#. c #83644B",
"$. c #8C6A4D",
"%. c #88674D",
"&. c #93694B",
"*. c #97724D",
"=. c #836552",
"-. c #856B53",
";. c #8B6C53",
":. c #846C5D",
">. c #896B5A",
",. c #916C53",
"<. c #956E5A",
"1. c #8D7155",
"2. c #8D735C",
"3. c #86705C",
"4. c #937455",
"5. c #9B7654",
"6. c #93745B",
"7. c #95795B",
"8. c #9C7C5C",
"9. c #997957",
"0. c #8F704E",
"q. c #A17D5C",
"w. c #A17C56",
"e. c #826E66",
"r. c #8C7464",
"t. c #8C746B",
"y. c #897769",
"u. c #937662",
"i. c #947B63",
"p. c #9B7D63",
"a. c #937D6B",
"s. c #9B7E69",
"d. c #8C7B74",
"f. c #887874",
"g. c #937E72",
"h. c #947D79",
"j. c #916F60",
"k. c #A27F60",
"l. c #9E815E",
"z. c #A4825E",
"x. c #AA855F",
"c. c #AD885F",
"v. c #9D8165",
"b. c #9C826B",
"n. c #99836D",
"m. c #8C827B",
"M. c #968374",
"N. c #9B8673",
"B. c #9D8974",
"V. c #9D8B7A",
"C. c #988379",
"Z. c #A48462",
"A. c #AA8662",
"S. c #A68866",
"D. c #AC8964",
"F. c #A3856B",
"G. c #A5896B",
"H. c #AB8C6B",
"J. c #B28B64",
"K. c #B38E69",
"L. c #AF906E",
"P. c #B4906C",
"I. c #BB946C",
"U. c #B79067",
"Y. c #A38672",
"T. c #A58A74",
"R. c #AA8C73",
"E. c #A38E7A",
"W. c #AA8D7A",
"Q. c #A6917D",
"!. c #AC927C",
"~. c #AE9174",
"^. c #B59573",
"/. c #BA9572",
"(. c #BA9976",
"). c #B2957C",
"_. c #B5997D",
"`. c #BD9D7B",
"'. c #B79876",
"]. c #BEA17F",
"[. c #C29B75",
"{. c #C39E7B",
"}. c #C4A07E",
"|. c #8F8581",
" X c #998B81",
".X c #9E938A",
"XX c #A49382",
"oX c #AA9582",
"OX c #AD9985",
"+X c #A49689",
"@X c #AD9B8A",
"#X c #AA998C",
"$X c #B29583",
"%X c #B59B85",
"&X c #B99D83",
"*X c #B39E8B",
"=X c #B99E8B",
"-X c #AA9E95",
";X c #A59B93",
":X c #B19F91",
">X c #A08B81",
",X c #BEA284",
"<X c #B5A18E",
"1X c #BCA38D",
"2X c #ADA29A",
"3X c #AEA195",
"4X c #B4A393",
"5X c #BBA493",
"6X c #B5A699",
"7X c #BAA799",
"8X c #BBAA9D",
"9X c #B7AA9E",
"0X c #B5AAA1",
"qX c #BCADA1",
"wX c #C2A382",
"eX c #C7AC8E",
"rX c #C1A593",
"tX c #C4AB9B",
"yX c #C4AB96",
"uX c #C8B199",
"iX c #C2AFA1",
/* pixels */
"                                                                                                                                            ",
"                                                                                                                                            ",
"                                                                                                                                            ",
"                                                                                                                                            ",
"                                                                                                                                            ",
"                                                      m.I I H                                                                               ",
"                                                      I J F a a 7 @ # S 4.9.S.P.(.                                                          ",
"                                                      H c w 7 7 7 # e +.8.D.L.(.{.(.'.~.~.                                                  ",
"                                                      F a 7 t t s d S *.A./.[.[.{.{.{.(.).'.).).OX).                                        ",
"                                                      J s s S o.$.0.l.D.[.{.[.{.{.wXwXwX{.`.&X`.].&X_.].                                    ",
"                                                    I 3.1.0.9.8.k.S.H./.[.{.}.{.}.{.{.{.{.wX{.&X].].].,X,X                                  ",
"                                                    n.l.l.l.z.Z.S.D.P./.[.[.[.[.{.{.{.wXwX{.wXwX].].}.eXeXuXuX                              ",
"                                                B.n.n.l.q.x.x.A.J.K.K./.I.[.[.I.[.[.[.[.[.{.wX{.].].}.wXeXuXuXuX8X                          ",
"                                              B.n.n.v.l.c.w.x.c.A.J.K.K.U.U.U.U.U.[.[.[.}.}.{.wX`.(.`.,X,X1XeX8X8X6X3X                      ",
"                                              B.n.G.S.c.c.c.c.c.J.J.J.K.K.U.U.U.U.[.[.[.{.{.}.{.^.K.^.~._._._.<X1X4X-X#X                    ",
"                                            B.B.B.v.v.c.c.c.J.c.J.J.D.K.J.J.J.U.U.[.[.[.{.{.[.K.8.6.v.R.~.~.!.!.OXOX+X+X.X                  ",
"                                          V.B.B.B.S.S.D.c.J.J.J.J.c.D.J.J.K.K.K.J.[.U.[././.A.5.d s #.s.Y.Y.R.R.E.T.B.V. X                  ",
"                                        V.B.B.B.G.G.D.D.J.c.J.J.c.c.c.D.J.J.J.K.U.J.J.[.D.k.q.$.p 1 a 2.F.Y.F.F.n.i.r.n.V.V.                ",
"                                        B.B.B.S.G.D.L.D.c.c.c.c.x.x.c.D.D.K.J.J.J.J.k.k.q.q.5.,.d # < =.s.s.b.F.i.2.1.7.n.M.C.              ",
"                                      V.T.B.B.G.G.H.D.D.J.x.w.x.x.c.A.K.J.A.A.J.J.k.J.k.q.q.q.<.B 1 > N a.k.s.b.p.4.1.2.r.i.M.              ",
"                                      B.B.b.F.G.S.D.D.c.x.z.5.z.x.J.P.J.D.A.A.Z.A.A.A.c.q.q.Z.p.#.e 1 M u.a.s.s.p.6.2.<.2.6.a.              ",
"                                    C.C.n.b.b.v.l.z.z.z.w.5.5.z.H.'.'.D.Z.x.x.x.k.J.A.A.x.x.S.k.6.s < M r.i.i.p.i.6.,.;.;.6.s.              ",
"                                    t.j.j.<.6.,.@.@.*.*.*.*.9.D.^.].^.D.Z.z.x.A.Z.A.A.A.Z.Z.S.S.p.o.7 v 2.u.u.u.6.1.,.%.;.6.F.              ",
"                                    O.X...o. .p f } @.*.*.5.x./.].'.D.x.x.z.z.q.x.x.A.x.Z.S.D.S.k.-.t v 2.u.r.<.<.-.#.#.;.s.!.              ",
"                                  ..| ) ^ ) ) & % r @.@.5.z.^.`.P.D.z.z.z.z.z.z.Z.A.x.Z.x.Z.S.S.Z.6.s b 3.u.1.3.=.A S #.6.W.&X              ",
"                                  | ) R E E R & % d @.0.8.^.`.'.c.l.l.l.z.z.x.c.Z.Z.Z.x.z.Z.Z.S.F.7.S S 2.2.-.A N b N -.Y.%X                ",
"                                  ' _ W ] W E ^ r  .0.9.G.'.'.D.l.l.z.z.z.c.S.c.Z.Z.Z.Z.Z.x.Z.Z.v.9.$.1.7.2.-.A v M -.b.).&X                ",
"                                  | _ { [ ] E ^ | @.0.Z.~.^.G.8.9.l.z.z.c.S.S.v.A.Z.Z.k.Z.Z.Z.k.q.6.1.6.7.2.J A A 3.N.!._.&X                ",
"                                  O.' ~ ! Q / `  .&.8.G.R.F.9.4.9.8.k.S.S.S.D.S.A.Z.k.A.k.k.k.k.8.5.6.6.7.3.A A >.N.!.&X$X_.                ",
"                                  >...) _ ' ' o.,.7.G.R.v.1.%.+.%.4.p.S.G.H.D.S.F.A.F.k.k.k.k.q.8.4.6.8.7.;.-.2.N.XX%X&X_.^.                ",
"                                  t.G B ..X.O.<.v.Y.R.F.7.+.d r d $.7.S.G.G.S.S.A.k.k.k.k.k.q.8.8.4.<.9.6.2.2.N.!.@X%X&X).                  ",
"                                  h.t.r.j.r.u.Y.!.!.T.i.%.p f % 6  .6.Z.S.S.S.Z.A.k.k.k.q.q.q.q.5.,.,.9.7.i.n.R.@X%X%X_.R.                  ",
"                                  C.C.h.h.h.s.$X%XoXs.-. .% ( ( ( } &.9.p.Z.Z.Z.z.z.l.l.z.9.q.8.5.<.9.p.p.v.B.!.%X%X%X!.G.                  ",
"                                  >X>X>X$X$X$X=X%XT.8.o.6 T Q Q R )  .$.9.p.p.p.z.z.z.z.z.z.q.8.8.8.p.F.n.B.Q.@XOX<X%XW.b.                  ",
"                                +X+X#X=X=X=X=X=X$Xs.6.X.) R ! [ ! R % p +.1.4.8.l.z.l.z.z.z.9.8.7.F.T.T.B.Q.oXOX<X<X_.W.                    ",
"                                ;X2X7XrXtXtXrX=X).Y.4.o.` R { [ ! R & % t +.*.9.z.z.z.x.z.w.w.8.v.T.E.W.Q.XXOX@X<X<X,XR.                    ",
"                            ;X2X6X9X8XtXtXtXrX$XW.R.k.O.| / ~ { Q / 6  .%.1.9.z.z.z.c.z.l.l.l.l.b.Q.Q.XXoX@X@X<X<X1X1X!.                    ",
"                          2X2X6X9XqXiXiXtXtXrX/.R.s.s.<.o.| ' _ _ | o.4.z.Z.Z.x.S.S.l.S.l.l.l.n.T.Q.XXOX@X@X@X:X<X1X1X                      ",
"                        2X2X9X0XqXqXiXiXtXrX=X$XW.s.W.k.<.o...|  .&.8.S.H.L.H.D.c.S.l.l.l.l.l.n.E.Q.XXOX@X@X<X<X<X5X1X                      ",
"                      ;X2X0X0X0XqXqXqXtXrXrX&X).W.W.W.W.p.6.<.,.5.k.F.L.L.L.L.D.c.z.l.l.0.l.n.B.Q.XXOXOX@X<X<X<X<X1X                        ",
"                      .X;X-X2X2X6X6X8XtX7X=X$XoXY.W.Y.R.F.p.p.p.p.F.G.R.L.L.H.L.S.Z.l.l.3.l.n.B.Q.XX@X@X<X@X<X<X4X                          ",
"                    |.m.m.m. X.X+X4X7XtX5X%X!.W.W.W.W.Y.Y.F.s.k.k.Y.H.R.L.L.S.S.S.l.l.l.l.l.n.V.oX#X<X3X<X:X<X<X<X                          ",
"                  m.U D V D D I d.+X:X5X=X$XW.W.W.W.W.R.R.F.F.S.G.H.R.H.L.S.l.l.l.l.1.l.l.n.E.Q.@X3X4X4X3X4X4X4X                            ",
"                  L V h h 0 h c F M.OX=X$XW.W.s.Y.Y.Y.R.R.R.R.R.R.R.R.H.L.S.l.l.l.l.l.J l.n.~.@X<X6X7X6X6X9X6X                              ",
"                  Y h 8 8 8 8 2 u e.V.oX$X$Xs.s.s.Y.Y.R.R.R.R.R.~.R.H.G.S.v.l.l.0.l.l.1.l.n._.<X8X8X8X8X8X9X7X                              ",
"                  D 8 O = - - - , F g.Y.s.s.s.k.p.p.F.F.R.R.G.R.R.H.G.G.v.l.l.7.l.S 3.l.n.B.<X5X8X8X8X8X8X8X                                ",
"                  K 3 X X X o @ 0 A a.s.s.u.<.>.2.6.p.F.F.F.F.G.G.F.F.Z.v.l.4.7.S 0.3.3.B._.4X6XqXqXqXqXqX                                  ",
"                m.Y 8 X X X o 3 c H t.u.<.;.,.O.#.;.6.i.s.Z.v.Z.Z.Z.p.p.l.7.4.1.l.0.l.n.B.@X4X9X8XqXqXtX                                    ",
"                |.L h X X O 3 c G r.u.2.>.=.O.n #.-.;.6.2.6.;.;.0.7.7.7.7.7.1.0.1.7.n.B.Q.<X5X8XqXqXqXqX                                    ",
"                  L h O O 0 z P a.g.t.>.A N n n N #.-.#.#.+.s t t s S 1.1.1.-.-.-.7.n.Q.@X<X6X8XqXqXqX                                      ",
"                  L z 8 w V y.g.C.g.j.N v v v M N O.N v d t < # $ # t b A A -.-.7.n.E.Q.<X4X7XqXqXqX                                        ",
"                    V h z I C.V.C.t.Z k u u v B m v s i < # @ $ . @ 7 b S J 3.a.n.V.Q.@X4X6X8XqXqX                                          ",
"                    h h g P h.B.g.O.x k y y x B l i 5 < # @ @ . . : a S J 3.n.B.Q.OX@X:X6X6X8XqX                                            ",
"                    h 3 - j :.t.e.m 5 5 5 5 q y y 5 5 5 , 5 , @ : a F H n.B.V.XX@X@X@X<X4X8X                                                ",
"                    V 3 X ; g x B y > > > > > 5 y k l v l k 5 5 a H n.n.B.Q.XX#X@X<X3X<X                                                    ",
"                  f.V 4 = = > 5 5 > * * * > 5 q x m Z Z m k x Z m.B.V.V..XXXOX@X@X                                                          ",
"                  f.K g 4 2 4 q 5 4 > * * > q x m C m k c C y.B.B.Q.XXQ.                                                                    ",
"                    K z g g j j j q 4 > * * q x m x k k J y.V.+X.X                                                                          ",
"                    P V j j j j q q q 4 ; * 4 x Z Z C P g. X                                                                                ",
"                    L V g g g y q q j j q q z G t.t.t.g.                                                                                    ",
"                      P z q q q g j V C C G e.h.h.h.                                                                                        ",
"                          V z z z C G G e.f.h.|.                                                                                            ",
"                                                                                                                                            ",
"                                                                                                                                            ",
"                                                                                                                                            ",
"                                                                                                                                            ",
"                                                                                                                                            ",
"                                                                                                                                            ",
"                                                                                                                                            ",
"                                                                                                                                            "
};
