/* XPM */
static char *ea2067d8345e4724bcd8c5123ce327ae2OBgPs7Swm1OYgcv[] = {
/* columns rows colors chars-per-pixel */
"70 70 224 2 ",
"   c None",
".  c #3A1D06",
"X  c #3C200A",
"o  c #33251B",
"O  c #382619",
"+  c #2D2015",
"@  c #3D2D24",
"#  c #3E3026",
"$  c #791F0D",
"%  c #46270C",
"&  c #492A18",
"*  c #4C311B",
"=  c #55351C",
"-  c #75341A",
";  c #732E15",
":  c #4A2D24",
">  c #442D25",
",  c #4D352B",
"<  c #483428",
"1  c #5D3D26",
"2  c #52362C",
"3  c #593B2C",
"4  c #543828",
"5  c #4B3C33",
"6  c #463A33",
"7  c #543C33",
"8  c #5B3E33",
"9  c #7E3A26",
"0  c #5A422C",
"q  c #4E423A",
"w  c #554134",
"e  c #54443B",
"r  c #5C443B",
"t  c #5E4B3C",
"y  c #5B4437",
"u  c #65462C",
"i  c #78482C",
"p  c #78512D",
"a  c #604336",
"s  c #6A4D33",
"d  c #62463A",
"f  c #65493C",
"g  c #664A35",
"h  c #794933",
"j  c #6A523F",
"k  c #77553A",
"l  c #5C4B43",
"z  c #594A43",
"x  c #5C5049",
"c  c #644C43",
"v  c #684D44",
"b  c #6D5243",
"n  c #64534B",
"m  c #6B544B",
"M  c #685748",
"N  c #745944",
"B  c #7B5C45",
"V  c #72564B",
"C  c #725A4D",
"Z  c #7B5D4B",
"A  c #725545",
"S  c #695A53",
"D  c #745C53",
"F  c #765E57",
"G  c #7F6246",
"H  c #7D624D",
"J  c #76604A",
"K  c #6D6059",
"L  c #726254",
"P  c #7C6B5B",
"I  c #7A6459",
"U  c #7C6E6A",
"Y  c #7A6B64",
"T  c #7E736B",
"R  c #7E7470",
"E  c #6F6560",
"W  c #8C1806",
"Q  c #991709",
"!  c #8B1F16",
"~  c #9F1E16",
"^  c #9A0F02",
"/  c #A50D05",
"(  c #B50903",
")  c #A7140A",
"_  c #B81108",
"`  c #AE1B10",
"'  c #8A2718",
"]  c #8B2B18",
"[  c #8C2D22",
"{  c #843222",
"}  c #883728",
"|  c #883D35",
" . c #D60905",
".. c #C30D07",
"X. c #874736",
"o. c #825739",
"O. c #85462F",
"+. c #864F43",
"@. c #865444",
"#. c #8A5B45",
"$. c #855A47",
"%. c #836145",
"&. c #84654B",
"*. c #8A664E",
"=. c #82684F",
"-. c #8D6C4D",
";. c #8D6845",
":. c #926B4B",
">. c #98724C",
",. c #846A54",
"<. c #8B6C53",
"1. c #856D5A",
"2. c #8C6B5D",
"3. c #876353",
"4. c #936E55",
"5. c #8D7254",
"6. c #8D725B",
"7. c #8F785D",
"8. c #947455",
"9. c #957957",
"0. c #9D7A55",
"q. c #93745B",
"w. c #9A775A",
"e. c #95795B",
"r. c #9B7C5B",
"t. c #9A7553",
"y. c #A17E5C",
"u. c #A17C57",
"i. c #846E63",
"p. c #857265",
"a. c #8D7463",
"s. c #84736D",
"d. c #8A736B",
"f. c #8E7B6D",
"g. c #88796A",
"h. c #927662",
"j. c #947A64",
"k. c #9B7D63",
"l. c #947C6B",
"z. c #9C7E6A",
"x. c #887A72",
"c. c #937D73",
"v. c #957F7B",
"b. c #A27F61",
"n. c #9E815E",
"m. c #A4825E",
"M. c #AA855E",
"N. c #AC885F",
"B. c #B0885F",
"V. c #9C8164",
"C. c #97826E",
"Z. c #9D836B",
"A. c #958373",
"S. c #9C8672",
"D. c #9D8974",
"F. c #95857B",
"G. c #9B857B",
"H. c #9D8A7B",
"J. c #96887C",
"K. c #8F857E",
"L. c #A48462",
"P. c #AA8662",
"I. c #AC8964",
"U. c #A2856B",
"Y. c #A5896C",
"T. c #AB8C6B",
"R. c #A68865",
"E. c #B28C64",
"W. c #B38E69",
"Q. c #AF906E",
"!. c #B4916D",
"~. c #BA936C",
"^. c #A38672",
"/. c #A58A74",
"(. c #AA8C73",
"). c #A48D7A",
"_. c #A98E7A",
"`. c #AD9073",
"'. c #A5917D",
"]. c #AD927C",
"[. c #B49473",
"{. c #B99471",
"}. c #B2957B",
"|. c #B59A7D",
" X c #BD9D7B",
".X c #BB9976",
"XX c #BEA07E",
"oX c #C19A74",
"OX c #C39E7B",
"+X c #C5A17D",
"@X c #C2A17E",
"#X c #968B83",
"$X c #9D9187",
"%X c #A49382",
"&X c #AB9582",
"*X c #AC9986",
"=X c #AD9B8B",
"-X c #A2968C",
";X c #B49A84",
":X c #B99D85",
">X c #B29D8B",
",X c #BA9E8B",
"<X c #B29481",
"1X c #AB9E93",
"2X c #A59C94",
"3X c #AA978A",
"4X c #B4A18E",
"5X c #BAA28D",
"6X c #BAA084",
"7X c #ADA399",
"8X c #B4A393",
"9X c #BAA392",
"0X c #B4A69B",
"qX c #BBAA9C",
"wX c #B8A89A",
"eX c #BCADA1",
"rX c #B5ABA3",
"tX c #C2A281",
"yX c #C3A88B",
"uX c #C1A593",
"iX c #C3AC9C",
"pX c #C6AC99",
"aX c #C9B298",
"sX c #C1AEA1",
/* pixels */
"                                                                                                                                            ",
"                                                                                                                                            ",
"                                                                                                                                            ",
"                                                                                                                                            ",
"                                                                                                                                            ",
"                                                          A.T P P P j                                                                       ",
"                                                          T L j t t 0 * & k 9.9.                                                            ",
"                                                          P t 0 0 u u = = k 9.n.P.!. X.X}.Q.                                                ",
"                                                          P g g s s k p B :.L.[.!.oXOX X.X!.Q.`.                                            ",
"                                                        C.1.G G ;.=.5.9.y.I.{.OXOXOX+XOXXXXX}.[.|.|.*X&X                                    ",
"                                                        g.7.9.r.n.m.V.R.W.~.oX+X+X+X+XtX+X@X+X+XXX|.XX|.|.                                  ",
"                                                    C.C.V.n.n.n.M.P.R.W.W.oXoXoXOXOXOX+X+X+X+X+X6XXXXXXX6X6X                                ",
"                                                  A.C.C.V.L.m.m.m.N.I.E.!.~.~.oXoXoXoXoXoX+X+X+X+XtX@XXXtXyXyXaX                            ",
"                                                D.D.S.V.L.L.M.M.N.P.E.T.W.~.~.~.~.~.~.oX+X+X+X+X@X@X@X@X+XyXaXaXaXiX                        ",
"                                              H.D.D.V.R.M.M.B.B.B.B.I.E.W.W.W.~.E.~.~.~.oX+X+X+XOXOX X XXX6XyXaXaXiXqX                      ",
"                                            J.D.D.D.Y.R.P.B.B.E.E.E.E.E.E.E.W.E.E.E.~.oXoXOX+X+XtX X[.[.}.|.XX6X5XqXwX0X                    ",
"                                            H.D.S.Y.Y.I.I.T.B.B.E.B.B.I.I.E.E.W.E.~.E.oXoXoXOXOX[.L.w.b.(._.[.].|.>X4X8X2X                  ",
"                                          H.D.D.S.Y.R.T.I.E.E.B.B.I.N.N.I.I.E.W.E.E.~.oX{.!.!.W.y.#.s B k.T.(.(.`.].*X%X%X-X                ",
"                                          ).^.Y.U.Y.I.T.I.E.P.M.N.M.N.M.B.I.I.E.E.W.E.E.P.b.L.b.t.k = 1 2.z.U.^././.S.S.H.H.$X              ",
"                                        H.D.S.S.R.Y.T.T.E.P.M.y.m.M.N.B.T.E.I.I.I.E.E.E.b.y.u.u.8.$.1 & C z.b.S.U.Z.e.7.j.F.H.              ",
"                                      v.C.z.S.Z.V.L.L.P.M.M.u.u.0.M.E.!.W.I.I.P.b.P.E.b.P.m.u.y.w.$.1 & b z.b.^.Z.k.5.<.7.C.A.F.            ",
"                                      s.2.2.q.q.>.;.;.t.u.0.>.>.0.T..X.XI.P.P.P.P.P.P.E.L.m.y.L.k.=.u * b h.z.z.Z.V.e.5.6.q.j.C.            ",
"                                    2.+.X.X.+.+.p u p ;.>.>.>.0.I.XXXX!.P.P.P.M.M.P.P.P.P.M.L.R.L.q.k 4 b q.z.z.z.k.q.<.q.2.6.f.            ",
"                                    +.9 ! ! ' { - ; p ;.:.>.0.T.XXXX!.R.b.P.y.M.y.P.P.P.P.M.L.I.T.k.B 1 b 2.h.h.k.j.q.4.<.<.q.j.            ",
"                                    | ! / ( ^ W $ - k ;.:.0.T.XXXXE.m.m.m.m.m.m.P.P.L.P.m.m.P.R.I.V.&.u A a.j.h.q.q.5.<.*.*.q.^.            ",
"                                    | ~  . .( ^ ! i %.;.9.I..XXXQ.m.n.n.m.m.m.m.P.L.m.P.m.P.L.P.Y.V.<.g N h.a.6.6.,.*.=.&.<.U._.            ",
"                                    | ~  . .( ) { o.;.>.R.}.|.`.m.0.n.m.m.m.M.M.L.L.P.L.P.L.L.P.R.L.6.k B e.6.<.,.H Z B &.k.}.              ",
"                                  2.@.[ ) ) ) ! O.%.-.n.`.`.Y.n.9.n.n.m.R.N.R.R.P.L.L.L.m.L.L.L.L.V.8.&.<.j.6.1.Z N N B q._.,X              ",
"                                  v.3.h [ [ } | #.8.k.T.(.V.9.-.5.9.V.L.R.R.T.R.P.U.b.L.L.L.L.L.b.r.8.4.q.e.6.H N A H a.Y.;XyX              ",
"                                  v.p.Z Z @.@.3.h.V.Y._.V.8.%.%.G -.e.L.T.R.T.R.P.P.L.L.b.L.y.b.k.w.8.8.e.e.1.J N ,.l._.}.<X:X              ",
"                                  F.f.d.d.d.h.z.(.&X_.U.q.%.h i i k 8.L.T.Y.R.I.I.L.L.b.b.b.b.y.w.w.8.w.k.6.H H 1.C.].;X;X|.                ",
"                                  J.F.H.).^.).<X,X<X^.h.%.h - ; ; O.-.V.Y.Y.R.R.L.L.b.L.b.y.y.u.w.w.4.e.e.5.1.6.S.'.;X:X|.}.                ",
"                                  $X$X$X%X<X<X,X,X_.k.3.X.; W Q W { #.w.V.L.L.L.L.L.r.L.r.y.y.w.w.t.-.q.e.7.e.S.].>X;X;X|.(.                ",
"                                2X3X4X,X,X,X,X,X:X^.q.@.9 Q ) _ ) ] O.-.e.V.V.V.m.m.b.y.y.y.y.y.w.t.4.w.j.V.C.'.*X>X6X;X`.Y.                ",
"                              7X1X0XsXiXsXpXuX:X<Xb.w.@.{ Q .. ...^ { i %.5.e.u.n.m.m.n.y.m.u.r.w.w.k.U.V.Z./.*X;X;X;X].T.                  ",
"                          7X2X7X0XeXsXpXpXsXuX<X_.z.j.#.} Q .. ._ W $ - s %.-.r.m.m.m.m.m.y.y.w.k.b././.D.D.'.*X;X4X;X].Z.                  ",
"                        7X7XrXrXeXeXsXsXpXpX,X]._.^.b.4.X.[ ~ ` ) ' } k %.-.9.n.m.M.m.M.m.m.r.e.k./.'.).).'.*X=X;X5X,X(.                    ",
"                      7X7XrXrXrXeXeXsXsXpXuX:X_._./.z.z.*.X.} [ } X.;.w.m.L.m.M.R.P.P.m.m.n.9.n.Z.'.'.'.%X*X=X=X4X5X4X/.                    ",
"                    $X2X7X7X0XrX0XeXiXpXuXuX<X_.(.^._.z.w.3.#.@.;.8.M.Y.T.T.T.R.R.N.m.m.0.r.n.C.).'.'.&X*X=X>X>X5X5X:X(.                    ",
"                  #X#XK.K.$X-X1X>X0XiXiXuX,X<X_./._._.(.z.h.w.w.k.b.Y.Q.Q.Q.W.T.R.m.n.n.r.r.n.D.'.'.].*X=X>X>X8X9X9X5X                      ",
"                  x.U S S E T J.$X9XsXuX,X<X%X^._./._.^.b.b.k.w.b.P.(.(.Q.Q.Q.Q.R.n.n.n.7.n.C.).'.'.'.=X>X>X4X4X5X9X                        ",
"                R E x z z x t L c.3X9X9X<X<X_././._.(./.^.^.U.U.U./.T.(.T.Q.R.R.R.n.9.n.9.C.D.).'.*X4X>X1X>X4X4X5X9X                        ",
"                U x 6 q q q q q Y ).3X<X<X_.z.z.^._.(.(.(.(.Y.Y.(.T.`.T.Q.R.R.n.n.n.9.9.n.C.).'.*X1X1X1X4X4X4X4X8X                          ",
"                R q # # 6 q < 0 m z.&X_.z._.z.z.^.^./.(.(.(.(.(.(._.T.T.R.R.n.n.n.n.9.7.n.Z.'.*X=X4X8X8X8X4X8X5X                            ",
"                R q o o o O O < b f.^.^.z.b.h.z.k.U.^.(.(.(.(.(.`.T.Y.R.V.V.n.9.5.5.n.5.V.D.6X8XwXwX8XwXwX8X8X                              ",
"                R 6 + + + O @ w D f.l.j.b.h.4.3.q.k.U.Y.T.Y.T.(.T.T.Y.L.n.n.n.9.5.5.P n.S.'.6XqXqXqXwXwXwXwX                                ",
"                R q + O @ > e S i.h.h.6.2.<.3.3.<.q.k.Z.U.U.U.Y.Y.R.Z.V.n.e.9.5.5.P n.V.'.6XwXqXqXqXrXqXqXqX                                ",
"                T e # @ q t D p.l.l.2.,.=.$.$.$.<.2.q.e.k.k.r.m.L.k.k.r.e.9.5.5.5.n.n.C.'.4XwXqXeXeXeXeXeX                                  ",
"                Y x 5 7 S Y f.F.v.a.3.Z B A Z $.3.2.,.,.-.=.B &.5.e.9.n.9.5.5.5.9.e.C.'.=X5XqXqXeXeXeXeX                                    ",
"                  S z n s.F.G.G.d.3.V v b A V $.F $.B k k g 0 1 s G =.5.5.<.-.5.7.C.D.*X4XwXqXeXeXeXeX                                      ",
"                  n 7 S d.).).c.i.b c | f A Z Z A b g a 1 = % % * s G H H =.,.6.C.S.'.4X8XqXeXqXeXeX                                        ",
"                  z # 5 F f.c.i.D d 8 8 f A A b f 8 1 * % % X X * g J H H 1.a.C.D.'.*X5XwXqXeXeXeX                                          ",
"                E z O O 7 D I V d 8 2 8 8 d a a 8 3 2 & : * X X 0 j J P a.C.D.].%X*X4X8XqXqXqX                                              ",
"                i.x > O > 7 r y 2 : : 2 2 2 8 r f v f c f 3 O w J P 7.C.D.H.%X*X=X>X8X8XqXeX                                                ",
"                s.n 5 5 , 7 y 2 : : : : 2 a v V $.3.F m f w c P C.A.J.'.%X*X=X4X>X8X8X8X                                                    ",
"                R S r l l c b a 2 2 : : 8 v V F F V v c m 1.C.J.J.'.'.'.%X3X=X=X                                                            ",
"                U S l n m c c d 7 7 : : 7 m m v c r v I A.H.%X%X'.'.                                                                        ",
"                  K z z c l r r r r 7 > 2 v F F m D d.H.$X                                                                                  ",
"                  U n 7 7 8 8 l v m l 8 n F s.d.d.d.G.                                                                                      ",
"                      S n l c n F F E Y s.v.v.v.c.                                                                                          ",
"                            F Y U s.s.v.v.G.                                                                                                ",
"                                                                                                                                            ",
"                                                                                                                                            ",
"                                                                                                                                            ",
"                                                                                                                                            ",
"                                                                                                                                            ",
"                                                                                                                                            ",
"                                                                                                                                            ",
"                                                                                                                                            ",
"                                                                                                                                            "
};
