/* XPM */
static char *result[] = {
/* columns rows colors chars-per-pixel */
"70 70 77 1 ",
"  c #3F0AFF",
". c #3F14FF",
"X c #3F1DFF",
"o c #3725FF",
"O c #3923FF",
"+ c #372CFF",
"@ c #3A2BFF",
"# c #3431FF",
"$ c #3933FF",
"% c #353BFF",
"& c #3D3BFF",
"* c #4100FF",
"= c #410CFF",
"- c #4114FF",
"; c #411BFF",
": c #4123FF",
"> c #402AFF",
", c #4034FF",
"< c #4039FF",
"1 c #2C4DFF",
"2 c #3442FF",
"3 c #3E43FF",
"4 c #334BFF",
"5 c #3E4CFF",
"6 c #2C52FF",
"7 c #285BFF",
"8 c #3253FF",
"9 c #3D53FF",
"0 c #355AFF",
"q c #3B5CFF",
"w c #1F7BFF",
"e c #2764FF",
"r c #2964FF",
"t c #276BFF",
"y c #2A6BFF",
"u c #3465FF",
"i c #3B64FF",
"p c #336BFF",
"a c #3A6CFF",
"s c #2175FF",
"d c #2B73FF",
"f c #217AFF",
"g c #2A7CFF",
"h c #3772FF",
"j c #3973FF",
"k c #347BFF",
"l c #387DFF",
"z c #1C85FF",
"x c #1C8BFF",
"c c #1B93FF",
"v c #159EFF",
"b c #1A9BFF",
"n c #2384FF",
"m c #2F85FF",
"M c #238EFF",
"N c #2C8CFF",
"B c #3684FF",
"V c #3880FF",
"C c #358CFF",
"Z c #2591FF",
"A c #2C92FF",
"S c #229AFF",
"D c #3492FF",
"F c #14A2FF",
"G c #19A3FF",
"H c #11ADFF",
"J c #0FB5FF",
"K c #0EBCFF",
"L c #10B1FF",
"P c #13B8FF",
"I c #23A2FF",
"U c #0AC6FF",
"Y c #07CDFF",
"T c #08CAFF",
"R c #04D6FF",
"E c #04D9FF",
"W c None",
/* pixels */
"WWWWWWWWWW**.#7cJETFf6%Da;WWWWWWWWWWWWWWWWWW** #7zJEUvwd%=**WWWWWWWWWW",
"WWWWWWWWWW** +7xLRTFw1o9,*WWWWWWWWWWWWWWWWWW** #7zJEUvwS0***WWWWWWWWWW",
"WWWWWWWWWW** +7zHRTvs1o==*WWWWWWWWWWWWWWWWWW**=#7zJEUvwSu***WWWWWWWWWW",
"WWWWWWWWWW** +7zLRTFw1o***WWWWWWWWWWWWWWWWWW** #7xJEUvwe2***WWWWWWWWWW",
"WWWWWWWWWW** #7xUETFf1O***WWWWWWWWWWWWWWWWWW** #7xHETvt1O***WWWWWWWWWW",
"WWWWWWWWWW*  +7xJETFs6O***WWWWWWWWWWWWWWWWWW* X%7zJETvw1O***WWWWWWWWWW",
"WWWWWWWWWW** #tJJRTvw1O***WWWWWWWWWWWWWWWWWW*:96ezJETvw1X***WWWWWWWWWW",
"WWWWWWWWWW*  #7cHRTvw1O***WWWWWWWWWWWWWWWWWW*$kh7zHRUvt1O***WWWWWWWWWW",
"WWWWWWWWWW** #7zHRTFs1O***WWWWWWWWWWWWWWWWWW*,jy7zHRTFs1X.;*WWWWWWWWWW",
"WWWWWWWWWW** +7zHRTFs6%=**WWWWWWWWWWWWWWWWWW*-347zJEYFf1O5q:WWWWWWWWWW",
"WWWWWWWWWW** #7zHRTFwtN&**WWWWWWWWWWWWWWWWWW**.%7xJEYFs1@aB>WWWWWWWWWW",
"WWWWWWWWWW** +7wHRYFsdA3**WWWWWWWWWWWWWWWWWW*  #7zPETvs1@9i:WWWWWWWWWW",
"WWWWWWWWWW** #7zHRYFs6%-**WWWWWWWWWWWWWWWWWW** #7zJRUvw1O-:*WWWWWWWWWW",
"WWWWWWWWWW** +7zHERFz1O***WWWWWWWWWWWWWWWWWW** #7zJRUvs1O***WWWWWWWWWW",
"WWWWWWWWWW   #7zHRYHx6o***WWWWWWWWWWWWWWWWWW**=#7zJETvn7O***WWWWWWWWWW",
"WWWWWWWWWW   +7xLRTFf6O***WWWWWWWWWWWWWWWWWW** #7zJETFbdO***WWWWWWWWWW",
"WWWWWWWWWW** #ebJRTFs1o **WWWWWWWWWWWWWWWWWW*  #7xJRTvby@***WWWWWWWWWW",
"WWWWWWWWWW**O4rxHRYFf1O***WWWWWWWWWWWWWWWWWW   #7zHRUvs1O***WWWWWWWWWW",
"WWWWWWWWWW**iInzHRTFn7o***WWWWWWWWWWWWWWWWWW** #7zHETvs1O***WWWWWWWWWW",
"WWWWWWWWWW**qgynLRTJGro***WWWWWWWWWWWWWWWWWW** #7zHEUvf6O***WWWWWWWWWW",
"WWWWWWWWWW**X%7zLRYPb7O***WWWWWWWWWWWWWWWWWW** +7zHETFf1O***WWWWWWWWWW",
"WWWWWWWWWW** #7wHRYUz1O***WWWWWWWWWWWWWWWWWW** %7zHEUFf1O***WWWWWWWWWW",
"WWWWWWWWWW*;O#7zHRYHw1O***WWWWWWWWWWWWWWWWWW *$4exJRTHz1O=-*WWWWWWWWWW",
"WWWWWWWWWW*ip%7zHRTFf6O***WWWWWWWWWWWWWWWWWW**aNsxKRTHx1O39:WWWWWWWWWW",
"WWWWWWWWWW*jB%7zHRTFn1o***WWWWWWWWWWWWWWWWWW**qNdxJEUFn7@al,WWWWWWWWWW",
"WWWWWWWWWW*34#7zHRYHz1o***WWWWWWWWWWWWWWWWWW**X4ezLRUvx7O9a>WWWWWWWWWW",
"WWWWWWWWWW*-.+7zHEYFf1+=**WWWWWWWWWWWWWWWWWW** %ezLETvw6O-;*WWWWWWWWWW",
"WWWWWWWWWW** +7zHEYFf12&=*WWWWWWWWWWWWWWWWWW** #7zHRTvt1O***WWWWWWWWWW",
"WWWWWWWWWW**=+7wHRTFw1ua;*WWWWWWWWWWWWWWWWWW * #7zJRYFs4O***WWWWWWWWWW",
"WWWWWWWWWW** #7zHETFw6kC:*WWWWWWWWWWWWWWWWWW*-X#7zHEYFs1X***WWWWWWWWWW",
"WWWWWWWWWW** #7zHEYvs70i;*WWWWWWWWWWWWWWWWWW*5q%7zHEYLz1O***WWWWWWWWWW",
"WWWWWWWWWW** +7zHRYFs1o;**WWWWWWWWWWWWWWWWWW=ag%7zHEYKc1X***WWWWWWWWWW",
"WWWWWWWWWW*  #7zHRTFw1o***WWWWWWWWWWWWWWWWWW*9q%7zJRTJz1X **WWWWWWWWWW",
"WWWWWWWWWW*  +7zHRYFw1o***WWWWWWWWWWWWWWWWWW*-X#7zHEUFw1X***WWWWWWWWWW",
"WWWWWWWWWW   #7zHEYFw1o***WWWWWWWWWWWWWWWWWW** +7xJETvt1X  *WWWWWWWWWW",
"WWWWWWWWWW   +7wHETvw6@***WWWWWWWWWWWWWWWWWW** %exKEUFw1o * WWWWWWWWWW",
"WWWWWWWWWW** +7zHRTFs1O***WWWWWWWWWWWWWWWWWW** #7zJETFs1O***WWWWWWWWWW",
"WWWWWWWWWW** #7zHRYFx6O***WWWWWWWWWWWWWWWWWW*  #7zJRUvs1X***WWWWWWWWWW",
"WWWWWWWWWW** +7zHRTHGyO***WWWWWWWWWWWWWWWWWW** #7xJETvw6o **WWWWWWWWWW",
"WWWWWWWWWW** +7zHRTFcro***WWWWWWWWWWWWWWWWWW** #ecJRUFxy+***WWWWWWWWWW",
"WWWWWWWWWW** +7wHRTFw1o **WWWWWWWWWWWWWWWWWW** #7cJEUFbn%***WWWWWWWWWW",
"WWWWWWWWWW** #7zHRTFw1X **WWWWWWWWWWWWWWWWWW** #exJRTvct$***WWWWWWWWWW",
"WWWWWWWWWW** #7zHRTFw1o **WWWWWWWWWWWWWWWWWW** %fbHRTvw1O***WWWWWWWWWW",
"WWWWWWWWWW=>O#7nHRTFw1o***WWWWWWWWWWWWWWWWWW*  4SbJEUvt1X **WWWWWWWWWW",
"WWWWWWWWWW>iq%txHRYFw1X **WWWWWWWWWWWWWWWWWW** 4McHEUvw1O***WWWWWWWWWW",
"WWWWWWWWWW3CB8fcHRRHw1o **WWWWWWWWWWWWWWWWWW** #ezHEUvw1X***WWWWWWWWWW",
"WWWWWWWWWW-&3%yxHRRFf62>**WWWWWWWWWWWWWWWWWW** #7zHEUvw1o***WWWWWWWWWW",
"WWWWWWWWWW*=X%7zHRYFfrmq**WWWWWWWWWWWWWWWWWW** #7zJEYvt1X***WWWWWWWWWW",
"WWWWWWWWWW*=@%7zHRYHwtmq**WWWWWWWWWWWWWWWWWW** #7zJETvw1. **WWWWWWWWWW",
"WWWWWWWWWW**-#7zHRTFw1%;**WWWWWWWWWWWWWWWWWW*  #7zHRTvw1X **WWWWWWWWWW",
"WWWWWWWWWW**=#7xJRTFw1o **WWWWWWWWWWWWWWWWWW**=+7zHETFw1XO:*WWWWWWWWWW",
"WWWWWWWWWW** #rFKETFw1X **WWWWWWWWWWWWWWWWWW * #7zHEUFw1+0i;WWWWWWWWWW",
"WWWWWWWWWW** #eGKETFw1O***WWWWWWWWWWWWWWWWWW** #7zHRYFw1$lB>WWWWWWWWWW",
"WWWWWWWWWW** +7xHRTFs6O***WWWWWWWWWWWWWWWWWW**@%7xJEYFt1$ii;WWWWWWWWWW",
"WWWWWWWWWW** #7zHRTFw1O=**WWWWWWWWWWWWWWWWWW**l87zJRTvw1@>:*WWWWWWWWWW",
"WWWWWWWWWW*  o7zHRTvw1@5;*WWWWWWWWWWWWWWWWWW* C67zHRTFw1O***WWWWWWWWWW",
"WWWWWWWWWW** #7zHRYHs1%B&*WWWWWWWWWWWWWWWWWW**9%7zHEUHx6O;**WWWWWWWWWW",
"WWWWWWWWWW** +7zHRRLf1%B<*WWWWWWWWWWWWWWWWWW**.#7zHETFZ6@>-*WWWWWWWWWW",
"WWWWWWWWWW** #7zLRYHn6@@=*WWWWWWWWWWWWWWWWWW** #7zHRUFfy$;**WWWWWWWWWW",
"WWWWWWWWWW**O%7bJRTFc7o***WWWWWWWWWWWWWWWWWW**=#7zJRTvsZ0***WWWWWWWWWW",
"WWWWWWWWWW**qhexJRTFf6o***WWWWWWWWWWWWWWWWWW*  #7zJETvsIh***WWWWWWWWWW",
"WWWWWWWWWW*=DIszHRTvw1o***WWWWWWWWWWWWWWWWWW*  #7zJEUvsg0***WWWWWWWWWW",
"WWWWWWWWWW**507zHRYFf1o***WWWWWWWWWWWWWWWWWW** #7zJRTvs6@***WWWWWWWWWW",
"WWWWWWWWWW *.#7xHRYHn7@***WWWWWWWWWWWWWWWWWW** #7zHRTFs1O***WWWWWWWWWW",
"WWWWWWWWWW**=%7nLRYPcIu***WWWWWWWWWWWWWWWWWW**=%7zLETFs1$,;*WWWWWWWWWW",
"WWWWWWWWWW** %fbHRYPxSu***WWWWWWWWWWWWWWWWWW-<@%7xJEYvs1pV3*WWWWWWWWWW",
"WWWWWWWWWW** %MHHRTFfy%***WWWWWWWWWWWWWWWWWW3Du%7xJEUvs1kC3*WWWWWWWWWW",
"WWWWWWWWWW**X%fbHRYFf6$=**WWWWWWWWWWWWWWWWWW-,O#7xHRTvs62<-*WWWWWWWWWW",
"WWWWWWWWWW**O%exHRTFwdp:**WWWWWWWWWWWWWWWWWW** +7zHRTbs1O***WWWWWWWWWW",
"WWWWWWWWWW**;#ecHRTFss0-**WWWWWWWWWWWWWWWWWW**=%7zHRYHs1O***WWWWWWWWWW"
};
