/* XPM */
static char *d2FsbF90Mw__[] = {
/* columns rows colors chars-per-pixel */
"70 70 138 2 ",
"   c #3F0AFF",
".  c #3F14FF",
"X  c #3F1CFF",
"o  c #3725FF",
"O  c #3924FF",
"+  c #372CFF",
"@  c #3A2BFF",
"#  c #3431FF",
"$  c #3936FF",
"%  c #363BFF",
"&  c #3E3BFF",
"*  c #4100FF",
"=  c #410CFF",
"-  c #4113FF",
";  c #411BFF",
":  c #4122FF",
">  c #402BFF",
",  c #4034FF",
"<  c #4039FF",
"1  c #2C4DFF",
"2  c #3440FF",
"3  c #3E43FF",
"4  c #344DFF",
"5  c #3E4CFF",
"6  c #2C52FF",
"7  c #285BFF",
"8  c #3253FF",
"9  c #3C54FF",
"0  c #355AFF",
"q  c #3B5CFF",
"w  c #1F7BFF",
"e  c #2764FF",
"r  c #2965FF",
"t  c #276AFF",
"y  c #2B6BFF",
"u  c #3465FF",
"i  c #3B64FF",
"p  c #336BFF",
"a  c #3A6DFF",
"s  c #2176FF",
"d  c #2B73FF",
"f  c #207AFF",
"g  c #2A7CFF",
"h  c #3772FF",
"j  c #3973FF",
"k  c #347BFF",
"l  c #1C84FF",
"z  c #1C8AFF",
"x  c #1B92FF",
"c  c #159EFF",
"v  c #1A9BFF",
"b  c #2182FF",
"n  c #2F85FF",
"m  c #248EFF",
"M  c #2E8CFF",
"N  c #3782FF",
"B  c #3686FF",
"V  c #3683FF",
"C  c #3880FF",
"Z  c #3589FF",
"A  c #348AFF",
"S  c #368CFF",
"D  c #348EFF",
"F  c #2591FF",
"G  c #2C92FF",
"H  c #2398FF",
"J  c #2399FF",
"K  c #229AFF",
"L  c #2399FF",
"P  c #3390FF",
"I  c #3493FF",
"U  c #14A0FF",
"Y  c #15A0FF",
"T  c #14A1FF",
"R  c #15A1FF",
"E  c #14A2FF",
"W  c #14A3FF",
"Q  c #13A5FF",
"!  c #13A6FF",
"~  c #14A4FF",
"^  c #14A5FF",
"/  c #14A2FF",
"(  c #19A3FF",
")  c #13AAFF",
"_  c #12ABFF",
"`  c #16ABFF",
"'  c #11ACFF",
"]  c #10ADFF",
"[  c #11ADFF",
"{  c #10AFFF",
"}  c #11AFFF",
"|  c #12AEFF",
" . c #11ADFF",
".. c #0FB3FF",
"X. c #0EB6FF",
"o. c #0FB6FF",
"O. c #0FB6FF",
"+. c #0EB9FF",
"@. c #0EBEFF",
"#. c #0EBCFF",
"$. c #10B0FF",
"%. c #11B1FF",
"&. c #10B3FF",
"*. c #11B3FF",
"=. c #11B4FF",
"-. c #10B1FF",
";. c #13B8FF",
":. c #22A0FF",
">. c #25A3FF",
",. c #20A4FF",
"<. c #26A2FF",
"1. c #0BC4FF",
"2. c #07CDFF",
"3. c #07CEFF",
"4. c #06CFFF",
"5. c #07CDFF",
"6. c #09C8FF",
"7. c #08C9FF",
"8. c #09C9FF",
"9. c #08CAFF",
"0. c #09CAFF",
"q. c #08CBFF",
"w. c #09CBFF",
"e. c #08CCFF",
"r. c #08CDFF",
"t. c #08CAFF",
"y. c #04D6FF",
"u. c #05D6FF",
"i. c #04D7FF",
"p. c #05D6FF",
"a. c #03DBFF",
"s. c #04D8FF",
"d. c #05D8FF",
"f. c #04D9FF",
"g. c #03DCFF",
"h. c #04D9FF",
"j. c None",
"k. c black",
/* pixels */
"j.j.j.j.j.j.j.j.j.j.* * * O 1 s ) 3.h.} l 7 #   * * j.j.k.k.k.k.k.k.k.k.k.k.k.k.j.j.j.j.* * - 0 s s Y 6.i.} z e # X * * j.j.j.j.j.j.j.j.j.j.",
"j.j.j.j.j.j.j.j.j.j.* * * O 1 s Y 6.i.} l 7 #   * * j.j.k.k.k.k.k.k.k.k.k.k.k.k.j.j.j.j.* * : p g s Y 6.i.} z e $ @ * * j.j.j.j.j.j.j.j.j.j.",
"j.j.j.j.j.j.j.j.j.j.* - $ % 1 s c 6.a.} l 7 # @ < - j.j.k.k.k.k.k.k.k.k.k.k.k.k.j.j.j.j.* * = $ 7 w ~ r.i.) c g % X * * j.j.j.j.j.j.j.j.j.j.",
"j.j.j.j.j.j.j.j.j.j.* 5 S k 6 t c 6.i...z 7 # i I 3 j.j.k.k.k.k.k.k.k.k.k.k.k.k.j.j.j.j.* * * $ r w ! 6.i.) ) m 2     * j.j.j.j.j.j.j.j.j.j.",
"j.j.j.j.j.j.j.j.j.j.* 3 k p 1 s c 3.a...l 7 $ @ & - k.k.k.k.k.k.k.k.k.k.k.k.k.k.j.j.j.j.* * = 0 J z %.6.d._ v g %   * * j.j.j.j.j.j.j.j.j.j.",
"j.j.j.j.j.j.j.j.j.j.* ; , & 4 s ! 9.i...l e %   * * k.k.k.k.k.k.k.k.k.k.k.k.k.k.j.j.j.j.* * * u :.v 1.r.i.} l e # = * * j.j.j.j.j.j.j.j.j.j.",
"j.j.j.j.j.j.j.j.j.j.* * * O 1 s U 9.a.{ l 7 #   * * k.k.k.k.k.k.k.k.k.k.k.k.k.k.j.j.j.j.* * * @ 7 b $.r.i.} l 7 # . * * j.j.j.j.j.j.j.j.j.j.",
"j.j.j.j.j.j.j.j.j.j.* * * O 1 s c 7.i...l 7 #   * * k.k.k.k.k.k.k.k.k.k.k.k.k.k.j.j.j.j.* * * o 1 f ~ 6.i.) l 7 0 5 * * j.j.j.j.j.j.j.j.j.j.",
"j.j.j.j.j.j.j.j.j.j.* * * 0 g s c 6.h.$.l 7 #   * * j.j.j.j.j.j.k.k.k.k.k.k.k.k.k.k.k.k.* * * O 1 f Y 3.i.} l s ,.P = * j.j.j.j.j.j.j.j.j.j.",
"j.j.j.j.j.j.j.j.j.j.* * * h K s Y 6.g...l 7 #   * * j.j.j.j.j.j.k.k.k.k.k.k.k.k.k.k.k.k.* * * O 6 w U 6.i.$.z e d q * * j.j.j.j.j.j.j.j.j.j.",
"* * * * * *   * * : > * * 0 F s c 6.h...l 7 #   * * j.j.j.j.j.j.k.k.k.k.k.k.k.k.k.k.k.k.* * * O 7 v ! 6.i.;.c 7 % : * * j.j.j.j.j.j.j.j.j.j.",
"* * * * * *     ; q N i ; $ y f Y 6.i.} z 7 #   * * j.j.j.j.j.j.k.k.k.k.k.k.k.k.k.k.k.k.* = @ O 6 b ) r.i.$.l 7 #   * * j.j.j.j.j.j.j.j.j.j.",
"= * * *     *   - 5 a 9 - O 6 F ! 6.a.{ l 7 # . * * j.j.j.j.j.j.k.k.k.k.k.k.k.k.k.k.k.k.* < B % 1 f $.u.y.] l 7 +   * * j.j.j.j.j.j.j.j.j.j.",
"$ 0 p 2 o X X X O O @ O O O 6 z ! 6.i.} l 7 2 9 * * j.j.j.j.j.j.k.k.k.k.k.k.k.k.k.k.k.k.* < A % 1 w ) 6.y.] w 7 # = * * j.j.j.j.j.j.j.j.j.j.",
"d L L r 1 1 1 1 4 1 1 6 1 1 7 f U 6.a.{ l 7 8 A * * j.j.j.j.j.j.k.k.k.k.k.k.k.k.k.k.k.k.* ; 5 @ 1 s Y r.y.] l 7 #   * * j.j.j.j.j.j.j.j.j.j.",
"f b f s t w t s s f s s s s b ( c 6.i...l 7 8 k * j.j.j.j.j.j.j.k.k.k.k.k.k.k.k.k.k.k.k.* = = o 1 w U 6.y.] l 7 +   * * j.j.j.j.j.j.j.j.j.j.",
"Y c c c c c c c Y ! ~ c c c c c U 3.i.} l 7 % @ * j.j.j.j.j.j.j.j.j.j.j.j.j.j.j.j.j.j.j.* * * o 6 w c 7.i.$.z 7 +   * * j.j.j.j.j.j.j.j.j.j.",
"6.6.6.6.6.6.6.6.6.r.3.6.6.6.6.6.6.6.a.{ l 7 #   * j.j.j.j.j.j.j.j.j.j.j.j.j.j.j.j.j.j.j.* * * o 1 w U 6.h.#.( e #   * * j.j.j.j.j.j.j.j.j.j.",
"h.g.h.h.h.h.h.h.h.h.h.h.i.h.a.a.a.i.i.{ l 7 #   j.j.j.j.j.j.j.j.j.j.j.j.j.j.j.j.j.j.j.j.* * * O 1 s U 9.h.#.Y e #   * * j.j.j.j.j.j.j.j.j.j.",
"=.+...$.$.$.$.} $.$...=.$.$...+.$.} { { l 7 #   j.j.j.j.j.j.j.j.j.j.j.j.j.j.j.j.j.j.j.j.* * * o 1 w Y 3.g.$.z 7 +     * j.j.j.j.j.j.j.j.j.j.",
"l z l z l l l z z l z z z l l l l l l l z 7 # j.j.j.j.j.j.j.j.j.j.j.j.j.j.j.j.j.j.j.j.j.* * : $ 6 w U 3.i.} l 7 # - * * j.j.j.j.j.j.j.j.j.j.",
"7 7 7 7 7 7 e 7 7 7 7 7 7 7 7 7 7 7 7 7 7 7 j.j.j.j.j.j.j.j.j.j.j.j.j.j.j.j.j.j.j.j.j.j.* * q A r s } 3.i.} l 7 % @ = * j.j.j.j.j.j.j.j.j.j.",
"# # # # # $ 8 d y 4 % # # # # # # # # # # j.j.j.j.j.j.j.j.j.j.j.j.j.j.j.j.j.j.j.j.j.j.j.* * q V r f ! 6.u.} l 7 % X = * j.j.j.j.j.j.j.j.j.j.",
"          ; 9 k j 2 .                   j.j.j.j.j.j.j.j.j.j.j.j.j.j.j.j.j.j.j.j.j.j.j.j.* * @ 4 6 f ) 3.i.) z t 2 3 < - j.j.j.j.j.j.j.j.j.j.",
"  * * * * * : < , - * * * * * *   j.j.j.j.j.j.j.j.j.j.j.j.j.j.j.j.j.j.j.j.j.j.j.j.j.j.j.* * * + 1 w ) u.i.) v f 8 V D 3 j.j.j.j.j.j.j.j.j.j.",
"    * * * * * * * * * * j.j.j.j.j.j.j.j.j.j.j.j.j.j.j.j.j.j.j.j.j.j.j.j.j.j.j.j.j.j.j.j.* * * o 1 w U 3.i.} z e % q i > j.j.j.j.j.j.j.j.j.j.",
"j.j.j.j.j.j.j.j.j.j.j.j.j.j.j.j.j.j.j.j.j.j.j.j.j.j.j.j.j.j.j.j.j.j.j.j.j.j.j.j.j.j.j.j.* * * O 1 w U 9.i.) l 7 # O > = j.j.j.j.j.j.j.j.j.j.",
"j.j.j.j.j.j.j.j.j.j.j.j.j.j.j.j.j.j.j.j.j.j.j.j.j.j.j.j.j.j.j.j.j.j.j.j.j.j.j.j.j.j.j.j.* * * O 1 s U 9.i.{ w 7 #   * * j.j.j.j.j.j.j.j.j.j.",
"j.j.j.j.j.j.j.j.j.j.j.j.j.j.j.j.j.j.j.j.j.j.j.j.j.j.j.j.j.j.j.j.j.j.j.j.j.j.j.j.j.j.j.j.* * * O 1 w Y 9.u.) l 7 +   * * j.j.j.j.j.j.j.j.j.j.",
"j.j.j.j.j.j.j.j.j.j.j.j.j.j.j.j.j.j.j.j.j.j.j.j.j.j.j.j.j.j.j.j.j.j.j.j.j.j.j.j.j.j.j.j.* * * O 1 w U 9.u.] l 7 #   * * j.j.j.j.j.j.j.j.j.j.",
"j.j.j.j.j.j.j.j.j.j.j.j.j.j.j.j.j.j.j.j.j.j.j.j.j.j.j.j.j.j.j.j.j.j.j.j.j.j.j.j.j.j.j.j.  * * o 7 v ) 9.y.] l 7 #   * * j.j.j.j.j.j.j.j.j.j.",
"j.j.j.j.j.j.j.j.j.j.j.j.j.j.j.j.j.j.j.j.j.j.j.j.j.j.j.j.j.j.j.j.j.j.j.j.j.j.j.j.j.j.j.j.* * * O r ( ) 9.y.{ l 7 +   * * j.j.j.j.j.j.j.j.j.j.",
"j.j.j.j.j.j.j.j.j.j.j.j.j.j.j.j.j.j.j.j.j.j.j.j.j.j.j.j.j.j.j.j.j.j.j.j.j.j.j.j.j.j.j.j.* * * o 6 l ~ 6.i.] l 7 +   * * j.j.j.j.j.j.j.j.j.j.",
"j.j.j.j.j.j.j.j.j.j.j.j.j.j.j.j.j.j.j.j.j.j.j.j.j.j.j.j.j.j.j.j.j.j.j.j.j.j.j.j.j.j.j.j.* * * o 1 f Y r.i.] l 7 +   * * j.j.j.j.j.j.j.j.j.j.",
"j.j.j.j.j.j.j.j.j.j.j.j.j.j.j.j.j.j.j.j.j.j.j.j.j.j.j.j.j.j.j.j.j.j.j.j.j.j.j.j.j.j.j.j.* * * o 1 w U 3.a.] w 7 +     * j.j.j.j.j.j.j.j.j.j.",
"j.j.j.j.j.j.j.j.j.j.j.j.j.j.j.j.j.j.j.j.j.j.j.j.j.j.j.j.j.j.j.j.j.j.j.j.j.j.j.j.j.j.j.j.* * * o 1 w c u.i.] l 7 #       j.j.j.j.j.j.j.j.j.j.",
"j.j.j.j.j.j.j.j.j.j.j.j.j.j.j.j.j.j.j.j.j.j.j.j.j.j.j.j.j.j.j.j.j.j.j.j.j.j.j.j.j.j.j.j.* * * o 1 w U 3.i.{ l 7 +   * * j.j.j.j.j.j.j.j.j.j.",
"j.j.j.j.j.j.j.j.j.j.j.j.j.j.j.j.j.j.j.j.j.j.j.j.j.j.j.j.j.j.j.j.j.j.j.j.j.j.j.j.j.j.j.j.* * * o 1 w U 9.i.{ l 6 # = * * j.j.j.j.j.j.j.j.j.j.",
"j.j.j.j.j.j.j.j.j.j.j.j.j.j.j.j.j.j.j.j.j.j.j.j.j.j.j.j.j.j.j.j.j.j.j.j.j.j.j.j.j.j.j.j.* * X + 1 w c 3.i.] l 7 +   * * j.j.j.j.j.j.j.j.j.j.",
"j.j.j.j.j.j.j.j.j.j.j.j.j.j.j.j.j.j.j.j.j.j.j.j.j.j.j.j.j.j.j.j.j.j.j.j.j.j.j.j.j.j.j.j.* ; i 0 6 w c 9.i.} l 7 #   * * j.j.j.j.j.j.j.j.j.j.",
"j.j.j.j.j.j.j.j.j.j.j.j.j.j.j.j.j.j.j.j.j.j.j.j.j.j.j.j.j.j.j.j.j.j.j.j.j.j.j.j.j.j.j.j.* > B k 6 s U 3.i.] w 7 #   * * j.j.j.j.j.j.j.j.j.j.",
"j.j.j.j.j.j.j.j.j.j.j.j.j.j.j.j.j.j.j.j.j.j.j.j.j.j.j.j.j.j.j.j.j.j.j.j.j.j.j.j.j.j.j.j.* ; a p 1 w U 6.i.] l 7 #   * * j.j.j.j.j.j.j.j.j.j.",
"j.j.j.j.j.j.j.j.j.j.j.j.j.j.j.j.j.j.j.j.j.j.j.j.j.j.j.j.j.j.j.j.j.j.j.j.j.j.j.j.j.j.j.j.* * < % 1 w U 3.i.} l 7 +     * j.j.j.j.j.j.j.j.j.j.",
"j.j.j.j.j.j.j.j.j.j.j.j.j.j.j.j.j.j.j.j.j.j.j.j.j.j.j.j.j.j.j.j.j.j.j.j.j.j.j.j.j.j.j.j.* * - + 1 w ! 9.i.{ l 7 # X = * j.j.j.j.j.j.j.j.j.j.",
"; * * * * * * * * * * * * * * j.j.j.j.j.j.j.j.j.j.j.j.j.j.j.j.j.j.j.j.j.j.j.j.j.j.j.j.j.* * * + 1 b ) 3.i.{ l 7 # 5 5 * j.j.j.j.j.j.j.j.j.j.",
"a , = * * * * * * * * * * * * * * j.j.j.j.j.j.j.j.j.j.j.j.j.j.j.j.j.j.j.j.j.j.j.j.j.j.j.* * * O 1 l ~ 6.i.} l 7 % k j * j.j.j.j.j.j.j.j.j.j.",
"D 5 - * * * * * * = & 3 - * * * * * * * j.j.j.j.j.j.j.j.j.j.j.j.j.j.j.j.j.j.j.j.j.j.j.j.* * * O 1 f ~ 6.i.) l 7 $ h i * j.j.j.j.j.j.j.j.j.j.",
"% + o o O O O O o $ M G % O o O o O O + O O j.j.j.j.j.j.j.j.j.j.j.j.j.j.j.j.j.j.j.j.j.j.* * * o 1 f } 3.i.) l 7 # O ; * j.j.j.j.j.j.j.j.j.j.",
"6 6 1 1 1 1 1 1 1 6 y s 1 6 6 1 1 1 6 e 7 7 # j.j.j.j.j.j.j.j.j.j.j.j.j.j.j.j.j.j.j.j.j.* * * o 1 l 1.r.i.) l 7 +   * * j.j.j.j.j.j.j.j.j.j.",
"f f s s s w w s s w w w s f v f w w l ( l 7 #   j.j.j.j.j.j.j.j.j.j.j.j.j.j.j.j.j.j.j.j.* * * O 7 v 1.6.i.} l 7 % X * * j.j.j.j.j.j.j.j.j.j.",
"U U U U U U U Y c U U U ~ ~ ) Y c U ! { l 7 #   j.j.j.j.j.j.j.j.j.j.j.j.j.j.j.j.j.j.j.j.* * * + r ( =.6.i.} l t g q   * j.j.j.j.j.j.j.j.j.j.",
"3.9.6.3.6.6.3.6.9.9.9.9.u.u.r.6.9.9.i.{ l 7 #   * j.j.j.j.j.j.j.j.j.j.j.j.j.j.j.j.j.j.j.* * * o 6 b ~ w.i.} z b >.i * * j.j.j.j.j.j.j.j.j.j.",
"h.i.i.i.a.a.i.i.i.i.i.i.i.i.i.i.i.7.i.{ z 7 #   * j.j.j.j.j.j.j.j.j.j.j.j.j.j.j.j.j.j.j.* * * o 6 f U 3.i.} z r 8 X * * j.j.j.j.j.j.j.j.j.j.",
"..} ) { 1.....{ ] } ) } ) ) } $.c 7.i...l 7 #   * * j.j.j.j.j.j.j.j.j.j.j.j.j.j.j.j.j.j.* * * o 1 s U 9.i...v r #   * * j.j.j.j.j.j.j.j.j.j.",
"x z l l z z ;.x l l w l b l l v c 9.g.+.z 7 #   * * j.j.j.j.j.j.j.j.j.j.j.j.j.j.j.j.j.j.* * * O 1 f Y 6.i.$.z 7 +   * * j.j.j.j.j.j.j.j.j.j.",
"7 7 7 7 7 7 t 7 7 7 7 7 7 7 7 l c 9.a...l 7 #   * * j.j.j.j.j.j.j.j.j.j.j.j.j.j.j.j.j.j.* * * O 6 v } 6.i.} l 7 #   * * j.j.j.j.j.j.j.j.j.j.",
"# # # + + # # # + + # # # O 1 s c 6.h.$.l 7 #   * * j.j.j.j.j.j.j.j.j.j.j.j.j.j.j.j.j.j.* * * O 1 w ! 3.i.] w 7 #   * * j.j.j.j.j.j.j.j.j.j.",
".           =         = - O 1 s c 6.i.$.l 7 #   * * j.j.j.j.j.j.j.j.j.j.j.j.j.j.j.j.j.j.* * - % 6 w ! u.i.{ l 7 +   * * j.j.j.j.j.j.j.j.j.j.",
"* * * * * * * *   * * i 9 O 1 s Y 6.h...z 7 #   * * j.j.j.j.j.j.j.j.j.j.j.j.j.j.j.j.j.j.* * 3 G d w U 9.i.{ l 7 #       j.j.j.j.j.j.j.j.j.j.",
"* * *   * * * * * * @ C a + 1 s Y r.g...z 7 # . * * j.j.j.j.j.j.j.j.j.j.j.j.j.j.j.j.j.j.* * < M y w c 7.i.] w 7 #   * * j.j.j.j.j.j.j.j.j.j.",
"j.j.j.j.j.j.j.j.j.j.; q 5 O 4 f ~ u.h.$.l 7 8 3 - * j.j.j.j.j.j.j.j.j.j.j.j.j.j.j.j.j.j.  *   # 1 w c 7.i.) l 7 +   * * j.j.j.j.j.j.j.j.j.j.",
"j.j.j.j.j.j.j.j.j.j.* ; - O 1 s Y 6.i.} l 7 p j , * j.j.j.j.j.j.j.j.j.j.j.j.j.j.j.j.j.j.* * * o 1 w c 7.i.} l 7 #   * * j.j.j.j.j.j.j.j.j.j.",
"j.j.j.j.j.j.j.j.j.j.* *   o 1 s c 6.h.$.l e d k < * j.j.j.j.j.j.j.j.j.j.j.j.j.j.j.j.j.j.* *   X 1 w U 9.h.} x 7 #   * * j.j.j.j.j.j.j.j.j.j.",
"j.j.j.j.j.j.j.j.j.j.* * * X 1 t c 6.h.$.l 7 8 9 : * j.j.j.j.j.j.j.j.j.j.j.j.j.j.j.j.j.j.* *   X 1 w U 9.h...;.t +   * * j.j.j.j.j.j.j.j.j.j.",
"j.j.j.j.j.j.j.j.j.j.* * * O 1 s c 6.i.$.l 7 % X     j.j.j.j.j.j.j.j.j.j.j.j.j.j.j.j.j.j.* * * O 6 w U 9.a...x 7 #   *   j.j.j.j.j.j.j.j.j.j.",
"j.j.j.j.j.j.j.j.j.j.* * * O 4 s c 6.a.} l 7 #       j.j.j.j.j.j.j.j.j.j.j.j.j.j.j.j.j.j.* * * O 1 s U 6.g.1.z 7 +   * * j.j.j.j.j.j.j.j.j.j.",
"j.j.j.j.j.j.j.j.j.j.* * * % y f c 6.i.} z 7 #   * * j.j.j.j.j.j.j.j.j.j.j.j.j.j.j.j.j.j.* * * o 1 s c 9.i.{ l 7 #     * j.j.j.j.j.j.j.j.j.j.",
"j.j.j.j.j.j.j.j.j.j.* * * u L f c 6.a...z 7 #   * * j.j.j.j.j.j.j.j.j.j.j.j.j.j.j.j.j.j.* * - o 1 w U 9.i.{ w 7 +   * * j.j.j.j.j.j.j.j.j.j.",
"j.j.j.j.j.j.j.j.j.j.* *   0 J b c 6.a...z 7 #   * * j.j.j.j.j.j.j.j.j.j.j.j.j.j.j.j.j.j.* < 5 @ 6 f U 6.i...z 7 +   * * j.j.j.j.j.j.j.j.j.j.",
"j.j.j.j.j.j.j.j.j.j.* * = $ d f c 6.a...l 7 #   * * j.j.j.j.j.j.j.j.j.j.j.j.j.j.j.j.j.j.; a D % 6 w U 3.i...z 7 # . * * j.j.j.j.j.j.j.j.j.j."
};
