/* XPM */
static char *d2FsbF90MQ__[] = {
/* columns rows colors chars-per-pixel */
"70 70 141 2 ",
"   c #3F0AFF",
".  c #3F14FF",
"X  c #3F1CFF",
"o  c #3725FF",
"O  c #3924FF",
"+  c #372CFF",
"@  c #3A2BFF",
"#  c #3431FF",
"$  c #3936FF",
"%  c #363BFF",
"&  c #3E3BFF",
"*  c #4100FF",
"=  c #410CFF",
"-  c #4113FF",
";  c #411BFF",
":  c #4122FF",
">  c #402BFF",
",  c #4034FF",
"<  c #4039FF",
"1  c #2C4DFF",
"2  c #3440FF",
"3  c #3E43FF",
"4  c #344DFF",
"5  c #3E4CFF",
"6  c #2C52FF",
"7  c #285BFF",
"8  c #3253FF",
"9  c #3C54FF",
"0  c #355AFF",
"q  c #3B5CFF",
"w  c #1F7BFF",
"e  c #2764FF",
"r  c #2965FF",
"t  c #276AFF",
"y  c #2B6BFF",
"u  c #3465FF",
"i  c #3B64FF",
"p  c #336BFF",
"a  c #3A6DFF",
"s  c #2176FF",
"d  c #2B73FF",
"f  c #207AFF",
"g  c #2A7CFF",
"h  c #3772FF",
"j  c #3973FF",
"k  c #347BFF",
"l  c #1C84FF",
"z  c #1C8AFF",
"x  c #1B92FF",
"c  c #159EFF",
"v  c #1A9BFF",
"b  c #2182FF",
"n  c #2F85FF",
"m  c #248EFF",
"M  c #2E8CFF",
"N  c #3782FF",
"B  c #3481FF",
"V  c #3687FF",
"C  c #3684FF",
"Z  c #3880FF",
"A  c #348EFF",
"S  c #358BFF",
"D  c #2591FF",
"F  c #2C92FF",
"G  c #2398FF",
"H  c #2399FF",
"J  c #2399FF",
"K  c #3492FF",
"L  c #13A2FF",
"P  c #13A3FF",
"I  c #14A1FF",
"U  c #14A2FF",
"Y  c #14A3FF",
"T  c #15A3FF",
"R  c #13A4FF",
"E  c #13A6FF",
"W  c #13A7FF",
"Q  c #14A5FF",
"!  c #14A6FF",
"~  c #14A3FF",
"^  c #1AA2FF",
"/  c #18A4FF",
"(  c #13A9FF",
")  c #13AAFF",
"_  c #11ACFF",
"`  c #10ADFF",
"'  c #11ADFF",
"]  c #12ADFF",
"[  c #11AEFF",
"{  c #10AFFF",
"}  c #11ADFF",
"|  c #0FB4FF",
" . c #0FB5FF",
".. c #0FB6FF",
"X. c #0EB7FF",
"o. c #0FB5FF",
"O. c #0FB9FF",
"+. c #0EBFFF",
"@. c #0EBCFF",
"#. c #10B0FF",
"$. c #10B1FF",
"%. c #10B3FF",
"&. c #10B4FF",
"*. c #10B7FF",
"=. c #10B1FF",
"-. c #13B8FF",
";. c #26A2FF",
":. c #22A2FF",
">. c #0CC1FF",
",. c #0EC0FF",
"<. c #09C7FF",
"1. c #09C7FF",
"2. c #07CCFF",
"3. c #07CDFF",
"4. c #07CEFF",
"5. c #06CFFF",
"6. c #07CEFF",
"7. c #08C8FF",
"8. c #09C8FF",
"9. c #08C9FF",
"0. c #09C9FF",
"q. c #08CAFF",
"w. c #09CAFF",
"e. c #08CBFF",
"r. c #08CAFF",
"t. c #06D0FF",
"y. c #04D6FF",
"u. c #05D6FF",
"i. c #04D7FF",
"p. c #05D7FF",
"a. c #05D6FF",
"s. c #03DAFF",
"d. c #03DBFF",
"f. c #04D8FF",
"g. c #05D8FF",
"h. c #04D9FF",
"j. c #04DAFF",
"k. c #03DCFF",
"l. c #04D9FF",
"z. c None",
"x. c black",
/* pixels */
"z.z.z.z.z.z.z.z.z.z.* * . # 7 x ..f.q.Y f 6 % A a ; z.z.z.z.z.z.z.z.z.z.z.z.z.z.z.z.z.z.* *   # 7 l ..f.<.c f d $ = * * z.z.z.z.z.z.z.z.z.z.",
"z.z.z.z.z.z.z.z.z.z.* *   + 7 z { u.q.L w 1 + 5 < * z.z.z.z.z.z.z.z.z.z.z.z.z.z.z.z.z.z.* *   # 7 l O.k.<.c b G 0 * * * z.z.z.z.z.z.z.z.z.z.",
"z.z.z.z.z.z.z.z.z.z.* *   + 7 l _ u.9.Y s 1 o = = * z.z.z.z.z.z.z.z.z.z.z.z.z.z.z.z.z.z.* * = # 7 z ..f.9.c f G u * * * z.z.z.z.z.z.z.z.z.z.",
"z.z.z.z.z.z.z.z.z.z.* *   + 7 l | u.9.c w 1 o * * * z.z.z.z.z.z.z.z.z.z.z.z.z.z.z.z.z.z.* *   # 7 l | f.9.c s 7 2 * * * z.z.z.z.z.z.z.z.z.z.",
"z.z.z.z.z.z.z.z.z.z.* *   + 7 z >.k.9.Y f 1 O * * * z.z.z.z.z.z.z.z.z.z.z.z.z.z.z.z.z.z.*     # 7 l | y.q.c s 1 O * * * z.z.z.z.z.z.z.z.z.z.",
"z.z.z.z.z.z.z.z.z.z.* *   # 7 x O.f.9.Y w 1 O * * * z.z.z.z.z.z.z.z.z.z.z.z.z.z.z.z.z.z.*   X $ 7 l | f.q.c w 2 X * * * z.z.z.z.z.z.z.z.z.z.",
"z.z.z.z.z.z.z.z.z.z.  *   + t ..| u.q.c s 1 o * * * z.z.z.z.z.z.z.z.z.z.z.z.z.z.z.z.z.z.* : 9 6 e l | f.9.c s 1 O * * * z.z.z.z.z.z.z.z.z.z.",
"z.z.z.z.z.z.z.z.z.z.*     # 7 x [ u.<.c w 1 O * * * z.z.z.z.z.z.z.z.z.z.z.z.z.z.z.z.z.z.* $ k h 7 l { f.<.c s 1 O * * * z.z.z.z.z.z.z.z.z.z.",
"z.z.z.z.z.z.z.z.z.z.* *   # 7 l { y.q.c w 1 O * * * z.z.z.z.z.z.z.z.z.z.z.z.z.z.z.z.z.z.* , j y 7 l #.f.9.Y s 1 X . ; * z.z.z.z.z.z.z.z.z.z.",
"z.z.z.z.z.z.z.z.z.z.* *   + 7 l [ y.q.L s 1 % = * * z.z.z.z.z.z.z.z.z.z.z.z.z.z.z.z.z.z.* - 3 4 7 l #.f.2.Q f 1 O 5 q : z.z.z.z.z.z.z.z.z.z.",
"z.z.z.z.z.z.z.z.z.z.* *   + 7 l [ u.q.c w t M & * * z.z.z.z.z.z.z.z.z.z.z.z.z.z.z.z.z.z.* * . % 7 z ..f.2.^ s 1 @ a B > * * * * *   *   * * ",
"z.z.z.z.z.z.z.z.z.z.* *   + 7 l [ u.q.Y s d F 3 * * z.z.z.z.z.z.z.z.z.z.z.z.z.z.z.z.z.z.      # 7 z ..f.9.c s 1 @ 9 i * * * * * * * *   * * ",
"z.z.z.z.z.z.z.z.z.z.* *   # 7 l [ u.3.Q s 6 % - * * z.z.z.z.z.z.z.z.z.z.z.z.z.z.z.z.z.z.* *   # 7 l | u.<.c s 1 o .     =     *           . ",
"z.z.z.z.z.z.z.z.z.z.*     + 7 l [ u.t._ l 1 O * * * z.z.z.z.z.z.z.z.z.z.z.z.z.z.z.z.z.z.* *   # 7 l | f.<.c s 1 O # + + # # # # # # + # + # ",
"z.z.z.z.z.z.z.z.z.z.  *   # 7 l [ u.9.[ z 6 o * * * z.z.z.z.z.z.z.z.z.z.z.z.z.z.z.z.z.z.* *   # 7 l ..f.<.c l 7 7 7 7 7 7 7 7 t 7 7 7 7 7 7 ",
"z.z.z.z.z.z.z.z.z.z.      + 7 x &.u.9.Y f 6 O * * * z.z.z.z.z.z.z.z.z.z.z.z.z.z.z.z.z.z.* * = # 7 l O.f.9.c v l l w l l l l x -.z l l l z x ",
"z.z.z.z.z.z.z.z.z.z.* *   # r v ..u.q.L w 1 o * * * z.z.z.z.z.z.z.z.z.z.z.z.z.z.z.z.z.z.* *   # 7 l | y.<.c #.[ [ [ [ [ [ ` [ | O.,.| [ | ..",
"z.z.z.z.z.z.z.z.z.z.* * O 4 r l [ u.q.L s 1 o * * * z.z.z.z.z.z.z.z.z.z.z.z.z.z.z.z.z.z.z.    # 7 z | y.<.u.f.u.u.u.u.u.u.u.u.u.f.f.y.y.u.u.",
"z.z.z.z.z.z.z.z.z.z.* * i ;.m l [ y.9.E l 6 O * * * z.z.z.z.z.z.z.z.z.z.z.z.z.z.z.z.z.z.z.*   # 7 l { y.9.9.9.2.t.3.2.9.9.9.9.9.9.9.q.7.q.q.",
"z.z.z.z.z.z.z.z.z.z.* * 9 g t l { y.9.-.^ r + * * * z.z.z.z.z.z.z.z.z.z.z.z.z.z.z.z.z.z.z.z.  # 7 l { E Y Y Q [ _ Y Y Y Y Y c Y Y L c c L c ",
"z.z.z.z.z.z.z.z.z.z.* * X % 7 l #.u.2.+.v 7 O * * * z.z.z.z.z.z.z.z.z.z.z.z.z.z.z.z.z.z.z.z.  # 7 l v l f s f x w w w w s w s s w w s w f f ",
"z.z.z.z.z.z.z.z.z.z.* *   + 7 l [ u.2.,.l 1 O * * * z.z.z.z.z.z.z.z.z.z.z.z.z.z.z.z.z.z.z.z.z.# 7 7 r 7 1 1 1 6 1 6 d y 6 1 1 1 1 1 1 1 6 6 ",
"z.z.z.z.z.z.z.z.z.z.* ; O # 7 l [ u.2.[ f 1 O * * * z.z.z.z.z.z.z.z.z.z.z.z.z.z.z.z.z.z.z.z.z.z.o O + o @ o O o o % F M $ o o O O O o O + % ",
"z.z.z.z.z.z.z.z.z.z.* i h % 7 l { u.9.Y f 6 O * * * z.z.z.z.z.z.z.z.z.z.z.z.z.z.z.z.z.z.z.z.z.z.z.z.* * * * * * * = 3 & = * * * * * * - 5 A ",
"z.z.z.z.z.z.z.z.z.z.* j B $ 7 l _ y.q.E f 6 O * * * z.z.z.z.z.z.z.z.z.z.z.z.z.z.z.z.z.z.z.z.z.z.z.z.z.z.z.* * * * * * * * * * * * * * = < i ",
"z.z.z.z.z.z.z.z.z.z.* 5 4 # 7 l { y.9._ l 1 o = * * z.z.z.z.z.z.z.z.z.z.z.z.z.z.z.z.z.z.z.z.z.z.z.z.z.z.z.z.z.* * * * * * * * * * * * * * ; ",
"z.z.z.z.z.z.z.z.z.z.* = . # 7 l #.f.3.E w 1 @ - * * z.z.z.z.z.z.z.z.z.z.z.z.z.z.z.z.z.z.z.z.z.z.z.z.z.z.z.z.z.z.z.z.z.z.z.z.z.z.z.z.z.z.z.z.",
"z.z.z.z.z.z.z.z.z.z.* *   + 7 l [ f.9.Y f 1 % $ * * z.z.z.z.z.z.z.z.z.z.z.z.z.z.z.z.z.z.z.z.z.z.z.z.z.z.z.z.z.z.z.z.z.z.z.z.z.z.z.z.z.z.z.z.",
"z.z.z.z.z.z.z.z.z.z.* * = + 7 w [ u.9.Y s 1 p a ; * z.z.z.z.z.z.z.z.z.z.z.z.z.z.z.z.z.z.z.z.z.z.z.z.z.z.z.z.z.z.z.z.z.z.z.z.z.z.z.z.z.z.z.z.",
"z.z.z.z.z.z.z.z.z.z.* *   # 7 l [ u.q.c s 7 k V > * z.z.z.z.z.z.z.z.z.z.z.z.z.z.z.z.z.z.z.z.z.z.z.z.z.z.z.z.z.z.z.z.z.z.z.z.z.z.z.z.z.z.z.z.",
"z.z.z.z.z.z.z.z.z.z.* *   # 7 l [ f.3.Y f 6 0 i ; * z.z.z.z.z.z.z.z.z.z.z.z.z.z.z.z.z.z.z.z.z.z.z.z.z.z.z.z.z.z.z.z.z.z.z.z.z.z.z.z.z.z.z.z.",
"z.z.z.z.z.z.z.z.z.z.* *   + 7 l [ y.3.L s 1 + ; * * z.z.z.z.z.z.z.z.z.z.z.z.z.z.z.z.z.z.z.z.z.z.z.z.z.z.z.z.z.z.z.z.z.z.z.z.z.z.z.z.z.z.z.z.",
"z.z.z.z.z.z.z.z.z.z.* *   + 7 l { u.q.L w 6 o * * * z.z.z.z.z.z.z.z.z.z.z.z.z.z.z.z.z.z.z.z.z.z.z.z.z.z.z.z.z.z.z.z.z.z.z.z.z.z.z.z.z.z.z.z.",
"z.z.z.z.z.z.z.z.z.z.* *   # 7 l [ y.3.L w 1 o * * * z.z.z.z.z.z.z.z.z.z.z.z.z.z.z.z.z.z.z.z.z.z.z.z.z.z.z.z.z.z.z.z.z.z.z.z.z.z.z.z.z.z.z.z.",
"z.z.z.z.z.z.z.z.z.z.      # 7 w { f.3.L w 1 o * * * z.z.z.z.z.z.z.z.z.z.z.z.z.z.z.z.z.z.z.z.z.z.z.z.z.z.z.z.z.z.z.z.z.z.z.z.z.z.z.z.z.z.z.z.",
"z.z.z.z.z.z.z.z.z.z.      # 7 l [ f.q.c w 1 O * * * z.z.z.z.z.z.z.z.z.z.z.z.z.z.z.z.z.z.z.z.z.z.z.z.z.z.z.z.z.z.z.z.z.z.z.z.z.z.z.z.z.z.z.z.",
"z.z.z.z.z.z.z.z.z.z.* *   + 7 l [ y.q.L f 6 O * * * z.z.z.z.z.z.z.z.z.z.z.z.z.z.z.z.z.z.z.z.z.z.z.z.z.z.z.z.z.z.z.z.z.z.z.z.z.z.z.z.z.z.z.z.",
"z.z.z.z.z.z.z.z.z.z.* *   # 7 l [ y.9.L b 6 O * * * z.z.z.z.z.z.z.z.z.z.z.z.z.z.z.z.z.z.z.z.z.z.z.z.z.z.z.z.z.z.z.z.z.z.z.z.z.z.z.z.z.z.z.z.",
"z.z.z.z.z.z.z.z.z.z.* *   + 7 l [ u.9._ / y o * * * z.z.z.z.z.z.z.z.z.z.z.z.z.z.z.z.z.z.z.z.z.z.z.z.z.z.z.z.z.z.z.z.z.z.z.z.z.z.z.z.z.z.z.z.",
"z.z.z.z.z.z.z.z.z.z.* *   + 7 l [ u.9.E v 7 o * * * z.z.z.z.z.z.z.z.z.z.z.z.z.z.z.z.z.z.z.z.z.z.z.z.z.z.z.z.z.z.z.z.z.z.z.z.z.z.z.z.z.z.z.z.",
"z.z.z.z.z.z.z.z.z.z.* * = + 7 w _ u.<.L f 1 o * * * z.z.z.z.z.z.z.z.z.z.z.z.z.z.z.z.z.z.z.z.z.z.z.z.z.z.z.z.z.z.z.z.z.z.z.z.z.z.z.z.z.z.z.z.",
"z.z.z.z.z.z.z.z.z.z.* *   # 7 l [ u.9.Y f 1 o * * * z.z.z.z.z.z.z.z.z.z.z.z.z.z.z.z.z.z.z.z.z.z.z.z.z.z.z.z.z.z.z.z.z.z.z.z.z.z.z.z.z.z.z.z.",
"z.z.z.z.z.z.z.z.z.z.* *   # 7 l _ y.q.Y f 1 O * * * z.z.z.z.z.z.z.z.z.z.z.z.z.z.z.z.z.z.z.z.z.z.z.z.z.z.z.z.z.z.z.z.z.z.z.z.z.z.z.z.z.z.z.z.",
"z.z.z.z.z.z.z.z.z.z.= > O # 7 b [ y.q.L w 1 o * * * z.z.z.z.z.z.z.z.z.z.z.z.z.z.z.z.z.z.z.z.z.z.z.z.z.z.z.z.z.z.z.z.z.z.z.z.z.z.z.z.z.z.z.z.",
"z.z.z.z.z.z.z.z.z.z.> i q % e z [ u.9.Y s 1 o * * * z.z.z.z.z.z.z.z.z.z.z.z.z.z.z.z.z.z.z.z.z.z.z.z.z.z.z.z.z.z.z.z.  * * * * *   *   * * * ",
"z.z.z.z.z.z.z.z.z.z.3 A C 8 f v [ f.t._ f 1 + * * * z.z.z.z.z.z.z.z.z.z.z.z.z.z.z.z.z.z.z.z.z.z.z.z.z.z.z.  * * * * *   - , < :     * * *   ",
"z.z.z.z.z.z.z.z.z.z.- $ 3 2 t z [ u.3._ f 6 4 > * * z.z.z.z.z.z.z.z.z.z.z.z.z.z.z.z.z.z.z.z.z.z.z.z.                  . 3 j k 9 .           ",
"z.z.z.z.z.z.z.z.z.z.* = X $ 7 l [ u.2.E f t B q * * z.z.z.z.z.z.z.z.z.z.z.z.z.z.z.z.z.z.z.z.z.z.z.# # # # # # # # # # % 8 y h 8 % # # # # # ",
"z.z.z.z.z.z.z.z.z.z.* = @ % 7 l [ u.3._ f t n i * * z.z.z.z.z.z.z.z.z.z.z.z.z.z.z.z.z.z.z.z.z.z.7 7 7 7 7 7 7 7 7 7 7 7 7 7 e 7 7 7 7 7 7 7 ",
"z.z.z.z.z.z.z.z.z.z.* * - # 7 l { y.q.L s 1 % : * * z.z.z.z.z.z.z.z.z.z.z.z.z.z.z.z.z.z.z.z.z.# 7 l l l l l l l l l z z l l l l l l z l l z ",
"z.z.z.z.z.z.z.z.z.z.* *   + 7 x | f.9.L f 1 o * * * z.z.z.z.z.z.z.z.z.z.z.z.z.z.z.z.z.z.z.z.= + 7 l | { { | ..O.| | ....{ | | { | | { | O...",
"z.z.z.z.z.z.z.z.z.z.* *   # e ^ +.f.9.c s 1 O * * * z.z.z.z.z.z.z.z.z.z.z.z.z.z.z.z.z.z.z.z.  # 7 l { y.f.f.k.f.f.u.y.f.f.y.u.f.f.f.f.f.k.f.",
"z.z.z.z.z.z.z.z.z.z.* *   + e Q +.y.q.L w 1 o * * * z.z.z.z.z.z.z.z.z.z.z.z.z.z.z.z.z.z.z.*   # 7 l { y.<.9.9.9.9.<.9.2.3.9.<.9.<.<.<.<.8.9.",
"z.z.z.z.z.z.z.z.z.z.* *   # 7 z { y.q.L w 1 o * * * z.z.z.z.z.z.z.z.z.z.z.z.z.z.z.z.z.z.z.* @ % 7 z | f.3.c c c c c c Y E Y c c c c c c v c ",
"z.z.z.z.z.z.z.z.z.z.* *   + 7 l { y.q.c w 1 O = * * z.z.z.z.z.z.z.z.z.z.z.z.z.z.z.z.z.z.z.* k 8 7 l | f.2.c v b s s s s s t s s s s s w b f ",
"z.z.z.z.z.z.z.z.z.z.*     + 7 l [ u.q.c s 1 @ 5 ; * z.z.z.z.z.z.z.z.z.z.z.z.z.z.z.z.z.z.* * A 6 7 l { y.9.Y f 7 1 1 6 1 1 1 1 1 4 1 t H H d ",
"z.z.z.z.z.z.z.z.z.z.* *   # 7 l [ u.2.) f 1 % V $ * z.z.z.z.z.z.z.z.z.z.z.z.z.z.z.z.z.z.* * 9 % 7 l #.f.9.E m 6 X O @ @ O O O X O O & u 0 % ",
"z.z.z.z.z.z.z.z.z.z.* *   + 7 l [ u.t.&.f 1 % C < * z.z.z.z.z.z.z.z.z.z.z.z.z.z.z.z.z.z.* * . # 7 l [ f.<.Q x 6 O - 9 a 5 - * * * * * * * = ",
"z.z.z.z.z.z.z.z.z.z.* *   # 7 l #.u.2._ l 6 @ > - * z.z.z.z.z.z.z.z.z.z.z.z.z.z.z.z.z.z.* *   # 7 l [ f.9.c f t $ ; i C q ; * * * * * * * * ",
"z.z.z.z.z.z.z.z.z.z.* * O % 7 v O.u.9.L x 7 O * * * z.z.z.z.z.z.z.z.z.z.z.z.z.z.z.z.z.z.* * = # 7 l &.f.9.c s D 0 * * > : * * * * * * * * * ",
"z.z.z.z.z.z.z.z.z.z.* * q d r z | u.9.Y w 6 O * * * z.z.z.z.z.z.z.z.z.z.z.z.z.z.z.z.z.z.*     # 7 l O.k.9.v s :.p * * * z.z.z.z.z.z.z.z.z.z.",
"z.z.z.z.z.z.z.z.z.z.* = K ;.d l [ u.9.Y f 1 o * * * z.z.z.z.z.z.z.z.z.z.z.z.z.z.z.z.z.z.*     # 7 l #.f.<.c s g 0 * * * z.z.z.z.z.z.z.z.z.z.",
"z.z.z.z.z.z.z.z.z.z.* * 5 6 7 l [ u.9.Q f 1 O * * * z.z.z.z.z.z.z.z.z.z.z.z.z.z.z.z.z.z.* *   + 7 l #.f.9.c s 6 @ * * * z.z.z.z.z.z.z.z.z.z.",
"z.z.z.z.z.z.z.z.z.z.* * . % 7 z [ u.2.#.b 7 @ * * * z.z.z.z.z.z.z.z.z.z.z.z.z.z.z.z.z.z.* *   % 7 l [ f.9.Y s 1 O * * * z.z.z.z.z.z.z.z.z.z.",
"z.z.z.z.z.z.z.z.x.x.* * = $ 7 z [ u.2.+.x :.u * * * z.z.z.z.z.z.z.z.z.z.z.z.z.z.z.z.z.z.* = = % 7 l | y.q.E s 1 % $ - * z.z.z.z.z.z.z.z.z.z.",
"z.z.z.z.z.z.z.z.x.x.* *   % g v [ u.2.#.z G 0 = * * z.z.z.z.z.z.z.z.z.z.z.z.z.z.z.z.z.z.- < @ $ e l O.f.q.c s 1 a Z 3 * z.z.z.z.z.z.z.z.z.z.",
"z.z.z.z.z.z.z.z.x.x.* *   2 z ] [ u.9.Q w t % * * * z.z.z.z.z.z.z.z.z.z.z.z.z.z.z.z.z.z.3 K u $ 7 z | f.<.c s 1 k V 5 * z.z.z.z.z.z.z.z.z.z.",
"z.z.z.z.z.z.z.z.x.x.* * X % f v [ u.9.Q w 6 $ = * * z.z.z.z.z.z.z.z.z.z.z.z.z.z.z.z.z.z.- < O # 7 l [ f.<.c s 1 % < - * z.z.z.z.z.z.z.z.z.z.",
"z.z.z.z.z.z.z.z.z.z.* * O % e z [ u.9.Y s g p : * * z.z.z.z.z.z.z.z.z.z.z.z.z.z.z.z.z.z.* *   # 7 l [ f.9.^ s 1 O * * * z.z.z.z.z.z.z.z.z.z.",
"z.z.z.z.z.z.z.z.z.z.* * X $ e x [ u.<.Y w d 8 - * * z.z.z.z.z.z.z.z.z.z.z.z.z.z.z.z.z.z.* * = # 7 l [ t.2.) s 1 O * * * z.z.z.z.z.z.z.z.z.z."
};
