/* XPM */
static char *d2FsbF9o[] = {
/* columns rows colors chars-per-pixel */
"70 70 145 2 ",
"   c #3F0AFF",
".  c #3F14FF",
"X  c #3F1DFF",
"o  c #3725FF",
"O  c #3923FF",
"+  c #372CFF",
"@  c #3A2BFF",
"#  c #3431FF",
"$  c #3933FF",
"%  c #353BFF",
"&  c #3D3BFF",
"*  c #4100FF",
"=  c #410CFF",
"-  c #4114FF",
";  c #411BFF",
":  c #4123FF",
">  c #402AFF",
",  c #4034FF",
"<  c #4039FF",
"1  c #2C4DFF",
"2  c #3442FF",
"3  c #3E43FF",
"4  c #334BFF",
"5  c #3E4CFF",
"6  c #2C52FF",
"7  c #285BFF",
"8  c #3253FF",
"9  c #3D53FF",
"0  c #355AFF",
"q  c #3B5CFF",
"w  c #1F7BFF",
"e  c #2764FF",
"r  c #2964FF",
"t  c #276BFF",
"y  c #2A6BFF",
"u  c #3465FF",
"i  c #3B64FF",
"p  c #336BFF",
"a  c #3A6CFF",
"s  c #2175FF",
"d  c #2B73FF",
"f  c #217AFF",
"g  c #2A7CFF",
"h  c #3772FF",
"j  c #3973FF",
"k  c #347BFF",
"l  c #387DFF",
"z  c #1C85FF",
"x  c #1C8BFF",
"c  c #1B93FF",
"v  c #159EFF",
"b  c #1A9BFF",
"n  c #2384FF",
"m  c #2F85FF",
"M  c #238EFF",
"N  c #2C8CFF",
"B  c #3684FF",
"V  c #3880FF",
"C  c #358CFF",
"Z  c #2591FF",
"A  c #2C92FF",
"S  c #229AFF",
"D  c #3492FF",
"F  c #13A7FF",
"G  c #13A6FF",
"H  c #13A5FF",
"J  c #14A5FF",
"K  c #14A6FF",
"L  c #14A2FF",
"P  c #18A2FF",
"I  c #18A3FF",
"U  c #1AA2FF",
"Y  c #19A6FF",
"T  c #13A8FF",
"R  c #13A9FF",
"E  c #12AAFF",
"W  c #13AAFF",
"Q  c #12ABFF",
"!  c #16ABFF",
"~  c #11ACFF",
"^  c #10ADFF",
"/  c #11ADFF",
"(  c #12ADFF",
")  c #10AEFF",
"_  c #11AEFF",
"`  c #10AFFF",
"'  c #11AFFF",
"]  c #12AEFF",
"[  c #10AEFF",
"{  c #0FB3FF",
"}  c #0FB6FF",
"|  c #0EB7FF",
" . c #0FB5FF",
".. c #0EB9FF",
"X. c #0FB9FF",
"o. c #0DBCFF",
"O. c #0DBEFF",
"+. c #0EBEFF",
"@. c #0EBFFF",
"#. c #0EBBFF",
"$. c #10B0FF",
"%. c #11B1FF",
"&. c #10B3FF",
"*. c #11B3FF",
"=. c #10B4FF",
"-. c #11B4FF",
";. c #10B7FF",
":. c #10B0FF",
">. c #13B8FF",
",. c #25A3FF",
"<. c #26A2FF",
"1. c #20A4FF",
"2. c #22A0FF",
"3. c #0CC1FF",
"4. c #0EC0FF",
"5. c #09C7FF",
"6. c #07CCFF",
"7. c #07CDFF",
"8. c #07CEFF",
"9. c #06CFFF",
"0. c #07CEFF",
"q. c #08C9FF",
"w. c #09C9FF",
"e. c #08CAFF",
"r. c #09CAFF",
"t. c #08CBFF",
"y. c #08CCFF",
"u. c #08CDFF",
"i. c #09C9FF",
"p. c #06D0FF",
"a. c #06D1FF",
"s. c #04D6FF",
"d. c #05D6FF",
"f. c #04D7FF",
"g. c #05D7FF",
"h. c #04D7FF",
"j. c #03DAFF",
"k. c #04D8FF",
"l. c #05D8FF",
"z. c #04D9FF",
"x. c #04DAFF",
"c. c #03DCFF",
"v. c #04D9FF",
"b. c None",
"n. c black",
/* pixels */
"b.b.b.b.b.b.b.b.b.b.b.b.b.b.b.b.b.b.b.b.b.b.b.b.b.b.b.b.b.b.b.b.b.b.b.b.b.b.b.b.b.b.b.b.b.b.b.b.b.b.b.b.b.b.b.b.b.b.b.b.b.b.b.b.b.b.b.b.b.b.",
"b.b.b.b.b.b.b.b.b.b.b.b.b.b.b.b.b.b.b.b.b.b.b.b.b.b.b.b.b.b.b.b.b.b.b.b.b.b.b.b.b.b.b.b.b.b.b.b.b.b.b.b.b.b.b.b.b.b.b.b.b.b.b.b.b.b.b.b.b.b.",
"b.b.b.b.b.b.b.b.b.b.b.b.b.b.b.b.b.b.b.b.b.b.b.b.b.b.b.b.b.b.b.b.b.b.b.b.b.b.b.b.b.b.b.b.b.b.b.b.b.b.b.b.b.b.b.b.b.b.b.b.b.b.b.b.b.b.b.b.b.b.",
"b.b.b.b.b.b.b.b.b.b.b.b.b.b.b.b.b.b.b.b.b.b.b.b.b.b.b.b.b.b.b.b.b.b.b.b.b.b.b.b.b.b.b.b.b.b.b.b.b.b.b.b.b.b.b.b.b.b.b.b.b.b.b.b.b.b.b.b.b.b.",
"b.b.b.b.b.b.b.b.b.b.b.b.b.b.b.b.b.b.b.b.b.b.b.b.b.b.b.b.b.b.b.b.b.b.b.b.b.b.b.b.b.b.b.b.b.b.b.b.b.b.b.b.b.b.b.b.b.b.b.b.b.b.b.b.b.b.b.b.b.b.",
"b.b.b.b.b.b.b.b.b.b.b.b.b.b.b.b.b.b.b.b.b.b.b.b.b.b.b.b.b.b.b.b.b.b.b.b.b.b.b.b.b.b.b.b.b.b.b.b.b.b.b.b.b.b.b.b.b.b.b.b.b.b.b.b.b.b.b.b.b.b.",
"b.b.b.b.b.b.b.b.b.b.b.b.b.b.b.b.b.b.b.b.b.b.b.b.b.b.b.b.b.b.b.b.b.b.b.b.b.b.b.b.b.b.b.b.b.b.b.b.b.b.b.b.b.b.b.b.b.b.b.b.b.b.b.b.b.b.b.b.b.b.",
"b.b.b.b.b.b.b.b.b.b.b.b.b.b.b.b.b.b.b.b.b.b.b.b.b.b.b.b.b.b.b.b.b.b.b.b.b.b.b.b.b.b.b.b.b.b.b.b.b.b.b.b.b.b.b.b.b.b.b.b.b.b.b.b.b.b.b.b.b.b.",
"b.b.b.b.b.b.b.b.b.b.b.b.b.b.b.b.b.b.b.b.b.b.b.b.b.b.b.b.b.b.b.b.b.b.b.b.b.b.b.b.b.b.b.b.b.b.b.b.b.b.b.b.b.b.b.b.b.b.n.n.n.n.n.n.b.b.b.b.b.b.",
"b.b.b.b.b.b.b.b.b.b.b.b.b.b.b.b.b.b.b.b.b.b.b.b.b.b.b.b.b.b.b.b.b.b.b.b.b.b.b.b.b.b.b.b.b.b.b.b.b.b.b.b.b.b.b.b.b.b.n.n.n.n.n.n.b.b.b.b.b.b.",
"* * * * * * * * * * * * * * * * * * *   * * * - 3 > = * * *   * * * * * * *     * * * * * * * * * * * * * * * * * * * * * * * * * *     * * ",
"* * * * * * *   = * * * * * * * * * * * * = = < C i > * * *     * * * * * *     * * * = 3 j i ; * * * * * * * * * * * * * * * * * * *   * * ",
": O ; =     . 5 D q O                   - + X 3 B q O                                 . 8 B h O   X q i O *             = =               . ",
"# % % 2 % # # 0 ,.d % + + # + # # + + # # % % 2 8 % # # + + # + # + # # # # + # + # + # # # % + # % g ,.1 # # # # + # # + # # + # # + # + # ",
"e e g M f 7 7 7 d e 7 7 7 6 7 7 7 e e 7 7 7 7 t g r 7 7 7 7 7 7 7 6 7 6 7 7 7 7 7 7 6 7 7 7 7 7 7 7 y n e e 7 7 7 7 7 6 6 7 7 t 7 7 7 6 7 7 ",
"c x b W v z x z z x b x z z z z x Y I x z z z x b z z z z z w z z z z z z z w z z z z z z z z z z z z z z v x z z z z z z z c >.x x z z x c ",
"` ` _ _ Q _ _ Q _ =.X.*._ _ _ _ _ +.+._ ` _ _ _ _ _ _ _ _ _ _ _ Q _ ` ` _ ` ` _ _ _ _ *.` Q _ _ _ ` ` _ ` } { _ Q _ _ _ _ _ _ *.X.4.{ _ ` } ",
"s.s.s.s.s.s.s.s.s.s.s.s.s.s.s.s.s.s.k.j.s.s.s.s.s.s.s.s.s.s.s.s.s.s.j.j.s.s.s.s.s.s.s.k.j.s.s.s.s.s.s.s.s.s.s.s.s.s.s.s.s.s.s.s.j.j.s.s.s.s.",
"q.e.e.q.y.7.q.y.q.q.q.q.7.y.q.y.q.q.y.y.q.7.q.7.a.7.q.q.q.5.q.q.e.e.e.7.7.e.e.7.q.q.q.7.7.q.q.y.7.7.e.q.e.e.e.e.a.a.q.q.q.q.q.q.e.q.e.e.q.q.",
"L v L G *.+._ J L L J Q =.W L L L L L L G Q J Q Q G L L L L G Q L L L L L L L v L L L G Q J J _ 4.+.} G v L L ` Q L L L L L L L L L v L L L ",
"s f s f x c n w f f c n f f f f s f s f s f w s w s w w f f b Y z s s w w w w w f f f w n z s f z b b n f s f Z w w s w s s s f f s f w f f ",
"d d 7 y S 1.7 1 1 6 7 7 1 1 1 1 1 1 1 1 6 y r 6 6 1 1 1 1 8 7 r 7 1 1 1 6 1 1 6 6 1 1 1 1 1 1 1 1 7 r 7 6 1 1 7 6 6 d t 6 1 1 1 1 1 1 1 6 6 ",
"0 p $ % 0 u $ o o O o o % % + o o o o o % C m 4 @ o O o o o o o o o o o o o + 0 k p 2 @ o o o o o o @ o o o o o o % A C % o o o o O o o + % ",
"- O = * = * * * * * * > B C 3 - * * * * ; i q > * * * * * * * * * * * * * * X i B a & = = * * * * * * * * * * * * = 3 < = * * * * * * - 5 C ",
"* * * * * * * * * * * = < & ; * * * * * * * * * * * * * * * * * * * * * * * * ; : ; * * * * * * * * * * * * * * * * * * * * * * * * * = < i ",
"* * * * * * * * * * * * * * * * * * * * * * * * * * * * * * * * * * * * * * * * * * * * * * * * * * * * * * * * * * * * * * * * * * * * * ; ",
"b.b.b.b.b.b.b.b.b.b.b.b.b.b.b.b.b.b.b.b.b.b.b.b.b.b.b.b.b.b.b.b.b.b.b.b.b.b.b.b.b.b.b.b.b.b.b.b.b.b.b.b.b.b.b.b.b.b.b.b.b.b.b.b.b.b.b.b.b.b.",
"b.b.b.b.b.b.b.b.b.b.b.b.b.b.b.b.b.b.b.b.b.b.b.b.b.b.b.b.b.b.b.b.b.b.b.b.b.b.b.b.b.b.b.b.b.b.b.b.b.b.b.b.b.b.b.b.b.b.b.b.b.b.b.b.b.b.b.b.b.b.",
"b.b.b.b.b.b.b.b.b.b.b.b.b.b.b.b.b.b.b.b.b.b.b.b.b.b.b.b.b.b.b.b.b.b.b.b.b.b.b.b.b.b.b.b.b.b.b.b.b.b.b.b.b.b.b.b.b.b.b.b.b.b.b.b.b.b.b.b.b.b.",
"b.b.b.b.b.b.b.b.b.b.b.b.b.b.b.b.b.b.b.b.b.b.b.b.b.b.b.b.b.b.b.b.b.b.b.b.b.b.b.b.b.b.b.b.b.b.b.b.b.b.b.b.b.b.b.b.b.b.b.b.b.b.b.b.b.b.b.b.b.b.",
"b.b.b.b.b.b.b.b.b.b.b.b.b.b.b.b.b.b.b.b.b.b.b.b.b.b.b.b.b.b.b.b.b.b.b.b.b.b.b.b.b.b.b.b.b.b.b.b.b.b.b.b.b.b.b.b.b.b.b.b.b.b.b.b.b.b.b.b.b.b.",
"b.b.b.b.b.b.b.b.b.b.b.b.b.b.b.b.b.b.b.b.b.b.b.b.b.b.b.b.b.b.b.b.b.b.b.b.b.b.b.b.b.b.b.b.b.b.b.b.b.b.b.b.b.b.b.b.b.b.b.b.b.b.b.b.b.b.b.b.b.b.",
"b.b.b.b.b.b.b.b.b.b.b.b.b.b.b.b.b.b.b.b.b.b.b.b.b.b.b.b.b.b.b.b.b.b.b.b.b.b.b.b.b.b.b.b.b.b.b.b.b.b.b.b.b.b.b.b.b.b.b.b.b.b.b.b.b.b.b.b.b.b.",
"b.b.b.b.b.b.b.b.b.b.b.b.b.b.b.b.b.b.b.b.b.b.b.b.b.b.b.b.b.b.b.b.b.b.b.b.b.b.b.b.b.b.b.b.b.b.b.b.b.b.b.b.b.b.b.b.b.b.b.b.b.b.b.b.b.b.b.b.b.b.",
"b.b.b.b.b.b.b.b.b.b.b.b.b.b.b.b.b.b.b.b.b.b.b.b.b.b.b.b.b.b.b.b.b.b.b.b.b.b.b.b.b.b.b.b.b.b.b.b.b.b.b.b.b.b.b.b.b.b.b.b.b.b.b.b.b.b.b.b.b.b.",
"b.b.b.b.b.b.b.b.b.b.b.b.b.b.b.b.b.b.b.b.b.b.b.b.b.b.b.b.b.b.b.b.b.b.b.b.b.b.b.b.b.b.b.b.b.b.b.b.b.b.b.b.b.b.b.b.b.b.b.b.b.b.b.b.b.b.b.b.b.b.",
"b.b.b.b.b.b.b.b.b.b.b.b.b.b.b.b.b.b.b.b.b.b.b.b.b.b.b.b.b.b.b.b.b.b.b.b.b.b.b.b.b.b.b.b.b.b.b.b.b.b.b.b.b.b.b.b.b.b.b.b.b.b.b.b.b.b.b.b.b.b.",
"b.b.b.b.b.b.b.b.b.b.b.b.b.b.b.b.b.b.b.b.b.b.b.b.b.b.b.b.b.b.b.b.b.b.b.b.b.b.b.b.b.b.b.b.b.b.b.b.b.b.b.b.b.b.b.b.b.b.b.b.b.b.b.b.b.b.b.b.b.b.",
"b.b.b.b.b.b.b.b.b.b.b.b.b.b.b.b.b.b.b.b.b.b.b.b.b.b.b.b.b.b.b.b.b.b.b.b.b.b.b.b.b.b.b.b.b.b.b.b.b.b.b.b.b.b.b.b.b.b.b.b.b.b.b.b.b.b.b.b.b.b.",
"b.b.b.b.b.b.b.b.b.b.b.b.b.b.b.b.b.b.b.b.b.b.b.b.b.b.b.b.b.b.b.b.b.b.b.b.b.b.b.b.b.b.b.b.b.b.b.b.b.b.b.b.b.b.b.b.b.b.b.b.b.b.b.b.b.b.b.b.b.b.",
"b.b.b.b.b.b.b.b.b.b.b.b.b.b.b.b.b.b.b.b.b.b.b.b.b.b.b.b.b.b.b.b.b.b.b.b.b.b.b.b.b.b.b.b.b.b.b.b.b.b.b.b.b.b.b.b.b.b.b.b.b.b.b.b.b.b.b.b.b.b.",
"b.b.b.b.b.b.b.b.b.b.b.b.b.b.b.b.b.b.b.b.b.b.b.b.b.b.b.b.b.b.b.b.b.b.b.b.b.b.b.b.b.b.b.b.b.b.b.b.b.b.b.b.b.b.b.b.b.b.b.b.b.b.b.b.b.b.b.b.b.b.",
"b.b.b.b.b.b.b.b.b.b.b.b.b.b.b.b.b.b.b.b.b.b.b.b.b.b.b.b.b.b.b.b.b.b.b.b.b.b.b.b.b.b.b.b.b.b.b.b.b.b.b.b.b.b.b.b.b.b.b.b.b.b.b.b.b.b.b.b.b.b.",
"b.b.b.b.b.b.b.b.b.b.b.b.b.b.b.b.b.b.b.b.b.b.b.b.b.b.b.b.b.b.b.b.b.b.b.b.b.b.b.b.b.b.b.b.b.b.b.b.b.b.b.b.b.b.b.b.b.b.b.b.b.b.b.b.b.b.b.b.b.b.",
"* * - 3 - * * * * * * * * * * * * * * * * * * * * * * * * * *   * * * * * * = * * * * * * * * * * * * * * * *   * * * * * * = *   * * * * * ",
"* * < D & * * *     * * * * * * *   * * * * * *     * * * * *   * * * * - 9 a 9 - * * * * * * * * * * * * * * * *   *   - > < :     * * *   ",
"=   @ i @   = =         . 9 C k @                                       X 0 k q X       X i u $                       . 3 h l 9 .           ",
"# # # # # % # # # # # + % % 0 8 # # # # # # # # % 2 2 % # # # # # # # # % % % # # # # # 4 N N 8 % # # # # # # # # # # % 4 y h 8 % # # # # # ",
"7 7 7 7 e 7 7 7 7 7 7 7 7 7 7 7 7 7 7 7 7 7 7 7 e M b g e 7 e 7 7 7 7 7 7 7 7 7 7 7 e e 7 s d 7 7 7 7 7 7 7 7 7 7 7 7 7 7 7 e 7 7 7 7 7 7 7 ",
"z z z x z z z z z z z z z z z z z z z z z z z z z c v c x c c x z x x x x z z z z z z z z x c x z z z z z z z z z z z x z z z z z z x x z z ",
"_ _ { { } _ *._ { } { _ ` ` { ` { ` ` ` { _ { _ ` _ *.*.*.} =.*.{ } X.} { ` *._ ` ` _ ` { } X.} ` ` ` ` { _ } } { { } } ` *.{ { *.` ` { ..} ",
"k.s.j.s.j.j.s.s.j.c.j.s.s.j.s.j.s.j.s.s.j.j.k.k.j.s.j.s.k.k.k.s.s.j.j.j.j.s.k.k.j.s.k.k.k.s.k.s.j.s.j.s.s.j.j.j.j.s.s.j.j.s.k.s.k.k.j.j.c.j.",
"7.q.q.q.q.q.5.5.5.q.q.q.e.5.5.e.7.7.e.e.q.q.5.5.5.q.5.5.q.5.5.q.q.e.e.e.q.e.7.7.7.q.q.5.5.5.q.5.q.q.5.5.q.5.q.e.5.q.q.y.7.q.5.q.5.5.5.5.q.q.",
"W L v v L J L v b v v L G G L v L L Q L v v v v v v v v L L L v v L G L v *.X.*.J L v v v G _ _ L v L v v v v v b v v L J L v v v v v v v v ",
"s s s s d w s s s s s f x x w w t w w w w t s s s s t f c b M s t s s s s n x n s s s f n n M x w w s s f b b n s s s s s s s s s s f f f f ",
"1 1 1 1 1 1 1 1 g 2.N y 7 1 1 1 1 1 1 1 1 1 1 1 1 1 1 1 d n y 6 1 1 1 1 1 1 1 1 1 1 1 6 7 7 1 4 1 1 1 1 1 y d 7 1 1 1 1 1 1 1 1 1 4 y S S d ",
"O o & k p $ o @ 0 h 0 $ @ O O @ $ $ @ O O X O X X O X O + % $ o o X O X o . X o O X O O o o O O O O O O O o o O O O @ @ o O O X O O & u 0 % ",
"* * < C B < * * * * * ; > ; * @ i l q :   * * *   * * * * * * *     * *         * * * - 9 a 3 - * * * * * * * * * - 9 a 5 - * * * * * * * = ",
"* * - 5 3 - * * * * * * = = * : i B i : * * * *   * * * * * * * * * * * * * * * * * * ; i l 9 - * * * * * * * * * ; a B q ; * * * * * * * * ",
"* * * * * * * * * * * * * * * * ; > ; * * * * * * * * * * * * *   * * * *   * * * * * = > < : * * * * * * * * * * * : > : * * * * * * * * * ",
"b.b.b.b.b.b.b.b.b.b.b.b.b.b.b.b.b.b.b.b.b.b.b.b.b.b.b.b.b.b.b.b.b.b.b.b.b.b.b.b.b.b.b.b.b.b.b.b.b.b.b.b.b.b.b.b.b.b.b.b.b.b.b.b.b.b.b.b.b.b.",
"b.b.b.b.b.b.b.b.b.b.b.b.b.b.b.b.b.b.b.b.b.b.b.b.b.b.b.b.b.b.b.b.b.b.b.b.b.b.b.b.b.b.b.b.b.b.b.b.b.b.b.b.b.b.b.b.b.b.b.b.b.b.b.b.b.b.b.b.b.b.",
"b.b.b.b.b.b.b.b.b.b.b.b.b.b.b.b.b.b.b.b.b.b.b.b.b.b.b.b.b.b.b.b.b.b.b.b.b.b.b.b.b.b.b.b.b.b.b.b.b.b.b.b.b.b.b.b.b.b.b.b.b.b.b.b.b.b.b.b.b.b.",
"b.b.b.b.b.b.b.b.b.b.b.b.b.b.b.b.b.b.b.b.b.b.b.b.b.b.b.b.b.b.b.b.b.b.b.b.b.b.b.b.b.b.b.b.b.b.b.b.b.b.b.b.b.b.b.b.b.b.b.b.b.b.b.b.b.b.b.b.b.b.",
"b.b.b.b.b.b.b.b.b.b.b.b.b.b.b.b.b.b.b.b.b.b.b.b.b.b.b.b.b.b.b.b.b.b.b.b.b.b.b.b.b.b.b.b.b.b.b.b.b.b.b.b.b.b.b.b.b.b.b.b.b.b.b.b.b.b.b.b.b.b.",
"b.b.b.b.b.b.b.b.b.b.b.b.b.b.b.b.b.b.b.b.b.b.b.b.b.b.b.b.b.b.b.b.b.b.b.b.b.b.b.b.b.b.b.b.b.b.b.b.b.b.b.b.b.b.b.b.b.b.b.b.b.b.b.b.b.b.b.b.b.b.",
"b.b.b.b.b.b.b.b.b.b.b.b.b.b.b.b.b.b.b.b.b.b.b.b.b.b.b.b.b.b.b.b.b.b.b.b.b.b.b.b.b.b.b.b.b.b.b.b.b.b.b.b.b.b.b.b.b.b.b.b.b.b.b.b.b.b.b.b.b.b.",
"b.b.b.b.b.b.b.b.b.b.b.b.b.b.b.b.b.b.b.b.b.b.b.b.b.b.b.b.b.b.b.b.b.b.b.b.b.b.b.b.b.b.b.b.b.b.b.b.b.b.b.b.b.b.b.b.b.b.b.b.b.b.b.b.b.b.b.b.b.b.",
"b.b.b.b.b.b.b.b.b.b.b.b.b.b.b.b.b.b.b.b.b.b.b.b.b.b.b.b.b.b.b.b.b.b.b.b.b.b.b.b.b.b.b.b.b.b.b.b.b.b.b.b.b.b.b.b.b.b.b.b.b.b.b.b.b.b.b.b.b.b.",
"b.b.b.b.b.b.b.b.b.b.b.b.b.b.b.b.b.b.b.b.b.b.b.b.b.b.b.b.b.b.b.b.b.b.b.b.b.b.b.b.b.b.b.b.b.b.b.b.b.b.b.b.b.b.b.b.b.b.b.b.b.b.b.b.b.b.b.b.b.b."
};
