/* XPM */
static char *d2FsbF9jMQ__[] = {
/* columns rows colors chars-per-pixel */
"70 70 141 2 ",
"   c #3F0AFF",
".  c #3F14FF",
"X  c #3F1DFF",
"o  c #3725FF",
"O  c #3924FF",
"+  c #362CFF",
"@  c #3A2CFF",
"#  c #3531FF",
"$  c #3A36FF",
"%  c #353CFF",
"&  c #3E3BFF",
"*  c #4100FF",
"=  c #410CFF",
"-  c #4113FF",
";  c #411BFF",
":  c #4123FF",
">  c #402AFF",
",  c #4034FF",
"<  c #4039FF",
"1  c #2C4EFF",
"2  c #3440FF",
"3  c #3E42FF",
"4  c #344DFF",
"5  c #3D4BFF",
"6  c #2C53FF",
"7  c #285AFF",
"8  c #3252FF",
"9  c #3C53FF",
"0  c #355AFF",
"q  c #3B5BFF",
"w  c #1F7BFF",
"e  c #2765FF",
"r  c #2964FF",
"t  c #276BFF",
"y  c #2A6AFF",
"u  c #3465FF",
"i  c #3B64FF",
"p  c #336BFF",
"a  c #3A6CFF",
"s  c #2176FF",
"d  c #2B73FF",
"f  c #2079FF",
"g  c #2B7DFF",
"h  c #3772FF",
"j  c #3972FF",
"k  c #337AFF",
"l  c #1C84FF",
"z  c #1C8BFF",
"x  c #1B92FF",
"c  c #159EFF",
"v  c #1A9AFF",
"b  c #2284FF",
"n  c #2F84FF",
"m  c #248EFF",
"M  c #2E8CFF",
"N  c #3584FF",
"B  c #3880FF",
"V  c #348DFF",
"C  c #348EFF",
"Z  c #358BFF",
"A  c #2591FF",
"S  c #2C92FF",
"D  c #2399FF",
"F  c #3492FF",
"G  c #13A2FF",
"H  c #13A3FF",
"J  c #14A1FF",
"K  c #14A2FF",
"L  c #14A3FF",
"P  c #13A4FF",
"I  c #13A5FF",
"U  c #13A6FF",
"Y  c #13A7FF",
"T  c #14A5FF",
"R  c #14A6FF",
"E  c #14A3FF",
"W  c #18A2FF",
"Q  c #18A3FF",
"!  c #1AA2FF",
"~  c #19A6FF",
"^  c #18A3FF",
"/  c #13A8FF",
"(  c #13A9FF",
")  c #12AAFF",
"_  c #13AAFF",
"`  c #12ABFF",
"'  c #11ACFF",
"]  c #10ADFF",
"[  c #11ADFF",
"{  c #12ADFF",
"}  c #10AEFF",
"|  c #11AEFF",
" . c #10AFFF",
".. c #11ADFF",
"X. c #0FB6FF",
"o. c #0EB7FF",
"O. c #0FB5FF",
"+. c #0FB9FF",
"@. c #0DBCFF",
"#. c #0DBEFF",
"$. c #0EBFFF",
"%. c #0EBCFF",
"&. c #10B0FF",
"*. c #10B3FF",
"=. c #10B4FF",
"-. c #10B7FF",
";. c #10B1FF",
":. c #13B8FF",
">. c #26A2FF",
",. c #22A2FF",
"<. c #0CC1FF",
"1. c #0EC0FF",
"2. c #09C7FF",
"3. c #07CCFF",
"4. c #07CDFF",
"5. c #07CEFF",
"6. c #06CFFF",
"7. c #07CEFF",
"8. c #08C9FF",
"9. c #09C9FF",
"0. c #08CAFF",
"q. c #09CAFF",
"w. c #08CBFF",
"e. c #08CCFF",
"r. c #08CAFF",
"t. c #06D0FF",
"y. c #06D1FF",
"u. c #04D6FF",
"i. c #05D6FF",
"p. c #04D7FF",
"a. c #05D7FF",
"s. c #05D6FF",
"d. c #03DAFF",
"f. c #04D8FF",
"g. c #05D8FF",
"h. c #04D9FF",
"j. c #04DAFF",
"k. c #03DCFF",
"l. c #04D9FF",
"z. c None",
"x. c black",
/* pixels */
"z.z.z.z.z.z.z.z.z.z.z.z.z.z.z.z.z.z.z.z.z.z.z.z.z.z.z.z.z.z.z.z.z.z.z.z.z.z.z.z.x.x.x.x.x.x.x.x.x.x.x.x.x.x.x.x.x.x.x.x.x.x.x.x.z.z.z.z.z.z.",
"z.z.z.z.z.z.z.z.z.z.z.z.z.z.z.z.z.z.z.z.z.z.z.z.z.z.z.z.z.z.z.z.z.z.z.z.z.z.z.z.x.x.x.x.x.x.x.x.x.x.x.x.x.x.x.x.x.x.x.x.x.x.x.x.z.z.z.z.z.z.",
"z.z.z.z.z.z.z.z.z.z.z.z.z.z.z.z.z.z.z.z.z.z.z.z.z.z.z.z.z.z.z.z.z.z.z.z.z.z.z.z.x.x.x.x.x.x.x.x.x.x.x.x.x.x.x.x.x.x.x.x.x.x.x.x.z.z.z.z.z.z.",
"z.z.z.z.z.z.z.z.z.z.z.z.z.z.z.z.z.z.z.z.z.z.z.z.z.z.z.z.z.z.z.z.z.z.z.z.z.z.z.z.x.x.x.x.x.x.x.x.x.x.x.x.x.x.x.x.x.x.x.x.x.x.x.x.z.z.z.z.z.z.",
"z.z.z.z.z.z.z.z.z.z.z.z.z.z.z.z.z.z.z.z.z.z.z.z.z.z.z.z.z.z.z.z.z.z.z.z.z.z.z.z.x.x.x.x.x.x.x.x.x.x.x.x.x.x.x.x.x.x.x.x.x.x.x.x.z.z.z.z.z.z.",
"z.z.z.z.z.z.z.z.z.z.z.z.z.z.z.z.z.z.z.z.z.z.z.z.z.z.z.z.z.z.z.z.z.z.z.z.z.z.z.z.x.x.x.x.x.x.x.x.x.x.x.x.x.x.x.x.x.x.x.x.x.x.x.x.z.z.z.z.z.z.",
"z.z.z.z.z.z.z.z.z.z.z.z.z.z.z.z.z.z.z.z.z.z.z.z.z.z.z.z.z.z.z.z.z.z.z.z.z.z.z.z.x.x.x.x.x.x.x.x.x.x.x.x.x.x.x.x.x.x.x.x.x.x.x.x.z.z.z.z.z.z.",
"z.z.z.z.z.z.z.z.z.z.z.z.z.z.z.z.z.z.z.z.z.z.z.z.z.z.z.z.z.z.z.z.z.z.z.z.z.z.z.z.x.x.x.x.x.x.x.x.x.x.x.x.x.x.x.x.x.x.x.x.x.x.x.x.z.z.z.z.z.z.",
"z.z.z.z.z.z.z.z.z.z.z.z.z.z.z.z.z.z.z.z.z.z.z.z.z.z.z.z.z.z.z.z.z.z.z.z.z.z.z.z.z.z.z.z.x.x.x.x.z.z.z.z.z.z.z.z.x.x.x.x.x.x.x.x.z.z.z.z.z.z.",
"z.z.z.z.z.z.z.z.z.z.z.z.z.z.z.z.z.z.z.z.z.z.z.z.z.z.z.z.z.z.z.z.z.z.z.z.z.z.z.z.z.z.z.z.x.x.x.x.z.z.z.z.z.z.z.z.x.x.x.x.x.x.x.x.z.z.z.z.z.z.",
"z.z.z.z.z.z.z.z.z.z.z.z.z.z.z.* : > @ ; - - - - 3 > = * * * *   * * * * * *     * * * * * * * = = X : > > ; =   = - - * * * * * * * *   * * ",
"z.z.z.z.z.z.z.z.z.z.z.z.z.* * * * * * * * = = < V i > * * *     * * * * * * *   * * * = 3 j i ; * * * * * *     * * * * * * * *   * *   * * ",
"z.z.z.z.z.z.z.z.z.z.z.z.                - @ O 3 N q O           =                     X 4 N j O   X q i X               = = =             . ",
"z.z.z.z.z.z.z.z.z.z.z.*   + # # # # # # # 2 $ 2 4 % # # + + # # # + # + # # # + + # + + # # # # # % g >.4 # # # # # + + + # + + # # + # + # ",
"z.z.z.z.z.z.z.z.z.z.z.*   # 7 7 7 r r 7 7 7 7 y f y 7 7 7 7 7 7 7 7 7 7 7 7 7 7 7 7 7 7 7 7 7 7 7 7 t b e e 7 7 7 7 7 7 7 7 7 t 7 7 7 7 7 7 ",
"z.z.z.z.z.z.z.z.z.z.*     + 7 l l Q ~ z l l l z v l l l l l w l l l w l l l w l l l l l l l l l l l l l l c z l l l l l l l x :.z l l l z x ",
"z.z.z.z.z.z.z.z.z.z.* *   # r c ;.$.$. . .' {  . .{ {  .'  .' '  .{ { { '  . .{  .{ { {  .'  .{ {  . .{ { X.O.' ' ' { { { '  .O.+.1.O.'  .X.",
"z.z.z.z.z.z.z.z.z.z.* * O 4 r l { a.f.d.p.a.a.a.a.a.p.p.u.a.u.a.p.p.d.d.p.a.p.d.a.p.d.f.p.p.a.a.p.p.p.p.p.a.a.u.a.p.a.a.p.p.a.a.f.d.a.p.a.p.",
"z.z.z.z.z.z.z.z.z.z.* * i >.b l { p.0.e.0.3.0.3.3.3.0.0.2.2.0.0.0.0.3.3.0.0.0.3.0.0.0.3.0.0.0.0.3.0.0.0.0.0.0.0.3.3.3.0.0.0.2.0.0.0.0.0.0.0.",
"z.z.z.z.z.z.z.z.z.z.* * q g y l { p.0.G G ' Y Y ' Y T K G G Y ' Y c G G G G G c c G K Y ' Y T { 1.$.X.Y c K Y { ' T K K K G G c c K G c G c ",
"z.z.z.z.z.z.z.z.z.z.* * X % 7 l O.a.3.$.w f s f w f s w f f v ~ l s s w w w w w w s w w l f f f l c c b s f f x w w f f s w s s w s s w f f ",
"z.z.z.z.z.z.z.z.z.z.* *   + 7 l ' a.3.1.l y y 6 1 1 1 1 1 6 7 r 7 1 1 1 1 1 1 6 6 1 1 1 1 1 6 1 4 7 r 7 1 1 6 6 6 6 d y 6 1 1 1 1 1 1 1 6 6 ",
"z.z.z.z.z.z.z.z.z.z.* X O # 7 l ' a.0.{ f 1 n 4 + O o O O O o o o O O O o O + 0 k p % + o O O o O O + O O o O o O % S M # O O O O O o O + % ",
"z.z.z.z.z.z.z.z.z.z.* q h % 7 l ' a.0.K f 1 O > * * * * * * * *   * * * * * ; i N a < - = * * * * * * * * * * * * = 3 & = *   * * * * - 5 V ",
"z.z.z.z.z.z.z.z.z.z.* j k % 7 l ' p.0.Y b 1 O * * * * * * * * * * * * * * * * ; : ; * * * * * * * * * * * * * * * * * * * * * * * * * = < i ",
"z.z.z.z.z.z.z.z.z.z.* 5 9 # 7 l  .p.3.Y l 1 o * * * * * * * * * * * * * * * * * * * * * * * * * * * * * * * * * * * * * * * * * * * * * * ; ",
"z.z.z.z.z.z.z.z.z.z.* = . # 7 l { d.3.Y w 1 + = * * z.z.z.z.z.z.z.z.z.z.z.z.z.z.z.z.z.z.z.z.z.z.z.z.z.z.z.z.z.z.z.z.z.z.z.z.z.z.z.z.z.z.z.z.",
"z.z.z.z.z.z.z.z.z.z.* *   + 7 l { a.0.G f 1 % & * * z.z.z.z.z.z.z.z.z.z.z.z.z.z.z.z.z.z.z.z.z.z.z.z.z.z.z.z.z.z.z.z.z.z.z.z.z.z.z.z.z.z.z.z.",
"z.z.z.z.z.z.z.z.z.z.* * = + 7 w  .p.0.K s 1 p a : * z.z.z.z.z.z.z.z.z.z.z.z.z.z.z.z.z.z.z.z.z.z.z.z.z.z.z.z.z.z.z.z.z.z.z.z.z.z.z.z.z.z.z.z.",
"z.z.z.z.z.z.z.z.z.z.* *   # 7 l { a.0.G f 6 k N : * z.z.z.z.z.z.z.z.z.z.z.z.z.z.z.z.z.z.z.z.z.z.z.z.z.z.z.z.z.z.z.z.z.z.z.z.z.z.z.z.z.z.z.z.",
"z.z.z.z.z.z.z.z.z.z.* *   # 7 l  .p.3.G f 6 0 i ; * z.z.z.z.z.z.z.z.z.z.z.z.z.z.z.z.z.z.z.z.z.z.z.z.z.z.z.z.z.z.z.z.z.z.z.z.z.z.z.z.z.z.z.z.",
"z.z.z.z.z.z.z.z.z.z.* *   + 7 l  .p.0.G w 1 + ; * * z.z.z.z.z.z.z.z.z.z.z.z.z.z.z.z.z.z.z.z.z.z.z.z.z.z.z.z.z.z.z.z.z.z.z.z.z.z.z.z.z.z.z.z.",
"z.z.z.z.z.z.z.z.z.z.* *   # 7 l { a.0.G w 1 o * * * z.z.z.z.z.z.z.z.z.z.z.z.z.z.z.z.z.z.z.z.z.z.z.z.z.z.z.z.z.z.z.z.z.z.z.z.z.z.z.z.z.z.z.z.",
"z.z.z.z.z.z.z.z.z.z.* *   # 7 l { f.3.G w 1 o * * * z.z.z.z.z.z.z.z.z.z.z.z.z.z.z.z.z.z.z.z.z.z.z.z.z.z.z.z.z.z.z.z.z.z.z.z.z.z.z.z.z.z.z.z.",
"z.z.z.z.z.z.z.z.z.z.  *   # 7 w  .d.3.G w 1 O * * * z.z.z.z.z.z.z.z.z.z.z.z.z.z.z.z.z.z.z.z.z.z.z.z.z.z.z.z.z.z.z.z.z.z.z.z.z.z.z.z.z.z.z.z.",
"z.z.z.z.z.z.z.z.z.z.      # 7 l { d.3.c w 1 o * * * z.z.z.z.z.z.z.z.z.z.z.z.z.z.z.z.z.z.z.z.z.z.z.z.z.z.z.z.z.z.z.z.z.z.z.z.z.z.z.z.z.z.z.z.",
"z.z.z.z.z.z.z.z.z.z.* *   + 7 l { p.2.G w 6 O * * * z.z.z.z.z.z.z.z.z.z.z.z.z.z.z.z.z.z.z.z.z.z.z.z.z.z.z.z.z.z.z.z.z.z.z.z.z.z.z.z.z.z.z.z.",
"z.z.z.z.z.z.z.z.z.z.* *   # 7 l  .p.0.G b 6 o * * * z.z.z.z.z.z.z.z.z.z.z.z.z.z.z.z.z.z.z.z.z.z.z.z.z.z.z.z.z.z.z.z.z.z.z.z.z.z.z.z.z.z.z.z.",
"z.z.z.z.z.z.z.z.z.z.* *   + 7 l ' a.0.' ~ r O * * * z.z.z.z.z.z.z.z.z.z.z.z.z.z.z.z.z.z.z.z.z.z.z.z.z.z.z.z.z.z.z.z.z.z.z.z.z.z.z.z.z.z.z.z.",
"z.z.z.z.z.z.z.z.z.z.* *   + 7 l ' p.2.Y x r o * * * z.z.z.z.z.z.z.z.z.z.z.z.z.z.z.z.z.z.z.z.z.z.z.z.z.z.z.z.z.z.z.z.z.z.z.z.z.z.z.z.z.z.z.z.",
"z.z.z.z.z.z.z.z.z.z.* * = + 7 w  .a.2.G f 1 O * * * z.z.z.z.z.z.z.z.z.z.z.z.z.z.z.z.z.z.z.z.z.z.z.z.z.z.z.z.z.z.z.z.z.z.z.z.z.z.z.z.z.z.z.z.",
"z.z.z.z.z.z.z.z.z.z.* *   # 7 l ' u.0.K w 1 o * * * z.z.z.z.z.z.z.z.z.z.z.z.z.z.z.z.z.z.z.z.z.z.z.z.z.z.z.z.z.z.z.z.z.z.z.z.z.z.z.z.z.z.z.z.",
"z.z.z.z.z.z.z.z.z.z.* *   # 7 l ' p.0.K w 1 O * * * z.z.z.z.z.z.z.z.z.z.z.z.z.z.z.z.z.z.z.z.z.z.z.z.z.z.z.z.z.z.z.z.z.z.z.z.z.z.z.z.z.z.z.z.",
"z.z.z.z.z.z.z.z.z.z.= > O # 7 b ' p.0.G f 1 o * * * z.z.z.z.z.z.z.z.z.z.z.z.z.z.z.z.z.z.z.z.z.z.z.z.z.z.z.z.z.z.z.z.z.z.z.z.z.z.z.z.z.z.z.z.",
"z.z.z.z.z.z.z.z.z.z.> i q % e z ' u.e.K s 1 O   * * z.z.z.z.z.z.z.z.z.z.z.z.z.z.z.z.z.z.z.z.z.z.z.z.z.> : ;   = * * * * * * * *   * * * *   ",
"z.z.z.z.z.z.z.z.z.z.3 V N 8 f v { a.u.' w 1 o * * * z.z.z.z.z.z.z.z.z.z.z.z.z.z.z.z.z.z.z.z.z.z.* * * * *   * * *   *   - , < :     * * * * ",
"z.z.z.z.z.z.z.z.z.z.- < 3 2 y z ' a.3.' s 7 4 > * * z.z.z.z.z.z.z.z.z.z.z.z.z.z.z.z.z.z.z.z.a $                       . 3 h k 9 .           ",
"z.z.z.z.z.z.z.z.z.z.* = O # 7 l ' a.0.Y f r N q * * z.z.z.z.z.z.z.z.z.z.z.z.z.z.z.z.z.z.z.*   4 % # # # # # # # # # # % 4 p k 8 % # # # # # ",
"z.z.z.z.z.z.z.z.z.z.* = @ % 7 l { a.3.' w y n i * * z.z.z.z.z.z.z.z.z.z.z.z.z.z.z.z.z.z.z.*   # 7 7 7 7 7 7 7 7 7 7 7 7 7 7 e 7 7 7 e 7 7 7 ",
"z.z.z.z.z.z.z.z.z.z.* * - # 7 l  .p.0.G w 1 % : * * z.z.z.z.z.z.z.z.z.z.z.z.z.z.z.z.z.z.z.*   # 7 l l l l l l l l l z l l l l l l l l z l l ",
"z.z.z.z.z.z.z.z.z.z.* *   # 7 x  .d.0.K s 1 o * * * z.z.z.z.z.z.z.z.z.z.z.z.z.z.z.z.z.z.* *   # 7 l O. . .O.X.X.O. .X.X. . .O.O.;.;.{ O.+.X.",
"z.z.z.z.z.z.z.z.z.z.* *   + r Q $.f.0.c s 1 O * * * z.z.z.z.z.z.z.z.z.z.z.z.z.z.z.z.z.z.* *   # 7 l  .p.p.d.k.d.d.p.p.d.d.p.a.p.f.f.d.d.k.d.",
"z.z.z.z.z.z.z.z.z.z.* *   # e K $.p.0.G s 1 O * * * z.z.z.z.z.z.z.z.z.z.z.z.z.z.z.z.z.z.* *   # 7 l  .p.0.2.2.2.2.0.2.e.3.0.2.2.2.0.2.2.2.0.",
"z.z.z.z.z.z.z.z.z.z.* *   + 7 l  .p.0.G w 1 o * * * z.z.z.z.z.z.z.z.z.z.z.z.z.z.z.z.z.z.* * @ % 7 l  .p.3.c c c c c c K Y K c c c v c c c c ",
"z.z.z.z.z.z.z.z.z.z.* *   # 7 l { p.0.G s 1 O - * * z.z.z.z.z.z.z.z.z.z.z.z.z.z.z.z.z.z.* * N 8 7 z O.p.3.c w w s s s s w t s s s s s f b f ",
"z.z.z.z.z.z.z.z.z.z.* *   # 7 l ' a.0.c w 1 + 3 ; * z.z.z.z.z.z.z.z.z.z.z.z.z.z.z.z.z.z.* * Z 6 7 l  .p.0.G w 1 1 1 1 1 1 1 1 1 1 1 r D D d ",
"z.z.z.z.z.z.z.z.z.z.* * = # 7 l { p.3.' s 1 % Z & * z.z.z.z.z.z.z.z.z.z.z.z.z.z.z.z.z.z.* * 9 % 7 l { f.0.T x 8 O X O + O O O X O O % u q % ",
"z.z.z.z.z.z.z.z.z.z.* *   + 7 l { a.3.X.f 1 % N & * z.z.z.z.z.z.z.z.z.z.z.z.z.z.z.z.z.z.* * . # 7 l ;.f.q./ z 6 O : 9 a 5 - * * * * * * * = ",
"z.z.z.z.z.z.z.z.z.z.* *   # 7 l ;.a.0.' l 6 @ > = * z.z.z.z.z.z.z.z.z.z.z.z.z.z.z.z.z.z.* *   # 7 l ;.g.q.c f y $ ; = N q ; * * * * * * * * ",
"z.z.z.z.z.z.z.z.z.z.* * O % 7 v +.a.0.G x 7 O * * * z.z.z.z.z.z.z.z.z.z.z.z.z.z.z.z.z.z.* * = # 7 l ;.f.q.c s A 0 * * * : * * * * * * * * * ",
"z.z.z.z.z.z.z.z.z.z.* * q d r z O.u.2.G f 6 O * * * z.z.z.z.z.z.z.z.z.z.z.z.z.z.z.z.z.z.*     # 7 l +.k.q.c s D p * * * z.z.z.z.z.z.z.z.z.z.",
"z.z.z.z.z.z.z.z.z.z.* = F >.s l ' p.0.G w 1 o * * * z.z.z.z.z.z.z.z.z.z.z.z.z.z.z.z.z.z.*     # 7 l ;.d.0.c s g 0 * * * z.z.z.z.z.z.z.z.z.z.",
"z.z.z.z.z.z.z.z.z.z.* * 9 0 7 l { p.0.Y f 1 O * * * z.z.z.z.z.z.z.z.z.z.z.z.z.z.z.z.z.z.* *   + 7 l { d.2.c s 6 @ * * * z.z.z.z.z.z.z.z.z.z.",
"z.z.z.z.z.z.z.z.z.z.* * - # 7 l { a.e.{ b 7 + * * * z.z.z.z.z.z.z.z.z.z.z.z.z.z.z.z.z.z.* *   % 7 l { d.0.K s 1 O * * * z.z.z.z.z.z.z.z.z.z.",
"z.z.z.z.z.z.z.z.z.z.* * = # 7 l ;.a.3.$.v ,.u * * * z.z.z.z.z.z.z.z.z.z.z.z.z.z.z.z.z.z.* = = % r l { d.0.T s 1 & , - * z.z.z.z.z.z.z.z.z.z.",
"z.z.z.z.z.z.z.z.z.z.* *   % g c { a.e.;.l D 0 = * * z.z.z.z.z.z.z.z.z.z.z.z.z.z.z.z.z.z.- < O # r l X.d.0.K s 1 a k 3 * z.z.z.z.z.z.z.z.z.z.",
"z.z.z.z.z.z.z.z.z.z.* *   % m ~ ' a.0.T w y % * * * z.z.z.z.z.z.z.z.z.z.z.z.z.z.z.z.z.z.3 F a # 7 z O.d.2.c s 1 k Z 5 * z.z.z.z.z.z.z.z.z.z.",
"z.z.z.z.z.z.z.z.z.z.* * X % f c { a.0.T s 7 $ = * * z.z.z.z.z.z.z.z.z.z.z.z.z.z.z.z.z.z.- < O # 7 l { p.0.v s 1 % < - * z.z.z.z.z.z.z.z.z.z.",
"z.z.z.z.z.z.z.z.z.z.* = @ # e z { a.0.G w d p : * * z.z.z.z.z.z.z.z.z.z.z.z.z.z.z.z.z.z.* *   # 7 l ' u.2.K s 1 O * * * z.z.z.z.z.z.z.z.z.z.",
"z.z.z.z.z.z.z.z.z.z.* * ; # e x { a.2.G w d 8 . * * z.z.z.z.z.z.z.z.z.z.z.z.z.z.z.z.z.z.* * = # 7 l { u.3.' s 1 O * * * z.z.z.z.z.z.z.z.z.z."
};
