/* XPM */
static char *wall_e31678570707[] = {
/* columns rows colors chars-per-pixel */
"70 70 75 1 ",
"  c None",
". c #3F0AFF",
"X c #3F14FF",
"o c #3F1DFF",
"O c #3724FF",
"+ c #3923FF",
"@ c #362CFF",
"# c #3A2BFF",
"$ c #3431FF",
"% c #3833FF",
"& c #353CFF",
"* c #3D3AFF",
"= c #4100FF",
"- c #410CFF",
"; c #4115FF",
": c #411BFF",
"> c #4124FF",
", c #4029FF",
"< c #4034FF",
"1 c #4039FF",
"2 c #2C4DFF",
"3 c #3441FF",
"4 c #3E43FF",
"5 c #344BFF",
"6 c #3D4BFF",
"7 c #2C53FF",
"8 c #285BFF",
"9 c #3252FF",
"0 c #3D52FF",
"q c #345AFF",
"w c #3B5BFF",
"e c #1F7BFF",
"r c #2764FF",
"t c #2963FF",
"y c #276BFF",
"u c #296AFF",
"i c #3463FF",
"p c #3B64FF",
"a c #336BFF",
"s c #3A6CFF",
"d c #2175FF",
"f c #2B73FF",
"g c #217AFF",
"h c #2B7DFF",
"j c #3772FF",
"k c #3A72FF",
"l c #337AFF",
"z c #387DFF",
"x c #1C84FF",
"c c #1C8BFF",
"v c #1B94FF",
"b c #159EFF",
"n c #1A9BFF",
"m c #2486FF",
"M c #2F85FF",
"N c #238EFF",
"B c #2C8CFF",
"V c #3584FF",
"C c #3880FF",
"Z c #358BFF",
"A c #2591FF",
"S c #219BFF",
"D c #3492FF",
"F c #14A3FF",
"G c #18A4FF",
"H c #11ADFF",
"J c #0FB5FF",
"K c #0EBDFF",
"L c #10B1FF",
"P c #24A2FF",
"I c #0AC6FF",
"U c #07CDFF",
"Y c #08CAFF",
"T c #04D6FF",
"R c #04D9FF",
/* pixels */
"          ===+2dHYTHx8$-==                  ==;qfdFYTHvt$o==          ",
"          ===+2dbYRHx8$-==                  ==>agdFYTHct$+-=          ",
"          =;<&2dbYTHx8$+1;                  ==-%8eFYTHnh&o==          ",
"          =6Zl2dbYRJc8$aD4                  ===*tgFYTHHN3.==          ",
"          =4Ca2dFYRJc8&@1;                  ==-qSNLURHnh&.==          ",
"          =:<*2dFYRJx8&.==                  ===iPvKUTHxt@-==          ",
"          ===+2dFYTHx8$.==                  ===@8xHYTHx8$X==          ",
"          ===O5dbYRJx8$.==                  ===O7eFYTHx8q6==          ",
"          ===qMebIRJx8$.==                  ===O2eFYTHxdPD-=          ",
"          ===anybYRJx8$.==                  ===O7gFYTJcrfw==          ",
"          ===qAdbYTJx8$.==                  ===O8vFYTJn8&+==          ",
"          =-:%ugbYRHx8$.==                  =-,O7xHYTJx8$.==          ",
"          =-,#7NFYRJx8$X==                  =1V*2gLTTHe8$===          ",
"          =-:+7cFYTHx830==                  =*Z&2gFUTHx8$-==          ",
"          ===+2gFYRHx89Z==                  =>6@2dFUTHx8$.==          ",
"          =>##2dbYRJx89z==                  ==-+7dFUTHx8$.==          ",
"          :pp%2dbURLx8&#==                  ===O2dFYTHx8$.==          ",
"          ,Cz%2eFURHx8$.==                  ===O2gFYTIGt$.==          ",
"          :pw#2gFYRLx8$.==                  ===O2dFYRKFr$-==          ",
"          =>,+5eFUTHx8$.==                  ===O7dFYRLc8$.==          ",
"          ==.O2ebYTJx8$.==                  ==>&7eFYTHx8$;==          ",
"          ==.X2ybYRHx8$.==                  ==wZtdHUTHx8&#-=          ",
"          ...X2ebYRJxt$.==                  ==pVudFUTHx8$>-=          ",
"          ...o3ebYRHx8$.==                  ==,57gHUTHcu341;          ",
"          ===+2ebYTHxt$.==                  ===O2eFTRHvg9VZ4          ",
"          ===o2ybYTHvA3.==                  ===O2eFUTHcr&wp,          ",
"          ===+2dbYTJnn2.==                  ===O2eFYTHx8$+,-          ",
"          ===+2dbYTHng$.==                  ===+2eFYTHx8$.==          ",
"          ===%fvbYTHct$.==                  ===O2eFYTHx8@.==          ",
"          ==.*mnbYTJn8$.==                  ===+2eFYTHe8$-==          ",
"          ===@uNbYTJn8$.==                  ===OtvFYTHx8$.==          ",
"          ===O7gbYTJc8$.==                  ===+tGHYTHx8@.==          ",
"          =..o2dbYTJx8$.==                  ===O8xFYTHx8@.==          ",
"          =..O&dFYRJx8$.==                  ===+2dFYRHx8$.==          ",
"          ...X2dFURKcr$.==                  ===O2dFURHx8@...          ",
"          ...O2dFYRJc8$.==                  ===O2eFURHe8$...          ",
"          ==.o2ebYRHc8$o;=                  ===O2eFUTHx8@.==          ",
"          ==.o2eHYRHx8&q0=                  ===O7eFYTHe8$-==          ",
"          ==.o2cKURJx8&zs-                  ==:#2ebYTHx8@.==          ",
"          ==.o2eLUTHx8&w0=                  =:pq7ebURHx8$.==          ",
"          ===+2eFURJx8$o;=                  =,Vl7dFYTHx8$.==          ",
"          ===o3eFURHx8$.==                  =:ka2eFYTHe8@.==          ",
"          ===o2ebIRLxt@.==                  ==132eFUTHx8$..=          ",
"          -:;+7ebIRHxr$.==                  ==;@2eFUTJx8$X-=          ",
"          ,p0#8mnYRLxt3+=============.=========O2mHYRHx8$66=          ",
"           Cp@7xFYRJcdMp===-:>:================O2xFYTHx8&zk=          ",
"           06+7xHYRKcdBa==-*kZp:===============#2eFYTHx8$jp=          ",
"           ;;+2mHYRLxt5+OO#&alqO+OO++OOOO+OOOO5+2eHYTHx8$+:=          ",
"           ==o2eFYTHx82272222722722277tt2222228t2xIYTHx8@.=           ",
"           ==+2eFITHxcgdexegeeeeeeedgxFveeededdeenKYTJx8&o=           ",
"            =+2dbYRHKIHFFFHFFFFFFFbbFFHFFFFFFHHFHFJUTHxyhw=           ",
"            =+7dbYTUUUYYUUUYYYYUYUTUYYYYYYYYYTUYUYUYTHcmPp            ",
"            =+2gbITTTTTTRRRTTTTTTTRRTTTTTTTTTTTTTTRRRHxr5+            ",
"             +unFLHHLHHHHLHHHHHHHHHHHHHHHHHHHHHHHHLKKLnt$             ",
"              fGnxxxxxxxxxxxxxxexexxexxexexxcncxxxcGGcx8              ",
"               8trmy888888888888888888888888yhy8888tt88               ",
"                %5Ph&@%$&@$$$$$@$@O$$@$$$$$$&93$&$@$@$                ",
"                 +pwo-+jV0X.-..............+wV4:#X.-                  ",
"                   ===:pa6-=====.==.=..====,pZ1--==                   ",
"                       =========..=========-,4;:                      ",
"                                                                      ",
"                                                                      ",
"                                                                      ",
"                                                                      ",
"                                                                      ",
"                                                                      ",
"                                                                      ",
"                                                                      ",
"                                                                      ",
"                                                                      "
};
