/* XPM */
static char *d2FsbF9jNA__[] = {
/* columns rows colors chars-per-pixel */
"70 70 130 2 ",
"   c #3F0FFF",
".  c #3F13FF",
"X  c #3E19FF",
"o  c #3E23FF",
"O  c #372FFF",
"+  c #3B2CFF",
"@  c #3734FF",
"#  c #3A32FF",
"$  c #353AFF",
"%  c #3C3BFF",
"&  c #4102FF",
"*  c #410CFF",
"=  c #4113FF",
"-  c #411BFF",
";  c #4123FF",
":  c #412CFF",
">  c #4033FF",
",  c #403EFF",
"<  c #3543FF",
"1  c #3E45FF",
"2  c #354CFF",
"3  c #3D4CFF",
"4  c #2C55FF",
"5  c #2A5EFF",
"6  c #3451FF",
"7  c #3B55FF",
"8  c #335CFF",
"9  c #3B5CFF",
"0  c #2962FF",
"q  c #296BFF",
"w  c #3363FF",
"e  c #3A61FF",
"r  c #346BFF",
"t  c #396CFF",
"y  c #2774FF",
"u  c #2972FF",
"i  c #207BFF",
"p  c #217BFF",
"a  c #217AFF",
"s  c #2179FF",
"d  c #207CFF",
"f  c #217CFF",
"g  c #207DFF",
"h  c #217FFF",
"j  c #217DFF",
"k  c #3272FF",
"l  c #3276FF",
"z  c #3272FF",
"x  c #3870FF",
"c  c #3971FF",
"v  c #1D87FF",
"b  c #1D86FF",
"n  c #1D88FF",
"m  c #1D89FF",
"M  c #1C8AFF",
"N  c #1D8AFF",
"B  c #1C8BFF",
"V  c #1D8BFF",
"C  c #1C8FFF",
"Z  c #1D8AFF",
"A  c #1C90FF",
"S  c #1B94FF",
"D  c #1B95FF",
"F  c #1D93FF",
"G  c #1B9AFF",
"H  c #2080FF",
"J  c #2081FF",
"K  c #2084FF",
"L  c #2184FF",
"P  c #2087FF",
"I  c #2182FF",
"U  c #2981FF",
"Y  c #2884FF",
"T  c #2885FF",
"R  c #2D83FF",
"E  c #2089FF",
"W  c #208AFF",
"Q  c #248AFF",
"!  c #2888FF",
"~  c #16A1FF",
"^  c #15A2FF",
"/  c #15A3FF",
"(  c #16A2FF",
")  c #16A3FF",
"_  c #15A4FF",
"`  c #15A5FF",
"'  c #14A7FF",
"]  c #15A4FF",
"[  c #19A2FF",
"{  c #1AA2FF",
"}  c #14AAFF",
"|  c #12AEFF",
" . c #12AFFF",
".. c #14ACFF",
"X. c #13ADFF",
"o. c #11B1FF",
"O. c #12B0FF",
"+. c #11B2FF",
"@. c #11B3FF",
"#. c #11B4FF",
"$. c #11B5FF",
"%. c #11B2FF",
"&. c #10B8FF",
"*. c #10B9FF",
"=. c #10BAFF",
"-. c #10BAFF",
";. c #0BC3FF",
":. c #0CC2FF",
">. c #0CC3FF",
",. c #0BC4FF",
"<. c #0BC5FF",
"1. c #0AC7FF",
"2. c #0CC4FF",
"3. c #0CC5FF",
"4. c #0BC5FF",
"5. c #07CDFF",
"6. c #07CEFF",
"7. c #07CFFF",
"8. c #07CDFF",
"9. c #09C8FF",
"0. c #09C9FF",
"q. c #0AC8FF",
"w. c #08CBFF",
"e. c #08CCFF",
"r. c #08CDFF",
"t. c #08CEFF",
"y. c #08CBFF",
"u. c #07D1FF",
"i. c None",
"p. c black",
/* pixels */
"i.i.i.i.i.i.i.i.i.i.& & X $ 0 A $.6.<._ g 4 2 c 9 > i.i.i.i.i.i.i.i.i.i.i.i.i.i.i.i.i.i.& & X @ 0 M $.6.>.( L y 3 o * & p.p.p.p.p.p.p.p.p.p.",
"i.i.i.i.i.i.i.i.i.i.& & X $ 0 V O.w.<.( b 4 < 3 , ; i.i.i.i.i.i.i.i.i.i.i.i.i.i.i.i.i.i.& & X $ 0 M $.6.2.( E T 8 + & & p.p.p.p.p.p.p.p.p.p.",
"i.i.i.i.i.i.i.i.i.i.& & X $ 5 M O.6.<.( i 4 @ o - * i.i.i.i.i.i.i.i.i.i.i.i.i.i.i.i.i.i.& & - $ 0 C $.6.2.( L Y e + * & p.p.p.p.p.p.p.p.p.p.",
"i.i.i.i.i.i.i.i.i.i.& & X $ 5 M +.6.<.( g 4 O . & & i.i.i.i.i.i.i.i.i.i.i.i.i.i.i.i.i.i.& & X $ 0 M +.6.2.( d 0 2 X & & p.p.p.p.p.p.p.p.p.p.",
"i.i.i.i.i.i.i.i.i.i.& & X @ 0 C &.u.<.` i 4 O   & & i.i.i.i.i.i.i.i.i.i.i.i.i.i.i.i.i.i.& & X $ 0 M +.8.<.^ s 4 # = & & p.p.p.p.p.p.p.p.p.p.",
"i.i.i.i.i.i.i.i.i.i.& & X $ 0 D &.6.<.` i 4 +   & & i.i.i.i.i.i.i.i.i.i.i.i.i.i.i.i.i.i.* = # < 0 M +.8.;.^ s 4 + * & & p.p.p.p.p.p.p.p.p.p.",
"i.i.i.i.i.i.i.i.i.i.& & X $ y ( &.6.;.^ i 4 O   & & i.i.i.i.i.i.i.i.i.i.i.i.i.i.i.i.i.i.= + 3 8 0 M +.8.;.^ i 4 + * & & p.p.p.p.p.p.p.p.p.p.",
"i.i.i.i.i.i.i.i.i.i.& & X $ q D O.w.;.^ i 4 + . & & i.i.i.i.i.i.i.i.i.i.i.i.i.i.i.i.i.i.- 1 r r q B +.8.;.G i 4 + . * & p.p.p.p.p.p.p.p.p.p.",
"i.i.i.i.i.i.i.i.i.i.& & X $ 0 M  .w.2.( d 4 # . & & i.i.i.i.i.i.i.i.i.i.i.i.i.i.i.i.i.i.- % e q q M O.6.<.[ p 4 + o : = i.i.i.i.p.p.p.p.p.p.",
"i.i.i.i.i.i.i.i.i.i.& & X @ 5 v  .y.<.` d 5 2 ; * & i.i.i.i.i.i.i.i.i.i.i.i.i.i.i.i.i.i.* ; 1 6 0 C O.6.w.( p 4 $ 3 7 > i.i.i.i.p.p.p.p.p.p.",
"i.i.i.i.i.i.i.i.i.i.& * X $ 5 M O.y.>.` I u k 3 - & i.i.i.i.i.i.i.i.i.i.i.i.i.i.i.i.i.i.& * + < 0 M $.6.<.` p 4 1 9 e > * & & & * ; ; = & & ",
"i.i.i.i.i.i.i.i.i.i.= & X $ 5 v X.y.2.` d y l 3 - & i.i.i.i.i.i.i.i.i.i.i.i.i.i.i.i.i.i.&   X $ 0 M $.6.>.( p 4 $ 3 % - * & & * : 1 3 : * & ",
"i.i.i.i.i.i.i.i.i.i.    X $ 5 v O.y.w.` I 0 2 + * & i.i.i.i.i.i.i.i.i.i.i.i.i.i.i.i.i.i.& & X $ 0 M +.6.>.( p 4 @ # : + > ; - X 1 t c 1 X   ",
"i.i.i.i.i.i.i.i.i.i.&   X @ 5 v O.y.y.} I 4 # X & & i.i.i.i.i.i.i.i.i.i.i.i.i.i.i.i.i.i.& & X $ 0 M +.w.;.( p 4 $ $ 1 9 r 8 % @ < r r 2 @ + ",
"i.i.i.i.i.i.i.i.i.i.    X $ 5 M O.y.y.X.E 5 @   & & i.i.i.i.i.i.i.i.i.i.i.i.i.i.i.i.i.i.* & - $ 5 C $.6.;.( I 0 5 w q Y ! u 5 4 4 4 w 4 4 4 ",
"i.i.i.i.i.i.i.i.i.i.    X $ 0 A O.y.2.` I 4 + * & & i.i.i.i.i.i.i.i.i.i.i.i.i.i.i.i.i.i.* & X $ 0 M $.6.;.` b I E E L L Q d p p p p p p p d ",
"i.i.i.i.i.i.i.i.i.i.- * o < q D $.6.<.` d 4 @   & & i.i.i.i.i.i.i.i.i.i.i.i.i.i.i.i.i.i.=   X $ 0 M +.8.<.o._ ^ ' } ` ( ( ( ( ` ` ( ( ( ( ` ",
"i.i.i.i.i.i.i.i.i.i.; - % 8 u A O.6.2.` d 4 +   & & i.i.i.i.i.i.i.i.i.i.i.i.i.i.i.i.i.i.o   X $ 0 v o.8.6.<.<.<.2.<.2.<.2.2.>.2.<.<.;.;.>.w.",
"i.i.i.i.i.i.i.i.i.i.; : e R U V O.w.<.} E 0 @ . & & i.i.i.i.i.i.i.i.i.i.i.i.i.i.i.i.i.i.; * X $ 0 M o.9.6.6.6.6.y.6.y.y.u.6.y.y.u.u.6.6.y.6.",
"i.i.i.i.i.i.i.i.i.i.; : 7 u y V O.6.w.O.G 0 @ . & & i.i.i.i.i.i.i.i.i.i.i.i.i.i.i.i.i.i.i.& X $ 5 v G | O. .+.+.O.O.O.$.$.$.O.O.O.O.$.O.O.O.",
"i.i.i.i.i.i.i.i.i.i.= = # 6 0 M O.y.y.&.F 0 % * & & i.i.i.i.i.i.i.i.i.i.i.i.i.i.i.i.i.i.i.& X $ 5 i b b v v C M M v M M M M M M C C M M M L ",
"i.i.i.i.i.i.i.i.i.i.= = o $ 0 b X.y.y.&.W 5 # = & & i.i.i.i.i.i.i.i.i.i.i.i.i.i.i.i.i.i.i.* o $ 4 5 0 0 0 0 0 0 0 5 0 5 0 5 5 0 0 0 0 0 0 0 ",
"i.i.i.i.i.i.i.i.i.i.- # % $ 5 b O.y.<.X.b 4 O   & & i.i.i.i.i.i.i.i.i.i.i.i.i.i.i.i.i.i.i.i.% < $ $ $ $ $ < 5 8 4 $ $ $ $ $ $ $ $ < < < $ $ ",
"i.i.i.i.i.i.i.i.i.i.: 7 e 2 0 b O.y.<.` p 4 O   & & i.i.i.i.i.i.i.i.i.i.i.i.i.i.i.i.i.i.i.i.7 # X X X X X $ w t 2 o X X X X X X o % 9 % X X ",
"i.i.i.i.i.i.i.i.i.i.> e r 6 0 M O.y.<.} L 4 @   & & i.i.i.i.i.i.i.i.i.i.i.i.i.i.i.i.i.i.i.i.i.= * & & & * - > , o = & & & & & * - 1 t 1 - & ",
"i.i.i.i.i.i.i.i.i.i.; 1 3 < 0 b O.y.<.} L 4 @ . & & i.i.i.i.i.i.i.i.i.i.i.i.i.i.i.i.i.i.i.i.i.i.i.i.& & & & * * & & & & & & & & * > 3 > = & ",
"i.i.i.i.i.i.i.i.i.i.* ; + $ 5 M O.7.w.` L 4 @ ; * & i.i.i.i.i.i.i.i.i.i.i.i.i.i.i.i.i.i.i.i.i.i.i.i.i.i.i.i.i.i.i.i.i.i.i.i.i.i.i.i.i.i.p.p.",
"i.i.i.i.i.i.i.i.i.i.& * X $ 5 v O.y.2.` I 4 < % ; & i.i.i.i.i.i.i.i.i.i.i.i.i.i.i.i.i.i.i.i.i.i.i.i.i.i.i.i.i.i.i.i.i.i.i.i.i.i.i.i.i.i.p.p.",
"i.i.i.i.i.i.i.i.i.i.& & X $ 5 v O.y.2.` d 5 w e > = i.i.i.i.i.i.i.i.i.i.i.i.i.i.i.i.i.i.i.i.i.i.i.i.i.i.i.i.i.i.i.i.i.i.i.i.i.i.i.i.i.i.i.i.",
"i.i.i.i.i.i.i.i.i.i.& & = $ 5 b O.y.<.( d 0 r t , = i.i.i.i.i.i.i.i.i.i.i.i.i.i.i.i.i.i.i.i.i.i.i.i.i.i.i.i.i.i.i.i.i.i.i.i.i.i.i.i.i.i.i.i.",
"i.i.i.i.i.i.i.i.i.i.& & X $ 5 b  .y.w.` I 0 9 9 > = i.i.i.i.i.i.i.i.i.i.i.i.i.i.i.i.i.i.i.i.i.i.i.i.i.i.i.i.i.i.i.i.i.i.i.i.i.i.i.i.i.i.i.i.",
"i.i.i.i.i.i.i.i.i.i.& & X @ 0 b  .y.<.` d 4 $ > = & i.i.i.i.i.i.i.i.i.i.i.i.i.i.i.i.i.i.i.i.i.i.i.i.i.i.i.i.i.i.i.i.i.i.i.i.i.i.i.i.i.i.i.i.",
"i.i.i.i.i.i.i.i.i.i.&   X $ 5 v  .6.<.` d 4 O X & & i.i.i.i.i.i.i.i.i.i.i.i.i.i.p.p.p.p.p.p.p.p.p.p.p.p.p.p.p.p.p.p.p.p.p.p.p.p.i.i.i.i.i.i.",
"i.i.i.i.i.i.i.i.i.i.    X $ 0 v  .6.<.` d 4 O   & & i.i.i.i.i.i.i.i.i.i.i.i.i.i.p.p.p.p.p.p.p.p.p.p.p.p.p.p.p.p.p.p.p.p.p.p.p.p.i.i.i.i.i.i.",
"i.i.i.i.i.i.i.i.i.i.    . $ 5 v  .6.<.` d 4 O   & & i.i.i.i.i.i.i.i.i.i.i.i.i.i.p.p.p.p.p.p.p.p.p.p.p.p.p.p.p.p.p.p.p.p.p.p.p.p.i.i.i.i.i.i.",
"i.i.i.i.i.i.i.i.i.i.    X $ 5 v  .6.w.` d 4 +   & & i.i.i.i.i.i.i.i.i.i.i.i.i.i.p.p.p.p.p.p.p.p.p.p.p.p.p.p.p.p.p.p.p.p.p.p.p.p.i.i.i.i.i.i.",
"i.i.i.i.i.i.i.i.i.i.& & X @ 5 v  .w.<.( d 4 #   & & i.i.i.i.i.i.i.i.i.i.i.i.i.i.p.p.p.p.p.p.p.p.p.p.p.p.p.p.p.p.p.p.p.p.p.p.p.p.i.i.i.i.i.i.",
"i.i.i.i.i.i.i.i.i.i.& & X $ 5 v  .w.<.' M 8 @ = & & i.i.i.i.i.i.i.i.i.i.i.i.i.i.p.p.p.p.p.p.p.p.p.p.p.p.p.p.p.p.p.p.p.p.p.p.p.p.i.i.i.i.i.i.",
"i.i.i.i.i.i.i.i.i.i.& & X @ 5 b  .w.<. .G q @ . & & i.i.i.i.i.i.i.i.i.i.i.i.i.i.p.p.p.p.p.p.p.p.p.p.p.p.p.p.p.p.p.p.p.p.p.p.p.p.i.i.i.i.i.i.",
"i.i.i.i.i.i.i.i.i.i.& & X $ 0 b  .w.<.} F 0 @ * & & i.i.i.i.i.i.i.i.i.i.i.i.i.i.p.p.p.p.p.p.p.p.p.p.p.p.p.p.p.p.p.p.p.p.p.p.p.p.i.i.i.i.i.i.",
"i.i.i.i.i.i.i.i.i.i.& & X $ 5 b  .w.;.` b 4 #   & & i.i.i.i.i.i.i.i.i.i.i.i.i.i.i.i.i.i.p.p.p.p.i.i.i.i.i.i.i.i.p.p.p.p.p.p.p.p.i.i.i.i.i.i.",
"i.i.i.i.i.i.i.i.i.i.& & X $ 5 b  .w.<.` p 4 O   & & i.i.i.i.i.i.i.i.i.i.i.i.i.i.i.i.i.i.p.p.p.p.i.i.i.i.i.i.i.i.p.p.p.p.p.p.p.p.i.i.i.i.i.i.",
"i.i.i.i.i.i.i.i.i.i.* = X $ 5 b  .w.;.( i 4 O   & & i.i.i.i.i.i.i.i.i.i.i.i.i.i.i.i.i.i.p.p.p.p.i.i.i.i.i.i.i.i.p.p.p.p.p.p.p.p.i.i.i.i.i.i.",
"i.i.i.i.i.i.i.i.i.i.; > @ < 0 M  .w.;.` i 4 O   & & i.i.i.i.i.i.i.i.i.i.i.i.i.i.i.i.i.i.p.p.p.p.i.i.i.i.i.i.i.i.p.p.p.p.p.p.p.p.i.i.i.i.i.i.",
"i.i.i.i.i.i.i.i.i.i., 9 9 6 q A ..y.y.' g 4 @   & & & & = = = & & & &   & & & & & & & & & & & & & & & & & & & * - - * & & & & & & & & & & & ",
"i.i.i.i.i.i.i.i.i.i.3 c r w y F O.y.y.' g 4 $ X & & * - > , > = & & & & & & & & & & & & & & - ; : = & & & & = : 1 1 ; * & & & & & & & & * * ",
"i.i.i.i.i.i.i.i.i.i.> 1 3 6 q A O.t.y.' h 0 2 # X = ; , e t 9 + X             .         = X % 7 7 # -     . o 1 t e % X     * - + + X o > + ",
"i.i.i.i.i.i.i.i.i.i.- ; + < 0 E O.t.2.' I q w < @ # @ 2 w r 9 < + @ + O O @ @ @ + O O O O @ 6 z z 2 @ + O O # < 6 3 $ @ @ O @ 1 w e 2 < 9 9 ",
"i.i.i.i.i.i.i.i.i.i.. = + < 0 M  .w.w.} L y 0 4 4 4 4 5 0 0 5 4 4 4 4 4 4 0 q 0 4 4 4 4 4 4 0 q q 5 4 4 4 4 4 4 4 5 5 0 4 4 4 u ! ! u 0 u u ",
"i.i.i.i.i.i.i.i.i.i.= * X $ 0 M  .6.<.' A M b U L L I I g g d d I d d d d E F A L d d d d I d I L d d d g g i g g I E W I d I W G F E I I I ",
"i.i.i.i.i.i.i.i.i.i.- * X $ 0 A $.6.w.$.$.#.X.` ` } ` ` ` ( ` ( ` ` ` ` ` } o.' ` ` ` ` } } ` } } ` ` ` ` ( ` ` } X.} } ` ` ` X.#.#.' ` ( ` ",
"i.i.i.i.i.i.i.i.i.i.; * X < q G &.6.6.<.w.w.y.2.2.<.w.2.<.<.<.<.<.<.<.w.2.2.;.;.<.<.2.>.2.y.w.<.y.2.2.2.;.<.<.<.w.w.2.2.2.2.2.y.w.2.w.<.>.>.",
"i.i.i.i.i.i.i.i.i.i.; * X $ q G &.6.6.6.w.6.y.y.y.y.6.y.y.y.6.6.6.y.6.6.w.w.w.w.w.w.w.w.6.y.y.6.y.y.7.7.7.y.w.w.w.6.7.y.y.y.y.y.y.y.y.6.y.6.",
"i.i.i.i.i.i.i.i.i.i.- * X $ 0 V ' O. .O.O. .O. .O.O.O. . .O. . . . . . .o.o.| |  . . . .O.$.O.O.O.O.$.=.=.$. . . . .$.&.#.O.X.O.O.O.$.O.O.O.",
"i.i.i.i.i.i.i.i.i.i.* & X @ 5 I A A A V M b M b V M b b b b b b v v b b v v v v b b b M A F A V M M V G G A V M b b V F F W V M V G [ G A A ",
"i.i.i.i.i.i.i.i.i.i.i.& X @ 4 5 0 y U y 0 0 5 0 0 0 5 0 0 5 5 0 5 0 5 5 5 5 5 0 5 5 5 0 q y q 0 0 0 0 q q 0 0 5 5 5 0 q y p q 0 q y Y h q q ",
"i.i.i.i.i.i.i.i.i.i.i.& X + @ $ < 8 R k 2 $ $ 2 2 < $ $ @ $ $ @ $ @ @ $ $ @ $ $ @ $ $ < 6 8 2 < < $ $ $ $ $ $ $ $ $ $ 2 u R w 2 < 2 2 2 < $ ",
"i.i.i.i.i.i.i.i.i.i.i.i.  . X X o % 9 7 @ o % e r 3 + X X X X X X X X X X X X X X - X @ 9 t 3 + + o X X X X = X X X X % 9 c 7 + X o o o + o ",
"i.i.i.i.i.i.i.i.i.i.i.i.i.&     * = : ; = = > 7 e 1 ; * & & & &   & & & & &     & & = # 9 t 3 ; = * & & & & & & & & & = : , ; = & & & * * * ",
"i.i.i.i.i.i.i.i.i.i.i.i.i.i.i.& & & & * & & = > > ; * & & & & &     & & & & &   & & * ; 1 3 : = & & & & & & & & & & & & * = & & & & & & & & ",
"i.i.i.i.i.i.i.i.i.i.i.i.i.i.i.i.i.i.i.i.i.i.i.i.i.i.i.i.i.i.i.i.i.i.i.i.i.i.i.i.i.i.i.i.i.i.i.i.i.i.i.i.i.i.i.i.i.i.i.i.i.i.i.i.i.i.i.i.i.i.",
"i.i.i.i.i.i.i.i.i.i.i.i.i.i.i.i.i.i.i.i.i.i.i.i.i.i.i.i.i.i.i.i.i.i.i.i.i.i.i.i.i.i.i.i.i.i.i.i.i.i.i.i.i.i.i.i.i.i.i.i.i.i.i.i.i.i.i.i.i.i.",
"i.i.i.i.i.i.i.i.i.i.i.i.i.i.i.i.i.i.i.i.i.i.i.i.i.i.i.i.i.i.i.i.i.i.i.i.i.i.i.i.i.i.i.i.i.i.i.i.i.i.i.i.i.i.i.i.i.i.i.i.i.i.i.i.i.i.i.i.i.i.",
"i.i.i.i.i.i.i.i.i.i.i.i.i.i.i.i.i.i.i.i.i.i.i.i.i.i.i.i.i.i.i.i.i.i.i.i.i.i.i.i.i.i.i.i.i.i.i.i.i.i.i.i.i.i.i.i.i.i.i.i.i.i.i.i.i.i.i.i.i.i.",
"i.i.i.i.i.i.i.i.i.i.i.i.i.i.i.i.i.i.i.i.i.i.i.i.i.i.i.i.i.i.i.i.i.i.i.i.i.i.i.i.i.i.i.i.i.i.i.i.i.i.i.i.i.i.i.i.i.i.i.i.i.i.i.i.i.i.i.i.i.i.",
"i.i.i.i.i.i.i.i.i.i.i.i.i.i.i.i.i.i.i.i.i.i.i.i.i.i.i.i.i.i.i.i.i.i.i.i.i.i.i.i.i.i.i.i.i.i.i.i.i.i.i.i.i.i.i.i.i.i.i.i.i.i.i.i.i.i.i.i.i.i.",
"i.i.i.i.i.i.i.i.i.i.i.i.i.i.i.i.i.i.i.i.i.i.i.i.i.i.i.i.i.i.i.i.i.i.i.i.i.i.i.i.i.i.i.i.i.i.i.i.i.i.i.i.i.i.i.i.i.i.i.i.i.i.i.i.i.i.i.i.i.i.",
"i.i.i.i.i.i.i.i.i.i.i.i.i.i.i.i.i.i.i.i.i.i.i.i.i.i.i.i.i.i.i.i.i.i.i.i.i.i.i.i.i.i.i.i.i.i.i.i.i.i.i.i.i.i.i.i.i.i.i.i.i.i.i.i.i.i.i.i.i.i.",
"i.i.i.i.i.i.i.i.i.i.i.i.i.i.i.i.i.i.i.i.i.i.i.i.i.i.i.i.i.i.i.i.i.i.i.i.i.i.i.i.i.i.i.i.i.i.i.i.i.i.i.i.i.i.i.i.i.i.i.i.i.i.i.i.i.i.i.i.i.i.",
"i.i.i.i.i.i.i.i.i.i.i.i.i.i.i.i.i.i.i.i.i.i.i.i.i.i.i.i.i.i.i.i.i.i.i.i.i.i.i.i.i.i.i.i.i.i.i.i.i.i.i.i.i.i.i.i.i.i.i.i.i.i.i.i.i.i.i.i.i.i."
};
