/* XPM */
static char *d2FsbF90Mg__[] = {
/* columns rows colors chars-per-pixel */
"70 70 146 2 ",
"   c #3F0AFF",
".  c #3F14FF",
"X  c #3F1CFF",
"o  c #3725FF",
"O  c #3924FF",
"+  c #372CFF",
"@  c #3A2BFF",
"#  c #3431FF",
"$  c #3936FF",
"%  c #363BFF",
"&  c #3E3BFF",
"*  c #4100FF",
"=  c #410CFF",
"-  c #4113FF",
";  c #411BFF",
":  c #4122FF",
">  c #402BFF",
",  c #4034FF",
"<  c #4039FF",
"1  c #2C4DFF",
"2  c #3440FF",
"3  c #3E43FF",
"4  c #344DFF",
"5  c #3E4CFF",
"6  c #2C52FF",
"7  c #285BFF",
"8  c #3253FF",
"9  c #3C54FF",
"0  c #355AFF",
"q  c #3B5CFF",
"w  c #1F7BFF",
"e  c #2764FF",
"r  c #2965FF",
"t  c #276AFF",
"y  c #2B6BFF",
"u  c #3465FF",
"i  c #3B64FF",
"p  c #336BFF",
"a  c #3A6DFF",
"s  c #2176FF",
"d  c #2B73FF",
"f  c #207AFF",
"g  c #2A7CFF",
"h  c #3772FF",
"j  c #3973FF",
"k  c #347BFF",
"l  c #1C84FF",
"z  c #1C8AFF",
"x  c #1B92FF",
"c  c #159EFF",
"v  c #1A9BFF",
"b  c #2182FF",
"n  c #2F85FF",
"m  c #248EFF",
"M  c #2E8CFF",
"N  c #3684FF",
"B  c #3880FF",
"V  c #348CFF",
"C  c #2591FF",
"Z  c #2C92FF",
"A  c #2399FF",
"S  c #3492FF",
"D  c #13A7FF",
"F  c #13A6FF",
"G  c #13A5FF",
"H  c #14A5FF",
"J  c #14A6FF",
"K  c #14A2FF",
"L  c #18A2FF",
"P  c #18A3FF",
"I  c #1AA2FF",
"U  c #19A6FF",
"Y  c #1AA2FF",
"T  c #13A8FF",
"R  c #13A9FF",
"E  c #12AAFF",
"W  c #13AAFF",
"Q  c #12ABFF",
"!  c #16ABFF",
"~  c #11ACFF",
"^  c #10ADFF",
"/  c #11ADFF",
"(  c #12ADFF",
")  c #10AEFF",
"_  c #11AEFF",
"`  c #10AFFF",
"'  c #11AFFF",
"]  c #12AEFF",
"[  c #11AEFF",
"{  c #0FB3FF",
"}  c #0FB6FF",
"|  c #0EB7FF",
" . c #0FB6FF",
".. c #0EB9FF",
"X. c #0FB9FF",
"o. c #0DBCFF",
"O. c #0DBEFF",
"+. c #0EBEFF",
"@. c #0EBFFF",
"#. c #0FB9FF",
"$. c #10B0FF",
"%. c #11B1FF",
"&. c #10B3FF",
"*. c #11B3FF",
"=. c #10B4FF",
"-. c #11B4FF",
";. c #10B7FF",
":. c #10B1FF",
">. c #13B8FF",
",. c #13B8FF",
"<. c #25A3FF",
"1. c #26A2FF",
"2. c #20A4FF",
"3. c #22A0FF",
"4. c #0CC1FF",
"5. c #0EC0FF",
"6. c #0AC6FF",
"7. c #07CCFF",
"8. c #07CDFF",
"9. c #07CEFF",
"0. c #06CFFF",
"q. c #07CEFF",
"w. c #08C9FF",
"e. c #09C9FF",
"r. c #08CAFF",
"t. c #09CAFF",
"y. c #08CBFF",
"u. c #08CCFF",
"i. c #08CDFF",
"p. c #09C9FF",
"a. c #06D0FF",
"s. c #06D1FF",
"d. c #04D6FF",
"f. c #05D6FF",
"g. c #04D7FF",
"h. c #05D7FF",
"j. c #05D6FF",
"k. c #03DAFF",
"l. c #04D8FF",
"z. c #05D8FF",
"x. c #04D9FF",
"c. c #04DAFF",
"v. c #03DCFF",
"b. c #04D9FF",
"n. c None",
"m. c black",
/* pixels */
"n.n.n.n.n.n.n.n.n.n.n.n.n.n.n.n.n.n.n.n.n.n.n.n.n.n.n.n.n.n.n.n.n.n.n.n.n.n.n.n.n.n.n.n.n.n.n.n.n.n.n.n.n.n.n.n.n.n.n.n.n.n.n.n.n.n.n.n.n.n.",
"n.n.n.n.n.n.n.n.n.n.n.n.n.n.n.n.n.n.n.n.n.n.n.n.n.n.n.n.n.n.n.n.n.n.n.n.n.n.n.n.n.n.n.n.n.n.n.n.n.n.n.n.n.n.n.n.n.n.n.n.n.n.n.n.n.n.n.n.n.n.",
"n.n.n.n.n.n.n.n.n.n.n.n.n.n.n.n.n.n.n.n.n.n.n.n.n.n.n.n.n.n.n.n.n.n.n.n.n.n.n.n.n.n.n.n.n.n.n.n.n.n.n.n.n.n.n.n.n.n.n.n.n.n.n.n.n.n.n.n.n.n.",
"n.n.n.n.n.n.n.n.n.n.n.n.n.n.n.n.n.n.n.n.n.n.n.n.n.n.n.n.n.n.n.n.n.n.n.n.n.n.n.n.n.n.n.n.n.n.n.n.n.n.n.n.n.n.n.n.n.n.n.n.n.n.n.n.n.n.n.n.n.n.",
"n.n.n.n.n.n.n.n.n.n.n.n.n.n.n.n.n.n.n.n.n.n.n.n.n.n.n.n.n.n.n.n.n.n.n.n.n.n.n.n.n.n.n.n.n.n.n.n.n.n.n.n.n.n.n.n.n.n.n.n.n.n.n.n.n.n.n.n.n.n.",
"n.n.n.n.n.n.n.n.n.n.n.n.n.n.n.n.n.n.n.n.n.n.n.n.n.n.n.n.n.n.n.n.n.n.n.n.n.n.n.n.n.n.n.n.n.n.n.n.n.n.n.n.n.n.n.n.n.n.n.n.n.n.n.n.n.n.n.n.n.n.",
"n.n.n.n.n.n.n.n.n.n.n.n.n.n.n.n.n.n.n.n.n.n.n.n.n.n.n.n.n.n.n.n.n.n.n.n.n.n.n.n.n.n.n.n.n.n.n.n.n.n.n.n.n.n.n.n.n.n.n.n.n.n.n.n.n.n.n.n.n.n.",
"n.n.n.n.n.n.n.n.n.n.n.n.n.n.n.n.n.n.n.n.n.n.n.n.n.n.n.n.n.n.n.n.n.n.n.n.n.n.n.n.n.n.n.n.n.n.n.n.n.n.n.n.n.n.n.n.n.n.n.n.n.n.n.n.n.n.n.n.n.n.",
"n.n.n.n.n.n.n.n.n.n.n.n.n.n.n.n.n.n.n.n.n.n.n.n.n.n.n.n.n.n.n.n.n.n.n.n.n.n.n.n.n.n.n.n.n.n.n.n.n.n.n.n.n.n.n.n.n.n.n.n.n.n.n.n.n.n.n.n.n.n.",
"n.n.n.n.n.n.n.n.n.n.n.n.n.n.n.n.n.n.n.n.n.n.n.n.n.n.n.n.n.n.n.n.n.n.n.n.n.n.n.n.n.n.n.n.n.n.n.n.n.n.n.n.n.n.n.n.n.n.n.n.n.n.n.n.n.n.n.n.n.n.",
"* * * * * * * * * * * * * * * * * * * * * * * - 3 > = * * *   * * * * * * * *   * * * * * * * * * * * * * * * * * * * * * * * * * * *   * * ",
"* * * * * * *   = * * * * * * *   * * * * = = < V i > * * *     * * * * * *     * * * = 5 j i . * * * * * * * * * * * * * * * * * * *   * * ",
": O ; =     . 5 S q O                   - > O 3 N q O                                 . 9 N h o   . q i O * =           =                 . ",
"# % % 2 % # # 0 <.d % + + # + # # + # + # 2 # % 8 % # + # + + # # + # + # # # + + # + + # # % + # % g <.1 # # # # + + + + # # + # + # + + # ",
"e e g m f 7 7 7 d e 7 7 7 7 7 7 7 r r 7 7 7 7 y f r 7 7 7 7 7 7 7 7 7 7 7 7 7 7 7 7 7 7 7 7 7 7 7 7 t m e e 7 7 7 7 7 7 7 7 7 t 7 7 7 7 7 7 ",
"x z v ( c z z l l z v z w l l l z P K x l l l z v z l l l w l l l l w l l l w l l l l l l l l l l l l l l c z l l l l l l l x >.z l l l z x ",
") ) ( ( ( ( ) ( ( { ..%.( ( ( ( { O.O.( ) ( ( ) ) ( ( ) ( ) ( ) ) ( W ) ( ( ) ( ( ( ( ( ) ( ) ( ( ) ) ( ( -.-.( ( ( ( ( ( ) ( } ..4.%.( { } ",
"d.d.d.d.d.d.d.d.d.d.d.d.d.d.d.d.d.d.d.k.k.d.d.d.d.d.d.d.d.d.d.d.d.d.k.k.d.d.k.d.d.d.k.l.k.d.d.d.d.d.d.d.d.d.d.d.k.d.d.d.d.d.d.d.l.k.d.d.d.l.",
"w.w.w.w.0.0.w.w.r.r.r.u.0.u.r.u.w.r.r.r.r.0.r.0.s.0.w.w.w.w.w.w.w.w.0.0.0.w.w.0.w.r.r.0.0.p.r.r.0.0.w.w.r.r.r.u.0.0.w.w.r.r.r.r.w.r.w.w.r.r.",
"K K K H %.O.( H K K H W -.W K K K K K K K W H W W H H K K K H W K K c K K K K c K K K H W H H ( O.O.} W K K H ( W H K K K K K K K K K K K K ",
"w f f f z v b f s f x l f w s w s w f s w w s s f f w f f f v U l s s w w w f w w f w w l f f f b v P b f s f x l f s f s s s w s f s f f f ",
"d d 7 y A 2.7 1 1 6 r 6 1 1 1 1 1 1 1 1 1 y r 7 1 1 1 1 1 8 7 r 7 1 1 1 6 1 1 6 6 1 1 1 1 1 6 1 1 7 r 6 6 1 1 6 1 6 d t 6 1 1 1 1 1 1 1 6 6 ",
"8 p $ $ 0 u @ o o O O o % % @ o o o o o $ n N 4 + o o o O O o o o o o O o o @ 0 g u % @ @ o o o o o @ o o o o o O $ Z M # o o O o O o o + % ",
"- : = * = * * * * * * > N V 5 = * * * * : i q > * * * * * * * * * * * * * * ; i N a & - * * * * * * * * * * * * * - 3 < - * * * * * * - 5 V ",
"* * * * * * * * * * *   & & ; * * * * * * * * * * * * * * * * * * * * * * * * ; > ; * * * * * * * * * * * * * * * * * * * * * * * * * = < i ",
"* * * * * * * * * * * * * * * * * * * * * * * * * * * * * * * * * * * * * * * * * * * * * * * * * * * * * * * * * * * * * * * * * * * * * ; ",
"n.n.n.n.n.n.n.n.n.n.n.n.n.n.n.n.n.n.n.n.n.n.n.n.n.n.n.n.n.n.n.n.n.n.n.n.n.n.n.n.n.n.n.n.n.n.n.n.n.n.n.n.n.n.n.n.n.n.n.n.n.n.n.n.n.n.n.n.n.n.",
"n.n.n.n.n.n.n.n.n.n.n.n.n.n.n.n.n.n.n.n.n.n.n.n.n.n.n.n.n.n.n.n.n.n.n.n.n.n.n.n.n.n.n.n.n.n.n.n.n.n.n.n.n.n.n.n.n.n.n.n.n.n.n.n.n.n.n.n.n.n.",
"n.n.n.n.n.n.n.n.n.n.n.n.n.n.n.n.n.n.n.n.n.n.n.n.n.n.n.n.n.n.n.n.n.n.n.n.n.n.n.n.n.n.n.n.n.n.n.n.n.n.n.n.n.n.n.n.n.n.n.n.n.n.n.n.n.n.n.n.n.n.",
"n.n.n.n.n.n.n.n.n.n.n.n.n.n.n.n.n.n.n.n.n.n.n.n.n.n.n.n.n.n.n.n.n.n.n.n.n.n.n.n.n.n.n.n.n.n.n.n.n.n.n.n.n.n.n.n.n.n.n.n.n.n.n.n.n.n.n.n.n.n.",
"n.n.n.n.n.n.n.n.n.n.n.n.n.n.n.n.n.n.n.n.n.n.n.n.n.n.n.n.n.n.n.n.n.n.n.n.n.n.n.n.n.n.n.n.n.n.n.n.n.n.n.n.n.n.n.n.n.n.n.n.n.n.n.n.n.n.n.n.n.n.",
"n.n.n.n.n.n.n.n.n.n.n.n.n.n.n.n.n.n.n.n.n.n.n.n.n.n.n.n.n.n.n.n.n.n.n.n.n.n.n.n.n.n.n.n.n.n.n.n.n.n.n.n.n.n.n.n.n.n.n.n.n.n.n.n.n.n.n.n.n.n.",
"n.n.n.n.n.n.n.n.n.n.n.n.n.n.n.n.n.n.n.n.n.n.n.n.n.n.n.n.n.n.n.n.n.n.n.n.n.n.n.n.n.n.n.n.n.n.n.n.n.n.n.n.n.n.n.n.n.n.n.n.n.n.n.n.n.n.n.n.n.n.",
"n.n.n.n.n.n.n.n.n.n.n.n.n.n.n.n.n.n.n.n.n.n.n.n.n.n.n.n.n.n.n.n.n.n.n.n.n.n.n.n.n.n.n.n.n.n.n.n.n.n.n.n.n.n.n.n.n.n.n.n.n.n.n.n.n.n.n.n.n.n.",
"n.n.n.n.n.n.n.n.n.n.n.n.n.n.n.n.n.n.n.n.n.n.n.n.n.n.n.n.n.n.n.n.n.n.n.n.n.n.n.n.n.n.n.n.n.n.n.n.n.n.n.n.n.n.n.n.n.n.n.n.n.n.n.n.n.n.n.n.n.n.",
"n.n.n.n.n.n.n.n.n.n.n.n.n.n.n.n.n.n.n.n.n.n.n.n.n.n.n.n.n.n.n.n.n.n.n.n.n.n.n.n.n.n.n.n.n.n.n.n.n.n.n.n.n.n.n.n.n.n.n.n.n.n.n.n.n.n.n.n.n.n.",
"n.n.n.n.n.n.n.n.n.n.n.n.n.n.n.n.n.n.n.n.n.n.n.n.n.n.n.n.n.n.n.n.n.n.n.n.n.n.n.n.n.n.n.n.n.n.n.n.n.n.n.n.n.n.n.n.n.n.n.n.n.n.n.n.n.n.n.n.n.n.",
"n.n.n.n.n.n.n.n.n.n.n.n.n.n.n.n.n.n.n.n.n.n.n.n.n.n.n.n.n.n.n.n.n.n.n.n.n.n.n.n.n.n.n.n.n.n.n.n.n.n.n.n.n.n.n.n.n.n.n.n.n.n.n.n.n.n.n.n.n.n.",
"n.n.n.n.n.n.n.n.n.n.n.n.n.n.n.n.n.n.n.n.n.n.n.n.n.n.n.n.n.n.n.n.n.n.n.n.n.n.n.n.n.n.n.n.n.n.n.n.n.n.n.n.n.n.n.n.n.n.n.n.n.n.n.n.n.n.n.n.n.n.",
"n.n.n.n.n.n.n.n.n.n.n.n.n.n.n.n.n.n.n.n.n.n.n.n.n.n.n.n.n.n.n.n.n.n.n.n.n.n.n.n.n.n.n.n.n.n.n.n.n.n.n.n.n.n.n.n.n.n.n.n.n.n.n.n.n.n.n.n.n.n.",
"n.n.n.n.n.n.n.n.n.n.n.n.n.n.n.n.n.n.n.n.n.n.n.n.n.n.n.n.n.n.n.n.n.n.n.n.n.n.n.n.n.n.n.n.n.n.n.n.n.n.n.n.n.n.n.n.n.n.n.n.n.n.n.n.n.n.n.n.n.n.",
"n.n.n.n.n.n.n.n.n.n.n.n.n.n.n.n.n.n.n.n.n.n.n.n.n.n.n.n.n.n.n.n.n.n.n.n.n.n.n.n.n.n.n.n.n.n.n.n.n.n.n.n.n.n.n.n.n.n.n.n.n.n.n.n.n.n.n.n.n.n.",
"n.n.n.n.n.n.n.n.n.n.n.n.n.n.n.n.n.n.n.n.n.n.n.n.n.n.n.n.n.n.n.n.n.n.n.n.n.n.n.n.n.n.n.n.n.n.n.n.n.n.n.n.n.n.n.n.n.n.n.n.n.n.n.n.n.n.n.n.n.n.",
"n.n.n.n.n.n.n.n.n.n.n.n.n.n.n.n.n.n.n.n.n.n.n.n.n.n.n.n.n.n.n.n.n.n.n.n.n.n.n.n.n.n.n.n.n.n.n.n.n.n.n.n.n.n.n.n.n.n.n.n.n.n.n.n.n.n.n.n.n.n.",
"* * - 3 - * * * * * * * * * * n.n.n.n.n.n.n.n.n.n.n.n.n.n.n.n.n.n.n.n.n.n.n.n.n.n.n.n.n.n.n.n.n.n.n.n.n.n.* * * * *   * * * * *     * * * * ",
"* * < S & * * * * * * * * * * * * * n.n.n.n.n.n.n.n.n.n.n.n.n.n.n.n.n.n.n.n.n.n.n.n.n.n.n.n.n.n.n.n.n.*   * * * * * *   - , < :     * *     ",
"=   O i @   =           . 9 V k @       n.n.n.n.n.n.n.n.n.n.n.n.n.n.n.n.n.n.n.n.n.n.n.n.n.n.n.n.n.                    . 3 j k 9 X           ",
"# # # # % % # # # # # # # % 8 8 % # # # # n.n.n.n.n.n.n.n.n.n.n.n.n.n.n.n.n.n.n.n.n.n.n.n.n.n.n.# # # # # # # # # # # % 8 y h 8 # # # # + + ",
"7 7 7 7 e 7 7 7 7 7 7 7 7 7 7 7 7 7 7 7 7 7 n.n.n.n.n.n.n.n.n.n.n.n.n.n.n.n.n.n.n.n.n.n.n.n.n.o 7 7 7 7 7 7 7 7 7 7 7 7 7 7 e 7 7 7 7 7 7 7 ",
"l z l z l l l l l l l l l l l l z l l l l 7 # n.n.n.n.n.n.n.n.n.n.n.n.n.n.n.n.n.n.n.n.n.n.n.n.o 7 l l l l l z l l l z z l l l l l l z l l z ",
"( %.{ { } %.) ) { } { ( ) ) { { ) ) ) ) l 7 %   n.n.n.n.n.n.n.n.n.n.n.n.n.n.n.n.n.n.n.n.n.n.* @ r P { %.( { ..} { { } } %.%.{ ) ) { ) { ..} ",
"l.l.d.d.k.l.k.d.k.v.k.l.k.d.k.d.k.k.d.) l 7 +   n.n.n.n.n.n.n.n.n.n.n.n.n.n.n.n.n.n.n.n.n.n.* O 6 l H d.l.l.k.l.d.d.d.l.k.d.d.k.k.k.k.d.v.k.",
"0.r.w.w.w.w.w.r.p.r.p.p.r.w.p.w.0.w.d.) l 7 #   n.n.n.n.n.n.n.n.n.n.n.n.n.n.n.n.n.n.n.n.n.n.* o 6 s K r.r.p.r.r.w.w.w.w.0.r.p.p.w.w.p.w.p.r.",
"R K v v c H H c c c c K H H K c c w.k.{ l 7 #   * n.n.n.n.n.n.n.n.n.n.n.n.n.n.n.n.n.n.n.n.* * o 1 s K r.d.c c c v c c c H K c v c v v c v K ",
"s s s s w s s t s d s f x z w v c w.k.| z 7 #   * n.n.n.n.n.n.n.n.n.n.n.n.n.n.n.n.n.n.n.n.* * o 1 f H r.d.%.v b w s w w w w w t s s s f b f ",
"1 1 1 1 1 1 1 1 g v C y 8 8 7 l c w.v.| l 7 #   * n.n.n.n.n.n.n.n.n.n.n.n.n.n.n.n.n.n.n.* * * o 7 z ( u.d.( l 7 1 1 1 1 2 1 1 1 1 1 y A A d ",
"O o % k p $ o @ 0 p q $ o O 1 s c p.d.%.l 7 #   * n.n.n.n.n.n.n.n.n.n.n.n.n.n.n.n.n.n.n.* * * o 1 w W 0.d.~ l 6 X X @ @ o O X O O O % u 0 $ ",
"* * < V B < * * * * * ; - O 1 s c p.d.( l 7 +   * n.n.n.n.n.n.n.n.n.n.n.n.n.n.n.n.n.n.n.* * - % 6 w H s.d.~ l 7 # . 9 a 5 - * * * * * * * = ",
"* * - 5 3 ; * * * * * i 9 o 1 s c r.k.} z 7 #   * * n.n.n.n.n.n.n.n.n.n.n.n.n.n.n.n.n.n.* * 3 Z d w K w.d.) l 7 #   u B q ; * * * * * * * * ",
"* * * * * * * * * * > N a @ 1 s K 0.l.} z 7 % . * * n.n.n.n.n.n.n.n.n.n.n.n.n.n.n.n.n.n.* * < M t w K w.d.~ l 7 #   * @ : * * * * * * * * * ",
"m.m.m.m.n.n.n.n.n.n.; q 5 O 4 f K u.l.%.l 7 8 3 - * n.n.n.n.n.n.n.n.n.n.n.n.n.n.n.n.n.n.* * = # 1 s c w.d.( l 7 +   * * n.n.n.n.n.n.n.n.n.n.",
"m.m.m.m.n.n.n.n.n.n.* ; - O 1 f K r.l.%.z 7 y j , * n.n.n.n.n.n.n.n.n.n.n.n.n.n.n.n.n.n.* * * o 1 w K w.d.) l 7 #   * * n.n.n.n.n.n.n.n.n.n.",
"m.m.m.m.n.n.n.n.n.n.* *   o 1 s c p.l.) l 7 h k < * n.n.n.n.n.n.n.n.n.n.n.n.n.n.n.n.n.n.* * * o 1 w K r.d.( x 7 #   * * n.n.n.n.n.n.n.n.n.n.",
"m.m.m.m.n.n.n.n.n.n.* * * X 1 t c r.k.) l r 8 9 : * n.n.n.n.n.n.n.n.n.n.n.n.n.n.n.n.n.n.* * * O 1 s K r.l.} >.t +   * * n.n.n.n.n.n.n.n.n.n.",
"m.m.m.m.m.m.m.m.n.n.* * * O 1 s v p.l.%.l 7 % X     n.n.n.n.n.n.n.n.n.n.n.n.n.n.n.n.n.n.* * * O 1 s K w.k...z 7 #   *   n.n.n.n.n.n.n.n.n.n.",
"m.m.m.m.m.m.m.m.n.n.* * * O 1 s c p.k.) l 7 #       n.n.n.n.n.n.n.n.n.n.n.n.n.n.n.n.n.n.* * * o 1 f K r.v.4.z 7 +   * * n.n.n.n.n.n.n.n.n.n.",
"m.m.m.m.m.m.m.m.n.n.* * * % y f c p.d.%.z 7 #     * n.n.n.n.n.n.n.n.n.n.n.n.n.n.n.n.n.n.* * * o 1 s K w.d.) l 7 #     * n.n.n.n.n.n.n.n.n.n.",
"m.m.m.m.m.m.m.m.n.n.* * * i A f v p.k.} z 7 #   * * n.n.n.n.n.n.n.n.n.n.n.n.n.n.n.n.n.n.* = - o 1 w c w.d.W l 7 +   * * n.n.n.n.n.n.n.n.n.n.",
"m.m.m.m.m.m.m.m.n.n.* * * 0 A b c w.k.} l 7 #   * * n.n.n.n.n.n.n.n.n.n.n.n.n.n.n.n.n.n.* < 5 @ 6 f K w.d.{ l 7 +   * * n.n.n.n.n.n.n.n.n.n.",
"m.m.m.m.m.m.m.m.n.n.* * = $ d f c w.k.{ l 7 #   * * n.n.n.n.n.n.n.n.n.n.n.n.n.n.n.n.n.n.; a V % 1 w K w.l...x 7 # . * * n.n.n.n.n.n.n.n.n.n."
};
