/* XPM */
static char *wall_e11678570707[] = {
/* columns rows colors chars-per-pixel */
"70 70 75 1 ",
"  c None",
". c #3F0AFF",
"X c #3F14FF",
"o c #3F1DFF",
"O c #3724FF",
"+ c #3923FF",
"@ c #362CFF",
"# c #3A2BFF",
"$ c #3431FF",
"% c #3833FF",
"& c #353CFF",
"* c #3D3AFF",
"= c #4100FF",
"- c #410CFF",
"; c #4115FF",
": c #411BFF",
"> c #4124FF",
", c #4029FF",
"< c #4034FF",
"1 c #4039FF",
"2 c #2C4DFF",
"3 c #3441FF",
"4 c #3E43FF",
"5 c #344BFF",
"6 c #3D4BFF",
"7 c #2C53FF",
"8 c #285BFF",
"9 c #3252FF",
"0 c #3D52FF",
"q c #345AFF",
"w c #3B5BFF",
"e c #1F7BFF",
"r c #2764FF",
"t c #2963FF",
"y c #276BFF",
"u c #296AFF",
"i c #3463FF",
"p c #3B64FF",
"a c #336BFF",
"s c #3A6CFF",
"d c #2175FF",
"f c #2B73FF",
"g c #217AFF",
"h c #2B7DFF",
"j c #3772FF",
"k c #3A72FF",
"l c #337AFF",
"z c #387DFF",
"x c #1C84FF",
"c c #1C8BFF",
"v c #1B94FF",
"b c #159EFF",
"n c #1A9BFF",
"m c #2486FF",
"M c #2F85FF",
"N c #238EFF",
"B c #2C8CFF",
"V c #3584FF",
"C c #3880FF",
"Z c #358BFF",
"A c #2591FF",
"S c #219BFF",
"D c #3492FF",
"F c #14A3FF",
"G c #18A4FF",
"H c #11ADFF",
"J c #0FB5FF",
"K c #0EBDFF",
"L c #10B1FF",
"P c #24A2FF",
"I c #0AC6FF",
"U c #07CDFF",
"Y c #08CAFF",
"T c #04D6FF",
"R c #04D9FF",
/* pixels */
"                                                                      ",
"                                                                      ",
"                                                                      ",
"                                                                      ",
"                                                                      ",
"                                                                      ",
"                                                                      ",
"                                                                      ",
"                                                                      ",
"                                                                      ",
"                      :;4,-===.=======..=======                       ",
"                   ==--<Zp,===..=====.=.===-4kp:===                   ",
"                  -.X#o4Vw+................X0Vl+-owp+                 ",
"                $$@$$&&39&$$@@$$$@$@$$@$@$@@$$$$@&hP5$                ",
"               88tr8888yht888888888888888888888888umtt8               ",
"              8xcGFcxxxcvcxxxexxxxexxxexxxxxxxxxxxxxcnGf              ",
"             $tnLKKJHHHHHHHHHHHHHHHHHHHHHHHLHHHHHJHHHbnu#             ",
"            +5tcHRRRRTTTTTTTTTTTTRRRTTTRTTRRRTTTTTTTYbd2+=            ",
"            pPmxHTYUYYUUTYYYYIYYYYYUUYYUYYUUUYUYUUYTYnd2+=            ",
"           =whuxLTYLFHHFHFFFFFFHFFFFFFFbFFFFHFFHIKHRIFd7+=            ",
"           =o&8xLTYKngggggeeggnGxeeeeeeeggdxxggexxJTYbd2+==           ",
"           =.$8xHTUIx2u7222222tt82222727722222228xHRYFg2o==           ",
"          =:+$8xHTYHg2+5OOO+++OO++oOOO@qla&#++O58cJRYHx2+.;           ",
"          =pk$8xHTUFg2+=-=======.=..==:pVs1--=aBfvJRYHc2+6w           ",
"          =kV$8xHTYFg7+=========.======:>:-==-pBdcJTYFm7+sz           ",
"          =65$8xHTUHc2O-======================o58xLTIbc8+0p,          ",
"          =-X$8xLRUFg2@-==                  ==.$txJTIFe7+;:-          ",
"          ==.@8xHTUFg2&*-=                  ==.$txHRIby2+===          ",
"          ==-@8eHTYFd2ik:=                  ==.$8xLRYbd2+===          ",
"          ==.$8xHTYFg7lZ>=                  =Xo$8xLRTFd2o===          ",
"          ==.$8xHRUbg7qp:=                  -6w$8xHRULe2+===          ",
"          ==.@8xHRUFg2@:==                  -sl&8xJRYKv2o.==          ",
"          ==.$8xHTYFe7O===                  -6w&8xJTYHc2o.==          ",
"          ==.@8xHTUFe2O===                  =;o$8xHRYbd2o===          ",
"          ...$8xHRUFe2O===                  ==.$8cJRYFy2o..=          ",
"          ...@8xHRYbe2+===                  ==.$rcKRYFd2O.=.          ",
"          ==.$8eHTYFe2O===                  ==.$8xJRYFd2+===          ",
"          ==.$8xHTYFm7O===                  =..$8xJTYbd2o===          ",
"          ==.@8xHTYHGu+===                  ==.$8cJRYbe7O.==          ",
"          ==.@8xHTYFvtO===                  ==.$rvJTYbxu@===          ",
"          ==-@8gHTYFe2+.==                  ==.$8bJTYFnm&==.          ",
"          ==.$8xHTYFe2o.==                  ==.$8cHTYbvy%===          ",
"          ==.$8xHTYFe2O.==                  =..&gnJTYbd2+===          ",
"          -,+$8xHTYFe2o.==                  =..5SnHTIbd2o===          ",
"          ,pw&rcHTYFe2o.==                  ==.3AvHRYby2+===          ",
"          4ZV2hnHTTHe2O.==                  ==.$rxHRIbe2o===          ",
"          ;143ucHTUHg73#==                  ==.$8xHRYbe2+.==          ",
"          =-+$8xHTUFgtMw==                  ==.$8xJRYby2o===          ",
"          =-#&8xHTUHeyMp==                  =..@8xJRYbe2o.==          ",
"          ==;$8xHTYFe2$:==                  ==.$8xHRYbe3o.==          ",
"          ==-$8cJTUbe2o.==                  ==.$8xHRYFe2O++=          ",
"          ==.$tFKTYFe2O.==                  ==.$8xHRYFe2Oqp:          ",
"          ==.$tFKTYFe2O===                  ==.$8cJTUFe3%zC,          ",
"          ==.@8cHTYFe2+===                  ==#&8xHRUFe3%sp:          ",
"          ==.@8xHTYbe2+;==                  ==V98xJRYbe2#>>=          ",
"          ==.@8xHTYbe2#4:=                  ==Z78xHRYFe2+===          ",
"          ==.$8xHTUHg2&Z*=                  ==0&8xHRIHv7+:-=          ",
"          ==.@8xHTULg2&V1=                  ==X$8xLRYFN7#,-=          ",
"          ==.@8xHTYHx7#,-=                  ==.$8xHRIFgu%:-=          ",
"          ==+&8bKTYFv8+===                  ==-$8xLRYbdAw===          ",
"          ==wjycJTYFe7O===                  =..$8xKRYbdSa===          ",
"          =-DPdxHTYFg2O===                  =..$8xJRIbdhq===          ",
"          ==6q8xHTYFg2O===                  ==.$8xHTYbd2#===          ",
"          ==X$8cHTUHm8#===                  ==.$8xHTIFd2+-==          ",
"          ==-@txHTUKvPi===                  =--&txJTYFd2%<:=          ",
"          ==.&gnHTULcSq-==                  ;1+$8xJRUbd2sC4=          ",
"          ==.3NFHTYFet&===                  4Dp$8cJRYbd2lZ6=          ",
"          ==o&hbHTUFe7*-==                  ;1#$8cHTIFd2&<;=          ",
"          =-#$tcHTYFdhi>==                  ==.$8xHRYFd2+===          ",
"          ==o$rvHTYGddq;==                  ==-$8xLTUFd2+===          "
};
