/* XPM */
static char *d2FsbF90NA__[] = {
/* columns rows colors chars-per-pixel */
"70 70 139 2 ",
"   c #3F0AFF",
".  c #3F14FF",
"X  c #3F1CFF",
"o  c #3725FF",
"O  c #3924FF",
"+  c #372CFF",
"@  c #3A2BFF",
"#  c #3431FF",
"$  c #3936FF",
"%  c #363BFF",
"&  c #3E3BFF",
"*  c #4100FF",
"=  c #410CFF",
"-  c #4113FF",
";  c #411BFF",
":  c #4122FF",
">  c #402BFF",
",  c #4034FF",
"<  c #4039FF",
"1  c #2C4DFF",
"2  c #3440FF",
"3  c #3E43FF",
"4  c #344DFF",
"5  c #3E4CFF",
"6  c #2C52FF",
"7  c #285BFF",
"8  c #3253FF",
"9  c #3C54FF",
"0  c #355AFF",
"q  c #3B5CFF",
"w  c #1F7BFF",
"e  c #2764FF",
"r  c #2965FF",
"t  c #276AFF",
"y  c #2B6BFF",
"u  c #3465FF",
"i  c #3B64FF",
"p  c #336BFF",
"a  c #3A6DFF",
"s  c #2176FF",
"d  c #2B73FF",
"f  c #207AFF",
"g  c #2A7CFF",
"h  c #3772FF",
"j  c #3973FF",
"k  c #347BFF",
"l  c #1C84FF",
"z  c #1C8AFF",
"x  c #1B92FF",
"c  c #159EFF",
"v  c #1A9BFF",
"b  c #2182FF",
"n  c #2F85FF",
"m  c #248EFF",
"M  c #2E8CFF",
"N  c #3782FF",
"B  c #3585FF",
"V  c #3880FF",
"C  c #348AFF",
"Z  c #368CFF",
"A  c #348EFF",
"S  c #348CFF",
"D  c #2591FF",
"F  c #2C92FF",
"G  c #2C92FF",
"H  c #2398FF",
"J  c #2399FF",
"K  c #229AFF",
"L  c #3492FF",
"P  c #13A3FF",
"I  c #14A0FF",
"U  c #15A0FF",
"Y  c #14A1FF",
"T  c #15A1FF",
"R  c #15A3FF",
"E  c #13A6FF",
"W  c #14A4FF",
"Q  c #14A5FF",
"!  c #14A2FF",
"~  c #1AA2FF",
"^  c #19A3FF",
"/  c #13A9FF",
"(  c #13AAFF",
")  c #11ACFF",
"_  c #10ADFF",
"`  c #11ADFF",
"'  c #11AEFF",
"]  c #10AFFF",
"[  c #11AFFF",
"{  c #11ADFF",
"}  c #0FB3FF",
"|  c #0FB4FF",
" . c #0FB5FF",
".. c #0EB6FF",
"X. c #0FB6FF",
"o. c #0EB7FF",
"O. c #0FB5FF",
"+. c #0FB9FF",
"@. c #0EBCFF",
"#. c #10B0FF",
"$. c #10B1FF",
"%. c #10B3FF",
"&. c #10B4FF",
"*. c #10B2FF",
"=. c #13B8FF",
"-. c #13B8FF",
";. c #22A0FF",
":. c #24A3FF",
">. c #0CC1FF",
",. c #09C7FF",
"<. c #0DC1FF",
"1. c #07CDFF",
"2. c #07CEFF",
"3. c #07CFFF",
"4. c #07CDFF",
"5. c #08C8FF",
"6. c #09C8FF",
"7. c #08C9FF",
"8. c #09C9FF",
"9. c #08CAFF",
"0. c #08CBFF",
"q. c #09CBFF",
"w. c #08CAFF",
"e. c #06D0FF",
"r. c #04D6FF",
"t. c #05D6FF",
"y. c #04D7FF",
"u. c #05D7FF",
"i. c #05D6FF",
"p. c #03DAFF",
"a. c #03DBFF",
"s. c #04D8FF",
"d. c #05D8FF",
"f. c #04D9FF",
"g. c #04DAFF",
"h. c #03DCFF",
"j. c #04D9FF",
"k. c None",
"l. c black",
/* pixels */
"k.k.k.k.k.k.k.k.k.k.* * . # 7 x ..y.6.R w 6 % L a ; k.k.k.k.k.k.k.k.k.k.k.k.k.k.k.k.k.k.* *   # 7 l ..p.5.v w d $   * * k.k.k.k.k.k.k.k.k.k.",
"k.k.k.k.k.k.k.k.k.k.* *   + 7 z ] y.6.R f 1 + 5 , * k.k.k.k.k.k.k.k.k.k.k.k.k.k.k.k.k.k.* *   # 7 z +.h.5.c w K 0   * * k.k.k.k.k.k.k.k.k.k.",
"k.k.k.k.k.k.k.k.k.k.* *   + 7 l ] y.7.Y s 1 o = = * k.k.k.k.k.k.k.k.k.k.k.k.k.k.k.k.k.k.* *   # 7 l ..p.5.c w K u * * * k.k.k.k.k.k.k.k.k.k.",
"k.k.k.k.k.k.k.k.k.k.* *   + 7 l #.p.7.Y w 1 o * * * k.k.k.k.k.k.k.k.k.k.k.k.k.k.k.k.k.k.* *   # 7 l } r.5.v w t % * * * k.k.k.k.k.k.k.k.k.k.",
"k.k.k.k.k.k.k.k.k.k.* *   + 7 z >.h.6.Y f 1 O * * * k.k.k.k.k.k.k.k.k.k.k.k.k.k.k.k.k.k.*     # e l ] g.6.c s 2 O * * * k.k.k.k.k.k.k.k.k.k.",
"k.k.k.k.k.k.k.k.k.k.* *   # 7 x +.g.6.R w 1 O * * * k.k.k.k.k.k.k.k.k.k.k.k.k.k.k.k.k.k.    X % 7 l ] p.6.c w 1 X * * * k.k.k.k.k.k.k.k.k.k.",
"k.k.k.k.k.k.k.k.k.k.  *   + t ..#.y.7.c s 1 o * * * k.k.k.k.k.k.k.k.k.k.k.k.k.k.k.k.k.k.* ; 9 8 7 l } p.6.c s 2 O * * * k.k.k.k.k.k.k.k.k.k.",
"k.k.k.k.k.k.k.k.k.k.*     # 7 x ] y.,.c w 1 O * * * k.k.k.k.k.k.k.k.k.k.k.k.k.k.k.k.k.k.* , k h e l _ p.6.c s 1 O * * * k.k.k.k.k.k.k.k.k.k.",
"k.k.k.k.k.k.k.k.k.k.* *   + 7 l ] y.6.Y w 1 O * * * k.k.k.k.k.k.k.k.k.k.k.k.k.k.k.k.k.k.* , h y 7 l ] g.6.R s 1 X . ; * k.k.k.k.k.k.k.k.k.k.",
"k.k.k.k.k.k.k.k.k.k.* * = # 7 l ] e.6.R s 1 % = * * k.k.k.k.k.k.k.k.k.k.k.k.k.k.k.k.k.k.* - 3 4 7 l #.g.1.Q s 1 O 5 q : k.k.k.k.k.k.k.k.k.k.",
"* * * * * *     * : > *   + 7 l ] y.7.Y w t M & * * k.k.k.k.k.k.k.k.k.k.k.k.k.k.k.k.k.k.* * . % 7 z &.g.1.R s 6 + a N > * * * * * * * * * * ",
"* * * * * *     ; q N i   + 7 l ] g.7.R s d G 3 * * k.k.k.k.k.k.k.k.k.k.k.k.k.k.k.k.k.k.*     # 7 z &.g.,.c s 1 @ 9 i * * * * * ; 3 5 - * * ",
"= * * *         - 5 a 9 . # 7 l ] y.1.Q s 6 % - * * k.k.k.k.k.k.k.k.k.k.k.k.k.k.k.k.k.k.k.*   # 7 l } y.6.c s 1 O - ; * * * * * $ k Z , * * ",
"$ 0 u 2 X X . X O O @ o o X 7 l ( y.e.( l 1 O * * * k.k.k.k.k.k.k.k.k.k.k.k.k.k.k.k.k.k.k.*   # 7 l } r.6.c s 1 O O $ 0 h 8 @ @ $ u k & O O ",
"d J K y 1 1 1 2 1 1 1 1 1 2 7 l ] y.6.] z 6 o * * * k.k.k.k.k.k.k.k.k.k.k.k.k.k.k.k.k.k.k.*   # 7 l ..p.6.c b 7 6 6 y D K g 1 1 1 1 1 1 1 1 ",
"f b f s w t w s s s s w w w l v #.g.6.R f 6 O * * k.k.k.k.k.k.k.k.k.k.k.k.k.k.k.k.k.k.k.k.*   # 7 l ..p.6.c ~ w z m f s s s s s d s s s s s ",
"c c c c c c c c Y Q R c c c c c Y y.7.Y w 1 o * * k.k.k.k.k.k.k.k.k.k.k.k.k.k.k.k.k.k.k.k.*   # 7 l ..g.6.c R Y Q Q R c c c c Q Q c c c R ( ",
"6.6.6.6.6.6.6.,.7.1.1.7.6.,.6.6.,.,.7.Y s 1 + * k.k.k.k.k.k.k.k.k.k.k.k.k.k.k.k.k.k.k.k.k.k.  # 7 l ] y.6.1.7.6.6.7.6.6.6.6.6.6.1.7.6.6.6.1.",
"g.h.p.y.g.g.g.g.r.p.p.p.y.g.p.g.p.y.y.Q l 6 o * k.k.k.k.k.k.k.k.k.k.k.k.k.k.k.k.k.k.k.k.k.k.  # 7 l ] y.g.y.y.y.p.p.g.g.g.g.g.y.p.p.p.r.g.y.",
"&.+...] ] #.] ] _ } ....#.#.....#.] ] ] ^ r o * k.k.k.k.k.k.k.k.k.k.k.k.k.k.k.k.k.k.k.k.k.k.  # 7 l ] ] ] #.#.} _ _ ] #...#.] ] _ ..} } ] ] ",
"l z l z l l l l l l z z l l l l l z l l l 7 O k.k.k.k.k.k.k.k.k.k.k.k.k.k.k.k.k.k.k.k.k.k.k.k.# 7 l l l z l l l l z l l l l l l l l z l l l ",
"7 7 7 7 7 7 7 e 7 7 7 7 7 7 7 7 7 7 7 7 7 7 @ k.k.k.k.k.k.k.k.k.k.k.k.k.k.k.k.k.k.k.k.k.k.k.k.k.7 7 7 7 7 7 7 7 7 7 7 7 7 7 7 7 e 7 7 7 7 7 ",
"# # # # # % 8 d d 4 % # # # # # # # # # # # k.k.k.k.k.k.k.k.k.k.k.k.k.k.k.k.k.k.k.k.k.k.k.k.k.k.k.# # # # $ 8 8 % # # # # # # # % $ $ # $ # ",
"          ; 9 k h 3 .                     k.k.k.k.k.k.k.k.k.k.k.k.k.k.k.k.k.k.k.k.k.k.k.k.k.k.k.k.k.      $ k C 9 X             = @ u O     ",
"  * * * * * : < , - * * * * * *   * * k.k.k.k.k.k.k.k.k.k.k.k.k.k.k.k.k.k.k.k.k.k.k.k.k.k.k.k.k.k.k.k.k.* * * *     * * * * * * * < L < * * ",
"*   * * * * * * * * * * * * * * * k.k.k.k.k.k.k.k.k.k.k.k.k.k.k.k.k.k.k.k.k.k.k.k.k.k.k.k.k.k.k.k.k.k.k.k.k.k.* * * * * * * * * * - 5 - * * ",
"k.k.k.k.k.k.k.k.k.k.k.k.k.k.k.k.k.k.k.k.k.k.k.k.k.k.k.k.k.k.k.k.k.k.k.k.k.k.k.k.k.k.k.k.k.k.k.k.k.k.k.k.k.k.k.k.k.k.k.k.k.k.k.k.k.k.k.k.k.k.",
"k.k.k.k.k.k.k.k.k.k.k.k.k.k.k.k.k.k.k.k.k.k.k.k.k.k.k.k.k.k.k.k.k.k.k.k.k.k.k.k.k.k.k.k.k.k.k.k.k.k.k.k.k.k.k.k.k.k.k.k.k.k.k.k.k.k.k.k.k.k.",
"k.k.k.k.k.k.k.k.k.k.k.k.k.k.k.k.k.k.k.k.k.k.k.k.k.k.k.k.k.k.k.k.k.k.k.k.k.k.k.k.k.k.k.k.k.k.k.k.k.k.k.k.k.k.k.k.k.k.k.k.k.k.k.k.k.k.k.k.k.k.",
"k.k.k.k.k.k.k.k.k.k.k.k.k.k.k.k.k.k.k.k.k.k.k.k.k.k.k.k.k.k.k.k.k.k.k.k.k.k.k.k.k.k.k.k.k.k.k.k.k.k.k.k.k.k.k.k.k.k.k.k.k.k.k.k.k.k.k.k.k.k.",
"k.k.k.k.k.k.k.k.k.k.k.k.k.k.k.k.k.k.k.k.k.k.k.k.k.k.k.k.k.k.k.k.k.k.k.k.k.k.k.k.k.k.k.k.k.k.k.k.k.k.k.k.k.k.k.k.k.k.k.k.k.k.k.k.k.k.k.k.k.k.",
"k.k.k.k.k.k.k.k.k.k.k.k.k.k.k.k.k.k.k.k.k.k.k.k.k.k.k.k.k.k.k.k.k.k.k.k.k.k.k.k.k.k.k.k.k.k.k.k.k.k.k.k.k.k.k.k.k.k.k.k.k.k.k.k.k.k.k.k.k.k.",
"k.k.k.k.k.k.k.k.k.k.k.k.k.k.k.k.k.k.k.k.k.k.k.k.k.k.k.k.k.k.k.k.k.k.k.k.k.k.k.k.k.k.k.k.k.k.k.k.k.k.k.k.k.k.k.k.k.k.k.k.k.k.k.k.k.k.k.k.k.k.",
"k.k.k.k.k.k.k.k.k.k.k.k.k.k.k.k.k.k.k.k.k.k.k.k.k.k.k.k.k.k.k.k.k.k.k.k.k.k.k.k.k.k.k.k.k.k.k.k.k.k.k.k.k.k.k.k.k.k.k.k.k.k.k.k.k.k.k.k.k.k.",
"k.k.k.k.k.k.k.k.k.k.k.k.k.k.k.k.k.k.k.k.k.k.k.k.k.k.k.k.k.k.k.k.k.k.k.k.k.k.k.k.k.k.k.k.k.k.k.k.k.k.k.k.k.k.k.k.k.k.k.k.k.k.k.k.k.k.k.k.k.k.",
"k.k.k.k.k.k.k.k.k.k.k.k.k.k.k.k.k.k.k.k.k.k.k.k.k.k.k.k.k.k.k.k.k.k.k.k.k.k.k.k.k.k.k.k.k.k.k.k.k.k.k.k.k.k.k.k.k.k.k.k.k.k.k.k.k.k.k.k.k.k.",
"k.k.k.k.k.k.k.k.k.k.k.k.k.k.k.k.k.k.k.k.k.k.k.k.k.k.k.k.k.k.k.k.k.k.k.k.k.k.k.k.k.k.k.k.k.k.k.k.k.k.k.k.k.k.k.k.k.k.k.k.k.k.k.k.k.k.k.k.k.k.",
"k.k.k.k.k.k.k.k.k.k.k.k.k.k.k.k.k.k.k.k.k.k.k.k.k.k.k.k.k.k.k.k.k.k.k.k.k.k.k.k.k.k.k.k.k.k.k.k.k.k.k.k.k.k.k.k.k.k.k.k.k.k.k.k.k.k.k.k.k.k.",
"k.k.k.k.k.k.k.k.k.k.k.k.k.k.k.k.k.k.k.k.k.k.k.k.k.k.k.k.k.k.k.k.k.k.k.k.k.k.k.k.k.k.k.k.k.k.k.k.k.k.k.k.k.k.k.k.k.k.k.k.k.k.k.k.k.k.k.k.k.k.",
"k.k.k.k.k.k.k.k.k.k.k.k.k.k.k.k.k.k.k.k.k.k.k.k.k.k.k.k.k.k.k.k.k.k.k.k.k.k.k.k.k.k.k.k.k.k.k.k.k.k.k.k.k.k.k.k.k.k.k.k.k.k.k.k.k.k.k.k.k.k.",
"k.k.k.k.k.k.k.k.k.k.k.k.k.k.k.k.k.k.k.k.k.k.k.k.k.k.k.k.k.k.k.k.k.k.k.k.k.k.k.k.k.k.k.k.k.k.k.k.k.k.k.k.k.k.k.k.k.k.k.k.k.k.k.k.k.k.k.k.k.k.",
"k.k.k.k.k.k.k.k.k.k.k.k.k.k.k.k.k.k.k.k.k.k.k.k.k.k.k.k.k.k.k.k.k.k.k.k.k.k.k.k.k.k.k.k.k.k.k.k.k.k.k.k.k.k.k.k.k.k.k.k.k.k.k.k.k.k.k.k.k.k.",
"k.k.k.k.k.k.k.k.k.k.k.k.k.k.k.k.k.k.k.k.k.k.k.k.k.k.k.k.k.k.k.k.k.k.k.k.k.k.k.k.k.k.k.k.k.k.k.k.k.k.k.k.k.k.k.k.k.k.k.k.k.k.k.k.k.k.k.k.k.k.",
"k.k.k.k.k.k.k.k.k.k.k.k.k.k.k.k.k.k.k.k.k.k.k.k.k.k.k.k.k.k.k.k.k.k.k.k.k.k.k.k.k.k.k.k.k.k.k.k.k.k.k.k.k.k.k.k.k.k.k.k.k.k.k.k.k.k.k.k.k.k.",
"; * * * * * * * * * * * * * * * * * * * * * * * * * * * * * * * * * * * * * * * * * * * * * * * * * * * * * * * * * * * * * * * * * * * * * ",
"a , = * * * * * * * * * * * * * * * * * * * * * * * * = ; : ; * * * * * * * * * * * * * * * * * * * * * * * * ; & & = * * * * * * * * * *   ",
"A 5 - * * * * * * = < 3 - * * * * * * * * * * * * * = & h C i ; * * * * * * * * * * * * * * , q i : * * * * = 5 C B : * * * * * * * * = : - ",
"% + o o O O O O O % M G % o o O o O o + O O o o O o @ 2 u k 0 + O o o o o o o o o O o o o o 4 B B % o O o O O + % $ + O O o o + u 0 % $ p 0 ",
"6 6 1 1 1 1 1 2 1 6 e d 6 1 6 1 1 6 6 r 7 1 1 1 6 1 1 1 1 6 6 1 1 1 1 1 6 6 r 7 1 1 1 1 1 1 6 r y 1 1 1 1 1 1 1 1 1 6 7 6 1 1 7 :.K r 6 g d ",
"f f s s s w w w w w w w w w x w s s l ~ v l f f f l l f w w w s w w w w s z ^ v w w w w w f f f w w w w s w w s w w l x b f f b v z w w w w ",
"Y Y Y Y R Y Y Y c c Y Y Q ( _ Q R R / &.<.-.#.Q Q ( Q R Y Y Y Y Y Y Y Y R Y ( Q R Y Q Y Q ( ( Q ] Y c c R R Y Q Q &.( Q R R Q ] @.&.Q Q c Y ",
"1.7.7.7.6.1.7.6.5.7.7.1.1.e.1.7.1.6.6.6.1.1.1.6.6.1.1.6.7.7.1.7.1.1.e.1.7.7.7.5.7.7.7.7.1.e.1.6.1.7.7.5.1.7.7.7.1.1.1.6.6.6.6.1.1.1.7.7.7.7.",
"g.y.r.r.p.p.r.r.r.r.y.r.p.r.r.y.y.y.y.y.y.y.y.y.g.y.p.y.y.y.r.r.y.r.p.p.r.r.r.r.y.y.r.r.y.y.y.y.y.r.p.p.r.r.y.e.r.r.r.r.y.y.e.y.r.r.y.r.y.g.",
"..] ] } >.+.} _ _ ( ] _ ] ( ] } &.] ( ] ] ] ( ( ] ] } _ ] ( _ _ ] ( ] ] _ _ _ ( ] ( ( ] ] } ] ( ] _ } @.@._ ] ] ( _ } @...] ] ] _ ( ( _ ] #.",
"x z l l z z -.x l l l l l l l z c z z l l l l l l l l l l l l l l l l l l l w l l l l l z x z l l l z ~ Q z l l l l z v z l l l l c / v z x ",
"7 7 6 7 6 7 t e 7 7 7 7 6 7 7 7 r e b t 7 6 7 7 7 7 7 6 6 7 7 7 7 7 7 6 7 7 7 7 7 7 6 7 y f t 7 7 7 7 e e 7 7 6 7 7 7 7 t d 7 7 7 g m g e e ",
"# # + # # # + # + # + # # + # # # 8 :.g % # + % % + + + # # # + + + # + # # # + # # # # % 8 2 % 2 # + + # + # # + + + % d :.0 # # % 2 % # $ ",
".                               * O i 9 X = O h B 9 .   =                             O 9 B 3 ; @           =       = O q L 5 .       X @ X ",
"* * * * * * * * * * * * * *   * * * * * * * ; i p 5 =   * * * *   * * * * *   * * * * > i A < = = * *   * * * *   * * * * = * * * * * * * * ",
"* * * * * * * *   * * * * * * * * * * * * * * * * * * * * * * *     * * *   * * * * * = > 3 - * * * * * * * * * *   * * * * * * * * * * * * ",
"k.k.k.k.k.k.k.k.k.k.k.k.k.k.k.k.k.k.k.k.k.k.k.k.k.k.k.k.k.k.k.k.k.k.k.k.k.k.k.k.k.k.k.k.k.k.k.k.k.k.k.k.k.k.k.k.k.k.k.k.k.k.k.k.k.k.k.k.k.k.",
"k.k.k.k.k.k.k.k.k.k.k.k.k.k.k.k.k.k.k.k.k.k.k.k.k.k.k.k.k.k.k.k.k.k.k.k.k.k.k.k.k.k.k.k.k.k.k.k.k.k.k.k.k.k.k.k.k.k.k.k.k.k.k.k.k.k.k.k.k.k.",
"k.k.k.k.k.k.k.k.k.k.k.k.k.k.k.k.k.k.k.k.k.k.k.k.k.k.k.k.k.k.k.k.k.k.k.k.k.k.k.k.k.k.k.k.k.k.k.k.k.k.k.k.k.k.k.k.k.k.k.k.k.k.k.k.k.k.k.k.k.k.",
"k.k.k.k.k.k.k.k.k.k.k.k.k.k.k.k.k.k.k.k.k.k.k.k.k.k.k.k.k.k.k.k.k.k.k.k.k.k.k.k.k.k.k.k.k.k.k.k.k.k.k.k.k.k.k.k.k.k.k.k.k.k.k.k.k.k.k.k.k.k.",
"k.k.k.k.k.k.k.k.k.k.k.k.k.k.k.k.k.k.k.k.k.k.k.k.k.k.k.k.k.k.k.k.k.k.k.k.k.k.k.k.k.k.k.k.k.k.k.k.k.k.k.k.k.k.k.k.k.k.k.k.k.k.k.k.k.k.k.k.k.k.",
"k.k.k.k.k.k.k.k.k.k.k.k.k.k.k.k.k.k.k.k.k.k.k.k.k.k.k.k.k.k.k.k.k.k.k.k.k.k.k.k.k.k.k.k.k.k.k.k.k.k.k.k.k.k.k.k.k.k.k.k.k.k.k.k.k.k.k.k.k.k.",
"k.k.k.k.k.k.k.k.k.k.k.k.k.k.k.k.k.k.k.k.k.k.k.k.k.k.k.k.k.k.k.k.k.k.k.k.k.k.k.k.k.k.k.k.k.k.k.k.k.k.k.k.k.k.k.k.k.k.k.k.k.k.k.k.k.k.k.k.k.k.",
"k.k.k.k.k.k.k.k.k.k.k.k.k.k.k.k.k.k.k.k.k.k.k.k.k.k.k.k.k.k.k.k.k.k.k.k.k.k.k.k.k.k.k.k.k.k.k.k.k.k.k.k.k.k.k.k.k.k.k.k.k.k.k.k.k.k.k.k.k.k.",
"k.k.k.k.k.k.k.k.k.k.k.k.k.k.k.k.k.k.k.k.k.k.k.k.k.k.k.k.k.k.k.k.k.k.k.k.k.k.k.k.k.k.k.k.k.k.k.k.k.k.k.k.k.k.k.k.k.k.k.k.k.k.k.k.k.k.k.k.k.k.",
"k.k.k.k.k.k.k.k.k.k.k.k.k.k.k.k.k.k.k.k.k.k.k.k.k.k.k.k.k.k.k.k.k.k.k.k.k.k.k.k.k.k.k.k.k.k.k.k.k.k.k.k.k.k.k.k.k.k.k.k.k.k.k.k.k.k.k.k.k.k."
};
