/* XPM */
static char *wall_e41678570707[] = {
/* columns rows colors chars-per-pixel */
"70 70 75 1 ",
"  c None",
". c #3F0AFF",
"X c #3F14FF",
"o c #3F1DFF",
"O c #3724FF",
"+ c #3923FF",
"@ c #362CFF",
"# c #3A2BFF",
"$ c #3431FF",
"% c #3833FF",
"& c #353CFF",
"* c #3D3AFF",
"= c #4100FF",
"- c #410CFF",
"; c #4115FF",
": c #411BFF",
"> c #4124FF",
", c #4029FF",
"< c #4034FF",
"1 c #4039FF",
"2 c #2C4DFF",
"3 c #3441FF",
"4 c #3E43FF",
"5 c #344BFF",
"6 c #3D4BFF",
"7 c #2C53FF",
"8 c #285BFF",
"9 c #3252FF",
"0 c #3D52FF",
"q c #345AFF",
"w c #3B5BFF",
"e c #1F7BFF",
"r c #2764FF",
"t c #2963FF",
"y c #276BFF",
"u c #296AFF",
"i c #3463FF",
"p c #3B64FF",
"a c #336BFF",
"s c #3A6CFF",
"d c #2175FF",
"f c #2B73FF",
"g c #217AFF",
"h c #2B7DFF",
"j c #3772FF",
"k c #3A72FF",
"l c #337AFF",
"z c #387DFF",
"x c #1C84FF",
"c c #1C8BFF",
"v c #1B94FF",
"b c #159EFF",
"n c #1A9BFF",
"m c #2486FF",
"M c #2F85FF",
"N c #238EFF",
"B c #2C8CFF",
"V c #3584FF",
"C c #3880FF",
"Z c #358BFF",
"A c #2591FF",
"S c #219BFF",
"D c #3492FF",
"F c #14A3FF",
"G c #18A4FF",
"H c #11ADFF",
"J c #0FB5FF",
"K c #0EBDFF",
"L c #10B1FF",
"P c #24A2FF",
"I c #0AC6FF",
"U c #07CDFF",
"Y c #08CAFF",
"T c #04D6FF",
"R c #04D9FF",
/* pixels */
"                                                                      ",
"                                                                      ",
"                                                                      ",
"                                                                      ",
"                                                                      ",
"                                                                      ",
"                                                                      ",
"                                                                      ",
"                                                                      ",
"                                                                      ",
"                         ,====..==============..===:,:-==========-====",
"                    ==;wzs:===..===============.=->pCp+==;======;46;==",
"                 ====.;4s0;=..=.==..==========..=->wzp,=:>:=====<CZ<==",
"                O+O+o+o+OO++ooooo+ooOoO@&%OooOOoo++@@##++@%qjq@O%al&O+",
"               fu2222227789222222222222umf7222222252222297uASh72252222",
"              8nngddeexNcmgdddmvxdddeyecnNddeyyeddggdddeNvgddddddddddd",
"             $tnFbbbbFHHFbbbFFLKJbFFFbbbFbbbbbbbbbFHFFFbFHFbbbbFFFbbbH",
"            +5tcHIYIYIYYYIIYYUUYYYYYYYYYYIYIIYIUIYIYUUYYYIYYYIYYYUYYYY",
"            pPmxHTRRRTTRTTRRRRRRTTTRTTTTTRTTRRTRRTTTTRRTTTTRRRRTRRTTTR",
"           =whuxHTYLHHJKJJHHLHLLHHJKKHJJJJJHJHHJHJHHHHJJHJHLJLLHHJJJHL",
"           =o&8xHTYKxxcvcxxxxxxxxxcccxcbvcvbvxxxxxxxcxxxxxxxxxxcxxcxxx",
"           =.@8xHTUIx88dd8tt88888rr888888rhnNr888888888888888888rt8888",
"           oO$8xHTUHg25BM5$$$$&&&$@$$$$$$@&53$$$$$$$$&293$$$$$$$&$$$$$",
"          =wj&8xHTYFe2Osi+...owzqo...................%zZ5o......-#p+.-",
"          =kV&7xHTYFm2O======;6s0X===============================*D1-=",
"          =65$8xHRUHx2O========-=.===============================;4;==",
"          =;X$7xLRUFg2O;==                                            ",
"          ==.$8xHTUFg23*-=                                            ",
"          ==-@7xHTYFd2is:=                                            ",
"          ==.$8xHTYFg7lZ>=                                            ",
"          ==.$8xHRUbg7qp:=                                            ",
"          ==.@8xHRUFg2@:==                                            ",
"          ==.$8xHTYFg7O===                                            ",
"          ==.@8xHTUFe2O===                                            ",
"          ...$8xHRUFe2O===                                            ",
"          ...$7xHRUbe2O===                                            ",
"          ==.$8xHTYFg2O===                                            ",
"          ==.@8xHTYFm7O===                                            ",
"          ==.$8xHTYHGuO===                                            ",
"          ==.O8xHTYFn8O===                                            ",
"          ==-@8eHTYFe2O.==                                            ",
"          ==.$8xHTYFe2O===                                            ",
"          ==.%8xHTYFe2O===                                            ",
"          -,+$8xHTYFg2+===                                            ",
"          ,pw&rcHTUFe2O===============================================",
"          4ZV9gnHTTLd2O=====:>:.=======================:1*-==========.",
"          ;143ycHRUFg75==--*sZpo==============<ww>====-6ZV,=====.==.>;",
"          :-+$8mHTUFgrO@OO@3ilqOOOO+OOOOO+OOOO5VM*OOOOO#&&OOOOO#iw&*iq",
"           -#&8xHTUHe22272222722222277y82222277uu722222222787728PSu8ff",
"           =;$8xHTYFnxgggmeeeeeeeeeegxGvgeeegggggggddeeedexvgggmnceeee",
"           =.$8cJTYJKIFFFHHFbFFFbFFFFFHFFFFFFHFFHFFFFFFFHLHFFFFHKLFFbb",
"            .$rGKRYYUUUUYUYYYYUUYUUUYYYYYYYIYTUUUYYYYYYYYUUYYYYUUUYYYY",
"             @rGKTTTTTTTTRRTTTTTTTRRTTTTTTTTTTTTTTRRRTTTTTTTTTTTTTTTTT",
"             $8cLLHJHHHHHHHHHHHHHHHHHHHHHHHHHHHHHHLKKLHHHHHKLHHHHHHHHH",
"              8xbxxxxxmxxxxxxxxxexxxxxxxxexxcnvxxxcFFcxexxcnvxxxcnGncv",
"               8rrmy888888888887888888778888rgu8888rt8888888rd888hAgtr",
"                $5Pl&$$$&@$$$$$@$$$@$$@$$$@$393$&$$@$@$$O$@&jP8$$&3&$$",
"                 +pwo.+jV0X.-..............+wV4:#X....-...-+wD6;...o#o",
"                   ===:ps6-=====..====.====,pZ1--============-======-=",
"                      ===.======..=====.===-,4;=======================",
"                                                                      ",
"                                                                      ",
"                                                                      ",
"                                                                      ",
"                                                                      ",
"                                                                      ",
"                                                                      ",
"                                                                      ",
"                                                                      ",
"                                                                      "
};
