/* XPM */
static char *result[] = {
/* columns rows colors chars-per-pixel */
"70 70 236 2 ",
"   c #3D7C1F",
".  c #387C23",
"X  c #2C7F27",
"o  c #7A641B",
"O  c #4D7525",
"+  c #6F6A2D",
"@  c #765D13",
"#  c #487A46",
"$  c #B23804",
"%  c #CB3402",
"&  c #D33600",
"*  c #D53A06",
"=  c #CC330B",
"-  c #E92804",
";  c #E9370D",
":  c #DB1A02",
">  c #9B520F",
",  c #955611",
"<  c #935411",
"1  c #B5480A",
"2  c #AA4A0F",
"3  c #A75620",
"4  c #DA4904",
"5  c #D24C10",
"6  c #E24801",
"7  c #E85701",
"8  c #EA4E0B",
"9  c #D07416",
"0  c #E96501",
"q  c #F56B00",
"w  c #F87900",
"e  c #ED700E",
"r  c #D55B32",
"t  c #9E7254",
"y  c #D1614F",
"u  c #E77E59",
"i  c #D47668",
"p  c #398529",
"a  c #3C8933",
"s  c #28812B",
"d  c #438B37",
"f  c #46933A",
"g  c #499738",
"h  c #539D3C",
"j  c #41892F",
"k  c #5CA43E",
"l  c #56A13D",
"z  c #64AA3E",
"x  c #6CAE3D",
"c  c #60A63E",
"v  c #69B63C",
"b  c #73B23C",
"n  c #7BB63A",
"m  c #7CBA39",
"M  c #77AF3C",
"N  c #58CA3B",
"B  c #58D635",
"V  c #6FD134",
"C  c #52E531",
"Z  c #5CE132",
"A  c #6EE330",
"S  c #4A8A45",
"D  c #4D9744",
"F  c #539747",
"G  c #5B8959",
"H  c #55A242",
"J  c #5BA541",
"K  c #5BA64A",
"L  c #5DA655",
"P  c #66AA45",
"I  c #64A659",
"U  c #79B24C",
"Y  c #748E71",
"T  c #6BA964",
"R  c #77AB72",
"E  c #76B370",
"W  c #7CC177",
"Q  c #7BC06D",
"!  c #99BB2A",
"~  c #8BBE37",
"^  c #83BA39",
"/  c #86BB38",
"(  c #96BD36",
")  c #B8A727",
"_  c #B3B82E",
"`  c #BF831F",
"'  c #C8911C",
"]  c #F98600",
"[  c #FC9500",
"{  c #FDB007",
"}  c #C19223",
"|  c #EF8F3C",
" . c #C5A924",
".. c #C3B325",
"X. c #8DC135",
"o. c #89C039",
"O. c #94C335",
"+. c #9AC633",
"@. c #9DC933",
"#. c #95C43A",
"$. c #9ACF2C",
"%. c #A8CA2C",
"&. c #B6C72B",
"*. c #ABD22E",
"=. c #B4D52E",
"-. c #BDD92C",
";. c #BAD62B",
":. c #A3CC32",
">. c #A7CA31",
",. c #ADD131",
"<. c #B1D336",
"1. c #8DE52F",
"2. c #ABE52C",
"3. c #DDD31C",
"4. c #F2DB09",
"5. c #E9D616",
"6. c #F4E507",
"7. c #F2EC10",
"8. c #C6C828",
"9. c #C4DD2A",
"0. c #C9DA28",
"q. c #D2D728",
"w. c #CCE229",
"e. c #C6E52A",
"r. c #D2E52A",
"t. c #D2E532",
"y. c #CEE233",
"u. c #8CB54B",
"i. c #84987D",
"p. c #84BA76",
"a. c #8DB07B",
"s. c #AAB178",
"d. c #F0965B",
"f. c #D2867B",
"g. c #E48E70",
"h. c #F9AE71",
"j. c #FBB85F",
"k. c #9AC54A",
"l. c #ABD04D",
"z. c #88C778",
"x. c #8DC56C",
"c. c #ACD36C",
"v. c #7DBD8F",
"b. c #7F8880",
"n. c #7AC5F5",
"m. c #899D87",
"M. c #818C81",
"N. c #91B38F",
"B. c #AAB8AA",
"V. c #A2AFA0",
"C. c #8DBCAD",
"Z. c #CD8C83",
"A. c #F1AE8E",
"S. c #E8B5AB",
"D. c #E2A497",
"F. c #98C887",
"G. c #9AD685",
"H. c #98C99B",
"J. c #8BC888",
"K. c #A7D98A",
"L. c #ACD593",
"P. c #A8E38C",
"I. c #B8E996",
"U. c #95C9AF",
"Y. c #A8C9A8",
"T. c #B8DBAB",
"R. c #B8C8B7",
"E. c #A9D5B6",
"W. c #BAD8B9",
"Q. c #A2D2A9",
"!. c #F8C698",
"~. c #C2EE9D",
"^. c #ECC7BC",
"/. c #D4F5A9",
"(. c #CBEEAB",
"). c #C4DFBF",
"_. c #9ACCC5",
"`. c #9BD3C7",
"'. c #95D1D5",
"]. c #A5D7C9",
"[. c #A6D8DA",
"{. c #B5D9CC",
"}. c #BAE1D9",
"|. c #88CAF6",
" X c #96CEF5",
".X c #9AD3F7",
"XX c #9DD6E0",
"oX c #ABDCE3",
"OX c #A6DAE2",
"+X c #B2DEE3",
"@X c #A8D8F7",
"#X c #B6DDF7",
"$X c #BCE3E4",
"%X c #B6E1E7",
"&X c #BAE2F7",
"*X c #C9D8C9",
"=X c #CFD6D0",
"-X c #F1D9D2",
";X c #CAE3C8",
":X c #C7E5D9",
">X c #DDE8DC",
",X c #D6EEC7",
"<X c #F9E7DC",
"1X c #E3F3D7",
"2X c #C1DEF8",
"3X c #C4E6E5",
"4X c #CDE9E6",
"5X c #CCE9E9",
"6X c #C9E7E6",
"7X c #D5EBE5",
"8X c #D4ECE9",
"9X c #DAEEEA",
"0X c #D7E5E4",
"qX c #DDF0EB",
"wX c #C4E6FA",
"eX c #CBEAF9",
"rX c #C8E7F7",
"tX c #D4EDF9",
"yX c #D7EDF9",
"uX c #DCF1FB",
"iX c #DBF0F7",
"pX c #E5ECE5",
"aX c #E8ECEA",
"sX c #F8EAE5",
"dX c #EAF4EA",
"fX c #FBF3E9",
"gX c #EBF6F5",
"hX c #E3F3FB",
"jX c #EAF6FB",
"kX c #EAF6F7",
"lX c #F5F9F4",
"zX c #F4FAFD",
"xX c #FBFDFE",
"cX c #F1F7F4",
"vX c #E3EEF8",
"bX c None",
/* pixels */
"bXbXbXbXbXbXbXbXbXbXbXbXbXbXbXbXbXbXbXbXbXbXbXbXbXbXbXbXbXbXbXbXbXbXbXbXbXbXbXbXbXbXbXbXbXbXbXbXbXbXbXbXbXbXbXbXbXbXbXbXbXbXbXbXbXbXbXbXbXbX",
"bXbXbXbXbXbXbXbXbXbXbXbXbXbXbXbXbXbXbXbXbXbXbXbXbXbXbXbXbXbXbXbXbXbXbXbXbXbXbXbXbXbXbXbXbXbXbXbXbXbXbXbXbXbXbXbXbXbXbXbXbXbXbXbXbXbXbXbXbXbX",
"bXbXbXbXbXbXbXbXbXbXbXbXbXbXbXbXbXbXbXbXbXbXbXbXbXbXbXbXbXbXbXbXbXbXbXbXbXbXbXbXbXbXbXbXbXbXbXbXbXbXbXbXbXbXbXbXbXbXbXbXbXbXbXbXbXbXbXbXbXbX",
"bXbXbXbXbXbXbXbXbXbXbXbXbXbXbXbXbXbXbXbXbXbXbXbXbXbXbXbXbXbXbXbXbXbXbXbXbXbXbXbXbXbXbXbXbXbXbXbXbXbXbXbXbXbXbXbXbXbXbXbXbXbXbXbXbXbXbXbXbXbX",
"bXbXbXbXbXbXbXbXbXbXbXbXbXbXbXbXbXbXbXbXbXbXbXbXbXbXbXbXbXbXbXbXbXbXbXbXbXbXbXbXbXbXbXbXbXbXbXbXbXbXbXbXbXbXbXbXbXbXbXbXbXbXbXbXbXbXbXbXbXbX",
"bXbXbXbXbXbXbXbXbXbXbXbXbXbXbXbXbXbXbXbXbXbXbXbXbXbXbXbXbXbXbXbXbXbXbXbXbXbXbXbXbXbXbXbXbXbXbXbXbXbXbXbXbXbXbXbXbXbXbXbXbXbXbXbXbXbXbXbXbXbX",
"bXbXbXbXbXbXbXbXbXbXbXbXbXbXbXbXbXbXbXbXbXbXbXbXbXbXbXbXbXbXbXbXbXbXbXbXbXbXbXbXbXbXbXbXbXbXbXbXbXbXbXbXbXbXbXbXbXbXbXbXbXbXbXbXbXbXbXbXbXbX",
"bXbXbXbXbXbXbXbXbXbXbXbXbXbXbXbXbXbXbXbXbXbXbXbXbXbXbXbXbXbXbXbXbXbXbXbXbXbXbXbXbXbXbXbXbXbXbXbXbXbXbXbXbXbXbXbXbXbXbXbXbXbXbXbXbXbXbXbXbXbX",
"bXbXbXbXbXbXbXbXbXbXbXbXbXbXbXbXbXbXbXbXbXbXbXbXbXbXbXbXbXbXbXbXbXbXbXbXbXbXbXbXbXbXbXbXbXbXbXbXbXbXbXbXbXbXbXbXbXbXbXbXbXbXbXbXbXbXbXbXbXbX",
"bXbXbXbXbXbXbXbXbXbXbXbXbXbXbXbXbXbXbXbXbXbXbXbXbXbXbXbXbXbXbXbXbXbXbXbXbXbXbXbXbXbXbXbXbXbXbXbXbXbXbXbXbXbXbXbXbXbXbXbXbXbXbXbXbXbXbXbXbXbX",
"bXbXbXbXbXbXbXbXbXbXbXbXbXbXbXbXbXbXbXbXbXbXbXbXbXbXbXbXbXbXbXbXbXbXbXbXbXbXbXbXbXbXbXbXbXbXbXbXbXbXbXbXbXbXbXbXbXbXbXbXbXbXbXbXbXbXbXbXbXbX",
"bXbXbXbXbXbXbXbXbXbXbXbXbXbXbXbXbXbXbXbXbXbXbXbXbXbXbXbXbXbXbXbXbXbXbXbXbXbXbXbXbXbXbXbXbXbXbXbXbXbXbXbXbXbXbXbXbXbXbXbXbXbXbXbXbXbXbXbXbXbX",
"bXbXbXbXbXbXbXbXbXbXbXbXbXbXbXbXbXbXbXbXbXbXbXbXbXbXbXbXbXbXbXbXbXbXbXbXbXbXbXbXbXbXbXbXbXbXbXbXbXbXbXbXbXbXbXbXbXbXbXbXbXbXbXbXbXbXbXbXbXbX",
"bXbXbXbXbXbXbXbXbXbXbXbXbXbXbXbXbXbXbXbXbXbXbXbXbXbXbXbXbXbXbXbXbXbXbXbXbXbXbXbXbXbXbXbXbXbXbXbXbXbXbXbXbXbXbXbXbXbXbXbXbXbXbXbXbXbXbXbXbXbX",
"bXbXbXbXbXbXbXbXbXbXbXbXbXbXbXbXbXbXbXbXbXbXbXbXbXbXbXbXbXbXvXtXeX#X2X2X2XeXyXbXbXbXbXbXbXbXbXbXbXbXbXbXbXbXbXbXbXbXbXbXbXbXbXbXbXbXbXbXbXbX",
"bXbXbXbXbXbXbXbXbXbXbXbXbXbXbXbXbXbXbXbXbXbXbXbXbXbXbXjX#X.X|.|.|.n.n.n.n.|.|. X@XeXbXbXbXbXbXbXbXbXbXbXbXbXbXbXbXbXbXbXbXbXbXbXbXbXbXbXbXbX",
"bXbXbXbXbXbXbXbXbXbXbXbXbXbXbXbXbXbXbXbXbXbXbXbXbXvX@X|.|.|..X.X.X@X@X@X@X@X.X.X X|. XrXbXbXbXbXbXbXbXbXbXbXbXbXbXbXbXbXbXbXbXbXbXbXbXbXbXbX",
"bXbXbXbXbXbXbXbXbXbXbXbXbXbXbXbXbXbXbXbXbXbXbXbX2X|. X.X@X#X&X&XwXwXwXeXwXeXwXwX#X@X@X|.@XjXbXbXbXbXbXbXbXbXbXbXbXbXbXbXbXbXbXbXbXbXbXbXbXbX",
"bXbXbXbXbXbXbXbXbXbXbXbXbXbXbXbXbXbXbXbXbXbXjX@X.X@X&XrXeXtXtXuXhXuXhXhXhXhXhXuXuXtXwX&X@X XtXbXbXbXbXbXbXbXbXbXbXbXbXbXbXbXbXbXbXbXbXbXbXbX",
"bXbXbXbXbXbXbXbXbXbXbXbXbXbXbXbXbXbXbXbXbXuX#X@XwXtXuXhXjXjXjXzXzXzXzXzXzXzXjXgXiX=X0XuXeX#X@XeXbXbXbXbXbXbXbXbXbXbXbXbXbXbXbXbXbXbXbXbXbXbX",
"bXbXbXbXbXbXbXbXbXbXbXbXbXbXbXbXbXbXbXbXhX#XwXiXjXzXzXzXxXxXxXxXxXxXxXxXxXpX).,XR.m.{.aXjXuXwX&XuXbXbXbXbXbXbXbXbXbXbXbXbXbXbXbXbXbXbXbXbXbX",
"bXbXbXbXbXbXbXbXbXbXbXbXbXbXbXbXbXbXbXbXwXtX0X0XdXcXcXxXxXxXxXxXxXxXxXxX1X1XfXlXaXB.=XxXxXzXjXtX&XhXbXbXbXbXbXbXbXbXbXbXbXbXbXbXbXbXbXbXbXbX",
"bXbXbXbXbXbXbXbXbXbXbXbXbXbXbXbXbXbXbXeXyX0XV.b.T.)./.,XlXxXzXlXlXlXlXdX(.lXxXxXxXxXxXxXxXxXzXjXuXwXbXbXbXbXbXbXbXbXbXbXbXbXbXbXbXbXbXbXbXbX",
"bXbXbXbXbXbXbXbXbXbXbXbXbXbXbXbXbXbXtXtXhXgX{.R.xXxXxXdX,X1X;XT.I.L.K.L.T.>XcXxXxXxXxXxXxXzXzXzXhXtXeXbXbXbXbXbXbXbXbXbXbXbXbXbXbXbXbXbXbXbX",
"bXbXbXbXbXbXbXbXbXbXbXbXbXbXbXbXbXhXeXiXjXjXzXxXxXxXxXcXT.G.G.I.I.(./.~.~.K.T.fXxXxXxXxXxXxXzXzXjXuXeXiXbXbXbXbXbXbXbXbXbXbXbXbXbXbXbXbXbXbX",
"bXbXbXbXbXbXbXbXbXbXbXbXbXbXbXbXbXeXeXuXjXzXzXxXxXxXcX;XJ.P.I.I././././.~.I.K.;XzXxXxXzXzXxXzXzXjXhXeXrXjXbXbXbXbXbXbXbXbXbXbXbXbXbXbXbXbXbX",
"bXbXbXbXbXbXbXbXbXbXbXbXbXbXbXbXuX&XyXhXjXzXzXzXzXxX>XF.G.P.L.T./././.N.i.F.K.W.lXxXzXzXxXzXzXzXjXjXuXeXtXbXbXbXbXbXbXbXbXbXbXbXbXbXbXbXbXbX",
"bXbXbXbXbXbXbXbXbXbXbXbXbXbXbXbXwXeXiXhXjXzXzXzXzXjX;Xz.G.m.t m.L./.~.i.i.i.z.).jXzXzXjXzXzXzXzXjXkXiXeXwXjXbXbXbXbXbXbXbXbXbXbXbXbXbXbXbXbX",
"bXbXbXbXbXbXbXbXbXbXbXbXbXbXbXiX&XeXuXuXjXjXjXjXcXgX{.x.E Y # V.F.I.I.K.B.# N.>XqXgXdXkXkXkXkXkXkXuXuXtX&XiXbXbXbXbXbXbXbXbXbXbXbXbXbXbXbXbX",
"bXbXbXbXbXbXbXbXbXbXbXbXbXbXbX&X&X5X5X9X9XqXqXqX9X9X;Xz.a.# i.Y.G.P.P.K.p.R H.9XqXqXqXqX9XqXqXqXqX8X8X5X%X&X7XpXbXbXbXbXbXbXbXbXbXbXbXbXbXbX",
"bXbXbXbXbXbXbXbXbXbXbX>X*XY._.OX%X$X5X4X8X9X9XqX9XqX>XE.N.R R z.z.z.a.x.z.z.*XpXqX9XqXqX7X9XqXqX8X8X5X3X%X[.U.N.V.T.;XcXbXbXbXbXbXbXbXbXbXbX",
"bXbXbXbXbXbXbXbXaXW.N.E I J _.OX%X$X6X5X8X8X8X8X9X9X8X7X{.N.p.x.z.s.s.E z.E.9XqXqX8XqXqX8X7X8X8X8X8X5X$X%XXX'.L H H T E N.*XbXbXbXbXbXbXbXbX",
"bXbXbXbXbXbX>XH.T K H k k E '.oXoX$X3X6X5X5X8X4X7X7X7X9X8X7XE.J.x.z.Q E Q.:X7X8X8X8X8X7X7X8X8X4X4X6X3X$X%XoXXXE J J J H H L T Y.qXbXbXbXbXbX",
"bXbXbXbXpXY.T P I J z x x v.'.OXoX%X$X3X3X6X6X3X6X4X4X4X4X4X4XU.E z.J.J.Q.E.E.}.7X4X4X4X4X8X8X6X6X3X3X+X%XoXXXv.x P z J J J H H T Y.>XbXbXbX",
"bXbXbXW.I I R T z z x b b U J._.[.oXoX%X%X$X3X:X3X3X6X6X6X6X:XH.W P.G.G.E.}.Q.E.3X6X3X6X3X6X6X6X3X%X+X+XOX'.U.U n v x v B B N K L L R *XbXbX",
"bXbXR.I L U k._ &.&./ m ^ X.X.x.H.`.[.oXoXoX$X+X}.$X$X$X$X3X+XW z.z.G.G.H.}.$X$X$X3X$X$X$X$X$X+XoXoXOX`.H.z.o./ m m Z C C C C N P K D L *XbX",
"bX>XT H P u...4.6.7.3.>.X.O.+.@.@.l.c.U.].[.[.[.[.oX[.].`.E.U.W G.W Q J.W v.U.U.U._._.].[.OX[.OX].Q.G.x.:.O.~ ~ ~ V C C C C C N P J H D R aX",
"bX*Xg k c M 8.4.6.7.6.8.O.+.:.:.*.*.,.l.l.c.c.F.T F F S S S S a j j j j a a a S S F F G P u.k.l.l.l.:.:.:.:.+.( ( V C C C C C P v J H H g >X",
"bX*Xg H z b n &.3.3.8.>.+.:.%.,.,.=.=.-.-.-.-.9.9.9.&.%.%.! ! +.! ! ! ! ! ! ( ( >.,.;.-.0.;.-.;.;.,.,.<.>.>.:.+.( X.C C C C B b z k l l a 7X",
"bX>XG l P x b ^ / o.#.@.:.%.,.&. . ...;.-.9.9.0.0.w.0.w.w.w.r.e.w.r.r.r.r.w.w.y.w.0.0.0.9.9.-.-.;.=.&. .) _ :.+.+.O.V C V V n x v k H g Y aX",
"bXbXB.S h c x n ~ ~ O.+.:.:.,.' - : 8 9 8.9.0.w.w.w.w.w.2.1.2.e.t.r.r.r.r.r.t.w.w.w.w.e.9.9.9.-.-.' 9 ; ; 5 ) @.+.O.~ o.m n b z J F g # *XbX",
"bXbXbXB.# d l z b ^ / #.#.:.%.) ; - - & } 9.9.w.0.w.w.A C Z C 1.r.t.r.r.t.t.w.w.r.3.q.w.0.9.-.-.;.9 - - - = ) +.O.o.^ ^ b x z J h a # *XbXbX",
"bXbXbXbX=XY # f F P x M ^ ~ #.+._ ' 9 } &.;.-.9.9.e.*.C C C C C 9.w.t.t.t.w.w.5.4.6.4.5.0.-.-.;.=.&.' 9 ` ! ( ~ ^ ^ b x z F h d # m.<XbXbXbX",
"bXbXbXbXbXbX{.i.# j g h z x n u.u.( #.@.:.:.,.,.=.=.$.C C C C C %.e.y.y.9.9.0.5.6.6.4.4.0.,.%.%.@.+.( ( ~ / / U P x k h f S G m.=XbXbXbXbXbX",
"bXbXbXbXbXbXbXbX=XV.+ . p d h k x b n n ^ ~ ~ +.$.@.%.V C C C V *.,.<.,.<.<.,.8.3.3.3.8.>.O.O.~ ~ / n n v x z k D f X G m.B.>XbXbXbXbXbXbXbX",
"bXbXbXbXbXbXbXbXbXbXZ.> < + O X a g g h P z x b n m n V V A V O.o.#.O.O.X.#.~ ~ ~ ( ~ m n n b b z z h h g a s s O o t =XbXbXbXbXbXbXbXbXbXbX",
"bXbXbXbXbXbXbXbXbXbX-X= 5 5 5 2 , o O p   p a j j h h h k z z P P x x x x P P x c c k l h g g g p X   X O < , 1 $ % S.bXbXbXbXbXbXbXbXbXbXbX",
"bXbXbXbXbXbXbXbXbXbXbXS.5 4 7 7 7 7 5 5 1 t m.N.Y       p   . j p j p p p p p j .     O S G Y + < > 1 5 5 4 4 4 4 f.sXbXbXbXbXbXbXbXbXbXbXbX",
"bXbXbXbXbXbXbXbXbXbXbXbXS.u w w w w q e i ^.bXbXsXr $ $ 1 2 3 > > > , > , , > > 3 $ $ Z.aXbXbXS.y 4 4 7 0 0 0 e D.sXbXbXbXbXbXbXbXbXbXbXbXbX",
"bXbXbXbXbXbXbXbXbXbXbXbXbX<XS.A.h.h.A.!.sXbXbXbXbXi $ : % = % & & * * * & & & % = = $ S.bXbXbXbX-XD.g.d.d.h.A.^.bXbXbXbXbXbXbXbXbXbXbXbXbXbX",
"bXbXbXbXbXbXbXbXbXbXbXbXbXbXbXbXfXfXbXbXbXbXbXbXbX-X= = 4 4 4 6 6 6 6 6 4 6 4 4 = % y -XbXbXbXbXbXbXfX<X<XfXbXbXbXbXbXbXbXbXbXbXbXbXbXbXbXbX",
"bXbXbXbXbXbXbXbXbXbXbXbXbXbXbXbXbXbXbXbXbXbXbXbXbXbXZ.4 4 7 7 7 7 7 7 7 7 7 7 4 4 5 S.bXbXbXbXbXbXbXbXbXbXbXbXbXbXbXbXbXbXbXbXbXbXbXbXbXbXbX",
"bXbXbXbXbXbXbXbXbXbXbXbXbXbXbXbXbXbXbXbXbXbXbXbXbXbX-Xi r 0 0 0 w q q q q q 0 7 5 i fXbXbXbXbXbXbXbXbXbXbXbXbXbXbXbXbXbXbXbXbXbXbXbXbXbXbXbX",
"bXbXbXbXbXbXbXbXbXbXbXbXbXbXbXbXbXbXbXbXbXbXbXbXbXbXbX-Xg.e w w w ] ] ] ] w q e g.<XbXbXbXbXbXbXbXbXbXbXbXbXbXbXbXbXbXbXbXbXbXbXbXbXbXbXbXbX",
"bXbXbXbXbXbXbXbXbXbXbXbXbXbXbXbXbXbXbXbXbXbXbXbXbXbXbXbX-XA.| ] [ [ [ [ [ ] d.A.sXbXbXbXbXbXbXbXbXbXbXbXbXbXbXbXbXbXbXbXbXbXbXbXbXbXbXbXbXbX",
"bXbXbXbXbXbXbXbXbXbXbXbXbXbXbXbXbXbXbXbXbXbXbXbXbXbXbXbXbXbX-X!.j.{ { { j.!.-XbXbXbXbXbXbXbXbXbXbXbXbXbXbXbXbXbXbXbXbXbXbXbXbXbXbXbXbXbXbXbX",
"bXbXbXbXbXbXbXbXbXbXbXbXbXbXbXbXbXbXbXbXbXbXbXbXbXbXbXbXbXbXbXbXfXsX<XfXfXbXbXbXbXbXbXbXbXbXbXbXbXbXbXbXbXbXbXbXbXbXbXbXbXbXbXbXbXbXbXbXbXbX",
"bXbXbXbXbXbXbXbXbXbXbXbXbXbXbXbXbXbXbXbXbXbXbXbXbXbXbXbXbXbXbXbXbXbXbXbXbXbXbXbXbXbXbXbXbXbXbXbXbXbXbXbXbXbXbXbXbXbXbXbXbXbXbXbXbXbXbXbXbXbX",
"bXbXbXbXbXbXbXbXbXbXbXbXbXbXbXbXbXbXbXbXbXbXbXbXbXbXbXbXbXbXbXbXbXbXbXbXbXbXbXbXbXbXbXbXbXbXbXbXbXbXbXbXbXbXbXbXbXbXbXbXbXbXbXbXbXbXbXbXbXbX",
"bXbXbXbXbXbXbXbXbXbXbXbXbXbXbXbXbXbXbXbXbXbXbXbXbXbXbXbXbXbXbXbXbXbXbXbXbXbXbXbXbXbXbXbXbXbXbXbXbXbXbXbXbXbXbXbXbXbXbXbXbXbXbXbXbXbXbXbXbXbX",
"bXbXbXbXbXbXbXbXbXbXbXbXbXbXbXbXbXbXbXbXbXbXbXbXbXbXbXbXbXbXbXbXbXbXbXbXbXbXbXbXbXbXbXbXbXbXbXbXbXbXbXbXbXbXbXbXbXbXbXbXbXbXbXbXbXbXbXbXbXbX",
"bXbXbXbXbXbXbXbXbXbXbXbXbXbXbXbXbXbXbXbXbXbXbXbXbXbXbXbXbXbXbXbXbXbXbXbXbXbXbXbXbXbXbXbXbXbXbXbXbXbXbXbXbXbXbXbXbXbXbXbXbXbXbXbXbXbXbXbXbXbX",
"bXbXbXbXbXbXbXbXbXbXbXbXbXbXbXbXbXbXbXbXbXbXbXbXbXbXbXbXbXbXbXbXbXbXbXbXbXbXbXbXbXbXbXbXbXbXbXbXbXbXbXbXbXbXbXbXbXbXbXbXbXbXbXbXbXbXbXbXbXbX",
"bXbXbXbXbXbXbXbXbXbXbXbXbXbXbXbXbXbXbXbXbXbXbXbXbXbXbXbXbXbXbXbXbXbXbXbXbXbXbXbXbXbXbXbXbXbXbXbXbXbXbXbXbXbXbXbXbXbXbXbXbXbXbXbXbXbXbXbXbXbX",
"bXbXbXbXbXbXbXbXbXbXbXbXbXbXbXbXbXbXbXbXbXbXbXbXbXbXbXbXbXbXbXbXbXbXbXbXbXbXbXbXbXbXbXbXbXbXbXbXbXbXbXbXbXbXbXbXbXbXbXbXbXbXbXbXbXbXbXbXbXbX",
"bXbXbXbXbXbXbXbXbXbXbXbXbXbXbXbXbXbXbXbXbXbXbXbXbXbXbXbXbXbXbXbXbXbXbXbXbXbXbXbXbXbXbXbXbXbXbXbXbXbXbXbXbXbXbXbXbXbXbXbXbXbXbXbXbXbXbXbXbXbX",
"bXbXbXbXbXbXbXbXbXbXbXbXbXbXbXbXbXbXbXbXbXbXbXbXbXbXbXbXbXbXbXbXbXbXbXbXbXbXbXbXbXbXbXbXbXbXbXbXbXbXbXbXbXbXbXbXbXbXbXbXbXbXbXbXbXbXbXbXbXbX",
"bXbXbXbXbXbXbXbXbXbXbXbXbXbXbXbXbXbXbXbXbXbXbXbXbXbXbXbXbXbXbXbXbXbXbXbXbXbXbXbXbXbXbXbXbXbXbXbXbXbXbXbXbXbXbXbXbXbXbXbXbXbXbXbXbXbXbXbXbXbX",
"bXbXbXbXbXbXbXbXbXbXbXbXbXbXbXbXbXbXbXbXbXbXbXbXbXbXbXbXbXbXbXbXbXbXbXbXbXbXbXbXbXbXbXbXbXbXbXbXbXbXbXbXbXbXbXbXbXbXbXbXbXbXbXbXbXbXbXbXbXbX",
"bXbXbXbXbXbXbXbXbXbXbXbXbXbXbXbXbXbXbXbXbXbXbXbXbXbXbXbXbXbXbXbXbXbXbXbXbXbXbXbXbXbXbXbXbXbXbXbXbXbXbXbXbXbXbXbXbXbXbXbXbXbXbXbXbXbXbXbXbXbX"
};
