/* XPM */
static char *result[] = {
/* columns rows colors chars-per-pixel */
"70 70 238 2 ",
"   c #3D7C1F",
".  c #387C23",
"X  c #2C7F27",
"o  c #7A641B",
"O  c #4D7525",
"+  c #6F6A2D",
"@  c #765D13",
"#  c #487A46",
"$  c #B23804",
"%  c #CB3402",
"&  c #D33600",
"*  c #D43E06",
"=  c #CC330B",
"-  c #F22C11",
";  c #F13312",
":  c #EF3913",
">  c #C71E00",
",  c #9B520F",
"<  c #955611",
"1  c #935411",
"2  c #B5480A",
"3  c #AA4A0F",
"4  c #A75620",
"5  c #DD4501",
"6  c #D84B06",
"7  c #D24B10",
"8  c #E24801",
"9  c #E55301",
"0  c #EB5801",
"q  c #ED4815",
"w  c #EA5417",
"e  c #F05A00",
"r  c #E96501",
"t  c #F56B00",
"y  c #F87900",
"u  c #E66B19",
"i  c #EB760F",
"p  c #D8622B",
"a  c #9E7254",
"s  c #D1614F",
"d  c #E77E59",
"f  c #D47668",
"g  c #2E9B1D",
"h  c #398529",
"j  c #3B8833",
"k  c #28812B",
"l  c #24A21B",
"z  c #438B37",
"x  c #499638",
"c  c #549D3A",
"v  c #589A34",
"b  c #4E932B",
"n  c #5CA33E",
"m  c #57A03C",
"M  c #64AA3E",
"N  c #6CAD3D",
"B  c #64A639",
"V  c #77AA3C",
"C  c #74B23B",
"Z  c #7AB63A",
"A  c #7EB737",
"S  c #6CA92D",
"D  c #54A01E",
"F  c #4A8A45",
"G  c #4D9744",
"H  c #539747",
"J  c #5A8758",
"K  c #5F915C",
"L  c #55A242",
"P  c #5BA541",
"I  c #5CA34A",
"U  c #5DA655",
"Y  c #66A946",
"T  c #64A659",
"R  c #79B14F",
"E  c #748E71",
"W  c #6BA964",
"Q  c #77AB72",
"!  c #76B370",
"~  c #7CC177",
"^  c #7BC06D",
"/  c #A89A34",
"(  c #99BB2A",
")  c #91BE2E",
"_  c #8ABE37",
"`  c #83BB39",
"'  c #87B938",
"]  c #91B332",
"[  c #B9B42E",
"{  c #929E39",
"}  c #F98600",
"|  c #FC9500",
" . c #FDB007",
".. c #D39623",
"X. c #EF8F3C",
"o. c #CCAF27",
"O. c #8EC136",
"+. c #8EC03A",
"@. c #93C335",
"#. c #9AC534",
"$. c #99C637",
"%. c #A8C92A",
"&. c #B4C72D",
"*. c #BDD92C",
"=. c #B8D42B",
"-. c #A3CB33",
";. c #A8C731",
":. c #ADD131",
">. c #B1D236",
",. c #AFD02F",
"<. c #DDD31C",
"1. c #F2DB09",
"2. c #E9D616",
"3. c #F4E507",
"4. c #F2EC10",
"5. c #C6C928",
"6. c #C4DD2A",
"7. c #C8DB28",
"8. c #D2D728",
"9. c #CDE229",
"0. c #D2E52A",
"q. c #D2E427",
"w. c #D2E532",
"e. c #CEE233",
"r. c #8EB34D",
"t. c #84987D",
"y. c #84BA76",
"u. c #8DB07B",
"i. c #AAB178",
"p. c #F0965B",
"a. c #D2867B",
"s. c #E48E70",
"d. c #F9AE71",
"f. c #FBB85F",
"g. c #9AC54A",
"h. c #ABD04D",
"j. c #88C778",
"k. c #8DC56C",
"l. c #ACD36C",
"z. c #7DBD8F",
"x. c #7F8880",
"c. c #7AC5F5",
"v. c #899D87",
"b. c #818C81",
"n. c #91B38F",
"m. c #AAB8AA",
"M. c #A2AFA0",
"N. c #8DBCAD",
"B. c #CD8C83",
"V. c #F1AE8E",
"C. c #E8B5AB",
"Z. c #E2A497",
"A. c #98C887",
"S. c #9AD685",
"D. c #98C99B",
"F. c #8BC888",
"G. c #A7D98A",
"H. c #ACD593",
"J. c #A8E38C",
"K. c #B8E996",
"L. c #95C9AF",
"P. c #A8C9A8",
"I. c #A2D2A9",
"U. c #B8DBAB",
"Y. c #B8C8B7",
"T. c #A9D5B6",
"R. c #BAD8B9",
"E. c #F8C698",
"W. c #C2EE9D",
"Q. c #ECC7BC",
"!. c #C9EEA1",
"~. c #D4F5A9",
"^. c #CCEEB0",
"/. c #C4DFBF",
"(. c #9ACCC5",
"). c #9BD3C7",
"_. c #95D1D5",
"`. c #A5D7C9",
"'. c #A6D8DA",
"]. c #B5D9CC",
"[. c #BAE1D9",
"{. c #88CAF6",
"}. c #96CEF5",
"|. c #9AD3F7",
" X c #9DD6E0",
".X c #ABDCE3",
"XX c #A6DAE2",
"oX c #B2DEE3",
"OX c #A8D8F7",
"+X c #B6DDF7",
"@X c #B5E0E5",
"#X c #BCE3E4",
"$X c #BBE3EF",
"%X c #BAE2F7",
"&X c #C9D8C9",
"*X c #D6DBD6",
"=X c #C9D2CC",
"-X c #F1D9D2",
";X c #CAE3C8",
":X c #C7E5D9",
">X c #DDE8DC",
",X c #D6EEC7",
"<X c #F9E7DC",
"1X c #E3F3D7",
"2X c #C1DEF8",
"3X c #C4E6E5",
"4X c #CAE7E6",
"5X c #CDE9E6",
"6X c #CCE9E9",
"7X c #C6E7E7",
"8X c #D5EBE5",
"9X c #D4ECE9",
"0X c #DAEEEA",
"qX c #D7E5E4",
"wX c #DDF0EB",
"eX c #C4E6FA",
"rX c #CBEAF9",
"tX c #C8E7F7",
"yX c #D4EDF9",
"uX c #D9EEFA",
"iX c #D1ECF4",
"pX c #DCF1FB",
"aX c #DBF0F7",
"sX c #E5ECE5",
"dX c #E8ECEA",
"fX c #F8EAE5",
"gX c #EAF4EA",
"hX c #FBF3E9",
"jX c #EBF6F5",
"kX c #E3F3FB",
"lX c #EAF6FB",
"zX c #EAF6F7",
"xX c #F5F9F4",
"cX c #F4FAFD",
"vX c #FBFDFE",
"bX c #F1F7F4",
"nX c #E3EEF8",
"mX c None",
/* pixels */
"mXmXmXmXmXmXmXmXmXmXmXmXmXmXmXmXmXmXmXmXmXmXmXmXmXmXmXmXmXmXmXmXmXmXmXmXmXmXmXmXmXmXmXmXmXmXmXmXmXmXmXmXmXmXmXmXmXmXmXmXmXmXmXmXmXmXmXmXmXmX",
"mXmXmXmXmXmXmXmXmXmXmXmXmXmXmXmXmXmXmXmXmXmXmXmXmXmXmXmXmXmXmXmXmXmXmXmXmXmXmXmXmXmXmXmXmXmXmXmXmXmXmXmXmXmXmXmXmXmXmXmXmXmXmXmXmXmXmXmXmXmX",
"mXmXmXmXmXmXmXmXmXmXmXmXmXmXmXmXmXmXmXmXmXmXmXmXmXmXmXmXmXmXmXmXmXmXmXmXmXmXmXmXmXmXmXmXmXmXmXmXmXmXmXmXmXmXmXmXmXmXmXmXmXmXmXmXmXmXmXmXmXmX",
"mXmXmXmXmXmXmXmXmXmXmXmXmXmXmXmXmXmXmXmXmXmXmXmXmXmXmXmXmXmXmXmXmXmXmXmXmXmXmXmXmXmXmXmXmXmXmXmXmXmXmXmXmXmXmXmXmXmXmXmXmXmXmXmXmXmXmXmXmXmX",
"mXmXmXmXmXmXmXmXmXmXmXmXmXmXmXmXmXmXmXmXmXmXmXmXmXmXmXmXmXmXmXmXmXmXmXmXmXmXmXmXmXmXmXmXmXmXmXmXmXmXmXmXmXmXmXmXmXmXmXmXmXmXmXmXmXmXmXmXmXmX",
"mXmXmXmXmXmXmXmXmXmXmXmXmXmXmXmXmXmXmXmXmXmXmXmXmXmXmXmXmXmXmXmXmXmXmXmXmXmXmXmXmXmXmXmXmXmXmXmXmXmXmXmXmXmXmXmXmXmXmXmXmXmXmXmXmXmXmXmXmXmX",
"mXmXmXmXmXmXmXmXmXmXmXmXmXmXmXmXmXmXmXmXmXmXmXmXmXmXmXmXmXmXmXmXmXmXmXmXmXmXmXmXmXmXmXmXmXmXmXmXmXmXmXmXmXmXmXmXmXmXmXmXmXmXmXmXmXmXmXmXmXmX",
"mXmXmXmXmXmXmXmXmXmXmXmXmXmXmXmXmXmXmXmXmXmXmXmXmXmXmXmXmXmXmXmXmXmXmXmXmXmXmXmXmXmXmXmXmXmXmXmXmXmXmXmXmXmXmXmXmXmXmXmXmXmXmXmXmXmXmXmXmXmX",
"mXmXmXmXmXmXmXmXmXmXmXmXmXmXmXmXmXmXmXmXmXmXmXmXmXmXmXmXmXmXmXmXmXmXmXmXmXmXmXmXmXmXmXmXmXmXmXmXmXmXmXmXmXmXmXmXmXmXmXmXmXmXmXmXmXmXmXmXmXmX",
"mXmXmXmXmXmXmXmXmXmXmXmXmXmXmXmXmXmXmXmXmXmXmXmXmXmXmXmXmXmXmXmXmXmXmXmXmXmXmXmXmXmXmXmXmXmXmXmXmXmXmXmXmXmXmXmXmXmXmXmXmXmXmXmXmXmXmXmXmXmX",
"mXmXmXmXmXmXmXmXmXmXmXmXmXmXmXmXmXmXmXmXmXmXmXmXmXmXmXmXmXmXmXmXmXmXmXmXmXmXmXmXmXmXmXmXmXmXmXmXmXmXmXmXmXmXmXmXmXmXmXmXmXmXmXmXmXmXmXmXmXmX",
"mXmXmXmXmXmXmXmXmXmXmXmXmXmXmXmXmXmXmXmXmXmXmXmXmXmXmXmXmXmXmXmXmXmXmXmXmXmXmXmXmXmXmXmXmXmXmXmXmXmXmXmXmXmXmXmXmXmXmXmXmXmXmXmXmXmXmXmXmXmX",
"mXmXmXmXmXmXmXmXmXmXmXmXmXmXmXmXmXmXmXmXmXmXmXmXmXmXmXmXmXmXmXmXmXmXmXmXmXmXmXmXmXmXmXmXmXmXmXmXmXmXmXmXmXmXmXmXmXmXmXmXmXmXmXmXmXmXmXmXmXmX",
"mXmXmXmXmXmXmXmXmXmXmXmXmXmXmXmXmXmXmXmXmXmXmXmXmXmXmXmXmXmXmXmXmXmXmXmXmXmXmXmXmXmXmXmXmXmXmXmXmXmXmXmXmXmXmXmXmXmXmXmXmXmXmXmXmXmXmXmXmXmX",
"mXmXmXmXmXmXmXmXmXmXmXmXmXmXmXmXmXmXmXmXmXmXmXmXmXmXmXmXmXmXnXyXrX2X2X2X2XrXuXmXmXmXmXmXmXmXmXmXmXmXmXmXmXmXmXmXmXmXmXmXmXmXmXmXmXmXmXmXmXmX",
"mXmXmXmXmXmXmXmXmXmXmXmXmXmXmXmXmXmXmXmXmXmXmXmXmXmXmXkX2X|.{.{.c.c.c.c.c.{.{.}.OXrXmXmXmXmXmXmXmXmXmXmXmXmXmXmXmXmXmXmXmXmXmXmXmXmXmXmXmXmX",
"mXmXmXmXmXmXmXmXmXmXmXmXmXmXmXmXmXmXmXmXmXmXmXmXmXnXOX{.{.{.|.|.OXOXOXOXOXOX|.}.{.{.}.2XmXmXmXmXmXmXmXmXmXmXmXmXmXmXmXmXmXmXmXmXmXmXmXmXmXmX",
"mXmXmXmXmXmXmXmXmXmXmXmXmXmXmXmXmXmXmXmXmXmXmXmXeX{.}.|.OX+X%X%X%XeXeXrXeXrXeXeX%X+XOX{.OXlXmXmXmXmXmXmXmXmXmXmXmXmXmXmXmXmXmXmXmXmXmXmXmXmX",
"mXmXmXmXmXmXmXmXmXmXmXmXmXmXmXmXmXmXmXmXmXmXlXOX|.OX%XtXrXyXyXpXpXkXpXkXkXkXkXpXuXuXrX+XOX}.yXmXmXmXmXmXmXmXmXmXmXmXmXmXmXmXmXmXmXmXmXmXmXmX",
"mXmXmXmXmXmXmXmXmXmXmXmXmXmXmXmXmXmXmXmXmXpX+XOXeXyXpXkXkXlXlXcXcXcXcXcXcXvXxXjXaX*X6XpXrX%XOXrXmXmXmXmXmXmXmXmXmXmXmXmXmXmXmXmXmXmXmXmXmXmX",
"mXmXmXmXmXmXmXmXmXmXmXmXmXmXmXmXmXmXmXmXkX+XeXaXlXcXcXcXvXvXvXvXvXvXvXvXvX1X,X;XY.v.m.cXlXpXeX+XuXmXmXmXmXmXmXmXmXmXmXmXmXmXmXmXmXmXmXmXmXmX",
"mXmXmXmXmXmXmXmXmXmXmXmXmXmXmXmXmXmXmXmXeXyXqXqXgXxXbXvXvXvXvXvXvXvXvXvX1X1XgXxXsXm.*XvXcXcXlXyX%XkXmXmXmXmXmXmXmXmXmXmXmXmXmXmXmXmXmXmXmXmX",
"mXmXmXmXmXmXmXmXmXmXmXmXmXmXmXmXmXmXmXrXuXqXM.x.U./.^.,XxXvXvXxXxXxXxXgX^.xXvXvXvXvXvXvXvXvXcXlXuXeXmXmXmXmXmXmXmXmXmXmXmXmXmXmXmXmXmXmXmXmX",
"mXmXmXmXmXmXmXmXmXmXmXmXmXmXmXmXmXmXyXyXkXjX].Y.vXvXvXgX,X1X,XU.K.H.G.H.U.>XxXvXvXvXvXvXvXvXvXlXkXyXrXmXmXmXmXmXmXmXmXmXmXmXmXmXmXmXmXmXmXmX",
"mXmXmXmXmXmXmXmXmXmXmXmXmXmXmXmXmXkXrXaXkXcXcXvXvXvXvXjXU.S.S.J.K.!.!.!.K.G.U.xXvXvXvXvXvXvXcXcXzXpXtXaXmXmXmXmXmXmXmXmXmXmXmXmXmXmXmXmXmXmX",
"mXmXmXmXmXmXmXmXmXmXmXmXmXmXmXmXmXrXrXpXkXcXcXvXvXvXxX/.S.G.K.K.~.~.~.~.W.K.G.,XcXcXvXvXvXvXcXcXzXpXyXtXlXmXmXmXmXmXmXmXmXmXmXmXmXmXmXmXmXmX",
"mXmXmXmXmXmXmXmXmXmXmXmXmXmXmXmXaXeXyXkXlXcXcXvXvXcX0XA.S.G.H.U.~.~.~.n.t.A.G.R.cXcXcXcXcXcXcXcXcXkXpXrXyXmXmXmXmXmXmXmXmXmXmXmXmXmXmXmXmXmX",
"mXmXmXmXmXmXmXmXmXmXmXmXmXmXmXmX%XrXaXkXlXcXcXcXcXcX;Xk.A.z.a v.H.~.!.v.b.t.j.R.cXbXcXcXcXcXcXcXcXkXaXrXeXlXmXmXmXmXmXmXmXmXmXmXmXmXmXmXmXmX",
"mXmXmXmXmXmXmXmXmXmXmXmXmXmXmXaX$XyXaXaXzXzXzXzXzXjX].k.! E # M.S.K.K.A.m.E u.;XgXwXzXzXjXzXzXzXkXaXaXyX%XaXmXmXmXmXmXmXmXmXmXmXmXmXmXmXmXmX",
"mXmXmXmXmXmXmXmXmXmXmXmXmXmXmX%X$XtXiXiXwXwXwXwX0X0X;Xj.u.# t.P.G.J.J.G.y.Q D.>XwXwXwXwXwXwXwX0X0X0XiX6X$X$X8XdXmXmXmXmXmXmXmXmXmXmXmXmXmXmX",
"mXmXmXmXmXmXmXmXmXmXmX>X&XP.(.XX@X#X6X9X9X0X0X0X0X0X>XT.n.Q Q j.j.y.u.j.j.j.;X0X0XwX0XwX0X0X0X0X0X9X6X7X@XXXL.n.M.U.;XbXmXmXmXmXmXmXmXmXmXmX",
"mXmXmXmXmXmXmXmXdXR.n.! T P (.XX@X#X7X6X9X9X9X0X0X0X9X8X].n.y.k.j.i.i.k.y.T.9X0X0X0X0X9X0X8X8X9X9X5X6X#X@X X_.U L L W ! n.&XmXmXmXmXmXmXmXmX",
"mXmXmXmXmXmX>XD.W U P n n ! _.XXoX#X3X7X5X6X5X5X8X8X8X0X9X8XT.F.k.^ ^ ~ I.:X9X9X9X9X9X8X8X9X5X5X5X4X7X#X@X.X X! Y P n m L U W I.sXmXmXmXmXmX",
"mXmXmXmX>XP.W T Y P M M N z._.XX.X@X#X#X7X7X4X4X4X5X5X5X5X6X4XI.^ j.j.z.I.T.T.:X5X5X8X4X5X9X8X4X4X3X3XoXoXXX Xz.Y Y M M P L L L T P.sXmXmXmX",
"mXmXmXR.W T ! R P Y N C Z R F.). X.XoX@X#X#X#X3X3X3X7X7X4X4X[.D.~ S.J.S.T.[.I.T.3X3X7X3X3X7X7X7X#X$XoXoXXX_.L.R Z C N N M m m I U U ! ].mXmX",
"mXmXY.T I R r.&.&.&._ A A O.O.k.D.).'.XX.XoX@X[.#X[.#X#X3X#XoX~ j.F.S.S.D.[.[.@X3X#X3X#X#X#X3XoXoX.XXX).D.k.r.` ` Z C m b z x I Y I G U &XmX",
"mX>XW L Y r.5.1.3.4.<.;.+.@.#.#.-.h.l.I.`.'.'.[.'.oX'.`.T.(.L.~ j.^ ~ j.! L.N.L.L.(.).`.'.'.XX'.`.I.A.l.+.@.) _ ` ` B b m m x I Y P L L Q dX",
"mX&Xx n M V o.1.3.4.4.5.$.$.-.-.:.,.:.h.h.l.G.u.W H H F F F F j x z z z j j z z F G H J Y r.g.h.h.h.:.;.[ %.$.) O.) v b m b v Y M P P L x >X",
"mX&Xx P B N ` &.<.<.8.;.-.-.-.o.u w u ..&.*.*.*.6.*.&.%.%.( ( ( ( ( ( ( ( ( ] #.;.&.=.*.6.*.*.=.=.:.o.w : q ..) @.@.A B B C Z N N M n L j 8X",
"mX*XK L Y N C A ' _ @.#.-.;.&.w - - - - } *.6.9.9.9.8.9.9.q.q.q.0.q.0.0.0.9.9.e.9.9.7.6.6.6.*.*.=.o.; - ; - ; [ #.@.@._ ' A Z N M n L x E sX",
"mXmXm.F c Y N Z ' _ @.#.-.;.o.- - - - - - 8.7.9.9.9.q.9.q.q.q.q.w.w.0.0.0.0.w.9.9.0.9.9.6.6.*.*.=.q - - - - ; u #.@.+._ A Z C Y B L x # =XmX",
"mXmXmXm.# z m M C Z ' @.$.-.o.- - - - - - o.6.9.9.9.9.6.%.%.=.q.0.w.0.0.0.w.9.9.0.<.8.9.9.6.6.*.5.; - - - - - u @.O.' ` C N M n G z # =XmXmX",
"mXmXmXmX*XE # z c M N V A O.$.q - - - - : o.6.6.7.7.=.D g g g ] 6.9.w.w.e.9.9.2.1.3.1.2.7.*.*.=.&.w - - - - - u ] Z C N Y L c z # v.<XmXmXmX",
"mXmXmXmXmXmX=XE J j x G Y N C ] w - - w ..[ :.%.=.=.%.D g l l D %.9.e.e.6.6.7.2.3.3.1.1.5.,.:.-.;.[ p w : : w / N N P c z F J v.=XmXmXmXmXmX",
"mXmXmXmXmXmXmXmX*XM.+ . h z c n V / / ] ' _ @.@.#.#.-.O.S D S ] :.:.>.:.>.:.:.5.<.<.<.5.;.#.@.O.' ' ' V { { V n G j h J v.m.>XmXmXmXmXmXmXmX",
"mXmXmXmXmXmXmXmXmXmXB., 1 + O X j x c m B M N C Z A A O.@._ O.O.+.$.@.@.+.+.@._ _ _ ' ` A Z Z C M B n c x j k k O o a =XmXmXmXmXmXmXmXmXmXmX",
"mXmXmXmXmXmXmXmXmXmX-X= 7 7 7 3 < o O X   h j b b x v m n B M N Y M N N N N Y M B B n v x c z x h X X   O 1 < 2 2 % C.mXmXmXmXmXmXmXmXmXmXmX",
"mXmXmXmXmXmXmXmXmXmXmXZ.w 6 e e 0 6 6 7 3 a v.n.E         h h j h b h h h h h z . . . z F J E + 1 , 2 7 7 6 6 8 6 a.fXmXmXmXmXmXmXmXmXmXmXmX",
"mXmXmXmXmXmXmXmXmXmXmXmXC.p.i t y y t u d Q.mXmXfX4 = $ 3 3 4 , , < < < < < , , 4 3 $ B.dXmXmXC.s 6 6 9 r r r u V.fXmXmXmXmXmXmXmXmXmXmXmXmX",
"mXmXmXmXmXmXmXmXmXmXmXmXmX-XC.V.d.d.V.E.fXmXmXmXmXf > = % = & & & & & & & & & % = $ > C.mXmXmXmX-XZ.s.p.p.d.V.Q.mXmXmXmXmXmXmXmXmXmXmXmXmXmX",
"mXmXmXmXmXmXmXmXmXmXmXmXmXmXmXmXhXhXmXmXmXmXmXmXmX-X= * 5 5 5 5 8 8 8 8 8 5 5 5 & % s -XmXmXmXmXmXmXhX<X<XhXmXmXmXmXmXmXmXmXmXmXmXmXmXmXmXmX",
"mXmXmXmXmXmXmXmXmXmXmXmXmXmXmXmXmXmXmXmXmXmXmXmXmXmXB.7 6 9 0 0 e e e e e 9 0 6 5 7 C.mXmXmXmXmXmXmXmXmXmXmXmXmXmXmXmXmXmXmXmXmXmXmXmXmXmXmX",
"mXmXmXmXmXmXmXmXmXmXmXmXmXmXmXmXmXmXmXmXmXmXmXmXmXmX-Xf u 0 r r t t t t t t r r w B.fXmXmXmXmXmXmXmXmXmXmXmXmXmXmXmXmXmXmXmXmXmXmXmXmXmXmXmX",
"mXmXmXmXmXmXmXmXmXmXmXmXmXmXmXmXmXmXmXmXmXmXmXmXmXmXmX-Xs.u y y y } } } } y t u a.-XmXmXmXmXmXmXmXmXmXmXmXmXmXmXmXmXmXmXmXmXmXmXmXmXmXmXmXmX",
"mXmXmXmXmXmXmXmXmXmXmXmXmXmXmXmXmXmXmXmXmXmXmXmXmXmXmXmX-XV.X.} | | | | | } p.V.fXmXmXmXmXmXmXmXmXmXmXmXmXmXmXmXmXmXmXmXmXmXmXmXmXmXmXmXmXmX",
"mXmXmXmXmXmXmXmXmXmXmXmXmXmXmXmXmXmXmXmXmXmXmXmXmXmXmXmXmXmX-XE.f. . . .f.E.-XmXmXmXmXmXmXmXmXmXmXmXmXmXmXmXmXmXmXmXmXmXmXmXmXmXmXmXmXmXmXmX",
"mXmXmXmXmXmXmXmXmXmXmXmXmXmXmXmXmXmXmXmXmXmXmXmXmXmXmXmXmXmXmXmXhXfX<XhXhXmXmXmXmXmXmXmXmXmXmXmXmXmXmXmXmXmXmXmXmXmXmXmXmXmXmXmXmXmXmXmXmXmX",
"mXmXmXmXmXmXmXmXmXmXmXmXmXmXmXmXmXmXmXmXmXmXmXmXmXmXmXmXmXmXmXmXmXmXmXmXmXmXmXmXmXmXmXmXmXmXmXmXmXmXmXmXmXmXmXmXmXmXmXmXmXmXmXmXmXmXmXmXmXmX",
"mXmXmXmXmXmXmXmXmXmXmXmXmXmXmXmXmXmXmXmXmXmXmXmXmXmXmXmXmXmXmXmXmXmXmXmXmXmXmXmXmXmXmXmXmXmXmXmXmXmXmXmXmXmXmXmXmXmXmXmXmXmXmXmXmXmXmXmXmXmX",
"mXmXmXmXmXmXmXmXmXmXmXmXmXmXmXmXmXmXmXmXmXmXmXmXmXmXmXmXmXmXmXmXmXmXmXmXmXmXmXmXmXmXmXmXmXmXmXmXmXmXmXmXmXmXmXmXmXmXmXmXmXmXmXmXmXmXmXmXmXmX",
"mXmXmXmXmXmXmXmXmXmXmXmXmXmXmXmXmXmXmXmXmXmXmXmXmXmXmXmXmXmXmXmXmXmXmXmXmXmXmXmXmXmXmXmXmXmXmXmXmXmXmXmXmXmXmXmXmXmXmXmXmXmXmXmXmXmXmXmXmXmX",
"mXmXmXmXmXmXmXmXmXmXmXmXmXmXmXmXmXmXmXmXmXmXmXmXmXmXmXmXmXmXmXmXmXmXmXmXmXmXmXmXmXmXmXmXmXmXmXmXmXmXmXmXmXmXmXmXmXmXmXmXmXmXmXmXmXmXmXmXmXmX",
"mXmXmXmXmXmXmXmXmXmXmXmXmXmXmXmXmXmXmXmXmXmXmXmXmXmXmXmXmXmXmXmXmXmXmXmXmXmXmXmXmXmXmXmXmXmXmXmXmXmXmXmXmXmXmXmXmXmXmXmXmXmXmXmXmXmXmXmXmXmX",
"mXmXmXmXmXmXmXmXmXmXmXmXmXmXmXmXmXmXmXmXmXmXmXmXmXmXmXmXmXmXmXmXmXmXmXmXmXmXmXmXmXmXmXmXmXmXmXmXmXmXmXmXmXmXmXmXmXmXmXmXmXmXmXmXmXmXmXmXmXmX",
"mXmXmXmXmXmXmXmXmXmXmXmXmXmXmXmXmXmXmXmXmXmXmXmXmXmXmXmXmXmXmXmXmXmXmXmXmXmXmXmXmXmXmXmXmXmXmXmXmXmXmXmXmXmXmXmXmXmXmXmXmXmXmXmXmXmXmXmXmXmX",
"mXmXmXmXmXmXmXmXmXmXmXmXmXmXmXmXmXmXmXmXmXmXmXmXmXmXmXmXmXmXmXmXmXmXmXmXmXmXmXmXmXmXmXmXmXmXmXmXmXmXmXmXmXmXmXmXmXmXmXmXmXmXmXmXmXmXmXmXmXmX",
"mXmXmXmXmXmXmXmXmXmXmXmXmXmXmXmXmXmXmXmXmXmXmXmXmXmXmXmXmXmXmXmXmXmXmXmXmXmXmXmXmXmXmXmXmXmXmXmXmXmXmXmXmXmXmXmXmXmXmXmXmXmXmXmXmXmXmXmXmXmX",
"mXmXmXmXmXmXmXmXmXmXmXmXmXmXmXmXmXmXmXmXmXmXmXmXmXmXmXmXmXmXmXmXmXmXmXmXmXmXmXmXmXmXmXmXmXmXmXmXmXmXmXmXmXmXmXmXmXmXmXmXmXmXmXmXmXmXmXmXmXmX",
"mXmXmXmXmXmXmXmXmXmXmXmXmXmXmXmXmXmXmXmXmXmXmXmXmXmXmXmXmXmXmXmXmXmXmXmXmXmXmXmXmXmXmXmXmXmXmXmXmXmXmXmXmXmXmXmXmXmXmXmXmXmXmXmXmXmXmXmXmXmX",
"mXmXmXmXmXmXmXmXmXmXmXmXmXmXmXmXmXmXmXmXmXmXmXmXmXmXmXmXmXmXmXmXmXmXmXmXmXmXmXmXmXmXmXmXmXmXmXmXmXmXmXmXmXmXmXmXmXmXmXmXmXmXmXmXmXmXmXmXmXmX"
};
