/* XPM */
static char *result[] = {
/* columns rows colors chars-per-pixel */
"70 70 238 2 ",
"   c #3D7C1F",
".  c #387C23",
"X  c #2C7F27",
"o  c #7A641B",
"O  c #4D7525",
"+  c #6F6A2D",
"@  c #765D13",
"#  c #487A46",
"$  c #B23804",
"%  c #CB3402",
"&  c #D33600",
"*  c #D53A06",
"=  c #CC330B",
"-  c #E92804",
";  c #E9370D",
":  c #DB1A02",
">  c #9B520F",
",  c #955611",
"<  c #935411",
"1  c #B5480A",
"2  c #AA4A0F",
"3  c #A75620",
"4  c #DD4501",
"5  c #D84B06",
"6  c #D24C10",
"7  c #E24801",
"8  c #E85701",
"9  c #EA4E0B",
"0  c #D07416",
"q  c #E96501",
"w  c #F56B00",
"e  c #F87900",
"r  c #ED700E",
"t  c #D55B32",
"y  c #9E7254",
"u  c #D1614F",
"i  c #E77E59",
"p  c #D47668",
"a  c #2E9B1D",
"s  c #398529",
"d  c #3C8933",
"f  c #28812B",
"g  c #24A21B",
"h  c #438B37",
"j  c #46933A",
"k  c #4A9737",
"l  c #549D3B",
"z  c #589A34",
"x  c #4E932B",
"c  c #5BA33D",
"v  c #58A13C",
"b  c #64AA3E",
"n  c #6CAD3D",
"m  c #64A639",
"M  c #73B23C",
"N  c #7BB53A",
"B  c #7FB636",
"V  c #6EAA2F",
"C  c #54A01E",
"Z  c #4A8A45",
"A  c #4D9744",
"S  c #539747",
"D  c #5A8758",
"F  c #5F915C",
"G  c #55A242",
"H  c #5AA541",
"J  c #5CA34A",
"K  c #5DA655",
"L  c #66A945",
"P  c #63A559",
"I  c #79B24C",
"U  c #748E71",
"Y  c #6BA964",
"T  c #77AB72",
"R  c #76B370",
"E  c #7CC177",
"W  c #7BC06D",
"Q  c #99BB2A",
"!  c #91BE2E",
"~  c #8BBE36",
"^  c #84BB39",
"/  c #88BC38",
"(  c #8FB92D",
")  c #B8A727",
"_  c #B2B62D",
"`  c #BF831F",
"'  c #C8911C",
"]  c #F98600",
"[  c #FC9500",
"{  c #FDB007",
"}  c #C19223",
"|  c #EF8F3C",
" . c #C5A924",
".. c #C3B325",
"X. c #8EC136",
"o. c #8EC03A",
"O. c #93C335",
"+. c #9AC634",
"@. c #9DC933",
"#. c #95C43A",
"$. c #A8C92A",
"%. c #B7CA2B",
"&. c #ADD02F",
"*. c #B5D42D",
"=. c #BAD52C",
"-. c #BDD92C",
";. c #B8D125",
":. c #A3CB32",
">. c #AACD31",
",. c #A4C730",
"<. c #ADD131",
"1. c #B1D336",
"2. c #E9EA1A",
"3. c #F1EF15",
"4. c #F5F211",
"5. c #C4DD2A",
"6. c #C7DA29",
"7. c #CAD832",
"8. c #CDE229",
"9. c #D2E52A",
"0. c #D5E425",
"q. c #D2E532",
"w. c #CEE233",
"e. c #E1EA20",
"r. c #8CB747",
"t. c #84987D",
"y. c #84BA76",
"u. c #8DB07B",
"i. c #AAB178",
"p. c #F0965B",
"a. c #D2867B",
"s. c #E48E70",
"d. c #F9AE71",
"f. c #FBB85F",
"g. c #9AC44B",
"h. c #ABD04D",
"j. c #88C778",
"k. c #8DC56C",
"l. c #ACD36C",
"z. c #7DBD8F",
"x. c #7F8880",
"c. c #7AC5F5",
"v. c #899D87",
"b. c #818C81",
"n. c #91B38F",
"m. c #AAB8AA",
"M. c #A2AFA0",
"N. c #8DBCAD",
"B. c #CD8C83",
"V. c #F1AE8E",
"C. c #E8B5AB",
"Z. c #E2A497",
"A. c #98C887",
"S. c #9AD685",
"D. c #98C99B",
"F. c #8BC888",
"G. c #A7D98A",
"H. c #ACD593",
"J. c #A8E38C",
"K. c #B8E996",
"L. c #95C9AF",
"P. c #A8C9A8",
"I. c #B8DBAB",
"U. c #B8C8B7",
"Y. c #A9D5B6",
"T. c #BAD8B9",
"R. c #A2D2A9",
"E. c #F8C698",
"W. c #C2EE9D",
"Q. c #ECC7BC",
"!. c #C9EEA1",
"~. c #D4F5A9",
"^. c #CCEEB0",
"/. c #C4DFBF",
"(. c #9ACCC5",
"). c #9BD3C7",
"_. c #95D1D5",
"`. c #A5D7C9",
"'. c #A6D8DA",
"]. c #B5D9CC",
"[. c #BAE1D9",
"{. c #88CAF6",
"}. c #96CEF5",
"|. c #9AD3F7",
" X c #9DD6E0",
".X c #ABDCE3",
"XX c #A6DAE2",
"oX c #B2DEE3",
"OX c #A8D8F7",
"+X c #B6DDF7",
"@X c #B5E0E5",
"#X c #BCE3E4",
"$X c #BBE3EF",
"%X c #BAE2F7",
"&X c #C9D8C9",
"*X c #D6DBD6",
"=X c #C9D2CC",
"-X c #F1D9D2",
";X c #CAE3C8",
":X c #C7E5D9",
">X c #DDE8DC",
",X c #D6EEC7",
"<X c #F9E7DC",
"1X c #E3F3D7",
"2X c #C1DEF8",
"3X c #C4E6E5",
"4X c #CAE7E6",
"5X c #CDE9E6",
"6X c #CCE9E9",
"7X c #C6E7E7",
"8X c #D5EBE5",
"9X c #D4ECE9",
"0X c #DAEEEA",
"qX c #D7E5E4",
"wX c #DDF0EB",
"eX c #C4E6FA",
"rX c #CBEAF9",
"tX c #C8E7F7",
"yX c #D4EDF9",
"uX c #D9EEFA",
"iX c #D1ECF4",
"pX c #DCF1FB",
"aX c #DBF0F7",
"sX c #E5ECE5",
"dX c #E8ECEA",
"fX c #F8EAE5",
"gX c #EAF4EA",
"hX c #FBF3E9",
"jX c #EBF6F5",
"kX c #E3F3FB",
"lX c #EAF6FB",
"zX c #EAF6F7",
"xX c #F5F9F4",
"cX c #F4FAFD",
"vX c #FBFDFE",
"bX c #F1F7F4",
"nX c #E3EEF8",
"mX c None",
/* pixels */
"mXmXmXmXmXmXmXmXmXmXmXmXmXmXmXmXmXmXmXmXmXmXmXmXmXmXmXmXmXmXmXmXmXmXmXmXmXmXmXmXmXmXmXmXmXmXmXmXmXmXmXmXmXmXmXmXmXmXmXmXmXmXmXmXmXmXmXmXmXmX",
"mXmXmXmXmXmXmXmXmXmXmXmXmXmXmXmXmXmXmXmXmXmXmXmXmXmXmXmXmXmXmXmXmXmXmXmXmXmXmXmXmXmXmXmXmXmXmXmXmXmXmXmXmXmXmXmXmXmXmXmXmXmXmXmXmXmXmXmXmXmX",
"mXmXmXmXmXmXmXmXmXmXmXmXmXmXmXmXmXmXmXmXmXmXmXmXmXmXmXmXmXmXmXmXmXmXmXmXmXmXmXmXmXmXmXmXmXmXmXmXmXmXmXmXmXmXmXmXmXmXmXmXmXmXmXmXmXmXmXmXmXmX",
"mXmXmXmXmXmXmXmXmXmXmXmXmXmXmXmXmXmXmXmXmXmXmXmXmXmXmXmXmXmXmXmXmXmXmXmXmXmXmXmXmXmXmXmXmXmXmXmXmXmXmXmXmXmXmXmXmXmXmXmXmXmXmXmXmXmXmXmXmXmX",
"mXmXmXmXmXmXmXmXmXmXmXmXmXmXmXmXmXmXmXmXmXmXmXmXmXmXmXmXmXmXmXmXmXmXmXmXmXmXmXmXmXmXmXmXmXmXmXmXmXmXmXmXmXmXmXmXmXmXmXmXmXmXmXmXmXmXmXmXmXmX",
"mXmXmXmXmXmXmXmXmXmXmXmXmXmXmXmXmXmXmXmXmXmXmXmXmXmXmXmXmXmXmXmXmXmXmXmXmXmXmXmXmXmXmXmXmXmXmXmXmXmXmXmXmXmXmXmXmXmXmXmXmXmXmXmXmXmXmXmXmXmX",
"mXmXmXmXmXmXmXmXmXmXmXmXmXmXmXmXmXmXmXmXmXmXmXmXmXmXmXmXmXmXmXmXmXmXmXmXmXmXmXmXmXmXmXmXmXmXmXmXmXmXmXmXmXmXmXmXmXmXmXmXmXmXmXmXmXmXmXmXmXmX",
"mXmXmXmXmXmXmXmXmXmXmXmXmXmXmXmXmXmXmXmXmXmXmXmXmXmXmXmXmXmXmXmXmXmXmXmXmXmXmXmXmXmXmXmXmXmXmXmXmXmXmXmXmXmXmXmXmXmXmXmXmXmXmXmXmXmXmXmXmXmX",
"mXmXmXmXmXmXmXmXmXmXmXmXmXmXmXmXmXmXmXmXmXmXmXmXmXmXmXmXmXmXmXmXmXmXmXmXmXmXmXmXmXmXmXmXmXmXmXmXmXmXmXmXmXmXmXmXmXmXmXmXmXmXmXmXmXmXmXmXmXmX",
"mXmXmXmXmXmXmXmXmXmXmXmXmXmXmXmXmXmXmXmXmXmXmXmXmXmXmXmXmXmXmXmXmXmXmXmXmXmXmXmXmXmXmXmXmXmXmXmXmXmXmXmXmXmXmXmXmXmXmXmXmXmXmXmXmXmXmXmXmXmX",
"mXmXmXmXmXmXmXmXmXmXmXmXmXmXmXmXmXmXmXmXmXmXmXmXmXmXmXmXmXmXmXmXmXmXmXmXmXmXmXmXmXmXmXmXmXmXmXmXmXmXmXmXmXmXmXmXmXmXmXmXmXmXmXmXmXmXmXmXmXmX",
"mXmXmXmXmXmXmXmXmXmXmXmXmXmXmXmXmXmXmXmXmXmXmXmXmXmXmXmXmXmXmXmXmXmXmXmXmXmXmXmXmXmXmXmXmXmXmXmXmXmXmXmXmXmXmXmXmXmXmXmXmXmXmXmXmXmXmXmXmXmX",
"mXmXmXmXmXmXmXmXmXmXmXmXmXmXmXmXmXmXmXmXmXmXmXmXmXmXmXmXmXmXmXmXmXmXmXmXmXmXmXmXmXmXmXmXmXmXmXmXmXmXmXmXmXmXmXmXmXmXmXmXmXmXmXmXmXmXmXmXmXmX",
"mXmXmXmXmXmXmXmXmXmXmXmXmXmXmXmXmXmXmXmXmXmXmXmXmXmXmXmXmXmXmXmXmXmXmXmXmXmXmXmXmXmXmXmXmXmXmXmXmXmXmXmXmXmXmXmXmXmXmXmXmXmXmXmXmXmXmXmXmXmX",
"mXmXmXmXmXmXmXmXmXmXmXmXmXmXmXmXmXmXmXmXmXmXmXmXmXmXmXmXmXmXnXyXrX2X2X2X2XrXuXmXmXmXmXmXmXmXmXmXmXmXmXmXmXmXmXmXmXmXmXmXmXmXmXmXmXmXmXmXmXmX",
"mXmXmXmXmXmXmXmXmXmXmXmXmXmXmXmXmXmXmXmXmXmXmXmXmXmXmXkX2X|.{.{.c.c.c.c.c.{.{.}.OXrXmXmXmXmXmXmXmXmXmXmXmXmXmXmXmXmXmXmXmXmXmXmXmXmXmXmXmXmX",
"mXmXmXmXmXmXmXmXmXmXmXmXmXmXmXmXmXmXmXmXmXmXmXmXmXnXOX{.{.{.|.|.OXOXOXOXOXOX|.}.{.{.}.2XmXmXmXmXmXmXmXmXmXmXmXmXmXmXmXmXmXmXmXmXmXmXmXmXmXmX",
"mXmXmXmXmXmXmXmXmXmXmXmXmXmXmXmXmXmXmXmXmXmXmXmXeX{.}.|.OX+X%X%X%XeXeXrXeXrXeXeX%X+XOX{.OXlXmXmXmXmXmXmXmXmXmXmXmXmXmXmXmXmXmXmXmXmXmXmXmXmX",
"mXmXmXmXmXmXmXmXmXmXmXmXmXmXmXmXmXmXmXmXmXmXlXOX|.OX%XtXrXyXyXpXpXkXpXkXkXkXkXpXuXuXrX+XOX}.yXmXmXmXmXmXmXmXmXmXmXmXmXmXmXmXmXmXmXmXmXmXmXmX",
"mXmXmXmXmXmXmXmXmXmXmXmXmXmXmXmXmXmXmXmXmXpX+XOXeXyXpXkXkXlXlXcXcXcXcXcXcXvXxXjXaX*X6XpXrX%XOXrXmXmXmXmXmXmXmXmXmXmXmXmXmXmXmXmXmXmXmXmXmXmX",
"mXmXmXmXmXmXmXmXmXmXmXmXmXmXmXmXmXmXmXmXkX+XeXaXlXcXcXcXvXvXvXvXvXvXvXvXvX1X,X;XU.v.m.cXlXpXeX+XuXmXmXmXmXmXmXmXmXmXmXmXmXmXmXmXmXmXmXmXmXmX",
"mXmXmXmXmXmXmXmXmXmXmXmXmXmXmXmXmXmXmXmXeXyXqXqXgXxXbXvXvXvXvXvXvXvXvXvX1X1XgXxXsXm.*XvXcXcXlXyX%XkXmXmXmXmXmXmXmXmXmXmXmXmXmXmXmXmXmXmXmXmX",
"mXmXmXmXmXmXmXmXmXmXmXmXmXmXmXmXmXmXmXrXuXqXM.x.I./.^.,XxXvXvXxXxXxXxXgX^.xXvXvXvXvXvXvXvXvXcXlXuXeXmXmXmXmXmXmXmXmXmXmXmXmXmXmXmXmXmXmXmXmX",
"mXmXmXmXmXmXmXmXmXmXmXmXmXmXmXmXmXmXyXyXkXjX].U.vXvXvXgX,X1X,XI.K.H.G.H.I.>XxXvXvXvXvXvXvXvXvXlXkXyXrXmXmXmXmXmXmXmXmXmXmXmXmXmXmXmXmXmXmXmX",
"mXmXmXmXmXmXmXmXmXmXmXmXmXmXmXmXmXkXrXaXkXcXcXvXvXvXvXjXI.S.S.J.K.!.!.!.K.G.I.xXvXvXvXvXvXvXcXcXzXpXtXaXmXmXmXmXmXmXmXmXmXmXmXmXmXmXmXmXmXmX",
"mXmXmXmXmXmXmXmXmXmXmXmXmXmXmXmXmXrXrXpXkXcXcXvXvXvXxX/.S.G.K.K.~.~.~.~.W.K.G.,XcXcXvXvXvXvXcXcXzXpXyXtXlXmXmXmXmXmXmXmXmXmXmXmXmXmXmXmXmXmX",
"mXmXmXmXmXmXmXmXmXmXmXmXmXmXmXmXaXeXyXkXlXcXcXvXvXcX0XA.S.G.H.I.~.~.~.n.t.A.G.T.cXcXcXcXcXcXcXcXcXkXpXrXyXmXmXmXmXmXmXmXmXmXmXmXmXmXmXmXmXmX",
"mXmXmXmXmXmXmXmXmXmXmXmXmXmXmXmX%XrXaXkXlXcXcXcXcXcX;Xk.A.z.y v.H.~.!.v.b.t.j.T.cXbXcXcXcXcXcXcXcXkXaXrXeXlXmXmXmXmXmXmXmXmXmXmXmXmXmXmXmXmX",
"mXmXmXmXmXmXmXmXmXmXmXmXmXmXmXaX$XyXaXaXzXzXzXzXzXjX].k.R U # M.S.K.K.A.m.U u.;XgXwXzXzXjXzXzXzXkXaXaXyX%XaXmXmXmXmXmXmXmXmXmXmXmXmXmXmXmXmX",
"mXmXmXmXmXmXmXmXmXmXmXmXmXmXmX%X$XtXiXiXwXwXwXwX0X0X;Xj.u.# t.P.G.J.J.G.y.T D.>XwXwXwXwXwXwXwX0X0X0XiX6X$X$X8XdXmXmXmXmXmXmXmXmXmXmXmXmXmXmX",
"mXmXmXmXmXmXmXmXmXmXmX>X&XP.(.XX@X#X6X9X9X0X0X0X0X0X>XY.n.T T j.j.y.u.j.j.j.;X0X0XwX0XwX0X0X0X0X0X9X6X7X@XXXL.n.M.I.;XbXmXmXmXmXmXmXmXmXmXmX",
"mXmXmXmXmXmXmXmXdXT.n.R P H (.XX@X#X7X6X9X9X9X0X0X0X9X8X].n.y.k.j.i.i.k.y.Y.9X0X0X0X0X9X0X8X8X9X9X5X6X#X@X X_.K G G Y R n.&XmXmXmXmXmXmXmXmX",
"mXmXmXmXmXmX>XM.Y J H c c R _.XXoX#X3X7X6X5X5X5X9X9X9X9X8X9XY.F.k.W W E R.:X9X9X9X9X9XqX9X9X9X6X5X4X7X#X@X.X XR H H c G G K Y R.sXmXmXmXmXmX",
"mXmXmXmX1XP.P P L L b b n z._.'..X@X#X3X3X7X6X7X5X:X8X5X5X5X5XR.W j.j.z.R.Y.Y.:X5X6X5X5X9X9XqX5X3X3X#X#XoX.X Xz.M L b c H H G G P P.sXmXmXmX",
"mXmXmXT.Y P T g.-.7.X.M M I F.(.XXXX.X@X#X#X3X:X3X4X7X7X4X4X3XD.E S.J.S.Y.[.R.Y.4X4X4X4X3X5X5X5X#X#XoXoXXX_.L.I M M n n L v G J K P R ].mXmX",
"mXmXU.P K I q.4.4.3.2.X.^ X.X.k.D.).'..X.X.XoX#X[.#X#X#X3X#XoXE j.F.S.S.D.[.[.@X3XoX3XoX#XoXoXoXoX.XXX).D.j.o.B ^ N M v x x j J K J G K &XmX",
"mX>XY G L r.4.4.4.4.4.5.X.X.+.@.@.h.l.L.`.'.'.'..X'.'.`.(.L.L.E j.W E j.R N.L.L.(.(.(.`.'.XX'.XX`.R.S.k.g.,.X.X.^ B m x v l j L L c G l T dX",
"mX&Xk c m N 3.4.4.4.4.2.+.@.@.>.&.&.&.h.h.l.l.A.P D S Z A Z Z h k h h h d d d h Z A S S L r.g.h.h.h.>.:.,.@.+.X.X.( z k l x z L b L G G k >X",
"mX&Xj H n M =.4.4.4.3.%.@.:.>.*.<.*.-.*.=.-.5.5.5.-.;.$.$.Q Q Q Q Q Q Q Q Q ! Q >.%.*.5.5.=.=.-.*.<.<.>.>.>.@.@.+.O.^ V V n M n n c G G j >X",
"mX>XF v L L ^ >.6.*.+.@.:.>.<._  . ...=.-.5.5.6.8.6.8.8.8.9.8.8.8.9.9.9.9.w.q.w.8.6.6.6.5.5.-.-.-.<.%. .) _ $.@.O.O.~ / ^ ^ N n b H v j U sX",
"mXmXm.Z l m n N / ~ ! :.:.:.&.' - : 9 0 7.6.5.6.8.8.9.8.0.9.0.0.q.q.0.9.9.9.w.8.9.0.0.8.5.-.-.-.;. .r * ; 6 ) @.+.O.o.^ ^ N M b b v j # ].mX",
"mXmXmXm.# h v L M ^ / ~ #.:.>.) ; - - & ' 7.5.6.8.8.8.5.$.$.;.8.0.q.9.0.9.q.9.e.4.4.4.3.8.8.5.-.%.0 - - - = ) +.O.o.^ ^ M n b c A h # =XmXmX",
"mXmXmXmX*XU # j J b n M r.~ O.+._ } 0 } %.-.-.5.5.6.6.C a a a ( 8.q.q.q.q.8.0.4.4.4.4.4.2.=.=.=.<._ ' 0 ` _ O.~ ^ B M n L G l h # v.<XmXmXmX",
"mXmXmXmXmXmX=XU # h k l b n M r.r.+.#.+.@.:.>.*.*.%.$.C a g g C $.5.w.w.5.8.2.4.4.4.4.4.3.*.<.:.:.@.+.~ / B ^ I n L c l j Z D v.=XmXmXmXmXmX",
"mXmXmXmXmXmXmXmX=XM.+ . s k l c L M M B ^ ~ X.O.@.@.:.O.V C V ( >.<.<.<.1.<.5.4.4.4.4.4.0.+.O.X.X.^ B M n n m S A d d D v.m.*XmXmXmXmXmXmXmX",
"mXmXmXmXmXmXmXmXmXmXB.> < + O f d k k l m b n M M B B ^ O./ ~ ~ X.#.#.O.X.#.X.6.3.4.4.6.^ N M M b b v v k h s X O o y =XmXmXmXmXmXmXmXmXmXmX",
"mXmXmXmXmXmXmXmXmXmX-X= 6 = 6 2 , o O s     d k k k v v m m m n L M n n L n L n M ^ m v l k j k s X f   O @ , 1 1 % C.mXmXmXmXmXmXmXmXmXmXmX",
"mXmXmXmXmXmXmXmXmXmXmXZ.t 8 8 8 8 8 5 6 2 y v.n.F O       . s d s s s s s s s h s .   O Z D U + < > 1 6 5 5 5 7 5 a.fXmXmXmXmXmXmXmXmXmXmXmX",
"mXmXmXmXmXmXmXmXmXmXmXmXC.p.r w e e w r p Q.mXmXfXt $ $ 2 2 3 > > > , > , , > > 3 $ $ B.dXmXmXC.u 5 5 8 q q q r Z.fXmXmXmXmXmXmXmXmXmXmXmXmX",
"mXmXmXmXmXmXmXmXmXmXmXmXmX-XC.V.d.d.V.E.fXmXmXmXmXp $ : % = & & * * * * & & & % = = $ C.mXmXmXmX-XZ.s.p.p.d.V.Q.mXmXmXmXmXmXmXmXmXmXmXmXmXmX",
"mXmXmXmXmXmXmXmXmXmXmXmXmXmXmXmXhXhXmXmXmXmXmXmXmX-X= = 4 4 4 7 7 7 7 7 7 4 5 4 % = u -XmXmXmXmXmXmXhX<X<XhXmXmXmXmXmXmXmXmXmXmXmXmXmXmXmXmX",
"mXmXmXmXmXmXmXmXmXmXmXmXmXmXmXmXmXmXmXmXmXmXmXmXmXmXB.5 5 8 8 8 8 8 8 8 8 8 8 5 4 6 C.mXmXmXmXmXmXmXmXmXmXmXmXmXmXmXmXmXmXmXmXmXmXmXmXmXmXmX",
"mXmXmXmXmXmXmXmXmXmXmXmXmXmXmXmXmXmXmXmXmXmXmXmXmXmX-Xp t q q q w w w w w w q 8 6 p bXmXmXmXmXmXmXmXmXmXmXmXmXmXmXmXmXmXmXmXmXmXmXmXmXmXmXmX",
"mXmXmXmXmXmXmXmXmXmXmXmXmXmXmXmXmXmXmXmXmXmXmXmXmXmXmX-Xs.r e e ] ] ] ] ] e w r s.<XmXmXmXmXmXmXmXmXmXmXmXmXmXmXmXmXmXmXmXmXmXmXmXmXmXmXmXmX",
"mXmXmXmXmXmXmXmXmXmXmXmXmXmXmXmXmXmXmXmXmXmXmXmXmXmXmXmX-XV.| ] [ [ [ [ [ ] p.V.fXmXmXmXmXmXmXmXmXmXmXmXmXmXmXmXmXmXmXmXmXmXmXmXmXmXmXmXmXmX",
"mXmXmXmXmXmXmXmXmXmXmXmXmXmXmXmXmXmXmXmXmXmXmXmXmXmXmXmXmXmX-XE.f.{ { { f.E.-XmXmXmXmXmXmXmXmXmXmXmXmXmXmXmXmXmXmXmXmXmXmXmXmXmXmXmXmXmXmXmX",
"mXmXmXmXmXmXmXmXmXmXmXmXmXmXmXmXmXmXmXmXmXmXmXmXmXmXmXmXmXmXmXmXhXfX<XhXhXmXmXmXmXmXmXmXmXmXmXmXmXmXmXmXmXmXmXmXmXmXmXmXmXmXmXmXmXmXmXmXmXmX",
"mXmXmXmXmXmXmXmXmXmXmXmXmXmXmXmXmXmXmXmXmXmXmXmXmXmXmXmXmXmXmXmXmXmXmXmXmXmXmXmXmXmXmXmXmXmXmXmXmXmXmXmXmXmXmXmXmXmXmXmXmXmXmXmXmXmXmXmXmXmX",
"mXmXmXmXmXmXmXmXmXmXmXmXmXmXmXmXmXmXmXmXmXmXmXmXmXmXmXmXmXmXmXmXmXmXmXmXmXmXmXmXmXmXmXmXmXmXmXmXmXmXmXmXmXmXmXmXmXmXmXmXmXmXmXmXmXmXmXmXmXmX",
"mXmXmXmXmXmXmXmXmXmXmXmXmXmXmXmXmXmXmXmXmXmXmXmXmXmXmXmXmXmXmXmXmXmXmXmXmXmXmXmXmXmXmXmXmXmXmXmXmXmXmXmXmXmXmXmXmXmXmXmXmXmXmXmXmXmXmXmXmXmX",
"mXmXmXmXmXmXmXmXmXmXmXmXmXmXmXmXmXmXmXmXmXmXmXmXmXmXmXmXmXmXmXmXmXmXmXmXmXmXmXmXmXmXmXmXmXmXmXmXmXmXmXmXmXmXmXmXmXmXmXmXmXmXmXmXmXmXmXmXmXmX",
"mXmXmXmXmXmXmXmXmXmXmXmXmXmXmXmXmXmXmXmXmXmXmXmXmXmXmXmXmXmXmXmXmXmXmXmXmXmXmXmXmXmXmXmXmXmXmXmXmXmXmXmXmXmXmXmXmXmXmXmXmXmXmXmXmXmXmXmXmXmX",
"mXmXmXmXmXmXmXmXmXmXmXmXmXmXmXmXmXmXmXmXmXmXmXmXmXmXmXmXmXmXmXmXmXmXmXmXmXmXmXmXmXmXmXmXmXmXmXmXmXmXmXmXmXmXmXmXmXmXmXmXmXmXmXmXmXmXmXmXmXmX",
"mXmXmXmXmXmXmXmXmXmXmXmXmXmXmXmXmXmXmXmXmXmXmXmXmXmXmXmXmXmXmXmXmXmXmXmXmXmXmXmXmXmXmXmXmXmXmXmXmXmXmXmXmXmXmXmXmXmXmXmXmXmXmXmXmXmXmXmXmXmX",
"mXmXmXmXmXmXmXmXmXmXmXmXmXmXmXmXmXmXmXmXmXmXmXmXmXmXmXmXmXmXmXmXmXmXmXmXmXmXmXmXmXmXmXmXmXmXmXmXmXmXmXmXmXmXmXmXmXmXmXmXmXmXmXmXmXmXmXmXmXmX",
"mXmXmXmXmXmXmXmXmXmXmXmXmXmXmXmXmXmXmXmXmXmXmXmXmXmXmXmXmXmXmXmXmXmXmXmXmXmXmXmXmXmXmXmXmXmXmXmXmXmXmXmXmXmXmXmXmXmXmXmXmXmXmXmXmXmXmXmXmXmX",
"mXmXmXmXmXmXmXmXmXmXmXmXmXmXmXmXmXmXmXmXmXmXmXmXmXmXmXmXmXmXmXmXmXmXmXmXmXmXmXmXmXmXmXmXmXmXmXmXmXmXmXmXmXmXmXmXmXmXmXmXmXmXmXmXmXmXmXmXmXmX",
"mXmXmXmXmXmXmXmXmXmXmXmXmXmXmXmXmXmXmXmXmXmXmXmXmXmXmXmXmXmXmXmXmXmXmXmXmXmXmXmXmXmXmXmXmXmXmXmXmXmXmXmXmXmXmXmXmXmXmXmXmXmXmXmXmXmXmXmXmXmX",
"mXmXmXmXmXmXmXmXmXmXmXmXmXmXmXmXmXmXmXmXmXmXmXmXmXmXmXmXmXmXmXmXmXmXmXmXmXmXmXmXmXmXmXmXmXmXmXmXmXmXmXmXmXmXmXmXmXmXmXmXmXmXmXmXmXmXmXmXmXmX",
"mXmXmXmXmXmXmXmXmXmXmXmXmXmXmXmXmXmXmXmXmXmXmXmXmXmXmXmXmXmXmXmXmXmXmXmXmXmXmXmXmXmXmXmXmXmXmXmXmXmXmXmXmXmXmXmXmXmXmXmXmXmXmXmXmXmXmXmXmXmX"
};
