/* XPM */
static char *_6d5ecfd5a9247b9ac2a8a14ce8b583aoT6OcV4rD9f2MXCQ[] = {
/* columns rows colors chars-per-pixel */
"70 70 133 2 ",
"   c black",
".  c #040302",
"X  c #070203",
"o  c #040402",
"O  c #050503",
"+  c #010205",
"@  c #010307",
"#  c #0A0304",
"$  c #080704",
"%  c #090904",
"&  c #0B0B05",
"*  c #0D0D06",
"=  c #01060C",
"-  c #02070E",
";  c #130708",
":  c #140709",
">  c #16080A",
",  c #17090B",
"<  c #190A0C",
"1  c #101008",
"2  c #131309",
"3  c #13140A",
"4  c #14140B",
"5  c #15150B",
"6  c #17160C",
"7  c #18170D",
"8  c #1B1B0F",
"9  c #020912",
"0  c #030B15",
"q  c #030C16",
"w  c #04101B",
"e  c #05111D",
"r  c #1C1C10",
"t  c #291417",
"y  c #2F171A",
"u  c #321A1D",
"i  c #361C1F",
"p  c #222214",
"a  c #232314",
"s  c #252516",
"d  c #252417",
"f  c #2A291A",
"g  c #2B2C1B",
"h  c #2C2D1B",
"j  c #2E2E1D",
"k  c #31301F",
"l  c #061320",
"z  c #061421",
"x  c #081826",
"c  c #091A2A",
"v  c #361C20",
"b  c #0D2234",
"n  c #0F2438",
"m  c #10283C",
"M  c #11283D",
"N  c #3C2023",
"B  c #323220",
"V  c #333221",
"C  c #333321",
"Z  c #363523",
"A  c #363623",
"S  c #383724",
"D  c #3B3A26",
"F  c #3C3D26",
"G  c #3C3C28",
"H  c #3E3D28",
"J  c #4B292D",
"K  c #573036",
"L  c #5A3238",
"P  c #5E353B",
"I  c #63383E",
"U  c #40412A",
"Y  c #42422C",
"T  c #43422C",
"R  c #4A4A31",
"E  c #4B4D31",
"W  c #4E4F33",
"Q  c #5B5A3D",
"!  c #5B5B3E",
"~  c #153048",
"^  c #1A3955",
"/  c #1C3C58",
"(  c #1F415F",
")  c #204464",
"_  c #214464",
"`  c #23496A",
"'  c #285175",
"]  c #285277",
"[  c #2B557C",
"{  c #2C577F",
"}  c #734148",
"|  c #7A464D",
" . c #636243",
".. c #646344",
"X. c #6A6C47",
"o. c #6E6D4B",
"O. c #706F4D",
"+. c #73724F",
"@. c #787752",
"#. c #7A7954",
"$. c #7D7C56",
"%. c #8A5058",
"&. c #9B5B63",
"*. c #9F5D65",
"=. c #A8626C",
"-. c #A8636C",
";. c #AF6771",
":. c #B36A73",
">. c #B56B75",
",. c #818358",
"<. c #8A895F",
"1. c #959766",
"2. c #979668",
"3. c #999C69",
"4. c #9B9A6C",
"5. c #A2A071",
"6. c #A5A473",
"7. c #A6A473",
"8. c #AFAE7A",
"9. c #B4B37E",
"0. c #31608B",
"q. c #346693",
"w. c #356896",
"e. c #376C9B",
"r. c #386D9D",
"t. c #3B73A5",
"y. c #3D76A9",
"u. c #3F79AE",
"i. c #407BB0",
"p. c #4381B8",
"a. c #4381B9",
"s. c #B9B881",
"d. c #C6C48B",
/* pixels */
"                                                                                                                                            ",
"                                                                                                                                            ",
"                                                                                                                                            ",
"                                                                                                                                            ",
"                                                                                                                              % B B r       ",
"                                                6 B 8                                                                         j 2.7.! 1     ",
"                                              6 ! 4.! 6                                                                       8 Q ..B %     ",
"                                              6 ! 4.! 4                                                                         4 8 %       ",
"                                                7 B r                                                                                       ",
"                                                                                                                                            ",
"                                                                                                                                            ",
"                                                                                                                                            ",
"                                                                                                                                            ",
"                      o p H p .                                                                                                             ",
"                      r O.s.o.8                                                                                                             ",
"                      % D +.Y *                                                                                                             ",
"                        % r *                                                                                                               ",
"                                                                                                                                            ",
"                                                                                    o d f 2                                                 ",
"                                                                                    d $.<.R 1                                               ",
"                                                                                    d $.<.R *                                               ",
"                                                                                    O d f 4                                                 ",
"                                            + w =     e -                                                                                   ",
"                                            e _ ~ z b ) M =                                                                                 ",
"                                            z ' w.` 0.0.~ =                                                                                 ",
"                                            0 / t.y.i.' c @                                                                                 ",
"                                          + m q.a.a.a.t._ e                                                         % k A 8                 ",
"                                          x 0.u.i.a.a.i.r.^ 9                                                       j 2.7.Q 4               ",
"                                          q ^ _ ` t.{ _ / c @                                                       8 ! ..A .               ",
"                                            0 q n e.( z q +                                                           4 7 $                 ",
"                                                x [ ~ 9                                                                                     ",
"                                                - M e                                                                                       ",
"                                                  =                                                                                         ",
"                                                                                                                                            ",
"                                                                                                                                            ",
"                                                                                                                                            ",
"                                                                                                                                            ",
"                                                                                                                                            ",
"                                                                    % B A r o                                                               ",
"                                                                    B 5.8. .r                                                               ",
"                                                                    B 5.8...7                                                               ",
"          * Z H r                                                   % V S r .                                                               ",
"          A 7.9...r                                                                                                                         ",
"          % Z H r                                                                                                                           ",
"                                                                                                                                            ",
"                                                                                                                                            ",
"                                                                                                                                            ",
"                                                                                                                                            ",
"                                                                                                                                            ",
"                                                                    # : : .                                                                 ",
"                                                                  : N I L v , .         o p H p .                                           ",
"                                      O d f 2                   . y } ;.=.| K :         8 +.s.o.r                                           ",
"                                      d $.<.E *                   < I >.:.=.%.t         * F +.Y *                                           ",
"                                      d $.<.R 1                   : K *.&.} v .           % 8 *                                             ",
"                                      O d f 1                     . , u J J ;                                                               ",
"                                                                        . ;                                         o *                     ",
"                                                                                                                  % j U d *                 ",
"                                                                                                                  2 E ,.X.F 4               ",
"                                                                                                                  o U 1.3.X.h o             ",
"                                                                                                                  2 E o.E a &               ",
"                                                                                                                    4 r *                   ",
"                                                                                                                                            ",
"                                                                                                                                            ",
"                                                                                                                                            ",
"                                                                                                                                            ",
"                                                                                                                                            ",
"                                                                                                                                            ",
"                                                                                  2 Y d o                                                   ",
"                                                                                  Y d.#.r                                                   ",
"                                                                                  d @.R 1                                                   "
};
