/* XPM */
static char *ZW5kMQ__[] = {
/* columns rows colors chars-per-pixel */
"70 70 6 1 ",
"  c #008503",
". c #00A304",
"X c #00C004",
"o c #00DF05",
"O c #00FF06",
"+ c None",
/* pixels */
"++++++++++++++++++++++++++++++++++++++++++++++++++++++++++++++++++++++",
"++++++++++++++++++++++++++++++++++++++++++++++++++++++++++++++++++++++",
"+++++++++++++++++++++++++++++            +++++++++++++++++++++++++++++",
"+++++++++++++++++++++++++     ++++++++++     +++++++++++++++++++++++++",
"++++++++++++++++++++++    ++++++++++++++++++    ++++++++++++++++++++++",
"++++++++++++++++++++   ++++++++++++++++++++++++   ++++++++++++++++++++",
"++++++++++++++++++   ++++++++++++++++++++++++++++   ++++++++++++++++++",
"+++++++++++++++++  ++++++++++++++++++++++++++++++++  +++++++++++++++++",
"+++++++++++++++   ++++++++++++..........++++++++++++   +++++++++++++++",
"++++++++++++++  ++++++++++.....++++++++.....++++++++++  ++++++++++++++",
"+++++++++++++  +++++++++...++++++++++++++++...+++++++++  +++++++++++++",
"++++++++++++  ++++++++...++++++++++++++++++++...++++++++  ++++++++++++",
"+++++++++++  +++++++...++++++++++++++++++++++++...+++++++  +++++++++++",
"++++++++++  +++++++..++++++++++++++++++++++++++++..+++++++  ++++++++++",
"+++++++++  ++++++...++++++++++++++++++++++++++++++...++++++  +++++++++",
"++++++++  ++++++..+++++++++++++XXXXXXXX+++++++++++++..++++++  ++++++++",
"++++++++ ++++++..++++++++++XXXXX++++++XXXXX++++++++++..++++++ ++++++++",
"+++++++  +++++..+++++++++XXX++++++++++++++XXX+++++++++..+++++  +++++++",
"++++++  ++++++.+++++++++XX++++++++++++++++++XX+++++++++.++++++  ++++++",
"++++++ ++++++..+++++++XXX++++++++++++++++++++XXX+++++++..++++++ ++++++",
"+++++  +++++..+++++++XX++++++++++++++++++++++++XX+++++++..+++++  +++++",
"+++++ ++++++.+++++++XX++++++++++++++++++++++++++XX+++++++.++++++ +++++",
"++++  +++++..++++++XX++++++++++oooooooo++++++++++XX++++++..+++++  ++++",
"++++ ++++++.+++++++X+++++++++ooo++++++ooo+++++++++X+++++++.++++++ ++++",
"++++ +++++..++++++XX+++++++ooo++++++++++ooo+++++++XX++++++..+++++ ++++",
"+++  +++++.++++++XX+++++++oo++++++++++++++oo+++++++XX++++++.+++++  +++",
"+++ +++++..++++++X+++++++oo++++++++++++++++oo+++++++X++++++..+++++ +++",
"+++ +++++.++++++XX++++++oo++++++++++++++++++oo++++++XX++++++.+++++ +++",
"+++ +++++.++++++X+++++++o++++++++++++++++++++o+++++++X++++++.+++++ +++",
"++  +++++.++++++X++++++oo++++++++OOOO++++++++oo++++++X++++++.+++++  ++",
"++ +++++..++++++X++++++o+++++++OOO++OOO+++++++o++++++X++++++..+++++ ++",
"++ +++++.++++++XX+++++oo++++++OO++++++OO++++++oo+++++XX++++++.+++++ ++",
"++ +++++.++++++X++++++o+++++++O++++++++O+++++++o++++++X++++++.+++++ ++",
"++ +++++.++++++X++++++o++++++OO++++++++OO++++++o++++++X++++++.+++++ ++",
"++ +++++.++++++X++++++o++++++O++++++++++O++++++o++++++X++++++.+++++ ++",
"++ +++++.++++++X++++++o++++++O++++++++++O++++++o++++++X++++++.+++++ ++",
"++ +++++.++++++X++++++o++++++OO++++++++OO++++++o++++++X++++++.+++++ ++",
"++ +++++.++++++X++++++o+++++++O++++++++O+++++++o++++++X++++++.+++++ ++",
"++ +++++.++++++XX+++++oo++++++OO++++++OO++++++oo+++++XX++++++.+++++ ++",
"++ +++++..++++++X++++++o+++++++OOO++OOO+++++++o++++++X++++++..+++++ ++",
"++  +++++.++++++X++++++oo++++++++OOOO++++++++oo++++++X++++++.+++++  ++",
"+++ +++++.++++++X+++++++o++++++++++++++++++++o+++++++X++++++.+++++ +++",
"+++ +++++.++++++XX++++++oo++++++++++++++++++oo++++++XX++++++.+++++ +++",
"+++ +++++..++++++X+++++++oo++++++++++++++++oo+++++++X++++++..+++++ +++",
"+++  +++++.++++++XX+++++++oo++++++++++++++oo+++++++XX++++++.+++++  +++",
"++++ +++++..++++++XX+++++++ooo++++++++++ooo+++++++XX++++++..+++++ ++++",
"++++ ++++++.+++++++X+++++++++ooo++++++ooo+++++++++X+++++++.++++++ ++++",
"++++  +++++..++++++XX++++++++++oooooooo++++++++++XX++++++..+++++  ++++",
"+++++ ++++++.+++++++XX++++++++++++++++++++++++++XX+++++++.++++++ +++++",
"+++++  +++++..+++++++XX++++++++++++++++++++++++XX+++++++..+++++  +++++",
"++++++ ++++++..+++++++XXX++++++++++++++++++++XXX+++++++..++++++ ++++++",
"++++++  ++++++.+++++++++XX++++++++++++++++++XX+++++++++.++++++  ++++++",
"+++++++  +++++..+++++++++XXX++++++++++++++XXX+++++++++..+++++  +++++++",
"++++++++ ++++++..++++++++++XXXXX++++++XXXXX++++++++++..++++++ ++++++++",
"++++++++  ++++++..+++++++++++++XXXXXXXX+++++++++++++..++++++  ++++++++",
"+++++++++  ++++++...++++++++++++++++++++++++++++++...++++++  +++++++++",
"++++++++++  +++++++..++++++++++++++++++++++++++++..+++++++  ++++++++++",
"+++++++++++  +++++++...++++++++++++++++++++++++...+++++++  +++++++++++",
"++++++++++++  ++++++++...++++++++++++++++++++...++++++++  ++++++++++++",
"+++++++++++++  +++++++++...++++++++++++++++...+++++++++  +++++++++++++",
"++++++++++++++  ++++++++++.....++++++++.....++++++++++  ++++++++++++++",
"+++++++++++++++   ++++++++++++..........++++++++++++   +++++++++++++++",
"+++++++++++++++++  ++++++++++++++++++++++++++++++++  +++++++++++++++++",
"++++++++++++++++++   ++++++++++++++++++++++++++++   ++++++++++++++++++",
"++++++++++++++++++++   ++++++++++++++++++++++++   ++++++++++++++++++++",
"++++++++++++++++++++++    ++++++++++++++++++    ++++++++++++++++++++++",
"+++++++++++++++++++++++++     ++++++++++     +++++++++++++++++++++++++",
"+++++++++++++++++++++++++++++            +++++++++++++++++++++++++++++",
"++++++++++++++++++++++++++++++++++++++++++++++++++++++++++++++++++++++",
"++++++++++++++++++++++++++++++++++++++++++++++++++++++++++++++++++++++"
};
