/* XPM */
static char *ZW5kMw__[] = {
/* columns rows colors chars-per-pixel */
"70 70 6 1 ",
"  c #008503",
". c #00A304",
"X c #00C004",
"o c #00EA05",
"O c #00FF06",
"+ c None",
/* pixels */
"++++++++++++++++++++++++++++++++++++++++++++++++++++++++++++++++++++++",
"++++++++++++++++++++++++++++++++++++++++++++++++++++++++++++++++++++++",
"++++++++++++++++++++++++++++++++++++++++++++++++++++++++++++++++++++++",
"++++++++++++++++++++++++++++++++++++++++++++++++++++++++++++++++++++++",
"++++++++++++++++++++++++++++++++++++++++++++++++++++++++++++++++++++++",
"++++++++++++++++++++++++++++++++++++++++++++++++++++++++++++++++++++++",
"++++++++++++++++++++++++++++++          ++++++++++++++++++++++++++++++",
"++++++++++++++++++++++++++     ++++++++     ++++++++++++++++++++++++++",
"+++++++++++++++++++++++    ++++++++++++++++    +++++++++++++++++++++++",
"+++++++++++++++++++++   ++++++++++++++++++++++   +++++++++++++++++++++",
"+++++++++++++++++++   ++++++++++++++++++++++++++   +++++++++++++++++++",
"++++++++++++++++++  ++++++++++++++++++++++++++++++  ++++++++++++++++++",
"+++++++++++++++++  +++++++++++..........+++++++++++  +++++++++++++++++",
"++++++++++++++++  +++++++++....++++++++....+++++++++  ++++++++++++++++",
"++++++++++++++   ++++++++...++++++++++++++...++++++++   ++++++++++++++",
"++++++++++++++ ++++++++...++++++++++++++++++...++++++++ ++++++++++++++",
"+++++++++++++  ++++++...++++++++++++++++++++++...++++++  +++++++++++++",
"++++++++++++  ++++++..++++++++++++++++++++++++++..++++++  ++++++++++++",
"+++++++++++  ++++++..++++++++++++++++++++++++++++..++++++  +++++++++++",
"++++++++++  ++++++..+++++++++++XXXXXXXX+++++++++++..++++++  ++++++++++",
"++++++++++ ++++++..+++++++++XXXX++++++XXXX+++++++++..++++++ ++++++++++",
"+++++++++  +++++..++++++++XXX++++++++++++XXX++++++++..+++++  +++++++++",
"+++++++++ ++++++.++++++++XX++++++++++++++++XX++++++++.++++++ +++++++++",
"++++++++  +++++..+++++++XX++++++++++++++++++XX+++++++..+++++  ++++++++",
"++++++++ ++++++.+++++++XX++++++++++++++++++++XX+++++++.++++++ ++++++++",
"++++++++ +++++..++++++XX++++++++++++++++++++++XX++++++..+++++ ++++++++",
"+++++++  +++++.++++++XX+++++++++oooooo+++++++++XX++++++.+++++  +++++++",
"+++++++ +++++..++++++X++++++++ooo++++ooo++++++++X++++++..+++++ +++++++",
"+++++++ +++++.++++++XX+++++++oo++++++++oo+++++++XX++++++.+++++ +++++++",
"+++++++ +++++.++++++X+++++++oo++++++++++oo+++++++X++++++.+++++ +++++++",
"++++++  ++++..++++++X++++++oo++++++++++++oo++++++X++++++..++++  ++++++",
"++++++ +++++.++++++XX++++++o++++++++++++++o++++++XX++++++.+++++ ++++++",
"++++++ +++++.++++++X++++++oo++++++++++++++oo++++++X++++++.+++++ ++++++",
"++++++ +++++.++++++X++++++o+++++++OO+++++++o++++++X++++++.+++++ ++++++",
"++++++ +++++.++++++X++++++o++++++OOOO++++++o++++++X++++++.+++++ ++++++",
"++++++ +++++.++++++X++++++o++++++OOOO++++++o++++++X++++++.+++++ ++++++",
"++++++ +++++.++++++X++++++o+++++++OO+++++++o++++++X++++++.+++++ ++++++",
"++++++ +++++.++++++X++++++oo++++++++++++++oo++++++X++++++.+++++ ++++++",
"++++++ +++++.++++++XX++++++o++++++++++++++o++++++XX++++++.+++++ ++++++",
"++++++  ++++..++++++X++++++oo++++++++++++oo++++++X++++++..++++  ++++++",
"+++++++ +++++.++++++X+++++++oo++++++++++oo+++++++X++++++.+++++ +++++++",
"+++++++ +++++.++++++XX+++++++oo++++++++oo+++++++XX++++++.+++++ +++++++",
"+++++++ +++++..++++++X++++++++ooo++++ooo++++++++X++++++..+++++ +++++++",
"+++++++  +++++.++++++XX+++++++++oooooo+++++++++XX++++++.+++++  +++++++",
"++++++++ +++++..++++++XX++++++++++++++++++++++XX++++++..+++++ ++++++++",
"++++++++ ++++++.+++++++XX++++++++++++++++++++XX+++++++.++++++ ++++++++",
"++++++++  +++++..+++++++XX++++++++++++++++++XX+++++++..+++++  ++++++++",
"+++++++++ ++++++.++++++++XX++++++++++++++++XX++++++++.++++++ +++++++++",
"+++++++++  +++++..++++++++XXX++++++++++++XXX++++++++..+++++  +++++++++",
"++++++++++ ++++++..+++++++++XXXX++++++XXXX+++++++++..++++++ ++++++++++",
"++++++++++  ++++++..+++++++++++XXXXXXXX+++++++++++..++++++  ++++++++++",
"+++++++++++  ++++++..++++++++++++++++++++++++++++..++++++  +++++++++++",
"++++++++++++  ++++++..++++++++++++++++++++++++++..++++++  ++++++++++++",
"+++++++++++++  ++++++...++++++++++++++++++++++...++++++  +++++++++++++",
"++++++++++++++ ++++++++...++++++++++++++++++...++++++++ ++++++++++++++",
"++++++++++++++   ++++++++...++++++++++++++...++++++++   ++++++++++++++",
"++++++++++++++++  +++++++++....++++++++....+++++++++  ++++++++++++++++",
"+++++++++++++++++  +++++++++++..........+++++++++++  +++++++++++++++++",
"++++++++++++++++++  ++++++++++++++++++++++++++++++  ++++++++++++++++++",
"+++++++++++++++++++   ++++++++++++++++++++++++++   +++++++++++++++++++",
"+++++++++++++++++++++   ++++++++++++++++++++++   +++++++++++++++++++++",
"+++++++++++++++++++++++    ++++++++++++++++    +++++++++++++++++++++++",
"++++++++++++++++++++++++++     ++++++++     ++++++++++++++++++++++++++",
"++++++++++++++++++++++++++++++          ++++++++++++++++++++++++++++++",
"++++++++++++++++++++++++++++++++++++++++++++++++++++++++++++++++++++++",
"++++++++++++++++++++++++++++++++++++++++++++++++++++++++++++++++++++++",
"++++++++++++++++++++++++++++++++++++++++++++++++++++++++++++++++++++++",
"++++++++++++++++++++++++++++++++++++++++++++++++++++++++++++++++++++++",
"++++++++++++++++++++++++++++++++++++++++++++++++++++++++++++++++++++++",
"++++++++++++++++++++++++++++++++++++++++++++++++++++++++++++++++++++++"
};
