/* XPM */
static char *ZmxhbWVzMg__[] = {
/* columns rows colors chars-per-pixel */
"70 22 112 2 ",
"   c #AC3A00",
".  c #B73404",
"X  c #B23B07",
"o  c #C71E00",
"O  c #C82B00",
"+  c #CD3302",
"@  c #CB3906",
"#  c #D23500",
"$  c #D43D03",
"%  c #D23C0E",
"&  c #9E4E0E",
"*  c #9A520F",
"=  c #965611",
"-  c #AB4309",
";  c #A84A11",
":  c #A7521D",
">  c #A75620",
",  c #D64100",
"<  c #DD4500",
"1  c #DB4D04",
"2  c #DD540E",
"3  c #D34519",
"4  c #E44C01",
"5  c #E45302",
"6  c #EA5501",
"7  c #E65C00",
"8  c #ED5C01",
"9  c #F05E02",
"0  c #EE6301",
"q  c #EE6A04",
"w  c #ED610F",
"e  c #F16401",
"r  c #F36C01",
"t  c #F26408",
"y  c #F26C0A",
"u  c #EE7200",
"i  c #F27301",
"p  c #F47B01",
"a  c #F97D02",
"s  c #F6770A",
"d  c #F47F0D",
"f  c #F87F0A",
"g  c #EC6313",
"h  c #EF6812",
"j  c #EE641A",
"k  c #F36B1A",
"l  c #F37614",
"z  c #F67B17",
"x  c #F2751B",
"c  c #F47A1C",
"v  c #F87C1C",
"b  c #C24130",
"n  c #EF6820",
"m  c #EB6B2C",
"M  c #F36C23",
"N  c #E8722D",
"B  c #F37B20",
"V  c #D35F48",
"C  c #CF6154",
"Z  c #E36541",
"A  c #EA7243",
"S  c #F17442",
"D  c #E37C5F",
"F  c #CF726B",
"G  c #F78101",
"H  c #FA8501",
"J  c #F9880F",
"K  c #F88311",
"L  c #F58D12",
"P  c #FBA312",
"I  c #F98822",
"U  c #F38629",
"Y  c #FB9321",
"T  c #F38634",
"R  c #F68638",
"E  c #FA9C36",
"W  c #FBA324",
"Q  c #F48441",
"!  c #F78F42",
"~  c #F5874D",
"^  c #F28355",
"/  c #F3905B",
"(  c #F79C5A",
")  c #DB867A",
"_  c #E38265",
"`  c #EF8B64",
"'  c #F6956E",
"]  c #ED8972",
"[  c #C28980",
"{  c #D88F86",
"}  c #E69781",
"|  c #F3A584",
" . c #E0ABA6",
".. c #EAAFA3",
"X. c #EDAEA3",
"o. c #F4B4A1",
"O. c #E1B6B2",
"+. c #E1B6B3",
"@. c #E6BBB5",
"#. c #E4C1BF",
"$. c #EEC4BD",
"%. c #EFDFDE",
"&. c #F0DAD6",
"*. c #F6DDD6",
"=. c #F0DCDB",
"-. c #F2E0DF",
";. c #F4E1DE",
":. c #FEEDDB",
">. c #EEEAE8",
",. c #F6EAE9",
"<. c None",
"1. c black",
/* pixels */
"<.<.<.<.<.<.<.<.<.<.<.<...A 0 e r e 8 j D @.<.<.%.b . X - ; : * * = = = = * * & : ;   [ >.<.<.+.V 5 7 5 7 r q N } -.<.<.<.<.<.<.<.<.<.<.<.<.",
"<.<.<.<.<.<.<.<.<.<.<.<.<.] j 8 5 0 y ` *.<.<.<.<.F O + + % @ # $ 4 4 $ $ # # # + + o +.<.<.<.<.$.S y h g a x | <.<.<.<.<.<.<.<.<.<.<.<.<.<.",
"<.<.<.<.<.<.<.<.<.<.<.<.<.<.e 9 8 8 i u <.<.<.<.<.#.@ $ , < < < 4 8 6 8 4 < < , $ # C =.<.<.<.<.<.0 v y e p 0 <.<.<.<.<.<.<.<.<.<.<.<.<.<.<.",
"<.<.<.<.<.<.<.<.<.<.<.<.<.<.9 e 0 q 0 1.<.<.<.<.<.<.{ 2 8 q 8 6 8 8 6 8 6 8 5 5 1 3  .<.<.<.<.<.<.<.0 8 0 s r <.<.<.<.<.<.<.<.<.<.<.<.<.<.<.",
"<.<.<.<.<.<.<.<.<.<.<.<.<.<.8 e r i 1.1.<.<.<.<.<.<.&.Z 0 a r r r 9 8 e r r 0 7 2 ) ,.<.<.<.<.<.<.<.e r r p <.<.<.<.<.<.<.<.<.<.<.<.<.<.<.<.",
"<.<.<.<.<.<.<.<.<.<.<.<.<.<.<.e G i 1.1.<.<.<.<.<.<.<.X.j q 0 p 0 6 6 e a i r q _ -.<.<.<.<.<.<.<.<.8 r a e <.<.<.<.<.<.<.<.<.<.<.<.<.<.<.<.",
"<.<.<.<.<.<.<.<.<.<.<.<.<.<.<.<.<.<.<.<.<.<.<.<.<.<.<.8 k r y r r e 8 0 G 0 a l o.<.<.<.<.<.<.<.<.<.<.r p <.<.<.<.<.<.<.<.<.<.<.<.<.<.<.<.<.",
"<.<.<.<.<.<.<.<.<.<.<.<.<.<.<.<.<.<.<.<.<.<.<.<.<.<.<.6 e a l j a i 8 i j 0 p 8 <.<.<.<.<.<.<.<.<.<.<.<.<.<.<.<.<.<.<.<.<.<.<.<.<.<.<.<.<.<.",
"<.<.<.<.<.<.<.<.<.<.<.<.<.<.<.<.<.<.<.<.<.<.<.<.<.<.<.<.e p 0 9 R m M ^ t r h 0 <.<.<.<.<.<.<.<.<.<.<.<.<.<.<.<.<.<.<.<.<.<.<.<.<.<.<.<.<.<.",
"<.<.<.<.<.<.<.<.<.<.<.<.<.<.<.<.<.<.<.<.<.<.<.<.<.<.<.<.<.k r r g p G e e p p <.<.<.<.<.<.<.<.<.<.<.<.<.<.<.<.<.<.<.<.<.<.<.<.<.<.<.<.<.<.<.",
"<.<.<.<.<.<.<.<.<.<.<.<.<.<.<.<.<.<.<.<.<.<.<.<.<.<.<.<.<.e a p 9 p J e r r i <.<.<.<.<.<.<.<.<.<.<.<.<.<.<.<.<.<.<.<.<.<.<.<.<.<.<.<.<.<.<.",
"<.<.<.<.<.<.<.<.<.<.<.<.<.<.<.<.<.<.<.<.<.<.<.<.<.<.<.<.<.t c x r e G e e a p <.<.<.<.<.<.<.<.<.<.<.<.<.<.<.<.<.<.<.<.<.<.<.<.<.<.<.<.<.<.<.",
"<.<.<.<.<.<.<.<.<.<.<.<.<.<.<.<.<.<.<.<.<.<.<.<.<.<.<.<.<.<.e K p y K e i p 0 <.<.<.<.<.<.<.<.<.<.<.<.<.<.<.<.<.<.<.<.<.<.<.<.<.<.<.<.<.<.<.",
"<.<.<.<.<.<.<.<.<.<.<.<.<.<.<.<.<.<.<.<.<.<.<.<.<.<.<.<.<.<.e U B r z r H p <.<.<.<.<.<.<.<.<.<.<.<.<.<.<.<.<.<.<.<.<.<.<.<.<.<.<.<.<.<.<.<.",
"<.<.<.<.<.<.<.<.<.<.<.<.<.<.<.<.<.<.<.<.<.<.<.<.<.<.<.<.<.<.<./ R e y r I T <.<.<.<.<.<.<.<.<.<.<.<.<.<.<.<.<.<.<.<.<.<.<.<.<.<.<.<.<.<.<.<.",
"<.<.<.<.<.<.<.<.<.<.<.<.<.<.<.<.<.<.<.<.<.<.<.<.<.<.<.<.<.<.<.p ~ 9 r x Y ( <.<.<.<.<.<.<.<.<.<.<.<.<.<.<.<.<.<.<.<.<.<.<.<.<.<.<.<.<.<.<.<.",
"<.<.<.<.<.<.<.<.<.<.<.<.<.<.<.<.<.<.<.<.<.<.<.<.<.<.<.<.<.<.<.L p 8 Q ' E <.<.<.<.<.<.<.<.<.<.<.<.<.<.<.<.<.<.<.<.<.<.<.<.<.<.<.<.<.<.<.<.<.",
"<.<.<.<.<.<.<.<.<.<.<.<.<.<.<.<.<.<.<.<.<.<.<.<.<.<.<.<.<.<.<.<.! K W P <.<.<.<.<.<.<.<.<.<.<.<.<.<.<.<.<.<.<.<.<.<.<.<.<.<.<.<.<.<.<.<.<.<.",
"<.<.<.<.<.<.<.<.<.<.<.<.<.<.<.<.<.<.<.<.<.<.<.<.<.<.<.<.<.<.<.<.<.:.:.:.<.<.<.<.<.<.<.<.<.<.<.<.<.<.<.<.<.<.<.<.<.<.<.<.<.<.<.<.<.<.<.<.<.<.",
"<.<.<.<.<.<.<.<.<.<.<.<.<.<.<.<.<.<.<.<.<.<.<.<.<.<.<.<.<.<.<.<.<.<.<.<.<.<.<.<.<.<.<.<.<.<.<.<.<.<.<.<.<.<.<.<.<.<.<.<.<.<.<.<.<.<.<.<.<.<.",
"<.<.<.<.<.<.<.<.<.<.<.<.<.<.<.<.<.<.<.<.<.<.<.<.<.<.<.<.<.<.<.<.<.<.<.<.<.<.<.<.<.<.<.<.<.<.<.<.<.<.<.<.<.<.<.<.<.<.<.<.<.<.<.<.<.<.<.<.<.<.",
"<.<.<.<.<.<.<.<.<.<.<.<.<.<.<.<.<.<.<.<.<.<.<.<.<.<.<.<.<.<.<.<.<.<.<.<.<.<.<.<.<.<.<.<.<.<.<.<.<.<.<.<.<.<.<.<.<.<.<.<.<.<.<.<.<.<.<.<.<.<."
};
