/* XPM */
static char *ZmxhbWVzMA__[] = {
/* columns rows colors chars-per-pixel */
"70 22 200 2 ",
"   c #AC3A00",
".  c #B73404",
"X  c #B23B07",
"o  c #C71E00",
"O  c #C82B00",
"+  c #CB3100",
"@  c #CD3201",
"#  c #CE3300",
"$  c #CF3600",
"%  c #CC3207",
"&  c #CB3906",
"*  c #D03300",
"=  c #D13500",
"-  c #D13601",
";  c #D23600",
":  c #D33600",
">  c #D43600",
",  c #D63A00",
"<  c #D53E01",
"1  c #D13E07",
"2  c #D23C0E",
"3  c #9E4E0E",
"4  c #98530F",
"5  c #9C510E",
"6  c #955511",
"7  c #975410",
"8  c #965611",
"9  c #945712",
"0  c #965712",
"q  c #975712",
"w  c #AB4309",
"e  c #A84811",
"r  c #A84B11",
"t  c #A7521D",
"y  c #A75620",
"u  c #D64100",
"i  c #DB4100",
"p  c #D94200",
"a  c #DA4400",
"s  c #DD4501",
"d  c #DF4600",
"f  c #DF4701",
"g  c #DB4A00",
"h  c #DB4F07",
"j  c #DD540E",
"k  c #D34519",
"l  c #E24801",
"z  c #E54E00",
"x  c #E54F01",
"c  c #E15101",
"v  c #E75301",
"b  c #E65500",
"n  c #E15306",
"m  c #EA5101",
"M  c #EA5301",
"N  c #EA5601",
"B  c #EA5701",
"V  c #EC5701",
"C  c #E45800",
"Z  c #E75800",
"A  c #E65F00",
"S  c #E65E01",
"D  c #EB5801",
"F  c #E95B01",
"G  c #EB5A01",
"H  c #EE5900",
"J  c #EC5A00",
"K  c #EF5A01",
"L  c #EC5C00",
"P  c #ED5C00",
"I  c #EF5D00",
"U  c #ED5E01",
"Y  c #EE5E01",
"T  c #EF5E01",
"R  c #ED5C02",
"E  c #ED5F02",
"W  c #F05E02",
"Q  c #ED6001",
"!  c #EE6000",
"~  c #EE6200",
"^  c #EE6300",
"/  c #EF6300",
"(  c #EF6301",
")  c #EF6302",
"_  c #EB6600",
"`  c #ED6500",
"'  c #EE6401",
"]  c #EF6401",
"[  c #EF6406",
"{  c #EE6A01",
"}  c #EE6B01",
"|  c #EE6807",
" . c #EE6A07",
".. c #F06000",
"X. c #F06200",
"o. c #F06300",
"O. c #F16300",
"+. c #F06201",
"@. c #F16301",
"#. c #F36300",
"$. c #F06002",
"%. c #F06400",
"&. c #F16400",
"*. c #F06501",
"=. c #F26400",
"-. c #F36400",
";. c #F36500",
":. c #F26401",
">. c #F06700",
",. c #F06800",
"<. c #F16800",
"1. c #F06901",
"2. c #F16901",
"3. c #F06A00",
"4. c #F36A01",
"5. c #F36B01",
"6. c #F56B00",
"7. c #F16C01",
"8. c #F36C00",
"9. c #F36E00",
"0. c #F26D02",
"q. c #F36E03",
"w. c #F56D00",
"e. c #F56F00",
"r. c #F56D02",
"t. c #F26408",
"y. c #F16A0B",
"u. c #F16C0A",
"i. c #F46D0A",
"p. c #F07000",
"a. c #F17101",
"s. c #F27101",
"d. c #F37301",
"f. c #F27701",
"g. c #F57500",
"h. c #F37B01",
"j. c #F37D00",
"k. c #F37E00",
"l. c #F57805",
"z. c #F57A04",
"x. c #F87C00",
"c. c #F97D00",
"v. c #F97D01",
"b. c #F87C07",
"n. c #F97E06",
"m. c #F6770A",
"M. c #ED6011",
"N. c #ED6312",
"B. c #EB6616",
"V. c #EF6813",
"C. c #EF6118",
"Z. c #EC661B",
"A. c #EF641C",
"S. c #F36819",
"D. c #F37713",
"F. c #F27515",
"G. c #F2751C",
"H. c #F87C1C",
"J. c #C24130",
"K. c #EF6820",
"L. c #EB6B2C",
"P. c #F36C23",
"I. c #E8722D",
"U. c #D35F48",
"Y. c #CF6154",
"T. c #E36541",
"R. c #EA7243",
"E. c #F17442",
"W. c #E37C5F",
"Q. c #CF726B",
"!. c #F78101",
"~. c #FA8400",
"^. c #F9880F",
"/. c #F48736",
"(. c #F28355",
"). c #DB867A",
"_. c #E38265",
"`. c #EF8B64",
"'. c #ED8972",
"]. c #C28980",
"[. c #D88F86",
"{. c #E69781",
"}. c #F3A584",
"|. c #E0ABA6",
" X c #EAAFA3",
".X c #EDAEA3",
"XX c #E1B6B2",
"oX c #E1B6B3",
"OX c #E6BBB5",
"+X c #E4C1BF",
"@X c #EEC4BD",
"#X c #EFDFDE",
"$X c #F0DAD6",
"%X c #F6DDD6",
"&X c #F0DCDB",
"*X c #F2E0DF",
"=X c #F4E1DE",
"-X c #EEEAE8",
";X c #F6EAE9",
":X c None",
/* pixels */
":X:X:X:X:X:X:X:X:X:X:X:X XR.[ %.5.#.R B.W.OX:X:X#XJ.. X w r y 5 4 8 q 8 8 8 4 3 t r   ].-X:X:XoXU.n Z Z Q } } I.{.*X:X:X:X:X:X:X:X:X:X:X:X:X",
":X:X:X:X:X:X:X:X:X:X:X:X:X'.C.R M ~ y.`.%X:X:X:X:XQ.O + $ 2 - - , l x i > - - * @ % o oX:X:X:X:X@XE.u.V.M.n.G.}.:X:X:X:X:X:X:X:X:X:X:X:X:X:X",
":X:X:X:X:X:X:X:X:X:X:X:X:X:X#.#.J ~ f.:X:X:X:X:X:X+X& 1 u a f f x J N J l l i p < $ Y.&X:X:X:X:X:X~ H.| %.h.#.:X:X:X:X:X:X:X:X:X:X:X:X:X:X:X",
":X:X:X:X:X:X:X:X:X:X:X:X:X:X:X~ %.1.:X:X:X:X:X:X:X:X[.j R ` F N R F M W V F b c g k |.:X:X:X:X:X:X:X1.R ~ m.0.:X:X:X:X:X:X:X:X:X:X:X:X:X:X:X",
":X:X:X:X:X:X:X:X:X:X:X:X:X:X:X:X:X:X:X:X:X:X:X:X:X:X$XT.~ v.p.1.5.W J %.r.1.` S j ).;X:X:X:X:X:X:X:X%.5.5.:X:X:X:X:X:X:X:X:X:X:X:X:X:X:X:X:X",
":X:X:X:X:X:X:X:X:X:X:X:X:X:X:X:X:X:X:X:X:X:X:X:X:X:X:X.XA.} ` d.#.J m W v.s.r.| _.*X:X:X:X:X:X:X:X:X:X:X:X:X:X:X:X:X:X:X:X:X:X:X:X:X:X:X:X:X",
":X:X:X:X:X:X:X:X:X:X:X:X:X:X:X:X:X:X:X:X:X:X:X:X:X:X:X:XS.r.u.0.5.%.W #.k.~ v.F.:X:X:X:X:X:X:X:X:X:X:X:X:X:X:X:X:X:X:X:X:X:X:X:X:X:X:X:X:X:X",
":X:X:X:X:X:X:X:X:X:X:X:X:X:X:X:X:X:X:X:X:X:X:X:X:X:X:X:X:X:XD.K.n.s.F f.Z.#.k.:X:X:X:X:X:X:X:X:X:X:X:X:X:X:X:X:X:X:X:X:X:X:X:X:X:X:X:X:X:X:X",
":X:X:X:X:X:X:X:X:X:X:X:X:X:X:X:X:X:X:X:X:X:X:X:X:X:X:X:X:X:X:X#./.L.P.(.t.r.:X:X:X:X:X:X:X:X:X:X:X:X:X:X:X:X:X:X:X:X:X:X:X:X:X:X:X:X:X:X:X:X",
":X:X:X:X:X:X:X:X:X:X:X:X:X:X:X:X:X:X:X:X:X:X:X:X:X:X:X:X:X:X:X0.M.z.~.%.#.:X:X:X:X:X:X:X:X:X:X:X:X:X:X:X:X:X:X:X:X:X:X:X:X:X:X:X:X:X:X:X:X:X",
":X:X:X:X:X:X:X:X:X:X:X:X:X:X:X:X:X:X:X:X:X:X:X:X:X:X:X:X:X:X:X:XW l.^.%.:X:X:X:X:X:X:X:X:X:X:X:X:X:X:X:X:X:X:X:X:X:X:X:X:X:X:X:X:X:X:X:X:X:X",
":X:X:X:X:X:X:X:X:X:X:X:X:X:X:X:X:X:X:X:X:X:X:X:X:X:X:X:X:X:X:X:Xq.` !.:X:X:X:X:X:X:X:X:X:X:X:X:X:X:X:X:X:X:X:X:X:X:X:X:X:X:X:X:X:X:X:X:X:X:X",
":X:X:X:X:X:X:X:X:X:X:X:X:X:X:X:X:X:X:X:X:X:X:X:X:X:X:X:X:X:X:X:X:X:X:X:X:X:X:X:X:X:X:X:X:X:X:X:X:X:X:X:X:X:X:X:X:X:X:X:X:X:X:X:X:X:X:X:X:X:X",
":X:X:X:X:X:X:X:X:X:X:X:X:X:X:X:X:X:X:X:X:X:X:X:X:X:X:X:X:X:X:X:X:X:X:X:X:X:X:X:X:X:X:X:X:X:X:X:X:X:X:X:X:X:X:X:X:X:X:X:X:X:X:X:X:X:X:X:X:X:X",
":X:X:X:X:X:X:X:X:X:X:X:X:X:X:X:X:X:X:X:X:X:X:X:X:X:X:X:X:X:X:X:X:X:X:X:X:X:X:X:X:X:X:X:X:X:X:X:X:X:X:X:X:X:X:X:X:X:X:X:X:X:X:X:X:X:X:X:X:X:X",
":X:X:X:X:X:X:X:X:X:X:X:X:X:X:X:X:X:X:X:X:X:X:X:X:X:X:X:X:X:X:X:X:X:X:X:X:X:X:X:X:X:X:X:X:X:X:X:X:X:X:X:X:X:X:X:X:X:X:X:X:X:X:X:X:X:X:X:X:X:X",
":X:X:X:X:X:X:X:X:X:X:X:X:X:X:X:X:X:X:X:X:X:X:X:X:X:X:X:X:X:X:X:X:X:X:X:X:X:X:X:X:X:X:X:X:X:X:X:X:X:X:X:X:X:X:X:X:X:X:X:X:X:X:X:X:X:X:X:X:X:X",
":X:X:X:X:X:X:X:X:X:X:X:X:X:X:X:X:X:X:X:X:X:X:X:X:X:X:X:X:X:X:X:X:X:X:X:X:X:X:X:X:X:X:X:X:X:X:X:X:X:X:X:X:X:X:X:X:X:X:X:X:X:X:X:X:X:X:X:X:X:X",
":X:X:X:X:X:X:X:X:X:X:X:X:X:X:X:X:X:X:X:X:X:X:X:X:X:X:X:X:X:X:X:X:X:X:X:X:X:X:X:X:X:X:X:X:X:X:X:X:X:X:X:X:X:X:X:X:X:X:X:X:X:X:X:X:X:X:X:X:X:X",
":X:X:X:X:X:X:X:X:X:X:X:X:X:X:X:X:X:X:X:X:X:X:X:X:X:X:X:X:X:X:X:X:X:X:X:X:X:X:X:X:X:X:X:X:X:X:X:X:X:X:X:X:X:X:X:X:X:X:X:X:X:X:X:X:X:X:X:X:X:X",
":X:X:X:X:X:X:X:X:X:X:X:X:X:X:X:X:X:X:X:X:X:X:X:X:X:X:X:X:X:X:X:X:X:X:X:X:X:X:X:X:X:X:X:X:X:X:X:X:X:X:X:X:X:X:X:X:X:X:X:X:X:X:X:X:X:X:X:X:X:X",
":X:X:X:X:X:X:X:X:X:X:X:X:X:X:X:X:X:X:X:X:X:X:X:X:X:X:X:X:X:X:X:X:X:X:X:X:X:X:X:X:X:X:X:X:X:X:X:X:X:X:X:X:X:X:X:X:X:X:X:X:X:X:X:X:X:X:X:X:X:X"
};
