/* XPM */
static char *aDJnMl8w[] = {
/* columns rows colors chars-per-pixel */
"70 70 248 2 ",
"   c #1A0C01",
".  c #1C1303",
"X  c #181509",
"o  c #1C1A12",
"O  c #1E1D1B",
"+  c #250A02",
"@  c #370B02",
"#  c #2B1204",
"$  c #221A0C",
"%  c #281A04",
"&  c #3B1604",
"*  c #3D1A04",
"=  c #341805",
"-  c #231D13",
";  c #291E11",
":  c #3B2508",
">  c #343201",
",  c #3D3601",
"<  c #23221C",
"1  c #2A241B",
"2  c #2B2519",
"3  c #362618",
"4  c #2D2A25",
"5  c #2B2825",
"6  c #332C23",
"7  c #342E2A",
"8  c #3A2D24",
"9  c #35322C",
"0  c #3B342D",
"q  c #3C352B",
"w  c #3C3631",
"e  c #3C3A33",
"r  c #3A3935",
"t  c #4C1604",
"y  c #431D04",
"u  c #4C1C05",
"i  c #451707",
"p  c #531504",
"a  c #541B05",
"s  c #5C1A04",
"d  c #591B07",
"f  c #47190D",
"g  c #641C04",
"h  c #6B1B03",
"j  c #681803",
"k  c #741B02",
"l  c #7A1D02",
"z  c #721702",
"x  c #4B2305",
"c  c #432B0C",
"v  c #492707",
"b  c #542304",
"n  c #5B2C06",
"m  c #5B240A",
"M  c #572707",
"N  c #493602",
"B  c #5C3403",
"V  c #593A06",
"C  c #492715",
"Z  c #582915",
"A  c #463212",
"S  c #4A371A",
"D  c #583516",
"F  c #6C2304",
"G  c #622C05",
"H  c #63240B",
"J  c #6C240B",
"K  c #632C0B",
"L  c #6A2908",
"P  c #732304",
"I  c #73240A",
"U  c #7A2606",
"Y  c #643B05",
"T  c #683609",
"R  c #733C05",
"E  c #723C0C",
"W  c #7A3807",
"Q  c #672D14",
"!  c #683A19",
"~  c #753516",
"^  c #722A11",
"/  c #482A23",
"(  c #483929",
")  c #423C33",
"_  c #473B36",
"`  c #543B28",
"'  c #683925",
"]  c #763A23",
"[  c #5E4415",
"{  c #694207",
"}  c #7C4305",
"|  c #784709",
" . c #764717",
".. c #714C14",
"X. c #58452A",
"o. c #44423B",
"O. c #4C4439",
"+. c #4B4437",
"@. c #544A3D",
"#. c #5A4C3C",
"$. c #564536",
"%. c #69472C",
"&. c #7E5726",
"*. c #664936",
"=. c #7A4A35",
"-. c #765437",
";. c #6C4F35",
":. c #4D4A44",
">. c #4A4845",
",. c #564E44",
"<. c #55534B",
"1. c #5D594D",
"2. c #595347",
"3. c #5C5955",
"4. c #655948",
"5. c #795645",
"6. c #625E59",
"7. c #78624B",
"8. c #69655B",
"9. c #786B58",
"0. c #7D715D",
"q. c #6D614E",
"w. c #6C6964",
"e. c #797467",
"r. c #7F7A74",
"t. c #822405",
"y. c #842B04",
"u. c #853607",
"i. c #903507",
"p. c #A43B04",
"a. c #854306",
"s. c #844B06",
"d. c #8B4B07",
"f. c #8C4A0B",
"g. c #89460A",
"h. c #944A0A",
"j. c #98480B",
"k. c #8A5608",
"l. c #985808",
"z. c #9A4E11",
"x. c #885618",
"c. c #9A5516",
"v. c #864A16",
"b. c #A94508",
"n. c #B84907",
"m. c #A6550C",
"M. c #A65A16",
"N. c #B05A13",
"B. c #B65809",
"V. c #996209",
"C. c #976418",
"Z. c #8D600D",
"A. c #A46A0B",
"S. c #A66809",
"D. c #B1670A",
"F. c #B3740B",
"G. c #B97609",
"H. c #A86817",
"J. c #B76616",
"K. c #B87615",
"L. c #AC7111",
"P. c #885926",
"I. c #895434",
"U. c #A85C2F",
"Y. c #956534",
"T. c #A66A28",
"R. c #B76929",
"E. c #A96839",
"W. c #B37430",
"Q. c #C14A05",
"!. c #CA5708",
"~. c #D75907",
"^. c #C95611",
"/. c #D85C11",
"(. c #D7650A",
"). c #C37D0C",
"_. c #C8750B",
"`. c #D9750C",
"'. c #C76B17",
"]. c #D86A14",
"[. c #C77919",
"{. c #D87617",
"}. c #C5680A",
"|. c #EB6B07",
" X c #E46A0C",
".X c #E46608",
"XX c #E7770C",
"oX c #F47C0A",
"OX c #F57A09",
"+X c #E36914",
"@X c #E97817",
"#X c #F47A12",
"$X c #C66824",
"%X c #D87828",
"&X c #C77330",
"*X c #E57E27",
"=X c #E15906",
"-X c #897157",
";X c #8D6952",
":X c #A37C4C",
">X c #857B6D",
",X c #877765",
"<X c #927D64",
"1X c #847266",
"2X c #B8811E",
"3X c #BE8826",
"4X c #C9820A",
"5X c #D48B0D",
"6X c #D98E0B",
"7X c #D5890B",
"8X c #DD910B",
"9X c #C98515",
"0X c #D68A16",
"qX c #DB9113",
"wX c #D69419",
"eX c #FB820D",
"rX c #F4840E",
"tX c #EB9B0C",
"yX c #E5950A",
"uX c #F19E0C",
"iX c #E98516",
"pX c #FB8312",
"aX c #FD8D13",
"sX c #FA8C1C",
"dX c #F38219",
"fX c #EC9C13",
"gX c #E39817",
"hX c #FC9418",
"jX c #ED800E",
"kX c #F4A41B",
"lX c #F7A61A",
"zX c #EBA71E",
"xX c #C58727",
"cX c #CD9029",
"vX c #EB8921",
"bX c #E3A524",
"nX c #B38753",
"mX c #8D806C",
"MX c #8B8477",
"NX c #928578",
"BX c #94836A",
"VX c #A68969",
"CX c #CD964C",
"ZX c #958C82",
"AX c #958F85",
"SX c #A59D94",
"DX c #A8A29B",
"FX c None",
/* pixels */
"FXFXFXFXFXFXFXFXFXFXFXFXFXFXFXFXFXFXFXFXFXFXFXFXFXFXFXFXFXFXFXFXFXFXFXFXFXFXFXFXFXFXFXFXFXFXFXFXFXFXFXFXFXFXFXFXFXFXFXFXFXFXFXFXFXFXFXFXFXFX",
"FXFXFXFXFXFXFXFXFXFXFXFXFXFXFXFXFXFXFXFXFXFXFXFXFXFXFXFXFXFXFXFXFXFXFXFXFXFXFXFXFXFXFXFXFXFXFXFXFXFXFXFXFXFXFXFXFXFXFXFXFXFXFXFXFXFXFXFXFXFX",
"FXFXFXFXFXFXFXFXFXFXFXFXFXFXFXFXFXFXFXFXFXFXFXFXFXFXFXFXFXFXFXFXFXFXFXFXFXFXFXFXFXFXFXFXFXFXFXFXFXFXFXFXFXFXFXFXFXFXFXFXFXFXFXFXFXFXFXFXFXFX",
"FXFXFXFXFXFXFXFXFXFXFXFXFXFXFXFXFXFXFXFXFXFXFXFXFXFXFXFXFXFXFXFXFXFXFXFXFXFXFXFXFXFXFXFXFXFXFXFXFXFXFXFXFXFXFXFXFXFXFXFXFXFXFXFXFXFXFXFXFXFX",
"FXFXFXFXFXFXFXFXFXFXFXFXFXFXFXFXFXFXFXFXFXFXFXFXFXFXFXFXFXFXFXFXFXFXFXFXFXFXFXFXFXFXFXFXFXFXFXFXFXFXFXFXFXFXFXFXFXFXFXFXFXFXFXFXFXFXFXFXFXFX",
"FXFXFXFXFXFXFXFXFXFXFXFXFXFXFXFXFXFXFXFXFXFXFXFXFXFXFXFXFXFXFXFXFXFXFXFXFXFXFXFXFXFXFXFXFXFXFXFXFXFXFXFXFXFXFXFXFXFXFXFXFXFXFXFXFXFXFXFXFXFX",
"FXFXFXFXFXFXFXFXFXFXFXFXFXFXFXFXFXFXFXFXFXFXFXFXFXFXFXFXFXMXMXFXFXFXFXFXFXFXFXFXFXFXFXFXFXFXFXFXFXFXFXFXFXFXFXFXFXFXFXFXFXFXFXFXFXFXFXFXFXFX",
"FXFXFXFXFXFXFXFXFXFXFXFXFXFXFXFXFXFXFXFXFXFXFXFXFXFXFXFXe.w.w.w.e.FXFXFXFXFXFXFXFXFXFXFXFXFXFXFXFXFXFXFXFXFXFXFXFXFXFXFXFXFXFXFXFXFXFXFXFXFX",
"FXFXFXFXFXFXFXFXFXFXFXFXFXFXFXFXFXFXFXFXFXFXFXFXFXFXFXFX<.e 9 o.:.<.1.8.FXFXFXFXFXFXFXFXFXFXFXFXFXFXFXFXFXFXFXFXFXFXFXFXFXFXFXFXFXFXFXFXFXFX",
"FXFXFXFXFXFXFXFXFXFXFXFXFXFXFXFXFXFXFXFXFXFXFXFXFXFXFX6.:.e < o < 4 e o.:.<.FXFXFXFXFXFXFXFXFXFXFXFXFXFXFXFXFXFXFXFXFXFXFXFXFXFXFXFXFXFXFXFX",
"FXFXFXFXFXFXFXFXFXFXFXFXFXFXFXFXFXFXFXFXFXFXFXFXFXFXFXw.8.3.+.2 o X o < 4 e o.:.1.FXFXFXFXFXFXFXFXFXFXFXFXFXFXFXFXFXFXFXFXFXFXFXFXFXFXFXFXFX",
"FXFXFXFXFXFXFXFXFXFXFXFXFXFXFXFXFXFXFXFXFXFXFXFXFXFXFXw.MXMXe.1.e < < X X o < 5 e +.2.FXFXFXFXFXFXFXFXFXFXFXFXFXFXFXFXFXFXFXFXFXFXFXFXFXFXFX",
"FXFXFXFXFXFXFXFXFXFXFXFXFXFXFXFXFXFXFXFXFXFXFXFXFXFX6.1.e.MXMXmX8.q.#.) 6 o o o o 2 q ) +.FXFXFXFXFXFXFXFXFXFXFXFXFXFXFXFXFXFXFXFXFXFXFXFXFX",
"FXFXFXFXFXFXFXFXFXFXFXFXFXFXFXFXFXFXFXFXFXFXFXFXFXFX<.o.o.<.8.e.mXmXmX0.q.+.> o o X X o 2 q q e FXFXFXFXFXFXFXFXFXFXFXFXFXFXFXFXFXFXFXFXFXFX",
"FXFXFXFXFXFXFXFXFXFXFXFXFXFXFXFXFXFXFXFXFXFXFXFXFX1.+.4 o - 4 +.8.mXmXmXmX0.#.+.@.6 - X X X 2 6 q q +.FXFXFXFXFXFXFXFXFXFXFXFXFXFXFXFXFXFXFX",
"FXFXFXFXFXFXFXFXFXFXFXFXFXFXFXFXFXFXFXFXFXFXFXFXFX<.e 2 $ . X X 9 ,.2.4.0.0.q.9.,Xq.#.q 2 $ % X o 2 q q +.FXFXFXFXFXFXFXFXFXFXFXFXFXFXFXFXFX",
"FXFXFXFXFXFXFXFXFXFXFXFXFXFXFXFXFXFXFXFXFXFXFXFXFX@.4 2 $ X   X . $ $ 2 ( +.+.q.mX-X,X-X4.$./ ; . . % ; 3 q ( FXFXFXFXFXFXFXFXFXFXFXFXFXFXFX",
"FXFXFXFXFXFXFXFXFXFXFXFXFXFXFXFXFXFXFXFXFXFXFXFX1.o.2 $ % . . . . . % . . % 2 q #.;X<X<X<X-Xq.#.3 : N V  .x.x.P.;.O.FXFXFXFXFXFXFXFXFXFXFXFX",
"FXFXFXFXFXFXFXFXFXFXFXFXFXFXFXFXFXFXFXFXFXFXFXFX1.S > $ % > > % N Y { N % % > { x.T.:XnX:X-X<X9.X.| A.K.9X0XwX9XK.&.( w FXFXFXFXFXFXFXFXFXFX",
"FXFXFXFXFXFXFXFXFXFXFXFXFXFXFXFXFXFXFXFXFXFXFX1.@.X...[ { Z.| | V.4XG.V.V { k.2X5XwXgXbXxXY.7.7.T.4XqXgXgXkXfXzXwXR.[ 6 r FXFXFXFXFXFXFXFXFX",
"FXFXFXFXFXFXFXFXFXFXFXFXFXFXFXFXFXFXFXFXFXFXFX2.X.C.3XZ.L.9XK.F.5XyXtX4Xk.A.5X6X5X6X8XfXqXC.[ C.9XfXgX4XF.wXlXlXzX9X| 2 r FXFXFXFXFXFXFXFXFX",
"FXFXFXFXFXFXFXFXFXFXFXFXFXFXFXFXFXFXFXFXFXFX,.#.&.3XcX2XwXwXK.9X2X6XyX2XF.8X6XF.Z.Z.2X4XG.} { A.0X5XG.| | 9XlXlXzX9X{ 8 e FXFXFXFXFXFXFXFXFX",
"FXFXFXFXFXFXFXFXFXFXFXFXFXFXFXFXFXFXFXFXFXFX*.;.L.bXzXbXwXF.k.V.F.8X8X2X8X8XF.k.k.V.V.S.l.B N | k.k.| Y V.qXlXlXvXC.D 0 FXFXFXFXFXFXFXFXFXFX",
"FXFXFXFXFXFXFXFXFXFXFXFXFXFXFXFXFXFXFXFXFXFX*.Y.cXbXbXzX9Xk.} A.5X6XG.4X8X7Xk.V.7X8X6X6XS.Y i b x v { A.qXlXlXqXK.{ 8 _ FXFXFXFXFXFXFXFXFXFX",
"FXFXFXFXFXFXFXFXFXFXFXFXFXFXFXFXFXFXFXFXFX#.-.W.cX3XwXwXL.k.G.5X4XA.V.7XtXG.| S.8XuXuXyXS.B a a M | G.qXfXkXwXL.| : 0 FXFXFXFXFXFXFXFXFXFXFX",
"FXFXFXFXFXFXFXFXFXFXFXFXFXFXFXFXFXFXFXFXFX$.Y.xX9XL.wX0XL.4XtXfX7XV.S.yXuXG.| l._.uXtX4Xs.b G R V.).yXyXqXK.l.V = 1 ) FXFXFXFXFXFXFXFXFXFXFX",
"FXFXFXFXFXFXFXFXFXFXFXFXFXFXFXFXFXFXFXFX@.*.I.T.H.C.K.K.K.6XfXfX6XV.l.6XuX8X4X4X8XyX4Xl.B G d.G.7XtXtX0XF.k.{ x % 9 FXFXFXFXFXFXFXFXFXFXFXFX",
"FXFXFXFXFXFXFXFXFXFXFXFXFXFXFXFXFXFXFXFX$.%.' v.c.c.c.z.M.D.G.).D.} } G.8XtXyX8X6XG.l.Y R S.4XyXuXuXfXyX9X4XD.{ 3 0 FXFXFXFXFXFXFXFXFXFXFXFX",
"FXFXFXFXFXFXFXFXFXFXFXFXFXFXFXFXFXFXFXFX$.' ! ~ c.M.z.z.c.z.h.h.d.W W d.S.G.G.D.l.} b G l._.8XyXtXuXuXuXfXyX[.{ 8 _ FXFXFXFXFXFXFXFXFXFXFXFX",
"FXFXFXFXFXFXFXFXFXFXFXFXFXFXFXFXFXFXFX@.$.' Q Q ~ u.u.u.g.j.i.j.b.m.m.d.a.a.} } Y n M G s.l.S.G.).).4X7X5X9XS.D 0 FXFXFXFXFXFXFXFXFXFXFXFXFX",
"FXFXFXFXFXFXFXFXFXFXFXFXFXFXFXFXFXFXFXO.( S H Q Q J J J J u.u.u.W d.h.d.a.d.s.s.l.k.a.W } a.W R R R } s.k.k.Y C ) FXFXFXFXFXFXFXFXFXFXFXFXFX",
"FXFXFXFXFXFXFXFXFXFXFXFXFXFXFXFXFXFX@.+.` A C L H d g g m v.H.m.P F P P P W { | | k.k.d.l.l.l.f.} | E B M x ; 8 FXFXFXFXFXFXFXFXFXFXFXFXFXFX",
"FXFXFXFXFXFXFXFXFXFXFXFXFXFXFXFXFXFX+.+.( A c H I h g s u v._.D.u.P k k P W Y N N N { G R a.d.d.a.l.h.s.| b 3 0 FXFXFXFXFXFXFXFXFXFXFXFXFXFX",
"FXFXFXFXFXFXFXFXFXFXFXFXFXFXFXFXFXFX@.( A A v K U U P F u K l.j.U P P k P W V , > > > , b g g G G R E | E Z / _ FXFXFXFXFXFXFXFXFXFXFXFXFXFX",
"FXFXFXFXFXFXFXFXFXFXFXFXFXFXFXFXFX1.@.X.A c c L U t.t.U H n f.a.h h z z P L V , > > > N b s p s s p d H p f _ FXFXFXFXFXFXFXFXFXFXFXFXFXFXFX",
"FXFXFXFXFXFXFXFXFXFXFXFXFXFXFXFXFX1.$.` A c v L y.t.t.U F n f.g.h h z h h G B N , > N b g g j g s s p t t / ` FXFXFXFXFXFXFXFXFXFXFXFXFXFXFX",
"FXFXFXFXFXFXFXFXFXFXFXFXFXFXFXFX8.4.X.S A c b J ^ t.t.k p u s.h.z z z z z k G Y B B n m j g g F g p p t f / FXFXFXFXFXFXFXFXFXFXFXFXFXFXFXFX",
"FXFXFXFXFXFXFXFXFXFXFXFXFXFXFXFX9.2.X.S c c M J t.t.l g @ & R u.z z z z z k l y.u.u.y.y.U U F F g g p t f ` FXFXFXFXFXFXFXFXFXFXFXFXFXFXFXFX",
"FXFXFXFXFXFXFXFXFXFXFXFXFXFXFXFX8.@.X.3 c v J I I z j f + * W u.z z z t.t.i.p.p.Q.Q.n.n.n.b.j.i.y.U b i / _ FXFXFXFXFXFXFXFXFXFXFXFXFXFXFXFX",
"FXFXFXFXFXFXFXFXFXFXFXFXFXFXFX>Xq.#.[ A Z Q J ^ k j t @ + n u.y.z t.t.p.p.Q.~.=X=X=X=X~.(.!.!.!.n.j.u.Q ` FXFXFXFXFXFXFXFXFXFXFXFXFXFXFXFXFX",
"FXFXFXFXFXFXFXFXFXFXFXFXFXFXFX>X7.;.' D Q ^ I P h d i + + L g.t.l i.p.Q.~.(.|.|.|.|.|.|..X(.(.(./.^.N.v.=.FXFXFXFXFXFXFXFXFXFXFXFXFXFXFXFXFX",
"FXFXFXFXFXFXFXFXFXFXFXFXFXFXNXe.-.%.! ~ ^ I I J d u @   * W u.l t.p.~.=X|.XXOXOXOXOXoXOXXX X(. X]./.$XU.FXFXFXFXFXFXFXFXFXFXFXFXFXFXFXFXFXFX",
"FXFXFXFXFXFXFXFXFXFXFXFXFXFXNX;XI.=.~ ^ ^ I J K Z y + = Y g.u.y.b.~..X|.oXXX`.}.}.XXrXeXrXrX#X+X].].$XU.FXFXFXFXFXFXFXFXFXFXFXFXFXFXFXFXFXFX",
"FXFXFXFXFXFXFXFXFXFXFXFXFXAX>X5.=.~ Q K K T Q b y = + b E g.u.b.~.|.OXOX`.B.u.R R l.`.aXaXaXdX#X].].R.E.FXFXFXFXFXFXFXFXFXFXFXFXFXFXFXFXFXFX",
"FXFXFXFXFXFXFXFXFXFXFXFXFXZXe.5.' Z Z Z n E ! * + + + v E W p.!.|.OXeXXXB.d.s.} } f._.rXaXaXsXdX+X$XU.FXFXFXFXFXFXFXFXFXFXFXFXFXFXFXFXFXFXFX",
"FXFXFXFXFXFXFXFXFXFXFXFXFXr.;X5.' Z d d d m x #   + + = K i.n.=X|.rXOXXX}._._.`._._.XXaXaXaXhXsX*X$XE.FXFXFXFXFXFXFXFXFXFXFXFXFXFXFXFXFXFXFX",
"FXFXFXFXFXFXFXFXFXFXFXFXAX>X5.' ' Q H J J g d = + # # * L b.^..XOXeXOXXX`.jXjXjX]._.iXaXaXhXhXsX*X&XFXFXFXFXFXFXFXFXFXFXFXFXFXFXFXFXFXFXFXFX",
"FXFXFXFXFXFXFXFXFXFXFXFXZX1X5.' Z Z Z J J H a * # # # x u.n.~.|.eXeXeXeXoXoX`.m.d.f.J.@XhXhXsXsX*X&XFXFXFXFXFXFXFXFXFXFXFXFXFXFXFXFXFXFXFXFX",
"FXFXFXFXFXFXFXFXFXFXFXFXZX;XI.' ' Z d d d d & y v = + M z.^.=XOXeXeXeXeXeXXXm.G * y R '.sXsXsXvX&XFXFXFXFXFXFXFXFXFXFXFXFXFXFXFXFXFXFXFXFXFX",
"FXFXFXFXFXFXFXFXFXFXFXAX>X5.] / Z f f d p & * n T a & K n./.+XOXeXeXeXeXeXXXj.x & * n J.dXsX*X*X&XFXFXFXFXFXFXFXFXFXFXFXFXFXFXFXFXFXFXFXFXFX",
"FXFXFXFXFXFXFXFXFXFXFXAX;X5.' / C x C a f = M Q m p i m n./. XOXeXeXeXeXpXXXz.K u x E '.#XvX*X%X&XFXFXFXFXFXFXFXFXFXFXFXFXFXFXFXFXFXFXFXFXFX",
"FXFXFXFXFXFXFXFXFXFXSXZX;XI.' ' Z C Z v * Z T T a p i b p./. X#XpXeXeXpXeX].m.g.R T M.{.#X*X%X&XFXFXFXFXFXFXFXFXFXFXFXFXFXFXFXFXFXFXFXFXFXFX",
"FXFXFXFXFXFXFXFXFXFXSXVX:XE.I.v.! A v Z Z Z K b p t i y i./.+X#XpXpXpXpXeX`.N.J.N.z.'.@X@X*X&XW.FXFXFXFXFXFXFXFXFXFXFXFXFXFXFXFXFXFXFXFXFXFX",
"FXFXFXFXFXFXFXFXFXDXAXnXCXCXxX&XW.H.c.x.v.| G M u t & y g.^./.@XpXpXpXpX@XJ.z.J.J.N.{.@X@X%X&XE.FXFXFXFXFXFXFXFXFXFXFXFXFXFXFXFXFXFXFXFXFXFX",
"FXFXFXFXFXFXFXFXFXDX>X-X:X:X:XW.xXxXxX9X[.K.H.c.| K y b j.^./.+X#XrX@X].m.W M | c.K.@X{.{.$XE.FXFXFXFXFXFXFXFXFXFXFXFXFXFXFXFXFXFXFXFXFXFXFX",
"FXFXFXFXFXFXFXFXFXDXe.2.:.#.4.4.I.Y.W.W.[.K.K.[.L.x.E  .N.].+X+X@X@X].h.K b v *  .J.%X{.'.&XE.FXFXFXFXFXFXFXFXFXFXFXFXFXFXFXFXFXFXFXFXFXFXFX",
"FXFXFXFXFXFXFXFXFXDXZXw.>.) ) _ $.4.;.-.P.P.C.H.K.H.H.K.0XiXvXdX@X@X'.W E g.E * v c.'.[.$XE.FXFXFXFXFXFXFXFXFXFXFXFXFXFXFXFXFXFXFXFXFXFXFXFX",
"FXFXFXFXFXFXFXFXFXFXFX>Xw.<.>.w 7 ) _ O._ ` ` D %.x.x.H.K.0XwX0X0X{.'.H.L.K.f.v =  .J.J.R.;XFXFXFXFXFXFXFXFXFXFXFXFXFXFXFXFXFXFXFXFXFXFXFXFX",
"FXFXFXFXFXFXFXFXFXFXFXFXFXFX6.<.:._ 7 7 w w w 0 8 8 S S %. .v.c.c.H.J.L.[.0XH.v = Y c.U.I.FXFXFXFXFXFXFXFXFXFXFXFXFXFXFXFXFXFXFXFXFXFXFXFXFX",
"FXFXFXFXFXFXFXFXFXFXFXFXFXFXFXFXFX3.<.o.9 4 7 0 w 0 w q 8 3 3 * c A D x.J.[.H. .! x.M.c.I.FXFXFXFXFXFXFXFXFXFXFXFXFXFXFXFXFXFXFXFXFXFXFXFXFX",
"FXFXFXFXFXFXFXFXFXFXFXFXFXFXFXFXFXFXFX6.3.>.w 7 4 7 e _ _ 7 5 1 ; - 3 $.-.P.P.&.x.H.T.E.;XFXFXFXFXFXFXFXFXFXFXFXFXFXFXFXFXFXFXFXFXFXFXFXFXFX",
"FXFXFXFXFXFXFXFXFXFXFXFXFXFXFXFXFXFXFXFXFX6.6.<.) 7 4 7 7 0 w w 7 4 6 _ ,.,.#.*.%. .P.Y.FXFXFXFXFXFXFXFXFXFXFXFXFXFXFXFXFXFXFXFXFXFXFXFXFXFX",
"FXFXFXFXFXFXFXFXFXFXFXFXFXFXFXFXFXFXFXFXFXFXFXFX6.3.>.9 5 5 7 0 0 ) w 7 7 _ O.` / 3 _ 4.FXFXFXFXFXFXFXFXFXFXFXFXFXFXFXFXFXFXFXFXFXFXFXFXFXFX",
"FXFXFXFXFXFXFXFXFXFXFXFXFXFXFXFXFXFXFXFXFXFXFXFXFXFXw.6.<._ 7 1 5 7 9 0 9 7 8 ( / 1 _ FXFXFXFXFXFXFXFXFXFXFXFXFXFXFXFXFXFXFXFXFXFXFXFXFXFXFX",
"FXFXFXFXFXFXFXFXFXFXFXFXFXFXFXFXFXFXFXFXFXFXFXFXFXFXFXFXFXw.3.:.r 5 5 4 7 r r 9 < 7 >.FXFXFXFXFXFXFXFXFXFXFXFXFXFXFXFXFXFXFXFXFXFXFXFXFXFXFX",
"FXFXFXFXFXFXFXFXFXFXFXFXFXFXFXFXFXFXFXFXFXFXFXFXFXFXFXFXFXFXFXw.6.<.r 4 O 5 7 5 5 o.3.FXFXFXFXFXFXFXFXFXFXFXFXFXFXFXFXFXFXFXFXFXFXFXFXFXFXFX",
"FXFXFXFXFXFXFXFXFXFXFXFXFXFXFXFXFXFXFXFXFXFXFXFXFXFXFXFXFXFXFXFXFXFXw.3.>.7 O O 7 3.FXFXFXFXFXFXFXFXFXFXFXFXFXFXFXFXFXFXFXFXFXFXFXFXFXFXFXFX",
"FXFXFXFXFXFXFXFXFXFXFXFXFXFXFXFXFXFXFXFXFXFXFXFXFXFXFXFXFXFXFXFXFXFXFXFXw.3.<.r >.6.FXFXFXFXFXFXFXFXFXFXFXFXFXFXFXFXFXFXFXFXFXFXFXFXFXFXFXFX",
"FXFXFXFXFXFXFXFXFXFXFXFXFXFXFXFXFXFXFXFXFXFXFXFXFXFXFXFXFXFXFXFXFXFXFXFXFXFXFXw.w.FXFXFXFXFXFXFXFXFXFXFXFXFXFXFXFXFXFXFXFXFXFXFXFXFXFXFXFXFX",
"FXFXFXFXFXFXFXFXFXFXFXFXFXFXFXFXFXFXFXFXFXFXFXFXFXFXFXFXFXFXFXFXFXFXFXFXFXFXFXFXFXFXFXFXFXFXFXFXFXFXFXFXFXFXFXFXFXFXFXFXFXFXFXFXFXFXFXFXFXFX"
};
