/* XPM */
static char *aDJnMl8y[] = {
/* columns rows colors chars-per-pixel */
"70 70 248 2 ",
"   c #1A0C01",
".  c #1C1303",
"X  c #181509",
"o  c #1C1A12",
"O  c #1E1D1B",
"+  c #250A02",
"@  c #370B02",
"#  c #2B1204",
"$  c #221A0C",
"%  c #281A04",
"&  c #3B1604",
"*  c #3D1A04",
"=  c #341805",
"-  c #231D13",
";  c #291E11",
":  c #3B2508",
">  c #343201",
",  c #3D3601",
"<  c #23221C",
"1  c #2A241B",
"2  c #2B2519",
"3  c #362618",
"4  c #2D2A25",
"5  c #2B2825",
"6  c #332C23",
"7  c #342E2A",
"8  c #3A2D24",
"9  c #35322C",
"0  c #3B342D",
"q  c #3C352B",
"w  c #3C3631",
"e  c #3C3A33",
"r  c #3A3935",
"t  c #4C1604",
"y  c #431D04",
"u  c #4C1C05",
"i  c #451707",
"p  c #531504",
"a  c #541B05",
"s  c #5C1A04",
"d  c #591B07",
"f  c #47190D",
"g  c #641C04",
"h  c #6B1B03",
"j  c #681803",
"k  c #741B02",
"l  c #7A1D02",
"z  c #721702",
"x  c #4B2305",
"c  c #432B0C",
"v  c #492707",
"b  c #542304",
"n  c #5B2C06",
"m  c #5B240A",
"M  c #572707",
"N  c #493602",
"B  c #5C3403",
"V  c #593A06",
"C  c #492715",
"Z  c #582915",
"A  c #463212",
"S  c #4A371A",
"D  c #583516",
"F  c #6C2304",
"G  c #622C05",
"H  c #63240B",
"J  c #6C240B",
"K  c #632C0B",
"L  c #6A2908",
"P  c #732304",
"I  c #73240A",
"U  c #7A2606",
"Y  c #643B05",
"T  c #683609",
"R  c #733C05",
"E  c #723C0C",
"W  c #7A3807",
"Q  c #672D14",
"!  c #683A19",
"~  c #753516",
"^  c #722A11",
"/  c #482A23",
"(  c #483929",
")  c #423C33",
"_  c #473B36",
"`  c #543B28",
"'  c #683925",
"]  c #763A23",
"[  c #5E4415",
"{  c #694207",
"}  c #7C4305",
"|  c #784709",
" . c #764717",
".. c #714C14",
"X. c #58452A",
"o. c #44423B",
"O. c #4C4439",
"+. c #4B4437",
"@. c #544A3D",
"#. c #5A4C3C",
"$. c #564536",
"%. c #69472C",
"&. c #7E5726",
"*. c #664936",
"=. c #7A4A35",
"-. c #765437",
";. c #6C4F35",
":. c #4D4A44",
">. c #4A4845",
",. c #564E44",
"<. c #55534B",
"1. c #5D594D",
"2. c #595347",
"3. c #5C5955",
"4. c #655948",
"5. c #795645",
"6. c #625E59",
"7. c #78624B",
"8. c #69655B",
"9. c #786B58",
"0. c #7D715D",
"q. c #6D614E",
"w. c #6C6964",
"e. c #797467",
"r. c #7F7A74",
"t. c #822405",
"y. c #842B04",
"u. c #853607",
"i. c #903507",
"p. c #A43B04",
"a. c #854306",
"s. c #844B06",
"d. c #8B4B07",
"f. c #8C4A0B",
"g. c #89460A",
"h. c #944A0A",
"j. c #98480B",
"k. c #8A5608",
"l. c #985808",
"z. c #9A4E11",
"x. c #885618",
"c. c #9A5516",
"v. c #864A16",
"b. c #A94508",
"n. c #B84907",
"m. c #A6550C",
"M. c #A65A16",
"N. c #B05A13",
"B. c #B65809",
"V. c #996209",
"C. c #976418",
"Z. c #8D600D",
"A. c #A46A0B",
"S. c #A66809",
"D. c #B1670A",
"F. c #B3740B",
"G. c #B97609",
"H. c #A86817",
"J. c #B76616",
"K. c #B87615",
"L. c #AC7111",
"P. c #885926",
"I. c #895434",
"U. c #A85C2F",
"Y. c #956534",
"T. c #A66A28",
"R. c #B76929",
"E. c #A96839",
"W. c #B37430",
"Q. c #C14A05",
"!. c #CA5708",
"~. c #D75907",
"^. c #C95611",
"/. c #D85C11",
"(. c #D7650A",
"). c #C37D0C",
"_. c #C8750B",
"`. c #D9750C",
"'. c #C76B17",
"]. c #D86A14",
"[. c #C77919",
"{. c #D87617",
"}. c #C5680A",
"|. c #EB6B07",
" X c #E46A0C",
".X c #E46608",
"XX c #E7770C",
"oX c #F47C0A",
"OX c #F57A09",
"+X c #E36914",
"@X c #E97817",
"#X c #F47A12",
"$X c #C66824",
"%X c #D87828",
"&X c #C77330",
"*X c #E57E27",
"=X c #E15906",
"-X c #897157",
";X c #8D6952",
":X c #A37C4C",
">X c #857B6D",
",X c #877765",
"<X c #927D64",
"1X c #847266",
"2X c #B8811E",
"3X c #BE8826",
"4X c #C9820A",
"5X c #D48B0D",
"6X c #D98E0B",
"7X c #D5890B",
"8X c #DD910B",
"9X c #C98515",
"0X c #D68A16",
"qX c #DB9113",
"wX c #D69419",
"eX c #FB820D",
"rX c #F4840E",
"tX c #EB9B0C",
"yX c #E5950A",
"uX c #F19E0C",
"iX c #E98516",
"pX c #FB8312",
"aX c #FD8D13",
"sX c #FA8C1C",
"dX c #F38219",
"fX c #EC9C13",
"gX c #E39817",
"hX c #FC9418",
"jX c #ED800E",
"kX c #F4A41B",
"lX c #F7A61A",
"zX c #EBA71E",
"xX c #C58727",
"cX c #CD9029",
"vX c #EB8921",
"bX c #E3A524",
"nX c #B38753",
"mX c #8D806C",
"MX c #8B8477",
"NX c #928578",
"BX c #94836A",
"VX c #A68969",
"CX c #CD964C",
"ZX c #958C82",
"AX c #958F85",
"SX c #A59D94",
"DX c #A8A29B",
"FX c None",
/* pixels */
"FXFXFXFXFXFXFXFXFXFXFXFXFXFXFXFXFXFXFXFXFXFXFXFXFXFXFXFXFXFXFXFXFXFXFXFXFXFXFXFXFXFXFXFXFXFXFXFXFXFXFXFXFXFXFXFXFXFXFXFXFXFXFXFXFXFXFXFXFXFX",
"FXFXFXFXFXFXFXFXFXFXFXFXFXFXFXFXFXFXFXFXFXFXFXFXFXFXFXFXFXFXFXFXFXFXFXFXFXFXFXFXFXFXFXFXFXFXFXFXFXFXFXFXFXFXFXFXFXFXFXFXFXFXFXFXFXFXFXFXFXFX",
"FXFXFXFXFXFXFXFXFXFXFXFXFXFXFXFXFXFXFXFXFXFXFXFXFXFXFXFXFXMXMXFXFXFXFXFXFXFXFXFXFXFXFXFXFXFXFXFXFXFXFXFXFXFXFXFXFXFXFXFXFXFXFXFXFXFXFXFXFXFX",
"FXFXFXFXFXFXFXFXFXFXFXFXFXFXFXFXFXFXFXFXFXFXFXFXFXFXFXFXw.w.w.w.e.FXFXFXFXFXFXFXFXFXFXFXFXFXFXFXFXFXFXFXFXFXFXFXFXFXFXFXFXFXFXFXFXFXFXFXFXFX",
"FXFXFXFXFXFXFXFXFXFXFXFXFXFXFXFXFXFXFXFXFXFXFXFXFXFXFXFX1.r e o.+.<.1.6.FXFXFXFXFXFXFXFXFXFXFXFXFXFXFXFXFXFXFXFXFXFXFXFXFXFXFXFXFXFXFXFXFXFX",
"FXFXFXFXFXFXFXFXFXFXFXFXFXFXFXFXFXFXFXFXFXFXFXFXFXFXFX6.:.e < o < 4 e o.1.1.FXFXFXFXFXFXFXFXFXFXFXFXFXFXFXFXFXFXFXFXFXFXFXFXFXFXFXFXFXFXFXFX",
"FXFXFXFXFXFXFXFXFXFXFXFXFXFXFXFXFXFXFXFXFXFXFXFXFXFXFX8.8.6.o.2 o o o < 2 e +.<.<.FXFXFXFXFXFXFXFXFXFXFXFXFXFXFXFXFXFXFXFXFXFXFXFXFXFXFXFXFX",
"FXFXFXFXFXFXFXFXFXFXFXFXFXFXFXFXFXFXFXFXFXFXFXFXFXFXFXw.r.MXe.1.e < o o o o < 4 e +.@.FXFXFXFXFXFXFXFXFXFXFXFXFXFXFXFXFXFXFXFXFXFXFXFXFXFXFX",
"FXFXFXFXFXFXFXFXFXFXFXFXFXFXFXFXFXFXFXFXFXFXFXFXFXFX1.1.e.MXMX>X8.q.,.e 4 o X X o 2 9 e o.FXFXFXFXFXFXFXFXFXFXFXFXFXFXFXFXFXFXFXFXFXFXFXFXFX",
"FXFXFXFXFXFXFXFXFXFXFXFXFXFXFXFXFXFXFXFXFXFXFXFXFXFX<.o.o.1.8.0.mXmXmX0.q.+.2 o - X X o 2 q ) e FXFXFXFXFXFXFXFXFXFXFXFXFXFXFXFXFXFXFXFXFXFX",
"FXFXFXFXFXFXFXFXFXFXFXFXFXFXFXFXFXFXFXFXFXFXFXFXFX1.+.2 o - 4 +.q.mXmXmXmX0.#.+.@.6 - X . X 2 4 q w ) FXFXFXFXFXFXFXFXFXFXFXFXFXFXFXFXFXFXFX",
"FXFXFXFXFXFXFXFXFXFXFXFXFXFXFXFXFXFXFXFXFXFXFXFXFX1.e 2 $ X X o e @.2.q.0.0.q.0.0.q.$.+.2 % .   $ 2 8 q ) FXFXFXFXFXFXFXFXFXFXFXFXFXFXFXFXFX",
"FXFXFXFXFXFXFXFXFXFXFXFXFXFXFXFXFXFXFXFXFXFXFXFXFX@.4 2 X . .   X o $ 2 ) +.+.7.mXmX-X0.4.$./ 2 . . % 2 6 8 ( FXFXFXFXFXFXFXFXFXFXFXFXFXFXFX",
"FXFXFXFXFXFXFXFXFXFXFXFXFXFXFXFXFXFXFXFXFXFXFXFX1.+.2 $ % . .   X $ . . . $ 2 q ;.7.mXmXBX-X7.#.3 = v Y ..x.P.P.;.+.FXFXFXFXFXFXFXFXFXFXFXFX",
"FXFXFXFXFXFXFXFXFXFXFXFXFXFXFXFXFXFXFXFXFXFXFXFX#.+.> ; % , > % [ { { N % % : { Z.T.3XnX:X-X<X9.X.| A.K.0X0X0X9XK.&._ e FXFXFXFXFXFXFXFXFXFX",
"FXFXFXFXFXFXFXFXFXFXFXFXFXFXFXFXFXFXFXFXFXFXFX1.+.[ ..[ { Z.| | V.2X2XV.V { k.G.5XwXwXbXxXY.7.7.T.4XqXgXgXgXkXzXvXL.[ 2 o.FXFXFXFXFXFXFXFXFX",
"FXFXFXFXFXFXFXFXFXFXFXFXFXFXFXFXFXFXFXFXFXFXFX2.X.C.3XZ.2X2X2XG.5X8XtX).k.A.5X6X5X5XqXtXqXC.[ C.9XtXqX9XG.wXlXlXkX9X..3 9 FXFXFXFXFXFXFXFXFX",
"FXFXFXFXFXFXFXFXFXFXFXFXFXFXFXFXFXFXFXFXFXFX,.#.&.3XwX2X5XwXG.2X2X7XyX4XF.6X5XG.Z.Z.F.4XF.s.{ A.5XwXF.| | 9XlXlXzX9X{ 8 r FXFXFXFXFXFXFXFXFX",
"FXFXFXFXFXFXFXFXFXFXFXFXFXFXFXFXFXFXFXFXFXFX#.;.T.bXbXzXwX2XZ.V.G.8X6X2X6X8XF.s.l.V.S.A.k.B x | l.k.| V V.qXlXlXgXC.D w FXFXFXFXFXFXFXFXFXFX",
"FXFXFXFXFXFXFXFXFXFXFXFXFXFXFXFXFXFXFXFXFXFX*.C.xXbXzXzX9X| | F.5X5X2X4XtX7Xk.V.7X6X6X5XF.Y * b x N { A.qXkXlXgXK.{ 8 ) FXFXFXFXFXFXFXFXFXFX",
"FXFXFXFXFXFXFXFXFXFXFXFXFXFXFXFXFXFXFXFXFX#.I.W.cX9XwXwXL.k.G.6X4XA.V.6XyXG.| S.6XtXuXyXS.Y u a b | F.qXfXzXwXL.| : w FXFXFXFXFXFXFXFXFXFXFX",
"FXFXFXFXFXFXFXFXFXFXFXFXFXFXFXFXFXFXFXFXFX#.Y.xXxXL.wX9XD.).fXfX5XV.V.yXuXG.s.V.4XtXyX4Xs.b G R V.4XyXtXyXK.k.Y = ; ) FXFXFXFXFXFXFXFXFXFXFX",
"FXFXFXFXFXFXFXFXFXFXFXFXFXFXFXFXFXFXFXFX@.*.&.T.T.C.K.K.K.8XfXfX6Xm.V.6XuX8X_.).8XyX4XV.Y G h.G.7XyXtX7XL.k.E v # 9 FXFXFXFXFXFXFXFXFXFXFXFX",
"FXFXFXFXFXFXFXFXFXFXFXFXFXFXFXFXFXFXFXFX$.` %.v.c.c.c.h.H.D.G.G.S.} } G.yXyXyXyX7XG.l.Y { m.4XyXuXuXtXyX7X).H.{ 3 w FXFXFXFXFXFXFXFXFXFXFXFX",
"FXFXFXFXFXFXFXFXFXFXFXFXFXFXFXFXFXFXFXFX$.' ~ ~ M.U.z.z.z.z.j.j.h.W W d.S.G.G.D.l.} b G l.).6XyXuXuXtXfXuXgX).{ 8 _ FXFXFXFXFXFXFXFXFXFXFXFX",
"FXFXFXFXFXFXFXFXFXFXFXFXFXFXFXFXFXFXFX@._ ' Q Q ~ u.u.u.g.j.j.j.l.m.m.h.a.s.} } Y B b G s.m.S.G._.).4X7X7X9XA.D 0 FXFXFXFXFXFXFXFXFXFXFXFXFX",
"FXFXFXFXFXFXFXFXFXFXFXFXFXFXFXFXFXFXFXO.( D K H H J J J L W g.u.u.d.h.a.a.d.s.s.l.k.s.W } a.W W R { } k.f.k.T / _ FXFXFXFXFXFXFXFXFXFXFXFXFX",
"FXFXFXFXFXFXFXFXFXFXFXFXFXFXFXFXFXFX@.$.` A C Q H s g g m v.N.j.P F P F P W R | | k.s.a.l.l.l.d.W } E B v v = 7 FXFXFXFXFXFXFXFXFXFXFXFXFXFX",
"FXFXFXFXFXFXFXFXFXFXFXFXFXFXFXFXFXFX@.+.S A c H I h g s t v._.D.y.P P k P W Y N N N { Y W a.d.d.d.l.f.v.| b 3 / FXFXFXFXFXFXFXFXFXFXFXFXFXFX",
"FXFXFXFXFXFXFXFXFXFXFXFXFXFXFXFXFXFX+.( A A v H U U I H t T l.j.U P l k P W V , > > > , b s G F G R | } | Z 8 _ FXFXFXFXFXFXFXFXFXFXFXFXFXFX",
"FXFXFXFXFXFXFXFXFXFXFXFXFXFXFXFXFX1.#.X.A A c K ^ y.t.U m n f.g.h h k z P L V , > > > N s s p p s p d m a f ( FXFXFXFXFXFXFXFXFXFXFXFXFXFXFX",
"FXFXFXFXFXFXFXFXFXFXFXFXFXFXFXFXFX1.$.` A : v L y.t.t.t.F n f.f.h h z h h G V N , > N b s j g g g p p t f f _ FXFXFXFXFXFXFXFXFXFXFXFXFXFXFX",
"FXFXFXFXFXFXFXFXFXFXFXFXFXFXFXFX8.1.$.S A c v L U t.t.z p x s.d.P h z z z j h G B B n g g j h g g s p t d / FXFXFXFXFXFXFXFXFXFXFXFXFXFXFXFX",
"FXFXFXFXFXFXFXFXFXFXFXFXFXFXFXFX9.#.X.A : v M I l t.l p @ & R u.l z z z z z l y.u.i.y.W U P F F g s p t f _ FXFXFXFXFXFXFXFXFXFXFXFXFXFXFXFX",
"FXFXFXFXFXFXFXFXFXFXFXFXFXFXFXFXw.#.` A A C J I l I j t + y W y.k z l t.t.i.p.p.Q.Q.n.n.n.b.j.i.u.I s t / _ FXFXFXFXFXFXFXFXFXFXFXFXFXFXFXFX",
"FXFXFXFXFXFXFXFXFXFXFXFXFXFXFX>Xq.#.` A V L J I I j p @ + n a.y.l l t.i.p.Q.~.=X=X=X~.~.(.!.!.!.n.j.u.K ` FXFXFXFXFXFXFXFXFXFXFXFXFXFXFXFXFX",
"FXFXFXFXFXFXFXFXFXFXFXFXFXFXFX>X7.;.[ T K ^ I I h g i + # T i.U t.y.p.Q.~.=X|.|.|.|.|.|..X(.(.~.(.^.N.I.] FXFXFXFXFXFXFXFXFXFXFXFXFXFXFXFXFX",
"FXFXFXFXFXFXFXFXFXFXFXFXFXFXZXe.-.;.! ~ ^ ^ I J d f @   & R u.P y.p.!.(.|.OXOXOXOXOXeXOXXXXX(.+X].'.^.U.FXFXFXFXFXFXFXFXFXFXFXFXFXFXFXFXFXFX",
"FXFXFXFXFXFXFXFXFXFXFXFXFXFXr.;XI.] ~ Q ^ J Q H M f + @ T a.u.y.p.~..XOXXXXX(.}.}.`.rXeXeXrX@XXX+X].$XE.FXFXFXFXFXFXFXFXFXFXFXFXFXFXFXFXFXFX",
"FXFXFXFXFXFXFXFXFXFXFXFXFXZX>X5.=.] Q Q K ^ T b i = + v } a.i.b.~.|.OXOX`.B.a.R R m.`.rXaXaXdX#X].].R.U.FXFXFXFXFXFXFXFXFXFXFXFXFXFXFXFXFXFX",
"FXFXFXFXFXFXFXFXFXFXFXFXFXZX0.5.' Z Z d H Q T * + + + v ~ W b.!.|.OXOXXXB.h.s.| } h._.rXaXaXaXdX+X/.:XFXFXFXFXFXFXFXFXFXFXFXFXFXFXFXFXFXFXFX",
"FXFXFXFXFXFXFXFXFXFXFXFXFXMX-X5.' Z Z d d Q C #   + + & H u.n.(.OXOXOXXX}._.`.`._.'.@XaXaXhXhXsX*X$XU.FXFXFXFXFXFXFXFXFXFXFXFXFXFXFXFXFXFXFX",
"FXFXFXFXFXFXFXFXFXFXFXFXAX>X5.' Q Q H J J g d &   # # * L b.!.|.OXOXeXXX`.jXrXXX_.{.iXrXaXhXsXsX*X&XFXFXFXFXFXFXFXFXFXFXFXFXFXFXFXFXFXFXFXFX",
"FXFXFXFXFXFXFXFXFXFXFXFXZX1X5.' Z Z Z J J H d = # # # v u.n.~.|.OXeXeXeXjXjX`.B.g.f.D.iXhXsXsXsX%X&XFXFXFXFXFXFXFXFXFXFXFXFXFXFXFXFXFXFXFXFX",
"FXFXFXFXFXFXFXFXFXFXFXFX>X1X=.] Q Z m d d t i * b = + n p.^..XOXeXeXeXeXeXoXm.G * y E '.sXaXsX*X&XFXFXFXFXFXFXFXFXFXFXFXFXFXFXFXFXFXFXFXFXFX",
"FXFXFXFXFXFXFXFXFXFXFXSX>X5.' ` Z C f d a i & M T t @ K n./..XOXeXeXeXeXrXXXj.x & & n J.dXsXvX*X&XFXFXFXFXFXFXFXFXFXFXFXFXFXFXFXFXFXFXFXFXFX",
"FXFXFXFXFXFXFXFXFXFXFXZX1XI.' Z C C M f * * M Q m d & m b./.+X#XeXeXeXeXeX Xz.T u u E J.dXdXvX%XnXFXFXFXFXFXFXFXFXFXFXFXFXFXFXFXFXFXFXFXFXFX",
"FXFXFXFXFXFXFXFXFXFXDXZX;XI.' Q C Z C v y Z T T d p i M b./.|.#XeXeXeXeXpX`.m.v.R T m.{.dX*X%X&XFXFXFXFXFXFXFXFXFXFXFXFXFXFXFXFXFXFXFXFXFXFX",
"FXFXFXFXFXFXFXFXFXFXSXVXnXE.P.v. .A C Z Z B K b u t & t z.^.+X#XpXpXpXpX#X`.N.N.N.z.'.iX@X@X$X&XFXFXFXFXFXFXFXFXFXFXFXFXFXFXFXFXFXFXFXFXFXFX",
"FXFXFXFXFXFXFXFXFXDXAXnXCXCXxX3XT.H.c.x.v.E K M a u i y i.^./.+XpXpXpXrXXXJ.z.H.J.J.{.@X@X%X&X:XFXFXFXFXFXFXFXFXFXFXFXFXFXFXFXFXFXFXFXFXFXFX",
"FXFXFXFXFXFXFXFXFXDX>X-X:XnX:XW.xXxXxX{.[.K.H.c.| n y b z.^./.+X@X#X@X`.N.W M  .c.'.%X{.%X$XE.FXFXFXFXFXFXFXFXFXFXFXFXFXFXFXFXFXFXFXFXFXFXFX",
"FXFXFXFXFXFXFXFXFXSXr.<.@.,.#.4.I.Y.W.W.K.[.K.K.J.x.Y  .N.].+X+X#X@X].h.G b x x ! J.{.{.'.R.E.FXFXFXFXFXFXFXFXFXFXFXFXFXFXFXFXFXFXFXFXFXFXFX",
"FXFXFXFXFXFXFXFXFXDXZXw.>.) ) _ @.,.-.-.P.P.C.T.K.H.H.K.0XvXiXiX@X{.'.~ Y s.{ * v c.'.[.$X:XFXFXFXFXFXFXFXFXFXFXFXFXFXFXFXFXFXFXFXFXFXFXFXFX",
"FXFXFXFXFXFXFXFXFXFXFX>Xw.<.>.w 8 ) _ O.+.` ` D ..x.x.H.K.0XwXiXiX{.[.H.J.'.z.c *  .J.J.U.Y.FXFXFXFXFXFXFXFXFXFXFXFXFXFXFXFXFXFXFXFXFXFXFXFX",
"FXFXFXFXFXFXFXFXFXFXFXFXFXFX6.<.:._ 7 7 0 w w 0 9 8 C S [  .x.C.H.H.J.L.9X0XH.M = ! c.M.Y.FXFXFXFXFXFXFXFXFXFXFXFXFXFXFXFXFXFXFXFXFXFXFXFXFX",
"FXFXFXFXFXFXFXFXFXFXFXFXFXFXFXFXFX3.<.o.7 6 7 9 r w r w 9 3 : 3 : A D v.H.[.H. .[ v.M.U.I.FXFXFXFXFXFXFXFXFXFXFXFXFXFXFXFXFXFXFXFXFXFXFXFXFX",
"FXFXFXFXFXFXFXFXFXFXFXFXFXFXFXFXFXFXFX6.3.>.r 5 5 7 _ _ _ 7 5 1 - - 6 ` 5.I.P. .P.H.R.E.;XFXFXFXFXFXFXFXFXFXFXFXFXFXFXFXFXFXFXFXFXFXFXFXFXFX",
"FXFXFXFXFXFXFXFXFXFXFXFXFXFXFXFXFXFXFXFXFX8.6.3._ 7 5 7 7 0 0 w 8 6 6 _ ,.,.*.*.[  .P.Y.FXFXFXFXFXFXFXFXFXFXFXFXFXFXFXFXFXFXFXFXFXFXFXFXFXFX",
"FXFXFXFXFXFXFXFXFXFXFXFXFXFXFXFXFXFXFXFXFXFXFXFX6.3.>.7 5 5 7 r 0 ) 7 7 8 _ O.+.( 3 _ 2.FXFXFXFXFXFXFXFXFXFXFXFXFXFXFXFXFXFXFXFXFXFXFXFXFXFX",
"FXFXFXFXFXFXFXFXFXFXFXFXFXFXFXFXFXFXFXFXFXFXFXFXFXFXw.6.<._ 9 5 5 7 0 0 9 6 8 ( / - _ FXFXFXFXFXFXFXFXFXFXFXFXFXFXFXFXFXFXFXFXFXFXFXFXFXFXFX",
"FXFXFXFXFXFXFXFXFXFXFXFXFXFXFXFXFXFXFXFXFXFXFXFXFXFXFXFXFXw.3.>.r 5 < 5 7 7 9 9 1 7 >.FXFXFXFXFXFXFXFXFXFXFXFXFXFXFXFXFXFXFXFXFXFXFXFXFXFXFX",
"FXFXFXFXFXFXFXFXFXFXFXFXFXFXFXFXFXFXFXFXFXFXFXFXFXFXFXFXFXFXFXw.6.<.o.5 5 5 5 5 O >.3.FXFXFXFXFXFXFXFXFXFXFXFXFXFXFXFXFXFXFXFXFXFXFXFXFXFXFX",
"FXFXFXFXFXFXFXFXFXFXFXFXFXFXFXFXFXFXFXFXFXFXFXFXFXFXFXFXFXFXFXFXFXFXw.3.>.9 5 O 0 <.FXFXFXFXFXFXFXFXFXFXFXFXFXFXFXFXFXFXFXFXFXFXFXFXFXFXFXFX",
"FXFXFXFXFXFXFXFXFXFXFXFXFXFXFXFXFXFXFXFXFXFXFXFXFXFXFXFXFXFXFXFXFXFXFXFXw.3.<.r :.w.FXFXFXFXFXFXFXFXFXFXFXFXFXFXFXFXFXFXFXFXFXFXFXFXFXFXFXFX",
"FXFXFXFXFXFXFXFXFXFXFXFXFXFXFXFXFXFXFXFXFXFXFXFXFXFXFXFXFXFXFXFXFXFXFXFXFXFXFXw.w.FXFXFXFXFXFXFXFXFXFXFXFXFXFXFXFXFXFXFXFXFXFXFXFXFXFXFXFXFX",
"FXFXFXFXFXFXFXFXFXFXFXFXFXFXFXFXFXFXFXFXFXFXFXFXFXFXFXFXFXFXFXFXFXFXFXFXFXFXFXFXFXFXFXFXFXFXFXFXFXFXFXFXFXFXFXFXFXFXFXFXFXFXFXFXFXFXFXFXFXFX",
"FXFXFXFXFXFXFXFXFXFXFXFXFXFXFXFXFXFXFXFXFXFXFXFXFXFXFXFXFXFXFXFXFXFXFXFXFXFXFXFXFXFXFXFXFXFXFXFXFXFXFXFXFXFXFXFXFXFXFXFXFXFXFXFXFXFXFXFXFXFX",
"FXFXFXFXFXFXFXFXFXFXFXFXFXFXFXFXFXFXFXFXFXFXFXFXFXFXFXFXFXFXFXFXFXFXFXFXFXFXFXFXFXFXFXFXFXFXFXFXFXFXFXFXFXFXFXFXFXFXFXFXFXFXFXFXFXFXFXFXFXFX",
"FXFXFXFXFXFXFXFXFXFXFXFXFXFXFXFXFXFXFXFXFXFXFXFXFXFXFXFXFXFXFXFXFXFXFXFXFXFXFXFXFXFXFXFXFXFXFXFXFXFXFXFXFXFXFXFXFXFXFXFXFXFXFXFXFXFXFXFXFXFX",
"FXFXFXFXFXFXFXFXFXFXFXFXFXFXFXFXFXFXFXFXFXFXFXFXFXFXFXFXFXFXFXFXFXFXFXFXFXFXFXFXFXFXFXFXFXFXFXFXFXFXFXFXFXFXFXFXFXFXFXFXFXFXFXFXFXFXFXFXFXFX"
};
