/* XPM */
static char *bmJfMA__[] = {
/* columns rows colors chars-per-pixel */
"20 38 98 2 ",
"   c black",
".  c #001C00",
"X  c #000016",
"o  c #001C1C",
"O  c #002600",
"+  c #002A00",
"@  c #003200",
"#  c #003500",
"$  c #003800",
"%  c #003D00",
"&  c #000226",
"*  c #000C29",
"=  c #000535",
"-  c #000438",
";  c #002A2A",
":  c #003232",
">  c #003838",
",  c #003B3B",
"<  c #004B00",
"1  c #007500",
"2  c #007900",
"3  c #007D00",
"4  c #00094F",
"5  c #000C51",
"6  c #001168",
"7  c #00136D",
"8  c #00157C",
"9  c #00187D",
"0  c #002C7F",
"q  c #005353",
"w  c #005555",
"e  c #006565",
"r  c #006A6A",
"t  c #006C6C",
"y  c #007373",
"u  c #007A7A",
"i  c #007E7E",
"p  c #0021A3",
"a  c #0026A3",
"s  c #0022AB",
"d  c #0024AA",
"f  c #0023AD",
"g  c #0024AE",
"h  c #0025B4",
"j  c #0027BA",
"k  c #0027BE",
"l  c #0029BF",
"z  c #002AC2",
"x  c #002BC8",
"c  c #002DD2",
"v  c #002DD3",
"b  c #0031E1",
"n  c #0032E6",
"m  c #0036E5",
"M  c #003EE0",
"N  c #0034EB",
"B  c #0034ED",
"V  c #0037F7",
"C  c #0039F7",
"Z  c #0037F9",
"A  c #0038FA",
"S  c #0039FF",
"D  c #003CFF",
"F  c #0043FF",
"G  c #0045FF",
"H  c #004CF9",
"J  c #004AFF",
"K  c #004DFF",
"L  c #0050FB",
"P  c #0055F9",
"I  c #008080",
"U  c #00A0A0",
"Y  c #00A7A7",
"T  c #00ABAB",
"R  c #00ACAC",
"E  c #00B4B4",
"W  c #00B6B6",
"Q  c #00BEBE",
"!  c #0095FF",
"~  c #009CFF",
"^  c #00A4FF",
"/  c #00ACFF",
"(  c #00AFFF",
")  c #00B9FF",
"_  c #00BDFF",
"`  c #00C1C1",
"'  c #00C7C7",
"]  c #00C8C8",
"[  c #00D3D3",
"{  c #00DDDD",
"}  c #00CDFF",
"|  c #00E4E4",
" . c #00E5E5",
".. c #00EAEA",
"X. c #00ECEC",
"o. c #00F4F4",
"O. c #00F8F8",
"+. c cyan",
/* pixels */
"                                        ",
"                                        ",
"                                        ",
"                                        ",
"                                        ",
"            - g n V V m R %             ",
"          7 B S S S S S F o.y           ",
"        6 V S S ( ~ _ ^ S F O.t         ",
"      - N S S O.T q w R O.D J X.$       ",
"      j S S O.I         I L S +.E       ",
"    4 Z S +.E             E S S O.<     ",
"    f S S o.O             ; V S +.Y     ",
"    b S ( Q                 l S ( {     ",
"  = S S +.3                 0 S S +.+   ",
"  8 S ! O.                  o Z J +.1   ",
"  p S ^  .                    n S ^ U   ",
"  h S ^ [                     c S ( E   ",
"  l S ( ]                     x S ^ Q   ",
"  x S ) `                     z S ^ '   ",
"  x S ! `                     z S ) '   ",
"  l S ( ]                     x S ( `   ",
"  h S ^ [                     c S ( E   ",
"  a S (  .                    n S ~ U   ",
"  u S S P .                 X V S ^ 2   ",
"  : S D +.3                 9 S Z +.@   ",
"    M S ~ Q                 k S ~  .    ",
"    R S S o.O             & V S +.T     ",
"    q H S +.E             h S S O.<     ",
"      Q G S O.i         9 A S +.E       ",
"      , X.G S A s * 5 d C S K X.#       ",
"        r O.J S S S S S D L o.e         ",
"          t X.+.~ ( } ^ +.X.t           ",
"            , R  .o.O...R $             ",
"                                        ",
"                                        ",
"                                        ",
"                                        ",
"                                        "
};
