/* XPM */
static char *_cecc691d3b748cdf105ed9a6e2cb7cfjqYig6eACNZvqk84[] = {
/* columns rows colors chars-per-pixel */
"20 38 109 2 ",
"   c black",
".  c #001C00",
"X  c #002600",
"o  c #002A00",
"O  c #003500",
"+  c #003D00",
"@  c #00022A",
"#  c #001A3B",
"$  c #002626",
"%  c #002A2A",
"&  c #003838",
"*  c #004900",
"=  c #005100",
"-  c #006A00",
";  c #000742",
":  c #000645",
">  c #000A4B",
",  c #000E58",
"<  c #000D5F",
"1  c #00116A",
"2  c #001679",
"3  c #00177F",
"4  c #002C6E",
"5  c #004040",
"6  c #004D4D",
"7  c #006262",
"8  c #006565",
"9  c #006A6A",
"0  c #006C6C",
"q  c #007070",
"w  c #007A7A",
"e  c #008D00",
"r  c #001780",
"t  c #001A86",
"y  c #001F8F",
"u  c #001F9A",
"i  c #0021A3",
"p  c #0022AC",
"a  c #0047BD",
"s  c #002BCB",
"d  c #002CCA",
"f  c #002BCC",
"g  c #002CCD",
"h  c #002ED5",
"j  c #002FD8",
"k  c #002FDA",
"l  c #0032E3",
"z  c #0033E7",
"x  c #0033EA",
"c  c #0034EB",
"v  c #0035EB",
"b  c #003BE9",
"n  c #0036F2",
"m  c #0038F2",
"M  c #0037F9",
"N  c #0038F8",
"B  c #0038FA",
"V  c #0038FC",
"C  c #0039FF",
"Z  c #003FFF",
"A  c #0044FA",
"S  c #0043FF",
"D  c #0044FF",
"F  c #004AFF",
"G  c #004FFF",
"H  c #0063FF",
"J  c #008181",
"K  c #008E8E",
"L  c #009191",
"P  c #009494",
"I  c #009A9A",
"U  c #009C9C",
"Y  c #009F9F",
"T  c #00A1A1",
"R  c #00ABAB",
"E  c #00B2B2",
"W  c #00B5B5",
"Q  c #00B8B8",
"!  c #00BEBE",
"~  c #008AFF",
"^  c #008CFF",
"/  c #0094FF",
"(  c #0095FF",
")  c #009AFF",
"_  c #009DFF",
"`  c #00A4FF",
"'  c #00AFFF",
"]  c #00B9FF",
"[  c #00BDFF",
"{  c #00C1C1",
"}  c #00C7C7",
"|  c #00CACA",
" . c #00CECE",
".. c #00D1D1",
"X. c #00D7D7",
"o. c #00DADA",
"O. c #00DFDF",
"+. c #00CCFF",
"@. c #00D4FD",
"#. c #00E3E3",
"$. c #00E6E6",
"%. c #00EBEB",
"&. c #00EEEE",
"*. c #00EEFF",
"=. c #00F2F2",
"-. c #00F6F6",
";. c #00F7F7",
":. c #00F9F9",
">. c cyan",
/* pixels */
"                                        ",
"                                        ",
"                                        ",
"                                        ",
"                                        ",
"              3 s c M B A  .w           ",
"          ; h C C C C C B S >.{         ",
"        : x C C ' [ >.+.' C S >.}       ",
"        j C C :.Q 9 $ 6 I %.Z S >.L     ",
"      t C C ;.q           & #.C >.$.    ",
"      d C ] E               8 C C >.=   ",
"      l C ` Y                 l C ) e   ",
"      b C C >.{               f C ) Y   ",
"      o.D D >.$.              s C ' e   ",
"      T >.>.>.|               l C [ -   ",
"        W $.| +             1 C ( &.    ",
"                          : z C >.Q     ",
"                        t c C S &.O     ",
"                    2 h C C >.;.w       ",
"                2 j C C ( >.#.9         ",
"            > g C C ' *.O.K             ",
"          3 n C ~ @. .q                 ",
"        2 N C H O.9                     ",
"      @ x C >.R             @ h B o.O   ",
"      i C ' Y               p C C >.Q   ",
"      l C 4 u c A O.0       a ^ C >.&.  ",
"    @ B m g C C C S :.J     8 &.x >.>.  ",
"    1 C B C C >.) C S ;.q       , C >.o ",
"    3 C C B y & P &.F S =.7     u C :.  ",
"    q C Z $.X     6 $.G C m # < b >.O.  ",
"    5 S S >.!       & O.>.C C C F >.T   ",
"      o.>.>.X.        % ..>._ ~ >.$..   ",
"      7 $.:.Y             T &.:...*     ",
"                                        ",
"                                        ",
"                                        ",
"                                        ",
"                                        "
};
