/* XPM */
static char *_505094014e5420eb43f6e4d7b819a844T7MxbbbPBHLU5cV[] = {
/* columns rows colors chars-per-pixel */
"20 38 98 2 ",
"   c black",
".  c #000519",
"X  c #001C1C",
"o  c #003200",
"O  c #003500",
"+  c #003B00",
"@  c #000322",
"#  c #003232",
"$  c #003838",
"%  c #003D3D",
"&  c #004200",
"*  c #004D00",
"=  c #005D00",
"-  c #006800",
";  c #007100",
":  c #000742",
">  c #000B47",
",  c #000F65",
"<  c #00157A",
"1  c #004949",
"2  c #005A5A",
"3  c #006262",
"4  c #006A6A",
"5  c #006C6C",
"6  c #007373",
"7  c #007575",
"8  c #007979",
"9  c #007F7F",
"0  c #009600",
"q  c #001981",
"w  c #001A87",
"e  c #001B8C",
"r  c #0020A1",
"t  c #0021A8",
"y  c #0039A5",
"u  c #0027BA",
"i  c #0029BE",
"p  c #0028C1",
"a  c #002AC4",
"s  c #002CCE",
"d  c #002DD1",
"f  c #002ED5",
"g  c #002FD8",
"h  c #0030DE",
"j  c #0032E4",
"k  c #0034ED",
"l  c #003CEE",
"z  c #0036F2",
"x  c #0036F4",
"c  c #0037F9",
"v  c #0038FA",
"b  c #0039FE",
"n  c #003EFF",
"m  c #0043FF",
"M  c #0046FF",
"N  c #0048FF",
"B  c #004EFE",
"V  c #0063FF",
"C  c #008A8A",
"Z  c #009393",
"A  c #009B9B",
"S  c #009E9E",
"D  c #00A3A3",
"F  c #00A5A5",
"G  c #00B4B4",
"H  c #00B9B9",
"J  c #00BEBE",
"K  c #0097F7",
"L  c #0091FF",
"P  c #0095FF",
"I  c #009AFF",
"U  c #009CFF",
"Y  c #00A3FF",
"T  c #00A4FF",
"R  c #00ADFF",
"E  c #00B9FF",
"W  c #00BDFF",
"Q  c #00C2C2",
"!  c #00C4C4",
"~  c #00C5C5",
"^  c #00CACA",
"/  c #00CDCD",
"(  c #00D1D1",
")  c #00D7D7",
"_  c #00DADA",
"`  c #00DEDE",
"'  c #00C9FF",
"]  c #00D1FF",
"[  c #00E1E1",
"{  c #00E4E4",
"}  c #00E8E8",
"|  c #00E9E9",
" . c #00EEEE",
".. c #00F1F1",
"X. c #00F7F7",
"o. c #00FAFA",
"O. c #00FBFB",
"+. c cyan",
/* pixels */
"                                        ",
"                                        ",
"                                        ",
"                                        ",
"                                        ",
"      u b b b b b b b b b b b n B { +   ",
"      j b b b b b b b b b b b b m +.;   ",
"      j b b L +.+.+.+.+.R b b m +.}     ",
"      h b x C $           r b m o.6     ",
"      h b ~             , v b +.A       ",
"      j b /           @ j b +.J         ",
"      l m )           i b ] _           ",
"       .+.)         w b b  .&           ",
"      J o.A       > z n o.5             ",
"                  f b L Z               ",
"                t b b b v l Q 1         ",
"              , v m m n M b M ..4       ",
"              i R +.+.+.+.' b m  .O     ",
"              5 ~ S 3 # 8 ) n m +.H     ",
"                            ^ b R ..    ",
"                            % c b +.-   ",
"      t x K G                 g b R 0   ",
"    q b b M +.+               a b E F   ",
"    f b b V +.*               a b U D   ",
"    z b b +.(                 d b T 0   ",
"    b b o.                    k b W ;   ",
"    x b W =                 < b U X.    ",
"    h b Y Q                 h b R /     ",
"    y M b +.A             p b b +.7     ",
"    X } m m b s q . : e h b N +.~       ",
"      3 ..+.b b b b b b b b +.` o       ",
"        2 [ +.Y T T P I T +./ o         ",
"            Z (  .o.o. ./ 9             ",
"                                        ",
"                                        ",
"                                        ",
"                                        ",
"                                        "
};
