/* XPM */
static char *f7afc7e3bac94bf9d09e6adf8c40f9edZ4Lj2DTixvKnOTth[] = {
/* columns rows colors chars-per-pixel */
"20 38 111 2 ",
"   c black",
".  c #00000D",
"X  c #00041C",
"o  c #001C1C",
"O  c #002200",
"+  c #002E00",
"@  c #003500",
"#  c #003B00",
"$  c #003D00",
"%  c #000532",
"&  c #00083D",
"*  c #002626",
"=  c #003232",
"-  c #003535",
";  c #004900",
":  c #004F00",
">  c #005800",
",  c #006200",
"<  c #001246",
"1  c #000B56",
"2  c #001055",
"3  c #001370",
"4  c #00187D",
"5  c #004747",
"6  c #004F4F",
"7  c #005656",
"8  c #005F5F",
"9  c #006969",
"0  c #007A7A",
"q  c #007E7E",
"w  c #008100",
"e  c #009300",
"r  c #001780",
"t  c #001E9A",
"y  c #00209F",
"u  c #0025A3",
"i  c #0021A5",
"p  c #0023A9",
"a  c #0031A0",
"s  c #0024B0",
"d  c #0027BB",
"f  c #0027BD",
"g  c #007382",
"h  c #006CAF",
"j  c #002AC6",
"k  c #002BCE",
"l  c #002DD0",
"z  c #002FDB",
"x  c #003AD7",
"c  c #0033E3",
"v  c #0034E7",
"b  c #0033E8",
"n  c #0035EF",
"m  c #003EEE",
"M  c #0035F1",
"N  c #0037F7",
"B  c #0038F3",
"V  c #0037F9",
"C  c #0038FB",
"Z  c #0039FD",
"A  c #0039FE",
"S  c #003CFF",
"D  c #0040E9",
"F  c #0043FF",
"G  c #0044FF",
"H  c #004AFF",
"J  c #0072FF",
"K  c #007FFF",
"L  c #008080",
"P  c #008686",
"I  c #008A8A",
"U  c #008E8E",
"Y  c #009494",
"T  c #009999",
"R  c #00A2A2",
"E  c #00A8A8",
"W  c #00A9A9",
"Q  c #00ADAD",
"!  c #00B3B3",
"~  c #00B4B4",
"^  c #00BABA",
"/  c #008BFF",
"(  c #0095FF",
")  c #009AFF",
"_  c #009CFF",
"`  c #00A3FF",
"'  c #00A4FF",
"]  c #00A6FF",
"[  c #00ACFF",
"{  c #00B0FF",
"}  c #00B5FF",
"|  c #00C0C0",
" . c #00C4C4",
".. c #00C8C8",
"X. c #00CCCC",
"o. c #00D1D1",
"O. c #00D4D4",
"+. c #00DBDB",
"@. c #00DCDC",
"#. c #00C1FF",
"$. c #00C5FF",
"%. c #00E0E0",
"&. c #00E9E9",
"*. c #00EDED",
"=. c #00EFEF",
"-. c #00E1FF",
";. c #00F1F1",
":. c #00F4F4",
">. c #00FAFA",
",. c #00FBFB",
"<. c cyan",
/* pixels */
"                                        ",
"                                        ",
"                                        ",
"                                        ",
"                                        ",
"      r Z Z Z Z Z Z Z Z Z Z F <.w       ",
"      t Z Z Z Z Z Z Z Z Z Z F <.e       ",
"      t Z Z Z J <.<.<.G -.' F <.e       ",
"      y Z Z ^ O       o 7 ~ G <.E       ",
"      i Z / w               m F |       ",
"      s Z ) ,               %.<.O.      ",
"      d Z ' @               ! >.~       ",
"      j Z >.                            ",
"      l Z =.                            ",
"      z Z g   4 k M Z N c h +           ",
"      b Z a l Z Z Z Z Z Z G =.9         ",
"      N Z Z Z } ) <.' ) ` Z F :.>       ",
"    X Z S S ' %.Y 6 - 0 ..<.F <.+.      ",
"    5 S G <...            E Z Z <.0     ",
"    . ;.<.@.                x Z ' ..    ",
"      5 q +                 P Z $.&.    ",
"                            * Z K <.    ",
"                              M Z <.@   ",
"    % l V +.$                 M Z <.#   ",
"    d Z Z <.!               . Z Z >.    ",
"    v Z Z <.^               3 Z ) =.    ",
"    B Z C o.:               f Z { X.    ",
"    D Z { q               1 N Z <.U     ",
"     .G Z &.;           & c S <.&.      ",
"    8 >.G Z n p < % 2 u M Z H <.L       ",
"      T <.S Z Z Z Z Z Z S H <.Q         ",
"        I ;.<.[ #.<.( [ <.>.R           ",
"          = E @.:.<.:.&.^ 7             ",
"                                        ",
"                                        ",
"                                        ",
"                                        ",
"                                        "
};
