/* XPM */
static char *d6ae673db7bd4fcf8b1ad08f2f57995f9ZOgjhTlMjuWKpz0[] = {
/* columns rows colors chars-per-pixel */
"20 38 95 2 ",
"   c black",
".  c #000905",
"X  c #00000D",
"o  c #000016",
"O  c #00041C",
"+  c #002200",
"@  c #002600",
"#  c #003200",
"$  c #000438",
"%  c #00083D",
"&  c #00133F",
"*  c #003D3D",
"=  c #005A00",
"-  c #007900",
";  c #000B47",
":  c #00094D",
">  c #00144B",
",  c #000D5D",
"<  c #001B5C",
"1  c #001062",
"2  c #00177E",
"3  c #004242",
"4  c #004545",
"5  c #004D4D",
"6  c #006060",
"7  c #006363",
"8  c #006D6D",
"9  c #007171",
"0  c #008100",
"q  c #009600",
"w  c #001780",
"e  c #001A87",
"r  c #001A8D",
"t  c #001D94",
"y  c #001F9B",
"u  c #0023A9",
"i  c #0024AE",
"p  c #0026B6",
"a  c #0026B9",
"s  c #006C92",
"d  c #002AC5",
"f  c #002DD3",
"g  c #0030D9",
"h  c #0032E6",
"j  c #0033E9",
"k  c #0034ED",
"l  c #0039EF",
"z  c #0036F3",
"x  c #003DF2",
"c  c #0038F6",
"v  c #0037F9",
"b  c #0039F8",
"n  c #003BF9",
"m  c #0039FD",
"M  c #003CFF",
"N  c #0040E6",
"B  c #0042F7",
"V  c #0042FF",
"C  c #0047FF",
"Z  c #008D8D",
"A  c #009191",
"S  c #009797",
"D  c #009B9B",
"F  c #009C9C",
"G  c #00A3A3",
"H  c #00A5A5",
"J  c #00A7A7",
"K  c #00AAAA",
"L  c #00ADAD",
"P  c #00B3B3",
"I  c #00B6B6",
"U  c #0082FA",
"Y  c #0095FF",
"T  c #009AFF",
"R  c #00A3FF",
"E  c #00A4FF",
"W  c #00A7FF",
"Q  c #00AFFF",
"!  c #00C1C1",
"~  c #00C3C3",
"^  c #00C5C5",
"/  c #00CECE",
"(  c #00D1D1",
")  c #00D6D6",
"_  c #00D7D7",
"`  c #00C1FF",
"'  c #00D5FF",
"]  c #00E5E5",
"[  c #00EDED",
"{  c #00EEEE",
"}  c #00F0F0",
"|  c #00F6F6",
" . c #00FAFA",
".. c #00FCFC",
"X. c cyan",
/* pixels */
"                                        ",
"                                        ",
"                                        ",
"                                        ",
"                                        ",
"    O j x . y k m N J @     o j v L     ",
"    < m l p m m m m m c a ; ; b C X.#   ",
"    3 m b v M Q X.Q Q m n n m m V X.q   ",
"      b m m _ 7 4 Z _ X.W W ' m V X.F   ",
"      k m { @         8 (  .[ i B X.q   ",
"      j m P                   2 m Q -   ",
"      k m S                   f m U +   ",
"    X m m F                 r m W /     ",
"    , m Y K               1 c m X.9     ",
"    e V ` I             $ j m X.!       ",
"    s X.X.K             f m V ] +       ",
"    5 { } =           u m m | 7         ",
"                    1 m m X.Z           ",
"                    g m Q !             ",
"                  w m m { #             ",
"                  f m Q J               ",
"                % b m X.#               ",
"                t m R ]                 ",
"                d m R ^                 ",
"                h m Q P                 ",
"                z m R J                 ",
"                m m T D                 ",
"              $ m m X.D                 ",
"              : m m X.J                 ",
"              > m m X.K                 ",
"              * V V X.G                 ",
"                | X.X.0                 ",
"                K  ._                   ",
"                                        ",
"                                        ",
"                                        ",
"                                        ",
"                                        "
};
