/* XPM */
static char *b9364475fb884753b4975d17425cbf0daDUt39EenBQaAbLp[] = {
/* columns rows colors chars-per-pixel */
"20 38 104 2 ",
"   c black",
".  c #000016",
"X  c #000519",
"o  c #002200",
"O  c #002600",
"+  c #003500",
"@  c #000322",
"#  c #00062E",
"$  c #000532",
"%  c #000535",
"&  c #000438",
"*  c #00043B",
"=  c #000A3D",
"-  c #002E2E",
";  c #003535",
":  c #003B3B",
">  c #004500",
",  c #004900",
"<  c #007600",
"1  c #000740",
"2  c #001169",
"3  c #00136D",
"4  c #001573",
"5  c #001475",
"6  c #00177F",
"7  c #004F4F",
"8  c #005353",
"9  c #005555",
"0  c #006969",
"q  c #007070",
"w  c #007575",
"e  c #007D7D",
"r  c #001780",
"t  c #001A89",
"y  c #001E93",
"u  c #002783",
"i  c #0021A2",
"p  c #0022AB",
"a  c #0024AE",
"s  c #0027B9",
"d  c #0028BD",
"f  c #002AC3",
"g  c #002BCB",
"h  c #0032C9",
"j  c #002DD0",
"k  c #0030DD",
"l  c #0031DF",
"z  c #0031E2",
"x  c #0034E7",
"c  c #0033E9",
"v  c #0034EB",
"b  c #0035EF",
"n  c #0037F7",
"m  c #003FF4",
"M  c #0037F8",
"N  c #0039FF",
"B  c #003FFF",
"V  c #0040F8",
"C  c #0041FF",
"Z  c #0046FF",
"A  c #004BFF",
"S  c #0055FF",
"D  c #006CFF",
"F  c #007FFF",
"G  c #008383",
"H  c #008484",
"J  c #008A8A",
"K  c #008E8E",
"L  c #009393",
"P  c #009999",
"I  c #00A0A0",
"U  c #00AAAA",
"Y  c #00ABAB",
"T  c #00ACAC",
"R  c #00B2B2",
"E  c #00B5B5",
"W  c #0086E4",
"Q  c #0091FF",
"!  c #009AFF",
"~  c #009CFF",
"^  c #00A3FF",
"/  c #00A7FF",
"(  c #00A8FF",
")  c #00ADFF",
"_  c #00B0FF",
"`  c #00B6FF",
"'  c #00BDFF",
"]  c #00C8C8",
"[  c #00CECE",
"{  c #00D0D0",
"}  c #00D3D3",
"|  c #00D4D4",
" . c #00D7D7",
".. c #00DADA",
"X. c #00DBDB",
"o. c #00DDDD",
"O. c #00E2E2",
"+. c #00EAEA",
"@. c #00ECEC",
"#. c #00F0F0",
"$. c #00F7F7",
"%. c #00F9F9",
"&. c #00FBFB",
"*. c #00FEFE",
/* pixels */
"                                        ",
"                                        ",
"                                        ",
"                                        ",
"                                        ",
"            $ a l n N m  .L             ",
"          5 b N N N N N N Z  .+         ",
"        2 n N N _ ! S ' N C *. .        ",
"        z N N %.T 8 - H W N C *.L       ",
"      r N N *.H         - x C *...      ",
"      s N )  .            y N ^ $.      ",
"      g N ! R             = N B *.O     ",
"      h N / R             * N D *.      ",
"      E N /  .            y N / +.      ",
"      q Z B *.G         % c N *.E       ",
"         ./ N M p @ # u x B C #.,       ",
"        : O.N N N N N N N C $.w         ",
"          . f B N N A N A @.9           ",
"        3 l Z *.*.*.*.*.*.A @.L         ",
"      4 n N *. .H : : e [ *.Z *.U       ",
"    @ v B *.U             I N N %.0     ",
"    i N ) {                 j N / ]     ",
"    l N ' <                 u N ^ #.    ",
"    M N %.                  - N B *.o   ",
"  * N F #.                    N N *.>   ",
"  ; N / *.                  * N ` *.    ",
"    V N Q e                 y N ` #.    ",
"    ..N ) {                 z N ( [     ",
"    P C B *.U             d N N *.G     ",
"      O.Z C N j 6 X 1 t l N A *...      ",
"      8 #.*.N N N N N N N N *.@.>       ",
"        7 o.*./ ^ / ` ~ _ *...>         ",
"            K { #.%.%.#.[ J             ",
"                                        ",
"                                        ",
"                                        ",
"                                        ",
"                                        "
};
