/* XPM */
static char *cc54c2a144454857aaf16f2732e4a5434uV7Qo1AoLPKmHBV[] = {
/* columns rows colors chars-per-pixel */
"70 70 223 2 ",
"   c None",
".  c #391E0C",
"X  c #33251B",
"o  c #362416",
"O  c #3A210E",
"+  c #3C2D23",
"@  c #3F3026",
"#  c #791E0C",
"$  c #45280D",
"%  c #482914",
"&  c #4E3217",
"*  c #52341D",
"=  c #7F2B14",
"-  c #6C391C",
";  c #782E15",
":  c #4A2D24",
">  c #432E25",
",  c #433124",
"<  c #4C3025",
"1  c #4D3529",
"2  c #47372B",
"3  c #5B3C23",
"4  c #53362C",
"5  c #563B2C",
"6  c #5A3C2D",
"7  c #533525",
"8  c #4A3B32",
"9  c #453931",
"0  c #543C32",
"q  c #5B3E31",
"w  c #7B3927",
"e  c #5B422B",
"r  c #4F4137",
"t  c #55453B",
"y  c #5C443C",
"u  c #5A4538",
"i  c #61442B",
"p  c #774529",
"a  c #634534",
"s  c #6B4C32",
"d  c #63463B",
"f  c #634A3E",
"g  c #6A4C3D",
"h  c #664A33",
"j  c #794E35",
"k  c #6D523A",
"l  c #79563A",
"z  c #554944",
"x  c #5C4B43",
"c  c #5F4F4A",
"v  c #5B504B",
"b  c #644C43",
"n  c #6A4E42",
"m  c #664F49",
"M  c #7E4C42",
"N  c #6B5443",
"B  c #63544B",
"V  c #6C534A",
"C  c #665447",
"Z  c #735544",
"A  c #765A45",
"S  c #7B5C43",
"D  c #72564B",
"F  c #755A4C",
"G  c #7B5D4A",
"H  c #695A53",
"J  c #645651",
"K  c #735B53",
"L  c #775E55",
"P  c #7E634D",
"I  c #7A6146",
"U  c #6D625D",
"Y  c #74635C",
"T  c #796558",
"R  c #7B6B63",
"E  c #786965",
"W  c #7B716D",
"Q  c #8A1B0C",
"!  c #971508",
"~  c #971C13",
"^  c #9B0E03",
"/  c #B60904",
"(  c #A6150A",
")  c #B2140A",
"_  c #A5120B",
"`  c #882B19",
"'  c #972519",
"]  c #85301F",
"[  c #882D22",
"{  c #86392A",
"}  c #883932",
"|  c #CA0C06",
" . c #D50402",
".. c #C5130B",
"X. c #E00D08",
"o. c #864838",
"O. c #85573B",
"+. c #83462F",
"@. c #875946",
"#. c #865E52",
"$. c #8B5445",
"%. c #84654B",
"&. c #8D6B4D",
"*. c #876648",
"=. c #936C4C",
"-. c #916A45",
";. c #96724D",
":. c #99734D",
">. c #8D6554",
",. c #856B53",
"<. c #8A6C53",
"1. c #8A6C5B",
"2. c #836756",
"3. c #926D53",
"4. c #926D58",
"5. c #8E7255",
"6. c #86715C",
"7. c #8D725B",
"8. c #937455",
"9. c #9A7554",
"0. c #9C7A55",
"q. c #92755B",
"w. c #9A765B",
"e. c #95795B",
"r. c #9C7C5B",
"t. c #957956",
"y. c #A17C57",
"u. c #A17D5C",
"i. c #846D65",
"p. c #8C7363",
"a. c #89776A",
"s. c #947662",
"d. c #957B64",
"f. c #9B7D63",
"g. c #947D6B",
"h. c #9B7E6A",
"j. c #8B7B74",
"k. c #837772",
"l. c #937D75",
"z. c #947E7A",
"x. c #A27F60",
"c. c #9E815F",
"v. c #A4825E",
"b. c #AA855E",
"n. c #AC885F",
"m. c #9D8165",
"M. c #9C836C",
"N. c #98836D",
"B. c #8C817A",
"V. c #968373",
"C. c #9C8573",
"Z. c #9D8974",
"A. c #99857B",
"S. c #9D8B7B",
"D. c #95857A",
"F. c #A58462",
"G. c #AA8662",
"H. c #A68866",
"J. c #AC8964",
"K. c #A2856B",
"L. c #A5896C",
"P. c #AB8C6B",
"I. c #A88668",
"U. c #B28B64",
"Y. c #B38E6A",
"T. c #AF906E",
"R. c #B4916C",
"E. c #BB946C",
"W. c #B79067",
"Q. c #A48672",
"!. c #A58A74",
"~. c #AA8C73",
"^. c #A38E7B",
"/. c #AA8D79",
"(. c #AD9174",
"). c #A5917D",
"_. c #AC927C",
"`. c #B39373",
"'. c #BA9673",
"]. c #BB9975",
"[. c #B2947D",
"{. c #B5997D",
"}. c #BC9C7B",
"|. c #B79977",
" X c #BEA07E",
".X c #C29B75",
"XX c #C39E7B",
"oX c #C4A17E",
"OX c #998C82",
"+X c #9E9289",
"@X c #8E8480",
"#X c #A49382",
"$X c #AA9683",
"%X c #AC9986",
"&X c #AD9C8B",
"*X c #A4978B",
"=X c #B19683",
"-X c #B49B84",
";X c #B39D8B",
":X c #B99E8B",
">X c #B99D83",
",X c #A59B93",
"<X c #A79C94",
"1X c #A38E83",
"2X c #B4A18E",
"3X c #BCA28C",
"4X c #BDA181",
"5X c #ADA196",
"6X c #ACA39B",
"7X c #B4A394",
"8X c #BBA493",
"9X c #B4A69A",
"0X c #BBAA9D",
"qX c #B9A89A",
"wX c #B5ABA2",
"eX c #BCADA1",
"rX c #C2A281",
"tX c #C3A789",
"yX c #C4AB94",
"uX c #C3AC9B",
"iX c #C5A996",
"pX c #C9B39C",
"aX c #C3AFA1",
/* pixels */
"                                                                                                                                            ",
"                                                                                                                                            ",
"                                                                                                                                            ",
"                                                                                                                                            ",
"                                                                                                                                            ",
"                                                    B.W                                                                                     ",
"                                                  B.a.R T H k e $ * P t.0.v.|. X].(.                                                        ",
"                                                    R C u e e e & e *.r.G.Y.].].}.|.`.(.(.{.$X).                                            ",
"                                                    T e 3 i s s s l t.U..X.X.XXXoXoX.X}.{.{.{.$X%X X                                        ",
"                                                    T k k l S *.;.r.J.'.XXoXXXoXoXoXoXXXoX>X X X X X4X                                      ",
"                                                  N.6.P 5.8.w.u.I.Y.'..XoXoXoXXXoXoXoXrXrXrXrXXX X XoXtXyX                                  ",
"                                                  N.e.r.r.v.G.G.I.Y.'.]..X.X.X.XXXXXoXoXXXrXrX>XoX4XtXpXpXpXpX0X                            ",
"                                                N.N.c.c.y.n.n.G.Y.Y.'.E..XE.E.E..X.XoXoXoXoXXXXX X}.4XtXyXyXpX0X9X7X                        ",
"                                              N.N.m.m.c.n.y.n.U.U.Y.R.W.W.W.W.W..X.X.XXXoXoXrX.X|.|.{.{.-X4X2X3X7X5X,X                      ",
"                                            Z.N.M.m.v.v.n.n.n.n.U.U.Y.Y.W.W.U.W.W..X.X.XoXrXXXY.F.P.(.`.(._._.-X;X%X*X*X                    ",
"                                          S.Z.N.H.m.n.n.n.U.U.U.J.Y.U.U.U.U.W.W.E..X.X.XXX'.G.>.S <.K.L.!./.(.).~.S.S.OX+X                  ",
"                                        S.S.Z.N.H.H.H.n.U.U.U.U.J.J.U.U.U.Y.Y.Y.W..XW..XY.G.3.l 3 a 4.K.K.Q.Q.L.N.p.g.C.S.                  ",
"                                        Z.Z.Z.Z.L.J.J.U.U.U.U.n.n.n.n.J.U.Y.Y.Y.U.W.x.U.x.u.9.l * & G h.h.K.M.m.5.5.7.g.V.D.                ",
"                                      S.Z.Z.M.L.H.P.J.U.n.n.n.n.n.b.J.J.J.U.U.U.U.x.G.u.u.y.w.*.6 % g s.M.K.K.h.e.<.7.s.d.g.                ",
"                                      S.Z.Z.L.H.L.P.Y.J.n.b.y.n.n.n.U.U.J.J.U.G.G.U.x.u.u.x.f.%.s * a p.h.h.h.h.e.5.8.7.7.d.                ",
"                                      Z.!.L.L.H.P.P.J.n.b.v.y.v.J.R.R.J.F.b.G.F.G.U.G.x.v.v.m.q.l 3 e 1.d.h.h.f.q.8.4.<.<.s.                ",
"                                    S.C.Z.M.M.H.m.n.J.v.y.:.:.v.R.].R.H.G.G.b.G.G.G.G.G.F.F.P.F.3.q 6 2.s.s.d.d.q.<.<.,.<.h.                ",
"                                    l.h.h.x.m.8.;.:.y.y.:.;.c.T. X].Y.v.v.v.u.G.G.G.G.n.G.G.P.H.w.l 6 2.s.s.p.7.1.<.%.%.4.~.                ",
"                                    i.>.>.>.*.l p O.-.:.-.0.J. X XR.H.v.v.F.b.b.b.G.G.x.v.G.H.I.f.G i %.s.p.1.<.%.%.@.%.h.-X                ",
"                                  #.M w } p w - - l -.:.:.H.].oXR.v.v.v.v.v.n.v.F.b.F.F.b.G.G.L.m.<.k I e.5.6.P A A G q._.:X                ",
"                                  $.[ ! ! Q ` ; - O.-.;.v.|. XR.v.c.c.v.v.v.v.H.F.G.v.F.v.F.F.I.F.8.%.5.s.7.T I Z A 6.K.-XrX                ",
"                                  } ~ _ / / ! = p *.-.t.T.}.|.H.0.0.v.v.n.v.J.H.F.F.F.v.G.v.F.F.r.8.<.q.d.7.P A F 1.C.[.>X>X                ",
"                                  } ~  . ./ ^ ` O.*.8.L.{.`.H.0.c.c.v.b.H.J.H.F.F.G.x.G.F.F.x.f.r.8.5.e.e.,.I F 7.Z.=X-X[.{.                ",
"                                  $.' |  ./ ~ { O.-.r.(.(.F.t.5.t.c.F.H.H.H.J.J.F.F.F.I.x.x.x.r.w.8.w.f.e.,.P 6.C.$X-X>X{.                  ",
"                                  $.[ ~ ( ~ [ o.&.9.L.(.m.5.*.*.&.8.F.P.P.H.H.H.G.I.x.x.x.x.u.u.w.9.q.w.7.5.7.C._.-X:X{.`.                  ",
"                                  i.M w } o.$.>.s.K.~.L.e.*.l j l <.f.L.L.L.H.H.I.x.x.x.x.u.u.w.9.3.3.w.q.7.N.).-X;X-X{.~.                  ",
"                                D.a.2.#.#.>.>.h././.~.d.%.j p - p @.e.F.H.L.F.G.I.x.x.x.u.u.u.r.9.&.8.f.d.m.Q.$X-X;X-X_.K.                  ",
"                                  z.p.l.h.h.h.=X;X_.h.,.j ; = Q ` +.=.w.x.m.F.F.v.c.v.c.c.y.r.y.w.8.h.K.m.Z.).%X2X4X-X~.m.                  ",
"                                  z.A.1X=Xz.1X:X:X!.s.@.w Q ^ ( ! ` O.3.f.f.v.f.v.v.v.v.v.v.c.r.t.F.L.Q.Z.Z._.%X%X2X4X!.                    ",
"                                  +X1X1X=X=X:X:X-XQ.7.$.] ! ) | ) Q ; j *.&.8.r.c.c.v.c.v.v.0.0.f.K./.^.^.).%X&X2X3X4X!.                    ",
"                                *X*X5X:X8XiX3X>X=Xx.4.O.] ( ..X.| ! # - s I &.0.c.b.b.b.v.y.0.r.N.~.).).).%X&X&X2X3X2X(.                    ",
"                              +X<X9XqXuXiXpXiX=X/.x.s.>.+.~ ) ..) Q w j *.8.t.v.H.H.c.b.c.c.c.c.Q.).).%X%X&X&X2X8X3X3X                      ",
"                            5X5X9X0XeXaXaXaXiX[./.Q.x.4.$.{ ' ' ` { $.9.v.F.H.H.n.H.b.c.c.c.c.N.Z.).).%X&X&X&X2X2X8X8X                      ",
"                          5X6X6XeXeXaXaXiXiX3X[././.!.h.4.$.o.o.O.-.r.I.P.T.P.J.n.H.c.c.c.;.c.Z.).).$X%X&X2X2X2X2X8X                        ",
"                        6X6XwXwXeXeXaXuXiXiX3X[.Q.Q././.h.4.>.>.4.x.H.P.T.T.Y.T.n.c.c.c.5.c.m.Z.).).%X&X2X&X2X2X7X3X                        ",
"                      ,X6XwXwXwXwXeXuXuXiX8X:X/./.!.!.Q.h.x.f.w.w.x./.`.T.T.P.T.H.H.c.c.c.6.N.Z.).$X&X2X2X2X2X2X2X                          ",
"                      ,X+X,X5X5X<X9X0X0XqX:X=X/./.!././.Q.Q.h.f.x.h.I.~.(.P.P.H.H.c.c.t.5.N.N.).$X%X5X7X5X7X7X7X                            ",
"                    @XB.W k.B.D.1X&XqXiXiX=X=X!.!./././.~.Q.L.I.I.P.~.~.T.P.H.F.c.c.t.5.c.c.Z.).&X7X9X9X9X7X7X7X                            ",
"                    W U H J U U R S.;X7X:X=X/.Q.!.!.Q.~.~.~.~.~.~.~.~.~.L.H.F.c.c.c.c.5.c.m.).4X8XqXqX0XqXqX0X                              ",
"                  k.U t t t t t x i.1X&X=X=Xh.h.Q.Q.Q.~.~.~.~.~.~.~.~.L.P.F.m.r.&.c.c.,.c.N.).qX0X0X0X0X0X0X0X                              ",
"                  W v r r r t 2 1 V g./.1XQ.z.x.f.h.K.Q.~.~.L.~.~.Y.L.H.m.c.t.e.c.I 5.5.N.Z.{.8XuX0X0XeXeX0X                                ",
"                  W z + + @ 2 @ , f p.Q.Q.h.x.s.4.q.f.x.L.L.L.L.Q.L.K.K.m.c.e.t.&.c.P 6.N.).2XqX0XeXeXaXeX                                  ",
"                  W z X X X o o 2 C i.g.s.s.4.>.2.<.q.f.h.K.K.m.F.I.F.f.c.e.t.5.c.I c.c.N.).2XqX0XeXeXeX                                    ",
"                  B.z X X X X @ y T s.s.7.1.%.%.@.2.<.q.q.q.q.7.5.t.c.t.t.c.5.5.5.5.d.N.).&X7XqX0X0XeXeX                                    ",
"                  @XJ + X + @ t L a.l.p.1.%.#.S G %.2.<.<.%.%.l s s A P ,.5.,.&.,.5.N.Z.%X2XqX0XeXeXeX                                      ",
"                  @XU 9 + r v T a.z.h.i.G Z Z A A #.%.G S k h 3 & $ e k I P P ,.5.N.Z.).%X7XqX0XeXeX                                        ",
"                    E z r C R B.^.z.p.L N n g Z G G D Z h 6 * % $ . & h I P T p.N.Z.).%X2X8X0X0X0X                                          ",
"                    U J t U g.A.1Xh.2.V d d d D D Z n q 4 % % $ . O 5 k I T N.Z.^.$X&X&X2X9XqX0X                                            ",
"                      m r C i.V.z.p.D d q d d n n d q 5 7 7 5 7 $ & C T 6.V.S.).$X&X&X2X7XqX                                                ",
"                      z + > B T i.L g q q q q q q q a m n m n q , C 6.N.Z.).#X$X&X&X7X                                                      ",
"                    E c + o 1 y m d 6 : : : : 4 y n D #.#.D f f Y N.S.S.OX#X$X$X&X                                                          ",
"                    k.H 9 + > < 0 0 < : : : 4 y V D L K N d D a.Z.S.#X).                                                                    ",
"                    j.H z 0 0 y m q 0 4 : : 4 b D D V b y Y g.OX#X+X                                                                        ",
"                    j.E c x m b b b y 0 < : < y V K V V T z.#X                                                                              ",
"                      E B x m m b b y q q 4 : y K i.i.i.l.                                                                                  ",
"                      W H x t y y y x V V b m E i.z.z.z.                                                                                    ",
"                        R B x y y y m K K E k.z.z.z.                                                                                        ",
"                              H J H E i.i.                                                                                                  ",
"                                                                                                                                            ",
"                                                                                                                                            ",
"                                                                                                                                            ",
"                                                                                                                                            ",
"                                                                                                                                            ",
"                                                                                                                                            ",
"                                                                                                                                            "
};
