/* XPM */
static char *cG91cG91cjE_[] = {
/* columns rows colors chars-per-pixel */
"70 70 222 2 ",
"   c #391E0C",
".  c #33251B",
"X  c #362416",
"o  c #3A210E",
"O  c #3C2D23",
"+  c #3F3026",
"@  c #791E0C",
"#  c #45280D",
"$  c #482914",
"%  c #4E3217",
"&  c #52341D",
"*  c #7F2B14",
"=  c #6C391C",
"-  c #782E15",
";  c #4A2D24",
":  c #432E25",
">  c #423124",
",  c #4C3025",
"<  c #4D3529",
"1  c #47372B",
"2  c #5B3C23",
"3  c #53362C",
"4  c #563B2C",
"5  c #5A3C2D",
"6  c #533525",
"7  c #4A3B32",
"8  c #453931",
"9  c #543C32",
"0  c #5B3E31",
"q  c #7B3926",
"w  c #5B422B",
"e  c #4F4137",
"r  c #55453B",
"t  c #5C443C",
"y  c #5A4538",
"u  c #61442B",
"i  c #774529",
"p  c #634534",
"a  c #6B4C32",
"s  c #63463B",
"d  c #634A3E",
"f  c #6A4C3D",
"g  c #664A33",
"h  c #794E35",
"j  c #6D523A",
"k  c #79563A",
"l  c #554944",
"z  c #5C4B43",
"x  c #5F4F4A",
"c  c #5B504B",
"v  c #644C43",
"b  c #6A4E42",
"n  c #664F49",
"m  c #7E4C42",
"M  c #6B5443",
"N  c #63544B",
"B  c #6C534A",
"V  c #665447",
"C  c #735544",
"Z  c #765A45",
"A  c #7B5C43",
"S  c #72564B",
"D  c #755A4C",
"F  c #7B5D4A",
"G  c #695A52",
"H  c #645651",
"J  c #735B53",
"K  c #775E55",
"L  c #7E624C",
"P  c #7A6146",
"I  c #6D625D",
"U  c #74635C",
"Y  c #796558",
"T  c #7B6B63",
"R  c #786965",
"E  c #7B716D",
"W  c #8A1B0C",
"Q  c #971508",
"!  c #971C13",
"~  c #9B0E03",
"^  c #B60904",
"/  c #A6150A",
"(  c #AB120A",
")  c #882B19",
"_  c #972519",
"`  c #85301F",
"'  c #882D22",
"]  c #86392A",
"[  c #883932",
"{  c #CA0C06",
"}  c #D40402",
"|  c #C4120B",
" . c #E00D08",
".. c #864838",
"X. c #85573B",
"o. c #83462F",
"O. c #875946",
"+. c #865E52",
"@. c #8B5445",
"#. c #83654B",
"$. c #8D6B4D",
"%. c #876648",
"&. c #936C4C",
"*. c #916A45",
"=. c #97724D",
"-. c #8D6554",
";. c #856B53",
":. c #8A6C53",
">. c #8A6C5B",
",. c #836756",
"<. c #926D53",
"1. c #926D58",
"2. c #8E7255",
"3. c #86715C",
"4. c #8D725B",
"5. c #937455",
"6. c #9A7554",
"7. c #9C7A55",
"8. c #92755B",
"9. c #9A765B",
"0. c #95795B",
"q. c #9C7C5B",
"w. c #957956",
"e. c #A17D5C",
"r. c #A17C57",
"t. c #846D65",
"y. c #8C7363",
"u. c #89776A",
"i. c #947662",
"p. c #957B64",
"a. c #9B7D63",
"s. c #947D6B",
"d. c #9B7E6A",
"f. c #8B7B74",
"g. c #837772",
"h. c #937D75",
"j. c #947E7A",
"k. c #A27F60",
"l. c #9E815F",
"z. c #A4825E",
"x. c #AA855E",
"c. c #AC885F",
"v. c #9D8165",
"b. c #9C836C",
"n. c #98836D",
"m. c #8C817A",
"M. c #968373",
"N. c #9C8573",
"B. c #9D8974",
"V. c #99857B",
"C. c #9D8B7B",
"Z. c #94847A",
"A. c #A58462",
"S. c #AA8662",
"D. c #A68866",
"F. c #AC8964",
"G. c #A2856B",
"H. c #A5896C",
"J. c #AB8C6B",
"K. c #A88668",
"L. c #B28B64",
"P. c #B38E6A",
"I. c #AF906E",
"U. c #B4916C",
"Y. c #BB946C",
"T. c #B79067",
"R. c #A48672",
"E. c #A58A74",
"W. c #AA8C73",
"Q. c #A38E7B",
"!. c #AA8D79",
"~. c #AD9174",
"^. c #A5917D",
"/. c #AC927C",
"(. c #B39373",
"). c #BA9673",
"_. c #BB9975",
"`. c #B2947D",
"'. c #B5997D",
"]. c #BC9C7B",
"[. c #B79977",
"{. c #BEA07E",
"}. c #C29B75",
"|. c #C39E7B",
" X c #C4A17E",
".X c #998C82",
"XX c #9E9289",
"oX c #8E8480",
"OX c #A49382",
"+X c #AA9583",
"@X c #AC9986",
"#X c #AD9C8B",
"$X c #A4978B",
"%X c #B19683",
"&X c #B49B84",
"*X c #B39D8B",
"=X c #B99E8B",
"-X c #B99D83",
";X c #A59B93",
":X c #A79C94",
">X c #A38E83",
",X c #B4A18E",
"<X c #BCA28C",
"1X c #BDA181",
"2X c #ADA196",
"3X c #ACA39B",
"4X c #B4A394",
"5X c #BBA493",
"6X c #B4A69A",
"7X c #BBAA9D",
"8X c #B9A89A",
"9X c #B5ABA2",
"0X c #BCADA1",
"qX c #C2A281",
"wX c #C3A789",
"eX c #C4AB94",
"rX c #C3AC9B",
"tX c #C5A996",
"yX c #C9B39C",
"uX c #C3AFA1",
"iX c None",
"pX c black",
/* pixels */
"iXiXiXiXiXiXiXiXiXiXiXiXiXiXiXiXpXpXpXpXpXpXpXpXpXpXpXpXiXiXiXiXiXiXiXiXiXiXiXiXpXpXpXpXpXpXpXpXpXpXpXpXpXpXpXpXpXpXpXpXpXpXpXpXiXiXiXiXiXiX",
"iXiXiXiXiXiXiXiXiXiXiXiXiXiXiXiXpXpXpXpXpXpXpXpXpXpXpXpXiXiXiXiXiXiXiXiXiXiXiXiXpXpXpXpXpXpXpXpXpXpXpXpXpXpXpXpXpXpXpXpXpXpXpXpXiXiXiXiXiXiX",
"iXiXiXiXiXiXiXiXiXiXiXiXiXiXiXiXpXpXpXpXpXpXpXpXpXpXpXpXiXiXiXiXiXiXiXiXiXiXiXiXpXpXpXpXpXpXpXpXpXpXpXpXpXpXpXpXpXpXpXpXpXpXpXpXiXiXiXiXiXiX",
"iXiXiXiXiXiXiXiXiXiXiXiXiXiXiXiXpXpXpXpXpXpXpXpXpXpXpXpXiXiXiXiXiXiXiXiXiXiXiXiXpXpXpXpXpXpXpXpXpXpXpXpXpXpXpXpXpXpXpXpXpXpXpXpXiXiXiXiXiXiX",
"iXiXiXiXiXiXiXiXiXiXiXiXiXiXiXiXpXpXpXpXpXpXpXpXpXpXpXpXpXpXiXiXiXiXiXiXiXiXiXiXpXpXpXpXpXpXpXpXpXpXpXpXpXpXpXpXpXpXpXpXpXpXpXpXiXiXiXiXiXiX",
"iXiXiXiXiXiXiXiXiXiXiXiXiXiXiXiXpXpXpXpXpXpXpXpXpXpXpXpXpXpXiXiXiXiXiXiXiXiXiXiXpXpXm.u.pXpXpXpXpXpXpXpXpXpXpXpXpXpXpXpXpXpXpXpXiXiXiXiXiXiX",
"iXiXiXiXiXiXiXiXiXiXiXiXiXiXiXiXpXpXpXpXpXpXpXpXpXpXpXpX(.].].U.A.7.w.#.& # w j V Y T u.m.pXpXpXpXpXpXpXpXpXpXpXpXpXpXpXpXpXpXpXiXiXiXiXiXiX",
"iXiXiXiXiXiXiXiXiXiXiXiXiXiXiXiXpXpXpXpXpXpX+X/.'.~.~.I.[.]._._.P.A.7.%.w % w w w y V T pXpXpXpXpXpXpXpXpXpXpXpXpXpXpXpXpXpXpXpXiXiXiXiXiXiX",
"pXpXpXpXpXpXpXpXiXiXiXiXiXiXiXiXpXpXpXpX'.1X@X'.'.'._.|. X|.|.|._._.L.<.A a a a u w w Y pXpXpXpXpXpXpXpXpXpXpXpXpXpXpXpXpXpXpXpXiXiXiXiXiXiX",
"pXpXpXpXpXpXpXpXiXiXiXiXiXiXiXiXpXpXpXqX'.1X{.{.qX|. X XqX X|.|. X|._.J.k.<.%.k k j j Y pXpXpXpXpXpXpXpXpXpXpXpXpXpXpXpXpXpXpXpXiXiXiXiXiXiX",
"pXpXpXpXpXpXpXpXiXiXiXiXiXiXiXiXpXeXwXwX1X{.{.{.qXqX X X X X}.|.|.|.}.U.K.K.k.e.2.;.;.3.u.pXpXpXpXpXpXpXpXpXpXpXpXpXpXpXpXpXpXpXiXiXiXiXiXiX",
"pXpXpXpXpXpXpXpXiXiXiXiXiXiX7XyXyXyXeXwXqX X{.qXqX X X X|.|.}.}.}.}.}.).P.L.K.k.z.l.w.l.n.pXpXpXpXpXpXpXpXpXpXpXpXpXpXpXpXpXpXpXiXiXiXiXiXiX",
"pXpXpXpXpXpXpXpXpXpXpXpX2X8XrXrXrXeXwX{.|.-X|.qX|. X X|.}.}.T.}.}.}.}.T.P.L.L.x.z.l.l.v.n.n.pXpXpXpXpXpXpXpXpXpXpXpXpXpXpXpXpXpXiXiXiXiXiXiX",
"pXpXpXpXpXpXpXpXpXpXpX#X2X4X5X<X-X-X'.'.).).'.qXqX X X|.}.}.T.T.T.T.T.P.P.P.S.c.x.x.z.l.v.n.B.pXpXpXpXpXpXpXpXpXpXpXpXpXpXpXpXpXiXiXiXiXiXiX",
"pXpXpXpXpXpXpXpXpXpXXX$X$X&X@X'./.~.~.~.K.K.P.].|.|.|.}.}.T.T.T.L.L.T.T.L.L.L.S.c.c.c.l.v.v.B.B.pXpXpXpXpXpXpXpXpXpXpXpXpXpXpXpXiXiXiXiXiXiX",
"pXpXpXpXpXpXpXpXpXXXXXC.B.Q.Q.~.W.E.J.b.-.O.&.S._.|.|.}.}.T.T.P.L.T.L.L.L.L.L.S.c.c.c.c.D.v.n.B.C.pXpXpXpXpXpXpXpXpXpXpXpXpXpXpXiXiXiXiXiXiX",
"pXpXpXpXpXpXpXpXiXC.V.s.4.n.b.H.R.G.k.y.s 2 h 6.S.Y.U.U.Y.Y.P.P.P.I.L.L.L.c.c.L.L.L.c.F.D.b.n.B.C.B.pXpXiXiXiXiXiXiXiXiXiXiXiXiXiXiXiXiXiXiX",
"pXpXpXpXpXpXpXpXM.M.n.4.2.2.v.G.G.b.a.D % 6 X.<.e.e.S.L.P.P.P.P.L.L.F.c.c.c.L.c.L.L.L.F.F.D.H.B.B.B.pXpXiXiXiXiXiXiXiXiXiXiXiXiXiXiXiXiXiXiX",
"pXpXpXpXpXpXpXpXh.p.8.4.2.8.v.b.b.b.i.f # w #.9.e.r.e.x.L.L.L.L.L.F.L.c.x.x.x.x.c.c.F.F.J.J.H.B.B.B.^.pXiXiXiXiXiXiXiXiXiXiXiXiXiXiXiXiXiXiX",
"pXpXpXpXpXpXpXpXi.>.8.5.2.0.n.d.d.d.i.s % a -.9.e.e.z.A.k.L.S.S.F.F.L.L.c.x.x.x.x.c.F.F.I.D.H.H.E.B.C.pXiXiXiXiXiXiXiXiXiXiXiXiXiXiXiXiXiXiX",
"pXpXpXpXpXpXpXpXp.:.:.2.5.8.a.d.p.i.>.u 2 A 5.k.A.z.x.F.F.F.S.A.S.F.F.U.P.F.z.r.r.x.c.L.J.J.D.D.H.B.C.iXiXiXiXiXiXiXiXiXiXiXiXiXiXiXiXiXiXiX",
"pXpXpXpXpXpXpXpXv.-.-.-.:.8.p.p.i.p.,.5 p -.G.K.D.x.z.S.S.A.x.x.x.A.A.U._.U.z.7.=.r.e.S.D.z.D.b.b.B.N.E.iXiXiXiXiXiXiXiXiXiXiXiXiXiXiXiXiXiX",
"pXpXpXpXpXpXpXpXW.1.%.%.-.:.4.i.i.p.,.5 k 8.K.J.x.z.x.S.x.S.A.x.z.D.x.I.].{.P.e.=.=.r.r.=.=.5.q.v.d.s.h.iXiXiXiXiXiXiXiXiXiXiXiXiXiXiXiXiXiX",
"pXpXpXpXpXpXpXpX&Xd.#.F L ;.;.4.y.p.L u L a.G.K.D.z.D.x.S.A.z.z.z.z.z.x.U.].].L.r.=.=.*.X.i h %.-.:.-.t.iXiXiXiXiXiXiXiXiXiXiXiXiXiXiXiXiXiX",
"pXpXpXpXpXpXpXpX<X~.8.F Z A L ;.>.i.L j -.v.D.S.A.x.x.A.x.A.A.x.z.z.z.l.x.U.{.[.A.6.=.*.k = = i [ q q m +.pXpXpXiXiXiXiXiXiXiXiXiXiXiXiXiXiX",
"pXpXpXpXpXpXpXpXwX&XR.>.Z Z D ;.4.0.$.#.5.G.G.A.A.A.A.x.A.A.A.S.z.D.z.l.l.z.Y.{.[.l.&.*.X.i - W ! ! ! ' @.pXpXpXiXiXiXiXiXiXiXiXiXiXiXiXiXiX",
"pXpXpXpXpXpXpXpX-X'./.N.3.D Z L 4.p.4.$.5.k.A.A.A.A.A.z.A.A.A.A.A.x.z.z.7.l.z.{.{.I.7.*.%.i ) Q ~ ^ ^ ! [ pXpXpXiXiXiXiXiXiXiXiXiXiXiXiXiXiX",
"pXpXpXpXpXpXpXpX'.'.-X%XB.3.D L ;.0.0.5.5.9.k.k.z.A.A.A.A.A.F.S.F.D.z.z.l.l.l.v.(.[.G.2.*.h ) Q ^ } } ! [ pXpXpXiXiXiXiXiXiXiXiXiXiXiXiXiXiX",
"pXpXpXpXpXpXpXpXiX'.-X&X+Xb.3.L ;.8.a.5.6.9.e.k.A.e.A.A.A.K.S.S.D.F.A.z.l.l.$.l.D.~.~.q.$.X.] Q ^ } { _ [ pXpXpXiXiXiXiXiXiXiXiXiXiXiXiXiXiX",
"pXpXpXpXpXpXpXpXiX~.&X-X&X+Xb.4.2.4.0.9.5.9.9.e.k.k.k.A.k.K.K.F.F.J.J.v.=.$.%.P 2.v.~.G.0.$...' ! ( ! [ O.iXpXpXiXiXiXiXiXiXiXiXiXiXiXiXiXiX",
"pXpXpXpXpXpXpXpXiXW.`.&X*X&X^.n.4.8.0.<.<.9.9.e.e.k.A.k.A.A.K.K.D.J.D.v.&.k k k #.w.G.~.G.p.-.@.[ [ [ m >.iXiXiXiXiXiXiXiXiXiXiXiXiXiXiXiXiX",
"pXpXpXpXpXpXpXpXiXG.`.&X*X&X+XE.n.p.q.5.&.6.e.e.9.e.k.A.k.A.A.K.G.H.D.q.X.i = = h %.p.!.!.W.d.>.-.+.K +.u.Z.iXiXiXiXiXiXiXiXiXiXiXiXiXiXiXiX",
"iXiXiXiXiXiXiXiXiXv.W.&X,X'.+X^.b.v.b.v.5.7.7.7.z.l.l.z.l.c.l.l.v.v.9.&.o.) W @ - h >.d.+X&X!.d.d.d.h.u.M.iXiXiXiXiXiXiXiXiXiXiXiXiXiXiXiXiX",
"iXiXiXiXiXiXiXiXiXiXW.&X1X,X#X+XC.B.H.R.a.q.q.l.l.x.l.l.l.l.l.l.v.q.&.X.) Q / Q W q O.i.!.=X=X>X>X!.Q.V.Z.iXiXiXiXiXiXiXiXiXiXiXiXiXiXiXiXiX",
"iXiXiXiXiXiXiXiXiXiXW.,X,X,X#X@X^.Q.!.W.R.v.l.w.l.z.z.z.z.l.l.$.:.%.i q Q ( { ^ Q ` @.1.R.%X<X=X%X%X>X>XXXiXpXpXiXiXiXiXiXiXiXiXiXiXiXiXiXiX",
"iXiXiXiXiXiXiXiXiXiXW.<X<X,X#X#X@X^.^.^.E.b.l.=.z.z.z.c.z.z.l.*.P a = @ Q |  .| ~ ` @.i.k.%X=X5X5X5X4X4X#X$XpXpXiXiXiXiXiXiXiXiXiXiXiXiXiXiX",
"iXiXiXiXiXiXiXiXiXiXiX<X<X5X,X#X#X@X+X^.^.B.l.l.z.z.z.x.D.l.l.l.5.#.h ' W ( | ( ! [ O.i.k.!.%XtXuXrXuXrX2X:X:XpXiXiXiXiXiXiXiXiXiXiXiXiXiXiX",
"iXiXiXiXiXiXiXiXiXiXiX<X5X,X,X,X#X#X+X+X^.B.n.l.=.l.z.x.D.c.c.D.A.k.6.@.] ) _ _ [ @.8.k.!.W.%X<XtXyXuXuX0X6X:X:XiXiXiXiXiXiXiXiXiXiXiXiXiXiX",
"iXiXiXiXiXiXiXiXiXiXiXiX5X,X,X,X,X,X@X+X^.^.n.v.=.l.l.z.D.c.I.c.J.W.K.k.*...X...@.i.k.!.W.!.`.=XtXtXuXuX0X9X9X:X:XiXiXiXiXiXiXiXiXiXiXiXiXiX",
"iXiXiXiXiXiXiXiXiXiXiXiX,X,X,X,X#X#X#X$X^.^.B.l.w.l.l.l.D.c.I.I.U.U.!.k.k.<.<.&.1.k.R.!.d.W.%X=XtXuXuXuXuX9X9X9X3X3XiXiXiXiXiXiXiXiXiXiXiXiX",
"iXiXiXiXiXiXiXiXiXiXiXiXiX,X,X,X,X#X#X#X@X^.Q.n.l.3.l.l.l.l.I.I.I.I.J.H.k.p.a.i.d.G.E.!.R.!.!.=X<XeXrXrX7X7X9X9X9X3X;XiXiXiXiXiXiXiXiXiXiXiX",
"iXiXiXiXiXiXiXiXiXiXiXiXiXiX4X5X4X4X2X,X#X^.^.B.l.3.3.l.l.D.D.D.J.~.J.W.G.k.k.d.G.R.R.!.!.!.!.%X<X7XrX7X4X2X2X2X:XXX;XpXiXiXiXiXiXiXiXiXiXiX",
"iXiXiXiXiXiXiXiXiXiXiXiXiXiX4X4X4X6X4X6X5X#X/.B.l.l.l.2.l.l.l.D.D.~.~.J.J.H.G.G.H.W.!.!.!.!.!.!.*X5X7X8X#X.XZ.m.g.g.m..XiXiXiXiXiXiXiXiXiXiX",
"iXiXiXiXiXiXiXiXiXiXiXiXiXiXiX8X7X7X7X7X4X<X,X~.n.l.L l.l.l.l.l.H.J.J.W.W.W.J.W.W.W.!.R.R.!.R.!.%X=X4X#XC.T I G N H I E iXiXiXiXiXiXiXiXiXiX",
"iXiXiXiXiXiXiXiXiXiXiXiXiXiXiX7X7X7X7X0X0XeX<X+Xn.l.2.l.$.l.w.l.v.D.J.~.~.W.W.W.W.W.E.R.R.G.G.R.!.%X%X>XT d r r l l l G g.iXiXiXiXiXiXiXiXiX",
"iXiXiXiXiXiXiXiXiXiXiXiXiXiXiXiX0X0X0XrX0X7X4X&XB.v.l.L 2.2.w.l.l.D.H.D.W.J.J.W.W.W.R.R.k.i.d.d.R.+X!.h.D 1 e e e e + c E iXiXiXiXiXiXiXiXiX",
"iXiXiXiXiXiXiXiXiXiXiXiXiXiXiXiXiX0X0X0X7X7X8X,XC.n.l.2.2.2.w.l.l.v.v.D.H.J.H.H.H.H.b.a.i.4.8.p.d.N.R.y.d > O O + O O l E iXiXiXiXiXiXiXiXiX",
"iXiXiXiXiXiXiXiXiXiXiXiXiXiXiXiXiXiX0X0X0X7X8X,X^.n.n.l.2.2.2.w.0.l.v.v.G.v.v.G.k.d.a.8.:.-.-.2.i.i.s.y.V 1 . . . . O l g.iXiXiXiXiXiXiXiXiX",
"iXiXiXiXiXiXiXiXiXiXiXiXiXiXiXiXiXiX0X0X0X7X8X5X#X^.b.p.2.2.2.2.5.0.0.0.8.4.5.8.i.8.8.:.#.+.#.#.:.>.p.y.Y t > . . . . l oXiXiXiXiXiXiXiXiXiX",
"iXiXiXiXiXiXiXiXiXiXiXiXiXiXiXiXiXiXiX0X0X0X7X8X,X+XB.n.2.;.;.;.2.2.#.A j a k P #.-.:.,.#.F A +.,.,.i.s.u.Y r 1 O . O H oXiXiXiXiXiXiXiXiXiX",
"iXiXiXiXiXiXiXiXiXiXiXiXiXiXiXiXiXiXiXiX0X0X7X8X5X#X^.n.v.3.;.L #.L k 2 # % 2 a k Z +.#.F F C C Z F t.s.M.u.Y z 7 + 1 I oXiXiXiXiXiXiXiXiXiX",
"iXiXiXiXiXiXiXiXiXiXiXiXiXiXiXiXiXiXiXiXiX7X7X7X4X,X@X^.Q.n.y.L L Z u %   # $ 6 5 p j S F D m f f C K u.V.V.f.T V e l I iXiXiXiXiXiXiXiXiXiX",
"iXiXiXiXiXiXiXiXiXiXiXiXiXiXiXiXiXiXiXiXiXiX0X7X6X,X#X#X+X^.M.s.T P j w o   # # $ 2 y s B S S b s s b >.h.>X.Xh.J l N R iXiXiXiXiXiXiXiXiXiX",
"iXiXiXiXiXiXiXiXiXiXiXiXiXiXiXiXiXiXiXiXiXiXiXiX4X2X,X,X#X+X^.C.n.3.Y V > o 2 4 , 6 5 0 s m b s s 0 s S y.h.V.t.N 7 x iXiXiXiXiXiXiXiXiXiXiX",
"iXiXiXiXiXiXiXiXiXiXiXiXiXiXiXiXiXiXiXiXiXiXiXiXpXpXpX,X#X#X+XOXC.B.n.T M 1 0 b b b f s 0 0 0 0 5 5 5 v K t.,.N : O l iXiXiXiXiXiXiXiXiXiXiX",
"iXiXiXiXiXiXiXiXiXiXiXiXiXiXiXiXiXiXiXiXiXiXiXiXpXpXpXpXiX#X$X+XXX^.^.B.u.Y v s J Y +.S n 0 3 ; , ; , 5 s b t , X O x R iXiXiXiXiXiXiXiXiXiX",
"iXiXiXiXiXiXiXiXiXiXiXiXiXiXiXiXiXiXiXiXiXiXiXiXiXiXiXiXiXiXiXiXpXpXOXOX^.B.u.V s B K K J b t 3 ; ; ; < 4 9 < O O < G E pXpXpXpXiXiXiXiXiXiX",
"iXiXiXiXiXiXiXiXiXiXiXiXiXiXiXiXiXiXiXiXiXiXiXiXiXiXiXiXiXiXiXiXpXpXpXpXXXOXC.n.J v s B S S n 3 ; ; 3 9 d v t 9 9 l J f.pXpXpXpXiXiXiXiXiXiX",
"iXiXiXiXiXiXiXiXiXiXiXiXiXiXiXiXiXiXiXiXiXiXiXiXiXiXiXiXiXiXiXiXpXpXpXpXiXiXiXOXh.Y B J J n t < ; , 9 9 v v v n z n R g.pXpXpXpXiXiXiXiXiXiX",
"iXiXiXiXiXiXiXiXiXiXiXiXiXiXiXiXiXiXiXiXiXiXiXiXiXiXiXiXiXiXiXiXpXpXpXpXiXiXiXiXiXh.t.t.t.J 9 ; 9 0 s t t v n n z n R iXpXpXpXpXiXiXiXiXiXiX",
"iXiXiXiXiXiXiXiXiXiXiXiXiXiXiXiXiXiXiXiXiXiXiXiXiXiXiXiXiXiXiXiXiXiXiXiXiXiXiXiXpXpXj.j.j.u.R n z B B t 9 t z 9 z G E pXpXpXpXpXiXiXiXiXiXiX",
"iXiXiXiXiXiXiXiXiXiXiXiXiXiXiXiXiXiXiXiXiXiXiXiXiXiXiXiXiXiXiXiXiXiXiXiXiXiXiXiXpXpXpXpXj.j.j.g.R J J n t z t z N E pXpXpXpXpXpXiXiXiXiXiXiX",
"iXiXiXiXiXiXiXiXiXiXiXiXiXiXiXiXiXiXiXiXiXiXiXiXiXiXiXiXiXiXiXiXiXiXiXiXiXiXiXiXpXpXpXpXpXpXpXpXpXg.t.R G B G iXiXiXpXpXpXpXpXpXiXiXiXiXiXiX",
"iXiXiXiXiXiXiXiXiXiXiXiXiXiXiXiXiXiXiXiXiXiXiXiXiXiXiXiXiXiXiXiXiXiXiXiXiXiXiXiXpXpXpXpXpXpXpXpXpXpXpXpXiXiXiXiXiXiXpXpXpXpXpXpXiXiXiXiXiXiX",
"iXiXiXiXiXiXiXiXiXiXiXiXiXiXiXiXiXiXiXiXiXiXiXiXiXiXiXiXiXiXiXiXiXiXiXiXiXiXiXiXiXiXiXiXiXiXiXiXiXiXiXiXiXiXiXiXiXiXiXiXiXiXiXiXiXiXiXiXiXiX",
"iXiXiXiXiXiXiXiXiXiXiXiXiXiXiXiXiXiXiXiXiXiXiXiXiXiXiXiXiXiXiXiXiXiXiXiXiXiXiXiXiXiXiXiXiXiXiXiXiXiXiXiXiXiXiXiXiXiXiXiXiXiXiXiXiXiXiXiXiXiX",
"iXiXiXiXiXiXiXiXiXiXiXiXiXiXiXiXiXiXiXiXiXiXiXiXiXiXiXiXiXiXiXiXiXiXiXiXiXiXiXiXiXiXiXiXiXiXiXiXiXiXiXiXiXiXiXiXiXiXiXiXiXiXiXiXiXiXiXiXiXiX",
"iXiXiXiXiXiXiXiXiXiXiXiXiXiXiXiXiXiXiXiXiXiXiXiXiXiXiXiXiXiXiXiXiXiXiXiXiXiXiXiXiXiXiXiXiXiXiXiXiXiXiXiXiXiXiXiXiXiXiXiXiXiXiXiXiXiXiXiXiXiX",
"iXiXiXiXiXiXiXiXiXiXiXiXiXiXiXiXiXiXiXiXiXiXiXiXiXiXiXiXiXiXiXiXiXiXiXiXiXiXiXiXiXiXiXiXiXiXiXiXiXiXiXiXiXiXiXiXiXiXiXiXiXiXiXiXiXiXiXiXiXiX",
"iXiXiXiXiXiXiXiXiXiXiXiXiXiXiXiXiXiXiXiXiXiXiXiXiXiXiXiXiXiXiXiXiXiXiXiXiXiXiXiXiXiXiXiXiXiXiXiXiXiXiXiXiXiXiXiXiXiXiXiXiXiXiXiXiXiXiXiXiXiX"
};
