/* XPM */
static char *_1e7dba18b924016ca8da3633cf21937DW88oB8NYeXHV5Xz[] = {
/* columns rows colors chars-per-pixel */
"70 70 227 2 ",
"   c None",
".  c #391C08",
"X  c #2B1910",
"o  c #2E2115",
"O  c #372619",
"+  c #3E2408",
"@  c #3B2D23",
"#  c #3F3127",
"$  c #45240B",
"%  c #482916",
"&  c #512F15",
"*  c #54351D",
"=  c #513113",
"-  c #4F301D",
";  c #7A210A",
":  c #782C16",
">  c #6E3719",
",  c #75341B",
"<  c #663012",
"1  c #452B22",
"2  c #4A2D23",
"3  c #402E29",
"4  c #4B332A",
"5  c #493528",
"6  c #553A2D",
"7  c #5A3C2F",
"8  c #563926",
"9  c #4B3C33",
"0  c #483C37",
"q  c #5A3E33",
"w  c #553C33",
"e  c #7B3928",
"r  c #7D362A",
"t  c #771605",
"y  c #6A411D",
"u  c #5B432A",
"i  c #5C4236",
"p  c #54433A",
"a  c #5D443B",
"s  c #58473A",
"d  c #66462B",
"f  c #79512C",
"g  c #62463B",
"h  c #65483C",
"j  c #684A35",
"k  c #774C33",
"l  c #6C533B",
"z  c #74543B",
"x  c #79563A",
"c  c #76452A",
"v  c #5C4C43",
"b  c #574843",
"n  c #644C43",
"m  c #6A4F45",
"M  c #6D5344",
"N  c #64534B",
"B  c #6C544A",
"V  c #6C5A4B",
"C  c #675244",
"Z  c #725443",
"A  c #745B45",
"S  c #7B5B45",
"D  c #745A4A",
"F  c #7C5C4B",
"G  c #71554A",
"H  c #6A5954",
"J  c #745B52",
"K  c #765F59",
"L  c #7D624C",
"P  c #7F6043",
"I  c #6D6258",
"U  c #7B6254",
"Y  c #72635B",
"T  c #7B635B",
"R  c #7D6B59",
"E  c #786A65",
"W  c #7D726A",
"Q  c #970E03",
"!  c #8D1A0A",
"~  c #881807",
"^  c #941409",
"/  c #901A11",
"(  c #A70C03",
")  c #B50804",
"_  c #A7120A",
"`  c #B41209",
"'  c #A21E12",
"]  c #892719",
"[  c #932014",
"{  c #833829",
"}  c #8B2A24",
"|  c #C70803",
" . c #CC100A",
".. c #E70604",
"X. c #854937",
"o. c #86553D",
"O. c #824128",
"+. c #865947",
"@. c #86574E",
"#. c #826245",
"$. c #83644C",
"%. c #8B654B",
"&. c #856A4E",
"*. c #8C6B4C",
"=. c #8C6644",
"-. c #946C49",
";. c #97724D",
":. c #856B54",
">. c #8B6D54",
",. c #826D5B",
"<. c #8B6C5B",
"1. c #886656",
"2. c #926D54",
"3. c #906B57",
"4. c #8D7255",
"5. c #8D735C",
"6. c #83715D",
"7. c #937455",
"8. c #9A7553",
"9. c #957957",
"0. c #9C7A54",
"q. c #93745B",
"w. c #9A755A",
"e. c #957A5B",
"r. c #9C7C5C",
"t. c #A17D5C",
"y. c #A07E57",
"u. c #856D67",
"i. c #827467",
"p. c #8C7465",
"a. c #8A756C",
"s. c #887869",
"d. c #927661",
"f. c #957A63",
"g. c #9B7D63",
"h. c #947C6C",
"j. c #9B7E6A",
"k. c #90756B",
"l. c #8E7A72",
"z. c #877874",
"x. c #957E74",
"c. c #A27F60",
"v. c #9F815E",
"b. c #A4825E",
"n. c #AA855E",
"m. c #AE895F",
"M. c #B0895F",
"N. c #9D8164",
"B. c #9C836B",
"V. c #98846D",
"C. c #8B817A",
"Z. c #958273",
"A. c #9B8673",
"S. c #9D8974",
"D. c #968579",
"F. c #9A847C",
"G. c #9D8B7B",
"H. c #A58462",
"J. c #AA8662",
"K. c #A78964",
"L. c #AC8964",
"P. c #A3856B",
"I. c #A5896C",
"U. c #AA8B6B",
"Y. c #A88568",
"T. c #B28B64",
"R. c #B38D69",
"E. c #AF906E",
"W. c #B5916C",
"Q. c #BA936C",
"!. c #B89067",
"~. c #A38672",
"^. c #A58A73",
"/. c #AA8C73",
"(. c #A48D79",
"). c #A98D79",
"_. c #AD9175",
"`. c #A5917D",
"'. c #AB927C",
"]. c #B39473",
"[. c #BB9674",
"{. c #BC9975",
"}. c #B3967C",
"|. c #B4997D",
" X c #BC9C7B",
".X c #B79876",
"XX c #BFA17F",
"oX c #C29B75",
"OX c #C39E7B",
"+X c #C4A17E",
"@X c #C8A07A",
"#X c #978C84",
"$X c #9D9189",
"%X c #8F8581",
"&X c #A18E81",
"*X c #A59382",
"=X c #AB9583",
"-X c #AD9984",
";X c #AD9B8A",
":X c #A5988C",
">X c #B29682",
",X c #B39A84",
"<X c #B99E84",
"1X c #B39E8B",
"2X c #BA9E8B",
"3X c #AA9E93",
"4X c #A59C94",
"5X c #B09F90",
"6X c #B4A18E",
"7X c #BBA18D",
"8X c #AEA399",
"9X c #B4A393",
"0X c #BBA492",
"qX c #B4A69B",
"wX c #BAA799",
"eX c #BBAA9D",
"rX c #B6A99D",
"tX c #BCADA1",
"yX c #B6ABA3",
"uX c #C3A382",
"iX c #C4A98C",
"pX c #C2A694",
"aX c #C3AC9B",
"sX c #C6AD97",
"dX c #CAB49C",
"fX c #C2AFA2",
"gX c #CDB1A0",
/* pixels */
"                                                                                                                                            ",
"                                                                                                                                            ",
"                                                                                                                                            ",
"                                                                                                                                            ",
"                                                                                                                                            ",
"                                                                                                                                            ",
"                                              C.C.i.s.R V u + = &.9.9.H.W.{.XXE.I.I.                                                        ",
"                                              C.W I V u j u + = S r.J.R.{.XX{.XX.X_.].|.|.-X}.|.                                            ",
"                                                R s * u d d d j =.J.[.{.OXuX+XuXOX XOX7X<X X X XXXXX                                        ",
"                                                R u u j j x #.w.J.[.OXOX@X@XuX@XuX+X+X+XOX<X7XXX7XiXsXdX                                    ",
"                                                W z x &.*.9.c.U.W.oXOX@X@X@XOXOX+X+X+XXXuXOXuXuX+XiXdXdXdXtXrX                              ",
"                                                6.4.e.r.J.K.Y.R.Q.oXoXOXoXoXoXoX@X+X+X+XuXOX X XXXiX0XsXsXsXeX8X8X                          ",
"                                              V.N.v.v.v.b.J.L.R.Q.[.oXQ.Q.Q.!.oXOX+XuXOXuXOX{.{.XX.X|.|.-X6X7X9X:X:X                        ",
"                                            V.V.N.v.v.v.n.n.T.R.R.W.Q.!.!.!.!.oXoXOXOXOXuXOXR.U.E.E._.'.|.'.|.*X*X$X$X                      ",
"                                          S.V.V.v.b.b.n.M.M.T.T.R.R.!.T.T.!.!.oXoXoXOXOX[.c.%.S f.I.I.(._.^.^.B.V.A.G.$X                    ",
"                                          S.V.K.N.b.m.m.M.L.L.T.R.T.T.R.!.T.!.Q.oXoXoX[.c.-.c - z N.I.B.I.S.N.5.6.f.A.D.D.                  ",
"                                        S.Z.V.K.J.n.T.T.T.T.M.L.T.T.L.R.R.R.!.W.Q.!.T.c.t.*.k $ 2 1.j.B.P.B.g.4.&.5.f.h.x.                  ",
"                                      G.S.S.S.I.J.J.M.M.T.M.T.J.m.J.T.R.R.R.R.R.J.t.t.t.t.2.S * + Z j.P.P.B.j.q.4.7.5.q.k.                  ",
"                                      G.S.S.I.K.Y.T.T.M.M.M.M.n.n.m.L.L.T.T.L.T.c.c.t.t.t.w.#.d $ j k.j.j.j.j.q.>.q.<.>.f.                  ",
"                                    G.S.S.B.I.I.U.T.T.M.n.n.n.n.m.L.T.L.L.K.J.n.T.T.J.t.c.c.>.z 8 7 p.f.f.j.g.q.7.>.%.>.j.                  ",
"                                    G.S.S.I.K.U.U.R.L.n.b.b.b.m.W.W.L.m.J.J.n.J.T.T.c.t.H.I.P.&.7 8 :.f.f.f.d.7.>.&.$.>.I.                  ",
"                                    G.~.I.B.K.U.L.K.J.t.;.0.v.R..XW.K.n.b.n.J.J.c.T.n.J.J.U.I.q.x * U f.p.5.5.<.&.#.+.q.>X                  ",
"                                  G.S.A.B.K.K.K.n.n.n.;.;.;.K.XX+XU.J.b.b.b.n.J.J.J.J.n.J.K.U.r.%.8 +.f.5.<.:.$.F S %.~.7X                  ",
"                                  D.x.j.B.N.7.#.-.;.;.;.;.n..X+X.XK.b.b.b.b.H.b.H.J.J.t.J.K.Y.P.2.j S e.5.:.L A Z S d.}.iX                  ",
"                                  p.1.3.3.%.k y f -.-.-.0.W.+X{.K.b.b.b.b.b.b.K.b.n.H.H.H.J.Y.P.e.#.:.e.5.:.L l A <.).}.<X                  ",
"                                p.@.r { { c , < f -.-.;.K.XXXXK.v.0.b.b.b.K.n.K.H.J.H.b.H.b.P.c.e.*.7.f.e.:.Z D p.(.,X}.|.                  ",
"                                @.r / / ^ ~ ; > x =.-.b..XXXW.v.0.v.b.b.J.J.K.H.H.H.H.H.H.H.H.t.w.7.e.e.5.L A ,.S.>X<X<X}.                  ",
"                                @.] Q ) ) Q ~ , =.=.4.E.XX.Xv.9.b.b.b.n.K.K.K.J.J.c.H.Y.c.t.c.r.w.7.e.v.6.L :.B.=X1X<X|.E.                  ",
"                                X./ ) ..| ) ! O.=.=.v.|.].P.9.9.v.v.J.K.K.K.K.K.H.H.H.c.c.c.t.w.8.7.w.e.5.:.V.`.1X1X,X}.I.                  ",
"                                @.} ` ..| _ [ X.=.;.I._.N.4.*.*.7.r.P.U.U.K.Y.L.Y.c.c.c.t.t.t.0.w.%.7.g.q.e.^.-X1X,X,X_.c.                  ",
"                                @.X./ _ _ } { +.4.g._.I.7.#.x x #.7.P.U.I.K.Y.Y.c.Y.c.c.t.t.t.w.8.%.w.g.f.B.`.-X,X,X>X/.                    ",
"                                l.@.r r r r @.3.B.^._.N.&.x c > c &.r.I.I.H.P.J.c.c.c.c.t.t.t.w.w.7.P.B.V.^.'.,X,X7X,X^.                    ",
"                                x.u.F F @.3.d.x.>X).~.>.x , : ; , X.8.g.P.N.P.b.b.b.v.b.y.b.v.r.w.N.^.^.V.`.-X;X6X6X6XK.                    ",
"                                  l.u.k.j.x.j.>X0X).d.S e ~ ~ ^ ! } +.7.w.r.r.b.v.v.b.b.b.y.0.r.g.I.'.(.`.*X-X;X6X7X7XI.                    ",
"                                  F.x.&X=X&X>X2X2X~.2.+.: Q `  .` ! , f P *.7.9.v.b.b.b.b.y.0.r.N.).'.`.`.;X;X6X6X0X7X.X                    ",
"                                  #X&X=X>X>X2X7X>XP.>.x ] (  ...| ^ t < d P *.0.b.K.K.b.b.y.0.g.S.`.`.*X;X;X;X5X6X0X7X                      ",
"                                  :X;X9XpXpXpX2X>Xj.d.@.{ ^ ` ..` ^ : k *.9.r.b.K.K.K.n.v.v.v.N.S.`.`.;X;X1X1X5X0X0X0X                      ",
"                                :X8XeXaXpXgXpX>X).c.c.3.X.] [ ' [ ] o.;.H.K.K.K.m.K.n.b.v.v.v.V.(.`.`.-X;X1X6X6X6X0X                        ",
"                              4X8XrXtXfXgXgXpX}.).~.~.c.3.X.{ } X.o.w.Y.U.E.E.E.K.K.v.v.4.4.v.V.'.*X-X;X1X5X5X6X7X0X                        ",
"                            4X8XrXtXfXfXsXsXpX>X).~.).~.j.3.%.%.%.w.P.U.E.E.R.E.K.v.v.v.4.v.V.S.(.`.;X3X3X6X6X6X6X                          ",
"                          8XyXyXtXtXfXfXaXpX0X>X).~.)./.~.g.w.d.t.j.c././.E.U.E.K.K.v.v.R v.V.S.`.-X5X6X9X9X9X6X                            ",
"                        4XyXyXyXyXtXtXaXaXpX2X>X).)./.~.~.P.g.g.g.c.Y./.E.E.U.K.K.v.v.v.v.v.N.S.-X9X9XqXrXwXwXqX                            ",
"                        4X8XyXyXqX9XwXeXaX0X,X).).~.).).^./.P.P.P.Y./.E.U.E.K.K.v.v.4.4.v.6.S.`.0XwXwXeXrXrXeXeX                            ",
"                      $X$X#X#X$X4X:X9XaXaX7X>X).).).~.).^.^./.I././._./.E.I.N.N.v.4.v.4.v.v.S.|.0XeXeXtXeXeXtX                              ",
"                    #XC.W I I E u.l.=XwX0X1X&X~.).~.).)./././././././.U.U.P.v.e.v.*.L v.&.N.`.6XeXaXeXtXtXtX                                ",
"                    C.E v s v s s H x.;X,X>X).j.j.c.j.)./././././.U./.I.K.H.v.e.4.v.v.L v.V.|.6X0XtXtXtXtXtX                                ",
"                    W b 0 p s p 9 w K ~.=X>X).c.f.f.j.P.~.I.I.I.I./.I.Y.N.N.e.9.*.v.L v.6.S.`.6XeXeXtXtXtX                                  ",
"                    W 0 @ 0 9 9 3 1 m j.x.x.c.d.2.>.7.e.B.P.P.P.P.Y.P.H.r.N.e.9.v.L v.6.V.`.;XrXeXeXtXtX                                    ",
"                    W # @ @ o @ O 1 C s.h.d.q.>.>.&.&.2.e.g.g.g.9.9.v.v.5.v.v.4.4.&.5.f.S.*X6XqXeXaXtXtX                                    ",
"                    z.0 o o o o O p U f.f.5.1.&.+.L &.<.<.>.>.>.z l j P L &.:.&.&.&.5.V.`.-X0XwXeXeXtX                                      ",
"                    %Xb o o @ @ 9 V a.h.p.<.$.F A S @.:.1.+.S z u = $ * l L L L :.5.V.^.}.3X0XwXeXtX                                        ",
"                    #XH @ @ @ 0 B i.Z.j.<.U Z Z Z F F L F j j 8 = $ . = u A L L s.S.`.-X;X5XqXrXtX                                          ",
"                      E 0 # 0 H a.F.F.h.@.Z k m Z F F G q q 2 $ . . . 5 l L R V.S.`.;X;X5X5X9XeX                                            ",
"                      E N p N z.F.#XF.p.B n q m G J Z h 7 8 $ % 8 + o u I R V.`.`.-X;X5X6X9X                                                ",
"                        H b N s.(.(.h.K h g q q h h q 7 7 7 q m h O u R Z.S.`.*X*X;X;X                                                      ",
"                        N 4 # N u.k.u.m q 6 7 q 8 6 q h G @.1.B u s R S.G.`.*X*X-X                                                          ",
"                        H # X @ a J m q 4 2 2 2 4 q m J T ,.B q V Z.G.*X*X*X                                                                ",
"                        E 4 O o 2 4 w 2 2 2 2 2 q m J K J a 7 J Z.*X:X*X                                                                    ",
"                        u.b 4 4 w q n a 4 4 2 2 q G G m g q T F.*X                                                                          ",
"                        z.N b b a n B a q 7 2 2 2 n J K K T x.                                                                              ",
"                        z.H v N B m n a a a q 4 1 n T z.l.l.                                                                                ",
"                          E v p b n a a a J B b H u.F.F.F.                                                                                  ",
"                          z.K p 0 w p w n K K E x.#XF.                                                                                      ",
"                            z.Y H N N H T W z.                                                                                              ",
"                                                                                                                                            ",
"                                                                                                                                            ",
"                                                                                                                                            ",
"                                                                                                                                            ",
"                                                                                                                                            ",
"                                                                                                                                            "
};
