/* XPM */
static char *wall_cross1678570839[] = {
/* columns rows colors chars-per-pixel */
"70 70 72 1 ",
"  c None",
". c #3F0AFF",
"X c #3E14FF",
"o c #3E1AFF",
"O c #3725FF",
"+ c #3923FF",
"@ c #372CFF",
"# c #3A2BFF",
"$ c #3432FF",
"% c #3936FF",
"& c #363CFF",
"* c #3D3CFF",
"= c #4100FF",
"- c #410CFF",
"; c #4113FF",
": c #411BFF",
"> c #4121FF",
", c #402EFF",
"< c #4034FF",
"1 c #4038FF",
"2 c #2D4CFF",
"3 c #3E43FF",
"4 c #334DFF",
"5 c #3F4DFF",
"6 c #2C52FF",
"7 c #285BFF",
"8 c #3254FF",
"9 c #3C54FF",
"0 c #365AFF",
"q c #3C5EFF",
"w c #1F7CFF",
"e c #2760FF",
"r c #2B66FF",
"t c #276AFF",
"y c #2C6CFF",
"u c #3466FF",
"i c #3B66FF",
"p c #346EFF",
"a c #3A6CFF",
"s c #2175FF",
"d c #2C73FF",
"f c #207AFF",
"g c #287FFF",
"h c #3873FF",
"j c #357CFF",
"k c #1C85FF",
"l c #1C8AFF",
"z c #1B91FF",
"x c #159EFF",
"c c #1A9FFF",
"v c #2080FF",
"b c #2E8CFF",
"n c #3782FF",
"m c #3880FF",
"M c #358CFF",
"N c #2591FF",
"B c #2C92FF",
"V c #2399FF",
"C c #3493FF",
"Z c #14A2FF",
"A c #1AA2FF",
"S c #11AEFF",
"D c #0FB6FF",
"F c #0FB9FF",
"G c #10B1FF",
"H c #13B8FF",
"J c #22A0FF",
"K c #0AC6FF",
"L c #07CEFF",
"P c #09C9FF",
"I c #05D6FF",
"U c #04D9FF",
/* pixels */
"          ==X$7zDULxw2&Ma:                  ==.$7kDUKxfd&-==          ",
"          ==.@7lSILxw6@5*=                  ==.$7kFUKxvV0===          ",
"          ==.@7kSIKZs2O--=                  ==.@7kDUKxwVu===          ",
"          ==.@7kSILZw2O===                  ==.&7kDUKxse&===          ",
"          ==.$7kKUKZf2O===                  ==.$7kSILxs2+===          ",
"          ==.@7zHULZs2+===                  ==o$7kDUPxs2+===          ",
"          ==.$tDGUKZs2O===                  =>90ekDUPxw2o===          ",
"          =..$7zSUKZf2O===                  =1jdekSIKxt2+===          ",
"          ==.$7kSIKZf2O===                  =,hy7kSUKZs2+;:=          ",
"          ==-@7kSIKZw6%;==                  =;347kDULZf2O5q>          ",
"=========:<=.@7wSIKZstb1==                  .=X&7kDULZs2#an,==========",
"========:qni.@7kSULZwtB3==                  ==.$7lHUKZs6O9i=====;35;==",
"-======.;5a9X$7kSILZf6%;==                   =.$7kDIKZs2+;:=====<jM1==",
"&0u&OooO+##OOo7kSUIZk2O===                   =.$7kSIKxs2+#%0p0#O%pj&++",
"dVVr22222226227wGILSl6O===                   =.$7kDUKZv766rNVg62222242",
"fvffswtssssssskxGIKZf6O==                    =.$7kFUKxAwlNfsssssssssss",
"xxxxxxxxZZZxxxxxxILxw2O.=                    =.$7kDULxxZZZZZxxxZZZxZZS",
"KKKKKLKKKLIKKKPLPPLZw2O=                      .$7kSIKLLKKLKKLKKKLLKKKL",
"UUUIUUUUIUUUUIUUIIIZk6+=                      .$7kSIIIUIUUUUUUUUUUUUUI",
"FFDDGGGGSDDDGGDFDSSSArO=                      .$7kSDSDSSSSSGFGGGGGGGSS",
"lkklkkkkkkllkkkkkkkkk7O                        $7kkkkkkkkkkkkkkkkklklk",
"7777777e77777777777777O                         7777777777777777ee7777",
"$$$$$&8dy4&$$$$$$$$$$$                           $$$$&88&$$$$$$$&$$$$$",
".....o9jp3X..........                             ...#jM9X......-#i+.-",
"======>1<;=========                                 ====.========*C1==",
".================                                      ==========;3;==",
"                                                                      ",
"                                                                      ",
"                                                                      ",
"                                                                      ",
"                                                                      ",
"                                                                      ",
"                                                                      ",
"                                                                      ",
"                                                                      ",
"                                                                      ",
"                                                                      ",
"                                                                      ",
"                                                                      ",
"                                                                      ",
"                                                                      ",
"                                                                      ",
"                                                                      ",
"                                                                      ",
"==;3;==========                                      ===========.====.",
"==1C*=============                                 =..=====.;<1>..====",
"-.#i#.--....X9Mj#...                             ..........X3hj9X.....",
"$$$$$&$$$$$$$&88&$$$$                           $$$$@$$$$$$&4pd8&$$@$$",
"7777ee7777777777777777                         O77777777777777e7777777",
"kkklklkkkkkkkkkkkkkkk7$                        O7kkkkkkkkkklkklkkklllk",
"SSSDGGSGGDDSSSSSDSSSk7$.                      =OrASSSDDDSDDDDSSDGGGDDD",
"UUIIUUUUUUUUUUIUIUISk7$.                      =O6kZUUUUUIIIUIIIIUUUUUU",
"LKKKKLKKKKKKKKKLLPISk7$.                      =O6wZLKKKLKKKLLLKKKKKKKK",
"SZxxZZZxZxZZZSZxxPIDk7$.=                    ==O2wxLIxxxxxxZZZxxxxZxZZ",
"sssssssssssfNzwcxLUDk7$.=                    ==O2fZKIDcksswswtwssssfvf",
"22222226gJNt666kxLUDk7$.=                   ===O6zSLISk62222222222rVVd",
"+O&jp%O#0p0*+O2sxKUGk7$.=                   ===+2wSLISw7++##O++o++&u0%",
"==1Mn1=====:;o2sZKUGk7@.=                   ==;&6wZLISk7@;9a5;=======-",
"==;53;=====i9#6sxKUDk7$.==                  ==3BssZLISk7$.inq:========",
"==========,na#2sZLUDl7&X==                  ==1btsxPISk7$.=#:=========",
"          :i5O2fZLUGk743;=                  ==-&6sZKISk7$.==          ",
"          =;;+2sZLUSk7ph<=                  ===O2fZLISk6$.==          ",
"          ==.o2sxKUGk7dj1=                  ===O2sZKISz7@.==          ",
"          ==.+2txKUGke09>=                  ===O2fZKUGHt$.==          ",
"          ===+2sxKUDk7$o..                  ===O2fZLUDl7@...          ",
"          ===+4sxKUSk7$...                  ===O2sZKUKl7$.==          ",
"          ===&rfZKUSl7$.==                  ===O2fZKIDk7@.==          ",
"          ===uVfxKUDk7$.==                  ==;O6sxLISk6$.==          ",
"          ===0VvxKUFl7$.==                  =15@2wxLIDk7@.==          ",
"          ==-%dfxKUDk7$.==                  :aM&2wZLIDl7$X==          "
};
