/* XPM */
static char *d2FsbF9jMw__[] = {
/* columns rows colors chars-per-pixel */
"70 70 137 2 ",
"   c #3F0BFF",
".  c #3E14FF",
"X  c #3E1BFF",
"o  c #3E24FF",
"O  c #372DFF",
"+  c #3A2CFF",
"@  c #3536FF",
"#  c #3B34FF",
"$  c #353BFF",
"%  c #3D3CFF",
"&  c #4101FF",
"*  c #410BFF",
"=  c #4113FF",
"-  c #411BFF",
";  c #4123FF",
":  c #412CFF",
">  c #4031FF",
",  c #403BFF",
"<  c #2D4FFF",
"1  c #3544FF",
"2  c #3D44FF",
"3  c #354BFF",
"4  c #3D4BFF",
"5  c #2C53FF",
"6  c #295DFF",
"7  c #3354FF",
"8  c #3B54FF",
"9  c #335BFF",
"0  c #3B5BFF",
"q  c #1F7EFF",
"w  c #2962FF",
"e  c #276BFF",
"r  c #296BFF",
"t  c #3362FF",
"y  c #3A64FF",
"u  c #336CFF",
"i  c #396BFF",
"p  c #2574FF",
"a  c #2A72FF",
"s  c #207BFF",
"d  c #2A78FF",
"f  c #3374FF",
"g  c #3875FF",
"h  c #347AFF",
"j  c #3878FF",
"k  c #1D86FF",
"l  c #1C89FF",
"z  c #1D89FF",
"x  c #1C88FF",
"c  c #1F89FF",
"v  c #1C8AFF",
"b  c #1D8AFF",
"n  c #1D8BFF",
"m  c #1B8FFF",
"M  c #1C8CFF",
"N  c #1E8CFF",
"B  c #1D8AFF",
"V  c #1C91FF",
"C  c #1D93FF",
"Z  c #1B95FF",
"A  c #1C93FF",
"S  c #1B9AFF",
"D  c #1C9AFF",
"F  c #1B9BFF",
"G  c #2081FF",
"H  c #2181FF",
"J  c #2082FF",
"K  c #2686FF",
"L  c #2082FF",
"P  c #2885FF",
"I  c #208AFF",
"U  c #268DFF",
"Y  c #278EFF",
"T  c #258AFF",
"R  c #2A8CFF",
"E  c #2C8AFF",
"W  c #2592FF",
"Q  c #16A0FF",
"!  c #16A1FF",
"~  c #15A2FF",
"^  c #15A3FF",
"/  c #14A4FF",
"(  c #14A5FF",
")  c #15A5FF",
"_  c #16A4FF",
"`  c #14A6FF",
"'  c #15A3FF",
"]  c #19A4FF",
"[  c #18A7FF",
"{  c #13A8FF",
"}  c #14A8FF",
"|  c #15A8FF",
" . c #11AFFF",
".. c #13AEFF",
"X. c #12AFFF",
"o. c #13AFFF",
"O. c #14ACFF",
"+. c #12ADFF",
"@. c #0FBBFF",
"#. c #11B0FF",
"$. c #11B1FF",
"%. c #10B2FF",
"&. c #11B2FF",
"*. c #11B3FF",
"=. c #13B2FF",
"-. c #10B4FF",
";. c #11B4FF",
":. c #11B5FF",
">. c #10B7FF",
",. c #11B2FF",
"<. c #11B8FF",
"1. c #10B9FF",
"2. c #0AC5FF",
"3. c #0BC5FF",
"4. c #0AC6FF",
"5. c #0BC6FF",
"6. c #0AC7FF",
"7. c #0BC7FF",
"8. c #0AC6FF",
"9. c #06CFFF",
"0. c #07CFFF",
"q. c #07CFFF",
"w. c #09C9FF",
"e. c #0AC9FF",
"r. c #08CBFF",
"t. c #0ACAFF",
"y. c #09CCFF",
"u. c #09CAFF",
"i. c #06D0FF",
"p. c #07D0FF",
"a. c #06D1FF",
"s. c #07D1FF",
"d. c #06D2FF",
"f. c #06D3FF",
"g. c #06D1FF",
"h. c None",
"j. c black",
/* pixels */
"h.h.h.h.h.h.h.h.h.h.& & * + < s ` r.d.$.x 6 @ . * & h.h.j.j.j.j.j.j.j.j.j.j.j.j.h.h.h.h.& * + 9 a s _ 3.t.:.V e $ o * & h.h.h.h.h.h.h.h.h.h.",
"h.h.h.h.h.h.h.h.h.h.& * = + < s Q w.9. .x 6 $ X = * h.h.j.j.j.j.j.j.j.j.j.j.j.j.h.h.h.h.& & : 9 a s _ w.9. .m e $ o * & h.h.h.h.h.h.h.h.h.h.",
"h.h.h.h.h.h.h.h.h.h.* ; 2 3 5 s Q w.9.%.x 6 $ # 2 : h.h.j.j.j.j.j.j.j.j.j.j.j.j.h.h.h.h.& & - 2 w s _ 3.9.$.S d 3 o * & h.h.h.h.h.h.h.h.h.h.",
"h.h.h.h.h.h.h.h.h.h.- 4 j u 6 p F 3.d.%.l w 1 9 g 4 h.h.j.j.j.j.j.j.j.j.j.j.j.j.h.h.h.h.& & - 1 r k } w.d.$._ K 3 X & & h.h.h.h.h.h.h.h.h.h.",
"h.h.h.h.h.h.h.h.h.h.- 2 g t 6 p Q r.a.>.l w $ $ 2 ; j.j.j.j.j.j.j.j.j.j.j.j.j.j.h.h.h.h.& & ; t R C =.w.p.$.D d 1 X & & h.h.h.h.h.h.h.h.h.h.",
"h.h.h.h.h.h.h.h.h.h.* ; , 2 5 s Q w.a.%.l w 1 X = * j.j.j.j.j.j.j.j.j.j.j.j.j.j.h.h.h.h.& * ; t W D <.t.t.=.k r $ = & & h.h.h.h.h.h.h.h.h.h.",
"h.h.h.h.h.h.h.h.h.h.& * - + 5 s ( w.9.%.l 6 @ X & & j.j.j.j.j.j.j.j.j.j.j.j.j.j.h.h.h.h.& & = $ r v =.w.d. .v 6 1 o * & h.h.h.h.h.h.h.h.h.h.",
"h.h.h.h.h.h.h.h.h.h.& & = # 6 p F w.9.%.l 6 @ . & & j.j.j.j.j.j.j.j.j.j.j.j.j.j.h.h.h.h.& & * O 5 s _ w.9. .v r t 8 ; & h.h.h.h.h.h.h.h.h.h.",
"h.h.h.h.h.h.h.h.h.h.& & ; 7 d s Q 3.d.%.l 6 @ . & & h.h.h.h.h.h.j.j.j.j.j.j.j.j.j.j.j.j.& & * O 5 s Q w.9. .l d U h , & h.h.h.h.h.h.h.h.h.h.",
"h.h.h.h.h.h.h.h.h.h.& & : i R H Q w.d.:.x w @ . & & h.h.h.h.h.h.j.j.j.j.j.j.j.j.j.j.j.j.& & * + 5 k ` 3.9.>.V p a 0 : & h.h.h.h.h.h.h.h.h.h.",
"& & & & & &     = > : = o 0 K H Q 3.d.$.x 6 $ . & & h.h.h.h.h.h.j.j.j.j.j.j.j.j.j.j.j.j.& * . + 6 N { 3.d.>.Z w 3 + * & h.h.h.h.h.h.h.h.h.h.",
"* & & & & &     ; 8 i , o 1 r H Q 3.d.%.x 6 @ . & & h.h.h.h.h.h.j.j.j.j.j.j.j.j.j.j.j.j.& - % # 6 J O.w.9.$.l w @ - & & h.h.h.h.h.h.h.h.h.h.",
"= ; ; -         o 4 y 4 > # 6 I ` 3.d. .x 6 $ o * & h.h.h.h.h.h.j.j.j.j.j.j.j.j.j.j.j.j.= 2 g 3 6 H  .w.d. .k 6 @ = & & h.h.h.h.h.h.h.h.h.h.",
"3 9 t 1 O o o o + # $ # + @ 6 I ` w.d. .l 6 3 4 - * h.h.h.h.h.h.j.j.j.j.j.j.j.j.j.j.j.j.= 2 g 3 7 s } w.t. .k 6 @ = & & h.h.h.h.h.h.h.h.h.h.",
"a R R r < < < < 5 5 5 5 7 5 6 H Q w.9.%.l w 9 g > & h.h.h.h.h.h.j.j.j.j.j.j.j.j.j.j.j.j.* : 4 % 5 s _ w.9. .k 6 @ . & & h.h.h.h.h.h.h.h.h.h.",
"H I J s q p q p s s s q p s s k Q w.9. .l w 9 i : * h.h.h.h.h.h.j.j.j.j.j.j.j.j.j.j.j.j.& * - + 5 s Q w.9. .k 6 @ . & & h.h.h.h.h.h.h.h.h.h.",
"Q Q Q Q Q Q Q Q Q ` ` Q Q Q Q Q  .r.d.$.v w 1 % = & h.h.h.h.h.h.h.h.h.h.h.h.h.h.h.h.h.h.& &   O 5 q Q 3.9.%.m w @ . & & h.h.h.h.h.h.h.h.h.h.",
"3.3.3.3.3.3.3.3.3.w.w.3.3.3.3.3.3.r.9.$.k 6 @ X * & h.h.h.h.h.h.h.h.h.h.h.h.h.h.h.h.h.h.& & * O 5 s _ 3.d.@.F e $ . & & h.h.h.h.h.h.h.h.h.h.",
"d.d.d.9.d.d.d.9.d.d.a.a.d.9.d.d.a.9.r. .x w @ . & & h.h.h.h.h.h.h.h.h.h.h.h.h.h.h.h.h.h.& & * + < q Q w.d.@.F r $ .   & h.h.h.h.h.h.h.h.h.h.",
":.>.>.$.$.$.$.$.%.%.>.>.%.%.>.>.%.%. .` x 6 @ . & & h.h.h.h.h.h.h.h.h.h.h.h.h.h.h.h.h.h.& & = + 5 q Q w.d.%.V w @ . & & h.h.h.h.h.h.h.h.h.h.",
"l l l l l l l l l l l l l x v v l l x x q 6 @ . & h.h.h.h.h.h.h.h.h.h.h.h.h.h.h.h.h.h.h.& * > 3 5 q _ w.p.$.v 6 @ X * & h.h.h.h.h.h.h.h.h.h.",
"w 6 w w 6 w w e w w w 6 6 w 6 6 6 w 6 6 6 5 @ . * h.h.h.h.h.h.h.h.h.h.h.h.h.h.h.h.h.h.h.& ; 0 h r k } t.t. .v 6 1 : * & h.h.h.h.h.h.h.h.h.h.",
"@ @ @ @ $ $ 7 r u 7 1 $ @ @ @ @ @ @ $ @ @ $ 1 + * h.h.h.h.h.h.h.h.h.h.h.h.h.h.h.h.h.h.h.& ; 0 a r s } t.d. .v w $ + - * h.h.h.h.h.h.h.h.h.h.",
". . . . X o 8 g t 1 o . . . . . . . . . . X % 9 h.h.h.h.h.h.h.h.h.h.h.h.h.h.h.h.h.h.h.h.& * , 3 6 s } t.d.$.N r 3 4 2 : h.h.h.h.h.h.h.h.h.h.",
"  & &   & = : % , ; * & & & & *     * * & * h.h.h.h.h.h.h.h.h.h.h.h.h.h.h.h.h.h.h.h.h.h.& & . # 5 q { r.d.$.Z p 9 g j 4 h.h.h.h.h.h.h.h.h.h.",
"    & & & & * - = * & & & & * * X X ; h.h.h.h.h.h.h.h.h.h.h.h.h.h.h.h.h.h.h.h.h.h.h.h.h.& &   O 5 s { w.9.$.N e 3 0 0 , h.h.h.h.h.h.h.h.h.h.",
"h.h.h.h.h.h.h.h.h.h.h.h.h.h.h.h.h.h.h.h.h.h.h.h.h.h.h.h.h.h.h.h.h.h.h.h.h.h.h.h.h.h.h.h.& & * O 5 s _ w.9. .k w $ # + - h.h.h.h.h.h.h.h.h.h.",
"h.h.h.h.h.h.h.h.h.h.h.h.h.h.h.h.h.h.h.h.h.h.h.h.h.h.h.h.h.h.h.h.h.h.h.h.h.h.h.h.h.h.h.h.& & * + 5 s _ 3.t. .x 6 @ X * * h.h.h.h.h.h.h.h.h.h.",
"h.h.h.h.h.h.h.h.h.h.h.h.h.h.h.h.h.h.h.h.h.h.h.h.h.h.h.h.h.h.h.h.h.h.h.h.h.h.h.h.h.h.h.h.& &   O 5 s Q 3.t. .k w @ . & & h.h.h.h.h.h.h.h.h.h.",
"h.h.h.h.h.h.h.h.h.h.h.h.h.h.h.h.h.h.h.h.h.h.h.h.h.h.h.h.h.h.h.h.h.h.h.h.h.h.h.h.h.h.h.h.& &   O 5 k ` 3.9. .k 5 @ = & & h.h.h.h.h.h.h.h.h.h.",
"h.h.h.h.h.h.h.h.h.h.h.h.h.h.h.h.h.h.h.h.h.h.h.h.h.h.h.h.h.h.h.h.h.h.h.h.h.h.h.h.h.h.h.h.& &   # w C { 3.9. .x 6 @ . & & h.h.h.h.h.h.h.h.h.h.",
"h.h.h.h.h.h.h.h.h.h.h.h.h.h.h.h.h.h.h.h.h.h.h.h.h.h.h.h.h.h.h.h.h.h.h.h.h.h.h.h.h.h.h.h.& &   # r S  .w.9.{ x 6 @ . & & h.h.h.h.h.h.h.h.h.h.",
"h.h.h.h.h.h.h.h.h.h.h.h.h.h.h.h.h.h.h.h.h.h.h.h.h.h.h.h.h.h.h.h.h.h.h.h.h.h.h.h.h.h.h.h.& &   O 5 v } 3.9. .k 6 $ .   & h.h.h.h.h.h.h.h.h.h.",
"h.h.h.h.h.h.h.h.h.h.h.h.h.h.h.h.h.h.h.h.h.h.h.h.h.h.h.h.h.h.h.h.h.h.h.h.h.h.h.h.h.h.h.h.& & * O 5 q _ 3.9. .k 5 @ . & & h.h.h.h.h.h.h.h.h.h.",
"h.h.h.h.h.h.h.h.h.h.h.h.h.h.h.h.h.h.h.h.h.h.h.h.h.h.h.h.h.h.h.h.h.h.h.h.h.h.h.h.h.h.h.h.& &   O 5 q ` w.9. .k 6 @ .   & h.h.h.h.h.h.h.h.h.h.",
"h.h.h.h.h.h.h.h.h.h.h.h.h.h.h.h.h.h.h.h.h.h.h.h.h.h.h.h.h.h.h.h.h.h.h.h.h.h.h.h.h.h.h.h.& &   + 5 q Q r.9. .k 6 @ . & & h.h.h.h.h.h.h.h.h.h.",
"h.h.h.h.h.h.h.h.h.h.h.h.h.h.h.h.h.h.h.h.h.h.h.h.h.h.h.h.h.h.h.h.h.h.h.h.h.h.h.h.h.h.h.h.& &   O 5 q Q r.d. .k 6 @ . & & h.h.h.h.h.h.h.h.h.h.",
"h.h.h.h.h.h.h.h.h.h.h.h.h.h.h.h.h.h.h.h.h.h.h.h.h.h.h.h.h.h.h.h.h.h.h.h.h.h.h.h.h.h.h.h.& & . O < q ` 3.9. .k 6 @ . & & h.h.h.h.h.h.h.h.h.h.",
"h.h.h.h.h.h.h.h.h.h.h.h.h.h.h.h.h.h.h.h.h.h.h.h.h.h.h.h.h.h.h.h.h.h.h.h.h.h.h.h.h.h.h.h.& = : % 5 q _ r.9.$.k 6 @ . & & h.h.h.h.h.h.h.h.h.h.",
"h.h.h.h.h.h.h.h.h.h.h.h.h.h.h.h.h.h.h.h.h.h.h.h.h.h.h.h.h.h.h.h.h.h.h.h.h.h.h.h.h.h.h.h.* : 0 9 5 q Q r.t.$.k 6 @ . & & h.h.h.h.h.h.h.h.h.h.",
"h.h.h.h.h.h.h.h.h.h.h.h.h.h.h.h.h.h.h.h.h.h.h.h.h.h.h.h.h.h.h.h.h.h.h.h.h.h.h.h.h.h.h.h.* , g f 6 q ` 3.9. .k 6 @ = & & h.h.h.h.h.h.h.h.h.h.",
"h.h.h.h.h.h.h.h.h.h.h.h.h.h.h.h.h.h.h.h.h.h.h.h.h.h.h.h.h.h.h.h.h.h.h.h.h.h.h.h.h.h.h.h.* : y t 6 q Q 3.t. .k 6 @ . & & h.h.h.h.h.h.h.h.h.h.",
"h.h.h.h.h.h.h.h.h.h.h.h.h.h.h.h.h.h.h.h.h.h.h.h.h.h.h.h.h.h.h.h.h.h.h.h.h.h.h.h.h.h.h.h.& - % 1 5 s _ w.d.$.k 6 @ . * & h.h.h.h.h.h.h.h.h.h.",
"h.h.h.h.h.h.h.h.h.h.h.h.h.h.h.h.h.h.h.h.h.h.h.h.h.h.h.h.h.h.h.h.h.h.h.h.h.h.h.h.h.h.h.h.& * X # 5 H _ w.d.$.k 6 @ o - * h.h.h.h.h.h.h.h.h.h.",
": - & & & & & & & & & & & & & & & & & & & & & & & & & & * * * & & & & & & & & & & & & & & & = O 5 J O.w.d.$.v 6 1 4 2 - h.h.h.h.h.h.h.h.h.h.",
"y , .   & & & & & * = = * & & & & & & & & & & & & * * = > , : = & & & & & &     & &     & & . + 5 H _ w.t. .k w 3 g y : h.h.h.h.h.h.h.h.h.h.",
"j 4 o   *   * * * ; 2 3 o * *                 *     - % y j 0 : *     *             *     . + $ 6 s } 3.d.$.k w 1 t 0 : h.h.h.h.h.h.h.h.h.h.",
"8 $ O O o + O + + 1 h h 3 # O O O + O # + + O O + O # 1 t g 9 $ + O O O O O # # + O O o O # 7 u 6 J O.w.t. .k 6 $ # : * h.h.h.h.h.h.h.h.h.h.",
"5 5 5 5 5 5 < 5 5 5 e p 6 6 6 5 5 5 5 r w 5 5 5 5 5 5 5 5 w 6 5 5 5 5 5 5 6 r w 5 5 5 5 5 5 6 r r I <.t.9. .k 6 @ X * & h.h.h.h.h.h.h.h.h.h.",
"q s s q s q q p q q q q H H I s q q v S D I H s H k H s q q s s q s q q s J D C s q q q s s s H H N <.t.9. .v w 3 + * & h.h.h.h.h.h.h.h.h.h.",
"Q ` Q Q Q _ Q Q Q Q Q Q _  .O._ _ ` } :.<.1.$._ } } } _ ` Q _ Q Q Q _ _ _ }  .{ _ _ _ _ } } { } { _ :.w.9.$.v d f 8 ; & h.h.h.h.h.h.h.h.h.h.",
"r.3.3.3.w.3.w.3.w.3.w.w.r.t.w.3.3.3.3.w.t.t.w.w.w.w.w.w.3.3.w.w.3.r.w.w.w.3.3.2.w.3.3.w.w.t.w.3.t.w.w.9.9.$.N J R y ; & h.h.h.h.h.h.h.h.h.h.",
"d.9.9.d.d.d.d.9.9.9.9.9.d.t.d.9.d.9.9.9.9.9.9.9.t.d.d.t.d.d.d.9.d.9.d.d.9.9.r.9.9.9.r.9.9.d.t.d.d.d.d.d.9. .N e 9 # * & h.h.h.h.h.h.h.h.h.h.",
">.$. .%.@.@.:. . .{  . . . . .:.:.$. .$.$. . . .$.$. . . . . . . . . . . .+. . . . . . .$.$.$.$. . .%.@.@.{ Z w $ X * & h.h.h.h.h.h.h.h.h.h.",
"m l k l N Z } V k k x x k x v N S N l k k k k k v k v k k k k k x x k k x x k k k k k k N Z C k k v m F F N k w @ . & & h.h.h.h.h.h.h.h.h.h.",
"w 6 6 6 6 w p r 6 6 6 6 6 6 6 w r r H a r 6 6 w 6 6 6 6 6 6 5 w 6 6 w 5 6 w 5 6 6 6 6 6 e p r w 6 w w r r w 5 5 @ . & h.h.h.h.h.h.h.h.h.h.h.",
"@ @ @ @ @ @ $ $ @ @ # @ @ @ @ @ $ 9 E f 3 $ $ 1 < 1 @ # @ @ @ @ @ @ @ @ @ @ @ @ @ @ @ $ 3 9 3 $ $ $ @ $ $ @ @ # + . & h.h.h.h.h.h.h.h.h.h.h.",
"X . . . = . . . . . . . . . . . X # y 8 + X # y i 4 o . . = . . . . . . . . . . . = X # 0 g 4 + + X . . . . . . .   h.h.h.h.h.h.h.h.h.h.h.h.",
"& & & & & & & & & & & * & &     * = ; ; = * : 0 y 1 - * & & & &     & & & & & & & & * > 0 g 2 - = * * *   * & & & h.h.h.h.h.h.h.h.h.h.h.h.h.",
"& & & & & & & &   & * * * &     - ; : ; = * = : : - * & & & & & & & & & &   & & & & * - % 4 : - = = - ; ; X * h.h.h.h.h.h.h.h.h.h.h.h.h.h.h.",
"h.h.h.h.h.h.h.h.h.h.h.h.h.h.h.h.h.h.h.h.h.h.h.h.h.h.h.h.h.h.h.h.h.h.h.h.h.h.h.h.h.h.h.h.h.h.h.h.h.h.h.h.h.h.h.h.h.h.h.h.h.h.h.h.h.h.h.h.h.h.",
"h.h.h.h.h.h.h.h.h.h.h.h.h.h.h.h.h.h.h.h.h.h.h.h.h.h.h.h.h.h.h.h.h.h.h.h.h.h.h.h.h.h.h.h.h.h.h.h.h.h.h.h.h.h.h.h.h.h.h.h.h.h.h.h.h.h.h.h.h.h.",
"h.h.h.h.h.h.h.h.h.h.h.h.h.h.h.h.h.h.h.h.h.h.h.h.h.h.h.h.h.h.h.h.h.h.h.h.h.h.h.h.h.h.h.h.h.h.h.h.h.h.h.h.h.h.h.h.h.h.h.h.h.h.h.h.h.h.h.h.h.h.",
"h.h.h.h.h.h.h.h.h.h.h.h.h.h.h.h.h.h.h.h.h.h.h.h.h.h.h.h.h.h.h.h.h.h.h.h.h.h.h.h.h.h.h.h.h.h.h.h.h.h.h.h.h.h.h.h.h.h.h.h.h.h.h.h.h.h.h.h.h.h.",
"h.h.h.h.h.h.h.h.h.h.h.h.h.h.h.h.h.h.h.h.h.h.h.h.h.h.h.h.h.h.h.h.h.h.h.h.h.h.h.h.h.h.h.h.h.h.h.h.h.h.h.h.h.h.h.h.h.h.h.h.h.h.h.h.h.h.h.h.h.h.",
"h.h.h.h.h.h.h.h.h.h.h.h.h.h.h.h.h.h.h.h.h.h.h.h.h.h.h.h.h.h.h.h.h.h.h.h.h.h.h.h.h.h.h.h.h.h.h.h.h.h.h.h.h.h.h.h.h.h.h.h.h.h.h.h.h.h.h.h.h.h.",
"h.h.h.h.h.h.h.h.h.h.h.h.h.h.h.h.h.h.h.h.h.h.h.h.h.h.h.h.h.h.h.h.h.h.h.h.h.h.h.h.h.h.h.h.h.h.h.h.h.h.h.h.h.h.h.h.h.h.h.h.h.h.h.h.h.h.h.h.h.h.",
"h.h.h.h.h.h.h.h.h.h.h.h.h.h.h.h.h.h.h.h.h.h.h.h.h.h.h.h.h.h.h.h.h.h.h.h.h.h.h.h.h.h.h.h.h.h.h.h.h.h.h.h.h.h.h.h.h.h.h.h.h.h.h.h.h.h.h.h.h.h.",
"h.h.h.h.h.h.h.h.h.h.h.h.h.h.h.h.h.h.h.h.h.h.h.h.h.h.h.h.h.h.h.h.h.h.h.h.h.h.h.h.h.h.h.h.h.h.h.h.h.h.h.h.h.h.h.h.h.h.h.h.h.h.h.h.h.h.h.h.h.h.",
"h.h.h.h.h.h.h.h.h.h.h.h.h.h.h.h.h.h.h.h.h.h.h.h.h.h.h.h.h.h.h.h.h.h.h.h.h.h.h.h.h.h.h.h.h.h.h.h.h.h.h.h.h.h.h.h.h.h.h.h.h.h.h.h.h.h.h.h.h.h."
};
