/* XPM */
static char *wall_e21678570707[] = {
/* columns rows colors chars-per-pixel */
"70 70 75 1 ",
"  c None",
". c #3F0AFF",
"X c #3F14FF",
"o c #3F1DFF",
"O c #3724FF",
"+ c #3923FF",
"@ c #362CFF",
"# c #3A2BFF",
"$ c #3431FF",
"% c #3833FF",
"& c #353CFF",
"* c #3D3AFF",
"= c #4100FF",
"- c #410CFF",
"; c #4115FF",
": c #411BFF",
"> c #4124FF",
", c #4029FF",
"< c #4034FF",
"1 c #4039FF",
"2 c #2C4DFF",
"3 c #3441FF",
"4 c #3E43FF",
"5 c #344BFF",
"6 c #3D4BFF",
"7 c #2C53FF",
"8 c #285BFF",
"9 c #3252FF",
"0 c #3D52FF",
"q c #345AFF",
"w c #3B5BFF",
"e c #1F7BFF",
"r c #2764FF",
"t c #2963FF",
"y c #276BFF",
"u c #296AFF",
"i c #3463FF",
"p c #3B64FF",
"a c #336BFF",
"s c #3A6CFF",
"d c #2175FF",
"f c #2B73FF",
"g c #217AFF",
"h c #2B7DFF",
"j c #3772FF",
"k c #3A72FF",
"l c #337AFF",
"z c #387DFF",
"x c #1C84FF",
"c c #1C8BFF",
"v c #1B94FF",
"b c #159EFF",
"n c #1A9BFF",
"m c #2486FF",
"M c #2F85FF",
"N c #238EFF",
"B c #2C8CFF",
"V c #3584FF",
"C c #3880FF",
"Z c #358BFF",
"A c #2591FF",
"S c #219BFF",
"D c #3492FF",
"F c #14A3FF",
"G c #18A4FF",
"H c #11ADFF",
"J c #0FB5FF",
"K c #0EBDFF",
"L c #10B1FF",
"P c #24A2FF",
"I c #0AC6FF",
"U c #07CDFF",
"Y c #08CAFF",
"T c #04D6FF",
"R c #04D9FF",
/* pixels */
"                                                                      ",
"                                                                      ",
"                                                                      ",
"                                                                      ",
"                                                                      ",
"                                                                      ",
"                                                                      ",
"                                                                      ",
"                                                                      ",
"                                                                      ",
"=======================;4,-===..====.=..========                      ",
"=======.-==========.=--1Zp,===..=======.===-6kp:===                   ",
">#:-..X6Dw+.....-...;#+4Vw+................X0VjO-owp+                 ",
"$$&3&$$qPf&@@$@$$$@@$3$&9&$$$@$$$@$@$$$@@$@@$$$$@&hP5$                ",
"rtgNg888fr8888888tt8888ygt888888888888888888888888ymtt8               ",
"vNnHnxcxxvncexxxcGGcxxmcncxxxxexxxexxxexxxxxxxxxxxxxcnx8              ",
"HHHHHHHHHJJJHHHHHKKJHHHHHHHHHHHHHHHHHHHHHHHJHHHHHJHHHJc8@             ",
"TTTTTTTTTTRTTTTTTRRRTTTTTTTTTTTTTRRRTTRRTTTRTTTTTTTTTKFt$             ",
"YYYYUUYYYYYUUYYYYYYYYYYUTYYYYYYYYYUUUYYUYYUUUYYUUYYYRKGr@.            ",
"bFFFLKHFFGGHJHFbFFFFFHFHHFFGFFFHFFbFFFbFFFFFHFGHKIJYRJc8$.=           ",
"ddeecnmedevxgeggdgdgeedegggeggnGxeeeeeeeddeexgggcnFYTHx8$;=           ",
"fg7rSP822787222222222ut7222225tt77222227772227722dHUTHx83#-           ",
"qa**qi@OOO+#&&@OOOOO&ZM5#OOOOOOOOooOOO@qja&@OOOOudFUTHx8$>-;          ",
";>-=-======,VV4;====:pw,========....==opZs1;===67gHUTHcu341;          ",
"===========-*1:=================..=====;>:====-O2eHTRHvg5VZ4          ",
"=================================.=============O2dFUTHcr&ws,          ",
"                                            ===O2eFYTHx8$+,-          ",
"                                            ===O2dFYTHx8$.==          ",
"                                            ===O2ebYTHx8@.==          ",
"                                            ===O7eFYTHe8$.==          ",
"                                            ===OtvFYTHx8$.==          ",
"                                            ===OtGHYTHx8@.==          ",
"                                            ===O7xFUTHx8@.==          ",
"                                            ===O2gFYTHx8$.==          ",
"                                            ===O2dFURHe8@...          ",
"                                            ===O2eFURHx8$...          ",
"                                            ===O2eFUTHx8@.==          ",
"                                            ===O7eFYTHe8$-==          ",
"                                            ==;@2ebYTHx8@.==          ",
"                                            =:sq7ebURHx8$.==          ",
"                                            =,Vj2eFYTHx8$.==          ",
"                                            =:ka2eFYTHx7@.==          ",
"                                            ==132eFUTHx8$..=          ",
"                                            ==;@2eFUTJx8$X-=          ",
"==;4;==============.=================--========O2xHURHx8$66=          ",
"==1D*===..==============..=====.====;0s0;======O2eGYTHx8&zk=          ",
"-.+p#.--....X0Zl#...................owlq;...+ppO2eGUTHx8$jp=          ",
"$$$$&&$@$$$$$&q5&$$$$$$$$35&$$$$$$$$$$&&$$$$5BB92eHYTHx8$+:           ",
"88888r888888888888888888rcngr88888r88r88888r8dft8cKUTHx8@.=           ",
"xxxcxxxxxxxxxxxxxxxxxcxxcvnvcnncxxccxxxxxxxxxcccxxKUTHx8&o=           ",
"JHJJJJHHJJJJJHHJJHHHHJHHLLLLLJLLJJKJJHLLJHHJJJJJJHLYTJxyhw=           ",
"TRTTRRTTTRRRTRTTTRTTRRRRRRRRRRRRTRRRTTRRRTRTRRTTTRRTTHxmPp            ",
"UIYYYYYYYYYIYYIYUUYYYYYYYIYYIIIYYYYYIYUUTYIYIIYYIYIIYHxt5+            ",
"HFbnbFbnbbbFHFbbbbHFbbbnbbbbbFbbbFFFFHKHFbbbbFHHFbbbbbGt$             ",
"dyeeeyeedddgcceeyeeeeydddfeecnNgeyeddmvgdddgmcNcedddenn8              ",
"22222222hSAu7222222222222232dmu7222222222227872522772uf               ",
"+O&la*O#qaw*OO+#%%#++o+oo+o+@&%Ooo+oOooo++ooOO++o+O++O                ",
"==1Zz1=====;+:=,pzw>-===.=======..==....==.;0s6-=====                 ",
"==;64;=====---=>pVp>====.=======.====...===:pzw;==                    ",
"================:,:=============..=====.====#                         ",
"                                                                      ",
"                                                                      ",
"                                                                      ",
"                                                                      ",
"                                                                      ",
"                                                                      ",
"                                                                      ",
"                                                                      ",
"                                                                      ",
"                                                                      "
};
