/* XPM */
static char *d2FsbF9jMg__[] = {
/* columns rows colors chars-per-pixel */
"70 70 140 2 ",
"   c #3E0FFF",
".  c #3E11FF",
"X  c #3E1DFF",
"o  c #3C24FF",
"O  c #372AFF",
"+  c #392AFF",
"@  c #3534FF",
"#  c #3B33FF",
"$  c #343AFF",
"%  c #3B3CFF",
"&  c #4101FF",
"*  c #410BFF",
"=  c #4113FF",
"-  c #411BFF",
";  c #4023FF",
":  c #402AFF",
">  c #4033FF",
",  c #403BFF",
"<  c #2D4EFF",
"1  c #3543FF",
"2  c #3E43FF",
"3  c #354CFF",
"4  c #3D4BFF",
"5  c #2C52FF",
"6  c #295CFF",
"7  c #3256FF",
"8  c #3B54FF",
"9  c #345CFF",
"0  c #3C5CFF",
"q  c #1F7DFF",
"w  c #2767FF",
"e  c #2963FF",
"r  c #276BFF",
"t  c #296AFF",
"y  c #3464FF",
"u  c #3B62FF",
"i  c #336BFF",
"p  c #396BFF",
"a  c #2275FF",
"s  c #2B73FF",
"d  c #207AFF",
"f  c #2D7AFF",
"g  c #3475FF",
"h  c #3974FF",
"j  c #357CFF",
"k  c #3979FF",
"l  c #1D85FF",
"z  c #1D8BFF",
"x  c #1C93FF",
"c  c #159FFF",
"v  c #1A9FFF",
"b  c #1B9BFF",
"n  c #2080FF",
"m  c #2084FF",
"M  c #2484FF",
"N  c #2182FF",
"B  c #2F86FF",
"V  c #258AFF",
"C  c #278AFF",
"Z  c #3781FF",
"A  c #3585FF",
"S  c #3581FF",
"D  c #2493FF",
"F  c #2592FF",
"G  c #2995FF",
"H  c #2896FF",
"J  c #2995FF",
"K  c #239AFF",
"L  c #14A2FF",
"P  c #15A2FF",
"I  c #14A3FF",
"U  c #15A3FF",
"Y  c #13A6FF",
"T  c #13A7FF",
"R  c #14A4FF",
"E  c #14A5FF",
"W  c #14A6FF",
"Q  c #14A7FF",
"!  c #14A3FF",
"~  c #19A0FF",
"^  c #18A7FF",
"/  c #13A9FF",
"(  c #13AAFF",
")  c #12ABFF",
"_  c #14A8FF",
"`  c #14AAFF",
"'  c #11ADFF",
"]  c #12ACFF",
"[  c #13ACFF",
"{  c #12ADFF",
"}  c #13ADFF",
"|  c #11AEFF",
" . c #10AFFF",
".. c #11AFFF",
"X. c #13AEFF",
"o. c #12ADFF",
"O. c #0FB6FF",
"+. c #0FB8FF",
"@. c #0EBCFF",
"#. c #0EBDFF",
"$. c #0FBCFF",
"%. c #10B0FF",
"&. c #11B0FF",
"*. c #12B1FF",
"=. c #10B2FF",
"-. c #11B2FF",
";. c #12B2FF",
":. c #10B4FF",
">. c #10B2FF",
",. c #10BAFF",
"<. c #10BBFF",
"1. c #10BCFF",
"2. c #10BCFF",
"3. c #09C7FF",
"4. c #0AC7FF",
"5. c #07CCFF",
"6. c #07CDFF",
"7. c #07CEFF",
"8. c #07CDFF",
"9. c #09C8FF",
"0. c #09C9FF",
"q. c #0AC8FF",
"w. c #08CAFF",
"e. c #09CAFF",
"r. c #08CBFF",
"t. c #09CBFF",
"y. c #08CCFF",
"u. c #08CDFF",
"i. c #09C9FF",
"p. c #05D2FF",
"a. c #05D3FF",
"s. c #06D2FF",
"d. c #06D3FF",
"f. c #05D4FF",
"g. c #05D5FF",
"h. c #06D4FF",
"j. c #06D3FF",
"k. c #04D8FF",
"l. c None",
"z. c black",
/* pixels */
"l.l.l.l.l.l.l.l.l.l.l.l.l.l.l.l.l.l.l.l.l.l.l.l.l.l.l.l.l.l.l.l.l.l.l.l.l.l.l.l.z.z.z.z.z.z.z.z.z.z.z.z.z.z.z.z.z.z.z.z.z.z.z.z.l.l.l.l.l.l.",
"l.l.l.l.l.l.l.l.l.l.l.l.l.l.l.l.l.l.l.l.l.l.l.l.l.l.l.l.l.l.l.l.l.l.l.l.l.l.l.l.z.z.z.z.z.z.z.z.z.z.z.z.z.z.z.z.z.z.z.z.z.z.z.z.l.l.l.l.l.l.",
"l.l.l.l.l.l.l.l.l.l.l.l.l.l.l.l.l.l.l.l.l.l.l.l.l.l.l.l.l.l.l.l.l.l.l.l.l.l.l.l.z.z.z.z.z.z.z.z.z.z.z.z.z.z.z.z.z.z.z.z.z.z.z.z.l.l.l.l.l.l.",
"l.l.l.l.l.l.l.l.l.l.l.l.l.l.l.l.l.l.l.l.l.l.l.l.l.l.l.l.l.l.l.l.l.l.l.l.l.l.l.l.z.z.z.z.z.z.z.z.z.z.z.z.z.z.z.z.z.z.z.z.z.z.z.z.l.l.l.l.l.l.",
"l.l.l.l.l.l.l.l.l.l.l.l.l.l.l.l.l.l.l.l.l.l.l.l.l.l.l.l.l.l.l.l.l.l.l.l.l.l.l.l.z.z.z.z.z.z.z.z.z.z.z.z.z.z.z.z.z.z.z.z.z.z.z.z.l.l.l.l.l.l.",
"l.l.l.l.l.l.l.l.l.l.l.l.l.l.l.l.l.l.l.l.l.l.l.l.l.l.l.l.l.l.l.l.l.l.l.l.l.l.l.l.z.z.z.z.z.z.z.z.z.z.z.z.z.z.z.z.z.z.z.z.z.z.z.z.l.l.l.l.l.l.",
"l.l.l.l.l.l.l.l.l.l.l.l.l.l.l.l.l.l.l.l.l.l.l.l.l.l.l.l.l.l.l.l.l.l.l.l.l.l.l.l.z.z.z.z.z.z.z.z.z.z.z.z.z.z.z.z.z.z.z.z.z.z.z.z.l.l.l.l.l.l.",
"l.l.l.l.l.l.l.l.l.l.l.l.l.l.l.l.l.l.l.l.l.l.l.l.l.l.l.l.l.l.l.l.l.l.l.l.l.l.l.l.z.z.z.z.z.z.z.z.z.z.z.z.z.z.z.z.z.z.z.z.z.z.z.z.l.l.l.l.l.l.",
"l.l.l.l.l.l.l.l.l.l.l.l.l.l.l.l.l.l.l.l.l.l.l.l.l.l.l.l.l.l.l.l.l.l.l.l.l.l.l.l.l.l.l.l.z.z.z.z.l.l.l.l.l.l.l.l.z.z.z.z.z.z.z.z.l.l.l.l.l.l.",
"l.l.l.l.l.l.l.l.l.l.l.l.l.l.l.l.l.l.l.l.l.l.l.l.l.l.l.l.l.l.l.l.l.l.l.l.l.l.l.l.l.l.l.l.z.z.z.z.l.l.l.l.l.l.l.l.z.z.z.z.z.z.z.z.l.l.l.l.l.l.",
"& & & & & & & & & & & & & & & & & & & & & & & ; 4 > - & & & & & & & & & & & & & & & & & = - - & & & & & & & & l.z.z.z.z.z.z.z.z.l.l.l.l.l.l.",
"& * & & & & & = : - & & & & & & & & & & & * = 2 Z u : & & & & & & & & & & & &   & & & - 4 p u : & & = - & & & & & z.z.z.z.z.z.z.l.l.l.l.l.l.",
"- + - = . . X 8 A 0 + . *             . - + + 4 k 0 + .                       .       o 4 g p + . + 8 u + . . =   * z.z.z.z.z.z.l.l.l.l.l.l.",
"$ $ 1 3 1 @ $ 9 H s 1 @ @ @ @ @ @ @ @ @ @ $ $ 1 7 1 $ @ @ O @ @ @ @ @ @ @ @ O @ @ @ @ O $ 1 1 @ $ 1 j H 7 @ @ @ + = & z.z.z.z.z.l.l.l.l.l.l.",
"r r a C a e 6 e s r e 6 6 6 6 6 6 r e e 6 6 e r s t 6 6 6 6 6 6 6 6 6 6 5 6 6 6 6 6 6 6 6 6 6 6 6 6 r M t w 6 5 @   & z.z.z.z.z.l.l.l.l.l.l.",
"x z b ^ b z z l z x x l l l l l z ~ ~ z z l l z b z l l l l l l l l q l l l l l l l l l l l l l l l z z z x l 6 @   & & z.z.z.z.l.l.l.l.l.l.",
"| | &.&.| | | | &.:.,.&.| | | | &.2.#.:.&.| | | O.| | | | | | | | | | | | | | | | | &.&.&.| | | | &.&.| | | z e @   * - l.l.l.l.l.l.l.l.l.l.",
"p.p.p.h.p.p.d.d.p.p.p.p.p.d.d.p.h.h.h.h.h.p.p.h.p.p.p.p.p.p.p.p.p.p.h.h.h.p.h.h.p.h.h.h.h.d.d.h.p.p.p.p.p.#.~ e @   & : l.l.l.l.l.l.l.l.l.l.",
"3.3.9.9.9.u.9.9.9.9.9.9.u.u.9.9.9.9.9.9.9.u.9.u.6.w.w.3.3.3.3.3.9.9.u.6.w.9.9.w.9.9.9.9.9.9.9.9.6.w.9.6.h.$.b w @   & ; l.l.l.l.l.l.l.l.l.l.",
"L L R R ;.2.*.R L R R ` &.` R L R L L L R ) R ` ) Y L L L L ` ) Y L L L L Y L L L R L ` ` ` R X.2.$.| 9.p.O.x e @   & o l.l.l.l.l.l.l.l.l.l.",
"d d q q x b m d q q x l d d a d a q d d d d n d q q q q d n x b z d d d q q d a d d d n l d d d z l R 9.h.&.l 6 @ = & = l.l.l.l.l.l.l.l.l.l.",
"s s 6 t F K e 5 5 5 6 6 5 5 5 5 5 < < 5 5 t t 6 < < < < 5 5 e t 6 < < < < 5 5 6 6 5 5 5 5 5 5 6 t d ` u.p.| l 6 1 + = = l.l.l.l.l.l.l.l.l.l.",
"9 y 2 1 9 y % + o o + # 1 3 # + o O + + 1 j j 3 o o o + + + + # o + + + O + @ 9 g y 2 O + + @ j t d R 9.d.| l e $ ; = = l.l.l.l.l.l.l.l.l.l.",
"; + = * - - * & &   * # k k 4 -     & * + 0 0 >       &   & & &   & &   & * ; u k p % X * * + 3 6 d ` u.d.| z t 1 4 2 ; l.l.l.l.l.l.l.l.l.l.",
"& & & & & & & & & & & = 2 2 ; & & & & & & - = * & & & & & & & &   & & & & & * ; > : = & & & = O 5 d ) 6.6.O.x s 9 k j 4 z.z.z.z.l.l.l.l.l.l.",
"& & & & & & & & & & & & * * & & & & & & & & & & & & & & & & & & & & & & & & & & & & & & & & & O 5 d R w.p.O.z t 1 9 u > z.z.z.z.l.l.l.l.l.l.",
"z.z.z.z.z.z.z.z.z.z.z.z.z.z.z.z.l.l.l.l.l.l.l.l.l.l.l.l.l.l.l.l.l.l.l.l.l.l.l.l.l.l.l.l.& & & + 5 d L 9.p.' l 6 @ + > = z.z.z.z.l.l.l.l.l.l.",
"z.z.z.z.z.z.z.z.z.z.z.z.z.z.z.z.l.l.l.l.l.l.l.l.l.l.l.l.l.l.l.l.l.l.l.l.l.l.l.l.l.l.l.l.& & & + < q Y 9.p.' q 6 @ . * & z.z.z.z.l.l.l.l.l.l.",
"z.z.z.z.z.z.z.z.z.z.z.z.z.z.z.z.l.l.l.l.l.l.l.l.l.l.l.l.l.l.l.l.l.l.l.l.l.l.l.l.l.l.l.l.& & & + 5 q L 9.p.| l 6 @ * & & z.z.z.z.l.l.l.l.l.l.",
"z.z.z.z.z.z.z.z.z.z.z.z.z.z.z.z.l.l.l.l.l.l.l.l.l.l.l.l.l.l.l.l.l.l.l.l.l.l.l.l.l.l.l.l.& &   + 5 d L 3.p.| l 6 @ * & & z.z.z.z.l.l.l.l.l.l.",
"z.z.z.z.z.z.z.z.z.z.z.z.z.z.z.z.l.l.l.l.l.l.l.l.l.l.l.l.l.l.l.l.l.l.l.l.l.l.l.l.l.l.l.l.& & & + e x ) 3.p.| l 6 @ = & & z.z.z.z.l.l.l.l.l.l.",
"z.z.z.z.z.z.z.z.z.z.z.z.z.z.z.z.l.l.l.l.l.l.l.l.l.l.l.l.l.l.l.l.l.l.l.l.l.l.l.l.l.l.l.l.& & * + e v | 9.p.) l 6 @   & & z.z.z.z.l.l.l.l.l.l.",
"l.l.l.l.l.l.l.l.l.l.l.l.l.l.l.l.l.l.l.l.l.l.l.l.l.l.l.l.l.l.l.l.l.l.l.l.l.l.l.l.l.l.l.l.& &   o 5 l Y 3.p.' l 6 @   & & l.l.l.l.l.l.l.l.l.l.",
"l.l.l.l.l.l.l.l.l.l.l.l.l.l.l.l.l.l.l.l.l.l.l.l.l.l.l.l.l.l.l.l.l.l.l.l.l.l.l.l.l.l.l.l.& &   o < q L 3.f.' l 6 @   & & l.l.l.l.l.l.l.l.l.l.",
"l.l.l.l.l.l.l.l.l.l.l.l.l.l.l.l.l.l.l.l.l.l.l.l.l.l.l.l.l.l.l.l.l.l.l.l.l.l.l.l.l.l.l.l.& &   o < q L w.f.' l 6 @     & l.l.l.l.l.l.l.l.l.l.",
"l.l.l.l.l.l.l.l.l.l.l.l.l.l.l.l.l.l.l.l.l.l.l.l.l.l.l.l.l.l.l.l.l.l.l.l.l.l.l.l.l.l.l.l.& & & + < q L 5.f.' l 6 @   & & l.l.l.l.l.l.l.l.l.l.",
"l.l.l.l.l.l.l.l.l.l.l.l.l.l.l.l.l.l.l.l.l.l.l.l.l.l.l.l.l.l.l.l.l.l.l.l.l.l.l.l.l.l.l.l.& & & O 5 q L w.p.| l 5 @   & & l.l.l.l.l.l.l.l.l.l.",
"l.l.l.l.l.l.l.l.l.l.l.l.l.l.l.l.l.l.l.l.l.l.l.l.l.l.l.l.l.l.l.l.l.l.l.l.l.l.l.l.l.l.l.l.& & * + 5 q L w.p.| l 6 @ * & & l.l.l.l.l.l.l.l.l.l.",
"l.l.l.l.l.l.l.l.l.l.l.l.l.l.l.l.l.l.l.l.l.l.l.l.l.l.l.l.l.l.l.l.l.l.l.l.l.l.l.l.l.l.l.l.& * ; # < q c w.h.| l 6 @   & & l.l.l.l.l.l.l.l.l.l.",
"l.l.l.l.l.l.l.l.l.l.l.l.l.l.l.l.l.l.l.l.l.l.l.l.l.l.l.l.l.l.l.l.l.l.l.l.l.l.l.l.l.l.l.l.& ; u 9 6 q c w.h.| l 6 @   & & l.l.l.l.l.l.l.l.l.l.",
"l.l.l.l.l.l.l.l.l.l.l.l.l.l.l.l.l.l.l.l.l.l.l.l.l.l.l.l.l.l.l.l.l.l.l.l.l.l.l.l.l.l.l.l.& > j g 6 d L 9.p.) l 6 @   & & l.l.l.l.l.l.l.l.l.l.",
"l.l.l.l.l.l.l.l.l.l.l.l.l.l.l.l.l.l.l.l.l.l.l.l.l.l.l.l.l.l.l.l.l.l.l.l.l.l.l.l.l.l.l.l.& : p y 5 d L 9.p.) l 6 @   & & l.l.l.l.l.l.l.l.l.l.",
"l.l.l.l.l.l.l.l.l.l.l.l.l.l.l.l.l.l.l.l.l.l.l.l.l.l.l.l.l.l.l.l.l.l.l.l.l.l.l.l.l.l.l.l.& = % 1 5 d L 9.p.| l 6 @   & & l.l.l.l.l.l.l.l.l.l.",
"l.l.l.l.l.l.l.l.l.l.l.l.l.l.l.l.l.l.l.l.l.l.l.l.l.l.l.l.l.l.l.l.l.l.l.l.l.l.l.l.l.l.l.l.& & - O 5 n ` u.h.&.m 6 @ X - & l.l.l.l.l.l.l.l.l.l.",
"& & - 4 ; & & & & & & & & & & & & & & & l.l.l.l.l.l.l.l.l.l.l.l.l.l.l.l.l.l.l.l.l.l.l.l.& & * O 5 m ` u.p.| l 6 @ 8 2 = l.l.l.l.l.l.l.l.l.l.",
"& * 2 Z 2 * & & &   & & & = ; ; * & & & & & & l.l.l.l.l.l.l.l.l.l.l.l.l.l.l.l.l.l.l.l.l.& & & O 5 d R 9.d.| z 6 1 k p ; l.l.l.l.l.l.l.l.l.l.",
"= . # u # .     . .   . o 4 k h # .   .   = o u l.l.l.l.l.l.l.l.l.l.l.l.l.l.l.l.l.l.l.l.& & & + 5 d R 9.d.| z 6 1 p 0 - l.l.l.l.l.l.l.l.l.l.",
"@ @ @ 1 $ $ @ @ @ @ @ @ $ 1 6 9 $ @ @ @ @ $ 1 % l.l.l.l.l.l.l.l.l.l.l.l.l.l.l.l.l.l.l.l.& & & O 5 d X.u.d.| l 6 @ + ; * l.l.l.l.l.l.l.l.l.l.",
"6 6 6 e e 6 6 6 6 6 6 6 6 6 6 e 6 6 6 6 6 6 $ .   l.l.l.l.l.l.l.l.l.l.l.l.l.l.l.l.l.l.l.& &   + 5 z ,.9.p.| l 6 @ . & * l.l.l.l.l.l.l.l.l.l.",
"l l l z l l l z l l l l l l l l z l l l q 6 @     l.l.l.l.l.l.l.l.l.l.l.l.l.l.l.l.l.l.l.& & & O e K #.6.p.&.l e 1 o * = l.l.l.l.l.l.l.l.l.l.",
"&.&.O.O.O.O.&.&.O.O.O.O.' O.O.' O.' ' Y l 6 @ . & l.l.l.l.l.l.l.l.l.l.l.l.l.l.l.l.l.l.l.& & & O e v :.u.p.&.z r f 0 = ; l.l.l.l.l.l.l.l.l.l.",
"h.h.p.6.h.h.h.d.p.f.f.f.p.f.f.f.f.f.p.O.z 6 @ . & ; l.l.l.l.l.l.l.l.l.l.l.l.l.l.l.l.l.l.& &   O 6 l ` 9.p.| z M H u - : l.l.l.l.l.l.l.l.l.l.",
"w.9.3.3.9.9.9.3.9.9.q.q.3.3.3.9.w.w.p.' l 6 @   * ; l.l.l.l.l.l.l.l.l.l.l.l.l.l.l.l.l.l.& & & O 7 a R 9.p.&.z t 7 # * ; l.l.l.l.l.l.l.l.l.l.",
"` L c c L R R L L b c ^ Y Y L L Y 3.f.O.z 6 @ . & - l.l.l.l.l.l.l.l.l.l.l.l.l.l.l.l.l.l.& &   o < q L 9.h.:.b e $ . & - l.l.l.l.l.l.l.l.l.l.",
"d a a d a a d d d d a n z V d q L 3.f.O.l 6 @ . &   l.l.l.l.l.l.l.l.l.l.l.l.l.l.l.l.l.l.& &   o < d R 9.d.:.x 6 @   & = l.l.l.l.l.l.l.l.l.l.",
"< < 5 5 5 5 3 5 f F C t 6 6 5 l L w.f.O.z 6 @ . & * l.l.l.l.l.l.l.l.l.l.l.l.l.l.l.l.l.l.& &   + 6 z | 9.d.| l 6 @   & * l.l.l.l.l.l.l.l.l.l.",
"o + 2 g p % + + 9 i 9 % + + 5 d c 3.p.&.z 6 @ . & & l.l.l.l.l.l.l.l.l.l.l.l.l.l.l.l.l.l.& & * O 5 l ) u.p.) l 6 @   & & z.z.z.z.l.l.l.l.l.l.",
"& = % Z g % = * - - - ; + + < a c 3.d.&.l 6 @ . & & l.l.l.l.l.l.l.l.l.l.l.l.l.l.l.l.l.l.& & - 1 6 d R u.p.) l 6 @   & * z.z.z.z.l.l.l.l.l.l.",
"& & ; 4 4 - & & & & & : 8 # 5 a L 3.h.:.z 6 @ . & & l.l.l.l.l.l.l.l.l.l.l.l.l.l.l.l.l.l.& * 4 B s d L 9.p.| l 6 @   & = z.z.z.z.l.l.l.l.l.l.",
"& & & = = & & & & & ; h u # 5 d R 6.h.,.z 6 $ X & & l.l.l.l.l.l.l.l.l.l.l.l.l.l.l.l.l.l.& * 2 S t d L 9.p.| l 6 @   & & z.z.z.z.l.l.l.l.l.l.",
"l.l.l.l.l.l.l.l.l.l.: 0 4 # < d R u.h.&.z 6 3 2 - & l.l.l.l.l.l.l.l.l.l.l.l.l.l.l.l.l.l.& & - $ 5 d L 9.d.| l 6 @ . & & z.z.z.z.l.l.l.l.l.l.",
"l.l.l.l.l.l.l.l.l.l.* - - + < a L 3.p.&.l w t p > * l.l.l.l.l.l.l.l.l.l.l.l.l.l.l.l.l.l.& &   o 5 d L 9.d.| l 6 @ * & & z.z.z.z.l.l.l.l.l.l.",
"l.l.l.l.l.l.l.l.l.l.& &   o < a c 3.p.| l w g h , * l.l.l.l.l.l.l.l.l.l.l.l.l.l.l.l.l.l.& &   + < a L 3.p.&.x w @   & & z.z.z.z.l.l.l.l.l.l.",
"l.l.l.l.l.l.l.l.l.l.&     o < a c 3.p.O.l e 7 8 : * l.l.l.l.l.l.l.l.l.l.l.l.l.l.l.l.l.l.& & & + 5 d L 9.h.:.X.t @   & & z.z.z.z.l.l.l.l.l.l.",
"l.l.l.l.l.l.l.l.l.l.& & & o < a c 3.h.&.l 6 $ o     l.l.l.l.l.l.l.l.l.l.l.l.l.l.l.l.l.l.& & & + 5 q L 9.h.$.x 6 @ * & & l.l.l.l.l.l.l.l.l.l.",
"l.l.l.l.l.l.l.l.l.l.& & & + < a c 3.p.O.z 6 @ . &   l.l.l.l.l.l.l.l.l.l.l.l.l.l.l.l.l.l.& & & + < a L 3.k.#.z 6 @   & & l.l.l.l.l.l.l.l.l.l.",
"l.l.l.l.l.l.l.l.l.l.& & * 2 t d c 3.h.O.z 6 @ . & & l.l.l.l.l.l.l.l.l.l.l.l.l.l.l.l.l.l.& &   O 5 q c 3.p.O.l 6 @   & & l.l.l.l.l.l.l.l.l.l.",
"l.l.l.l.l.l.l.l.l.l.& & - y D l c 3.h.&.z 6 @   & & l.l.l.l.l.l.l.l.l.l.l.l.l.l.l.l.l.l.& * - O 5 q c 3.p.' l 6 @   & & l.l.l.l.l.l.l.l.l.l.",
"l.l.l.l.l.l.l.l.l.l.& & - 9 D m c 3.k.O.z 6 @ . & & l.l.l.l.l.l.l.l.l.l.l.l.l.l.l.l.l.l.= , 4 @ 5 d L 3.p.&.z 6 @ . & & l.l.l.l.l.l.l.l.l.l.",
"l.l.l.l.l.l.l.l.l.l.& & = 1 s d c 3.h.:.z 6 @   & & l.l.l.l.l.l.l.l.l.l.l.l.l.l.l.l.l.l.; p Z 2 6 q L w.p.O.x 6 @ . & & l.l.l.l.l.l.l.l.l.l."
};
