/* XPM */
static char *d2FsbF8w[] = {
/* columns rows colors chars-per-pixel */
"70 70 135 2 ",
"   c #3F0AFF",
".  c #3F15FF",
"X  c #3E1DFF",
"o  c #3725FF",
"O  c #3923FF",
"+  c #362CFF",
"@  c #3A2BFF",
"#  c #3531FF",
"$  c #353DFF",
"%  c #3F38FF",
"&  c #4100FF",
"*  c #410DFF",
"=  c #4115FF",
"-  c #411BFF",
";  c #4125FF",
":  c #4029FF",
">  c #4039FF",
",  c #2C4DFF",
"<  c #3440FF",
"1  c #3E43FF",
"2  c #334CFF",
"3  c #3D4CFF",
"4  c #2C53FF",
"5  c #285AFF",
"6  c #3250FF",
"7  c #3E53FF",
"8  c #345BFF",
"9  c #3B5AFF",
"0  c #1F7CFF",
"q  c #2764FF",
"w  c #2863FF",
"e  c #276BFF",
"r  c #296CFF",
"t  c #3B64FF",
"y  c #3269FF",
"u  c #3A6CFF",
"i  c #2175FF",
"p  c #2A74FF",
"a  c #2079FF",
"s  c #2E7DFF",
"d  c #3772FF",
"f  c #3A72FF",
"g  c #3279FF",
"h  c #387EFF",
"j  c #1D84FF",
"k  c #1C8BFF",
"l  c #1E91FF",
"z  c #159FFF",
"x  c #1A9BFF",
"c  c #2386FF",
"v  c #2B8DFF",
"b  c #2C8BFF",
"n  c #3481FF",
"m  c #3584FF",
"M  c #3687FF",
"N  c #3584FF",
"B  c #348DFF",
"V  c #348DFF",
"C  c #13A2FF",
"Z  c #13A3FF",
"A  c #14A0FF",
"S  c #15A0FF",
"D  c #14A1FF",
"F  c #14A2FF",
"G  c #14A3FF",
"H  c #13A4FF",
"J  c #13A5FF",
"K  c #13A6FF",
"L  c #13A7FF",
"P  c #14A4FF",
"I  c #14A6FF",
"U  c #14A3FF",
"Y  c #18A2FF",
"T  c #18A3FF",
"R  c #19A6FF",
"E  c #18A4FF",
"W  c #13A8FF",
"Q  c #12AAFF",
"!  c #13AAFF",
"~  c #12ABFF",
"^  c #11ACFF",
"/  c #10ADFF",
"(  c #11ADFF",
")  c #12ACFF",
"_  c #12ADFF",
"`  c #10AEFF",
"'  c #11AEFF",
"]  c #10AFFF",
"[  c #11ADFF",
"{  c #0FB4FF",
"}  c #0FB5FF",
"|  c #0FB5FF",
" . c #0DBAFF",
".. c #0DBCFF",
"X. c #0FBCFF",
"o. c #0DBEFF",
"O. c #0EBFFF",
"+. c #0EBDFF",
"@. c #10B0FF",
"#. c #12B0FF",
"$. c #10B7FF",
"%. c #10B1FF",
"&. c #26A2FF",
"*. c #26A2FF",
"=. c #0EC0FF",
"-. c #09C7FF",
";. c #0AC5FF",
":. c #07CCFF",
">. c #07CDFF",
",. c #07CEFF",
"<. c #06CFFF",
"1. c #07CFFF",
"2. c #07CDFF",
"3. c #08C8FF",
"4. c #09C8FF",
"5. c #08C9FF",
"6. c #08CAFF",
"7. c #09CAFF",
"8. c #08CBFF",
"9. c #08CCFF",
"0. c #08CAFF",
"q. c #06D1FF",
"w. c #04D6FF",
"e. c #05D6FF",
"r. c #04D7FF",
"t. c #05D7FF",
"y. c #04D6FF",
"u. c #03DAFF",
"i. c #04D8FF",
"p. c #05D8FF",
"a. c #04D9FF",
"s. c #04DAFF",
"d. c #04D9FF",
"f. c None",
"g. c black",
/* pixels */
"f.f.f.f.f.f.f.f.f.f.f.f.f.f.f.f.f.f.f.f.f.f.f.f.f.f.f.f.f.f.f.f.f.f.f.f.f.f.f.f.f.f.f.f.f.f.f.f.f.f.f.f.f.f.f.f.f.f.f.f.f.f.f.f.f.f.f.f.f.f.",
"f.f.f.f.f.f.f.f.f.f.f.f.f.f.f.f.f.f.f.f.f.f.f.f.f.f.f.f.f.f.f.f.f.f.f.f.f.f.f.f.f.f.f.f.f.f.f.f.f.f.f.f.f.f.f.f.f.f.f.f.f.f.f.f.f.f.f.f.f.f.",
"f.f.f.f.f.f.f.f.f.f.f.f.f.f.f.f.f.f.f.f.f.f.f.f.f.f.f.f.f.f.f.f.f.f.f.f.f.f.f.f.f.f.f.f.f.f.f.f.f.f.f.f.f.f.f.f.f.f.f.f.f.f.f.f.f.f.f.f.f.f.",
"f.f.f.f.f.f.f.f.f.f.f.f.f.f.f.f.f.f.f.f.f.f.f.f.f.f.f.f.f.f.f.f.f.f.f.f.f.f.f.f.f.f.f.f.f.f.f.f.f.f.f.f.f.f.f.f.f.f.f.f.f.f.f.f.f.f.f.f.f.f.",
"f.f.f.f.f.f.f.f.f.f.f.f.f.f.f.f.f.f.f.f.f.f.f.f.f.f.f.f.f.f.f.f.f.f.f.f.f.f.f.f.f.f.f.f.f.f.f.f.f.f.f.f.f.f.f.f.f.f.f.f.f.f.f.f.f.f.f.f.f.f.",
"f.f.f.f.f.f.f.f.f.f.f.f.f.f.f.f.f.f.f.f.f.f.f.f.f.f.f.f.f.f.f.f.f.f.f.f.f.f.f.f.f.f.f.f.f.f.f.f.f.f.f.f.f.f.f.f.f.f.f.f.f.f.f.f.f.f.f.f.f.f.",
"f.f.f.f.f.f.f.f.f.f.f.f.f.f.f.f.f.f.f.f.f.f.f.f.f.f.f.f.f.f.f.f.f.f.f.f.f.f.f.f.f.f.f.f.f.f.f.f.f.f.f.f.f.f.f.f.f.f.f.f.f.f.f.f.f.f.f.f.f.f.",
"f.f.f.f.f.f.f.f.f.f.f.f.f.f.f.f.f.f.f.f.f.f.f.f.f.f.f.f.f.f.f.f.f.f.f.f.f.f.f.f.f.f.f.f.f.f.f.f.f.f.f.f.f.f.f.f.f.f.f.f.f.f.f.f.f.f.f.f.f.f.",
"f.f.f.f.f.f.f.f.f.f.f.f.f.f.f.f.f.f.f.f.f.f.f.f.f.f.f.f.f.f.f.f.f.f.f.f.f.f.f.f.f.f.f.f.f.f.f.f.g.g.g.g.g.g.g.g.f.f.f.f.f.f.f.f.f.f.f.f.f.f.",
"f.f.f.f.f.f.f.f.f.f.f.f.f.f.f.f.f.f.f.f.f.f.f.f.f.f.f.f.f.f.f.f.f.f.f.f.f.f.f.f.f.f.f.f.f.f.f.f.g.g.g.g.g.g.g.g.f.f.f.f.f.f.f.f.f.f.f.f.f.f.",
"f.f.f.f.f.f.f.f.f.f.f.f.f.f.f.f.f.f.f.f.f.f.f.f.f.: * & & &     & & & & & &     & & & & & & & & g.g.g.g.g.g.g.g.f.f.f.f.f.f.f.f.f.f.f.f.f.f.",
"f.f.f.f.f.f.f.f.f.f.f.f.f.f.f.f.f.f.f.f.& & = 9 n t - & & &     & & & & & &     & & & * 1 f t - & & & g.g.g.g.g.f.f.f.f.f.f.f.f.f.f.f.f.f.f.",
"f.f.f.f.f.f.f.f.f.f.f.f.f.f.f.f.f.& & & &   * 3 u 7 = &     &   * *                   . 6 n d O * X 9 t O g.g.g.f.f.f.f.f.f.f.f.f.f.f.f.f.f.",
"f.f.f.f.f.f.f.f.f.f.f.f.f.f.f.f.o O o o X X O O O O O O X X X X + + # + + # + + # + + + + $ $ + + $ s *.2 # g.g.f.f.f.f.f.f.f.f.f.f.f.f.f.f.",
"f.f.f.f.f.f.f.f.f.f.f.f.f.f.f.p r , , , , , 4 , 4 5 4 , , , , , 5 5 5 5 5 5 5 5 5 5 5 5 5 5 5 5 5 5 e c q w 5 f.f.f.f.f.f.f.f.f.f.f.f.f.f.f.",
"f.f.f.f.f.f.f.f.f.f.f.f.f.f.5 x l 0 i i 0 0 c k c c a i i i c l j j 0 j j j j j j j j j j j j j j j j j k x j 5 f.f.f.f.f.f.f.f.f.f.f.f.f.f.",
"f.f.f.f.f.f.f.f.f.f.f.f.f.# w x A z z z z Z ' ' Z z z z A P @.X.' ' ] ] ] Q ] ' ' ' ' @.' ' ' ' ' ] ] ' ' { k 5 + f.f.f.f.f.f.f.f.f.f.f.f.f.",
"f.f.f.f.f.f.f.f.f.f.f.f.O 6 q j ' 4.4.-.4.4.4.-.-.-.-.4.9.>.q.9.r.r.i.i.r.w.r.r.w.w.i.i.r.w.w.w.r.r.r.r.r.O.A w # f.f.f.f.f.f.f.f.f.f.f.f.f.",
"f.f.f.f.f.f.f.f.f.f.f.f.t *.c k ' r.r.i.i.i.i.i.r.w.i.i.i.i.i.i.3.8.>.>.>.8.8.>.4.9.9.>.>.8.4.9.>.8.8.8.i.O.E q # * f.f.f.f.f.f.f.f.f.f.f.f.",
"f.f.f.f.f.f.f.f.f.f.f.& 9 g e j ' r.8.] ] ' {  .{ { ] { ' @.@.@.J z z Z z Z Z z A A A J Q J P ' =.O.{ 8.u.@.k 5 #   & f.f.f.f.f.f.f.f.f.f.f.",
"f.f.f.f.f.f.f.f.f.f.f.& X $ 5 j @.w.>.O.j j k k k j j j j j j k j i i 0 0 0 i 0 a i a 0 c a 0 a j x A 9.i.' j 5 # = & f.f.f.f.f.f.f.f.f.f.f.",
"f.f.f.f.f.f.f.f.f.f.f.&   + 5 j ' w.>.=.k 5 5 i i 5 w 5 5 5 5 5 5 , , , 4 , , 4 4 4 , , , , , , , a ' >.w.' j 5 $ @ * f.f.f.f.f.f.f.f.f.f.f.",
"f.f.f.f.f.f.f.f.f.f.f.- O + 5 j ' w.>.' 0 , 6 v b 2 # # # # # $ o o o O o o + 8 g y < @ O O o o e a P 9.w.' j 5 $ X * = f.f.f.f.f.f.f.f.f.f.",
"f.f.f.f.f.f.f.f.f.f.& 9 d $ 5 j ' w.4.A a , O u t O       X 9 h & & & & & & - t N f % * * & & 2 4 i Q 9.w.' k e $ 1 > = f.f.f.f.f.f.f.f.f.f.",
"f.f.f.f.f.f.f.f.f.f.& f n $ 5 j Q r.8.J a , o & & & & & & = 3 u & & & & & & & - ; - & & & & & @ , a Q q.w.' x a 6 N V 1 f.f.f.f.f.f.f.f.f.f.",
"f.f.f.f.f.f.f.f.f.f.& 3 2 # 5 j ' i.>.Q j , o * & & & & & & & * & & & & & & & & & & & & & & & o , a J >.w.' k q $ 9 t : f.f.f.f.f.f.f.f.f.f.",
"f.f.f.f.f.f.f.f.f.f.& * . # 5 j @.i.>.J c , o = & & f.f.f.f.f.f.f.f.f.f.f.f.f.f.f.f.f.f.& & & o , 0 A 9.w.' j 5 # O : * f.f.f.f.f.f.f.f.f.f.",
"f.f.f.f.f.f.f.f.f.f.& &   + 5 j ' i.9.A a , $ % * & f.f.f.f.f.f.f.f.f.f.f.f.f.f.f.f.f.f.& & & O , a P 4.w.Q 0 5 #   & & f.f.f.f.f.f.f.f.f.f.",
"f.f.f.f.f.f.f.f.f.f.& & * + 5 0 ' w.4.A a 4 y u - & f.f.f.f.f.f.f.f.f.f.f.f.f.f.f.f.f.f.& & & o , a A 4.q.] j 5 +   & & f.f.f.f.f.f.f.f.f.f.",
"f.f.f.f.f.f.f.f.f.f.& &   # 5 j ' w.9.A a 4 g N ; & f.f.f.f.f.f.f.f.f.f.f.f.f.f.f.f.f.f.& & & o , 0 Z 8.w./ j 5 + * & & f.f.f.f.f.f.f.f.f.f.",
"f.f.f.f.f.f.f.f.f.f.& &   # 5 j ' i.>.A i 4 8 t - & f.f.f.f.f.f.f.f.f.f.f.f.f.f.f.f.f.f.& & & o 5 x J 4.w./ j 5 #   & & f.f.f.f.f.f.f.f.f.f.",
"f.f.f.f.f.f.f.f.f.f.& &   + 5 j ' w.>.A 0 , + - & & f.f.f.f.f.f.f.f.f.f.f.f.f.f.f.f.f.f.& & & o r E Q 8.w./ j 5 #   & & f.f.f.f.f.f.f.f.f.f.",
"f.f.f.f.f.f.f.f.f.f.&     + 5 j ' w.4.A a 4 o & & & f.f.f.f.f.f.f.f.f.f.f.f.f.f.f.f.f.f.& & & o 5 j P 4.r./ j 5 +   & & f.f.f.f.f.f.f.f.f.f.",
"f.f.f.f.f.f.f.f.f.f.&     + 5 j ' i.>.Z 0 , o & & & f.f.f.f.f.f.f.f.f.f.f.f.f.f.f.f.f.f.& & & O , i A 4.r.] j 5 +   & & f.f.f.f.f.f.f.f.f.f.",
"f.f.f.f.f.f.f.f.f.f.      # 5 0 ] i.>.Z 0 , o & & & f.f.f.f.f.f.f.f.f.f.f.f.f.f.f.f.f.f.& & & o , i A q.i.] j 5 +     & f.f.f.f.f.f.f.f.f.f.",
"f.f.f.f.f.f.f.f.f.f.      # 5 j ' i.>.A i , o & & & f.f.f.f.f.f.f.f.f.f.f.f.f.f.f.f.f.f.& & & o , 0 A q.i./ 0 5 #       f.f.f.f.f.f.f.f.f.f.",
"f.f.f.f.f.f.f.f.f.f.& &   + 5 j ' r.8.z i , o & & & f.f.f.f.f.f.f.f.f.f.f.f.f.f.f.f.f.f.& & & o , 0 Z >.r.] j 5 +   & & f.f.f.f.f.f.f.f.f.f.",
"f.f.f.f.f.f.f.f.f.f.& &   # 5 j ' r.8.Z c 4 o & & & f.f.f.f.f.f.f.f.f.f.f.f.f.f.f.f.f.f.& & & O 4 0 z 8.r./ 0 5 # * & & f.f.f.f.f.f.f.f.f.f.",
"f.f.f.f.f.f.f.f.f.f.& &   + 5 j ] q.8.Q R r o & & & f.f.f.f.f.f.f.f.f.f.f.f.f.f.f.f.f.f.& & - + , 0 z 8.r./ j 5 +   & & f.f.f.f.f.f.f.f.f.f.",
"f.f.f.f.f.f.f.f.f.f.& &   + 5 j ' r.8.J x 5 o & & & f.f.f.f.f.f.f.f.f.f.f.f.f.f.f.f.f.f.& - t 8 4 0 z 8.r./ j 5 #   & & f.f.f.f.f.f.f.f.f.f.",
"f.f.f.f.f.f.f.f.f.f.& & * + 5 0 / w.8.Z a , o & & & f.f.f.f.f.f.f.f.f.f.f.f.f.f.f.f.f.f.& ; N g 4 a A 9.w.' j 5 #   & & f.f.f.f.f.f.f.f.f.f.",
"f.f.f.f.f.f.f.f.f.f.& &   # 5 j Q w.4.A a , o & & & f.f.f.f.f.f.f.f.f.f.f.f.f.f.f.f.f.f.& - f y , a A 9.w.Q j 5 +   & & f.f.f.f.f.f.f.f.f.f.",
"f.f.f.f.f.f.f.f.f.f.& *   # 5 j ' r.8.A a , o & & & f.f.f.f.f.f.f.f.f.f.f.f.f.f.f.f.f.f.& * > $ , 0 A 9.w.' j 5 #     & f.f.f.f.f.f.f.f.f.f.",
"f.f.f.f.f.f.f.f.f.f.* ; O # 5 j ' r.3.Z a , o & & & f.f.f.f.f.f.f.f.f.f.f.f.f.f.f.f.f.f.& & * @ , 0 J >.i.' j 5 # . * & f.f.f.f.f.f.f.f.f.f.",
"f.f.f.f.f.f.f.f.f.f.: t 9 $ q k ' w.>.P a , o & & & & & & & & & & & & & & * * & & & & & & & * O , k ! 9.i.' j 5 + 7 3 & f.f.f.f.f.f.f.f.f.f.",
"f.f.f.f.f.f.f.f.f.f.1 V N 6 a x ' i.q.Q a , o * & & & * - ; - & & & & & = 3 u 2 = & &   & * & o , a P 4.w.Q j 5 $ n u & f.f.f.f.f.f.f.f.f.f.",
"f.f.f.f.f.f.f.f.f.f.= > 1 < e k ' w.1.! a 4 2 & & * * > u M t -         X 9 n t - *     X 9 y o , a P 9.w.' j 5 # d t & f.f.f.f.f.f.f.f.f.f.",
"f.f.f.f.f.f.f.f.f.f.= * - $ 5 j ' w.9.P a q O O o o @ $ y s 8 + # # # # # # $ # # # + # 2 b b 2 , a ' 9.w.' j 5 # O - f.f.f.f.f.f.f.f.f.f.f.",
"f.f.f.f.f.f.f.f.f.f.f.* @ $ 5 j ] w.>.Q 0 , , , , , , , , 4 4 , 5 5 w 5 5 5 5 5 5 5 5 w 5 i p 5 5 k =.>.w.' j 5 #   & f.f.f.f.f.f.f.f.f.f.f.",
"f.f.f.f.f.f.f.f.f.f.f.& = # 5 j ] r.8.Z x j 0 a a k a a 0 i 0 i j j k k k k j j k j j j j k l k j j O.>.w.@.j 5 $ X & f.f.f.f.f.f.f.f.f.f.f.",
"f.f.f.f.f.f.f.f.f.f.f.&   # 5 k ] i.>.{ O.=.' P P Q Q A Z Z z Z { { O.{ ] ] @.@.] ] { ' { {  .{ ' { ' 4.w.@.j e s 9 & f.f.f.f.f.f.f.f.f.f.f.",
"f.f.f.f.f.f.f.f.f.f.f.f.  # q E O.i.4.8.4.>.9.4.9.>.>.9.4.8.>.8.i.i.i.i.i.i.i.i.i.i.i.i.i.i.i.w.r.i.i.i.w.' j c *.t f.f.f.f.f.f.f.f.f.f.f.f.",
"f.f.f.f.f.f.f.f.f.f.f.f.f.+ q E O.r.r.r.w.w.w.w.w.i.i.w.w.w.r.r.8.8.8.8.4.4.9.1.q.8.8.-.4.4.4.4.-.4.-.4.4.' k q 2 O f.f.f.f.f.f.f.f.f.f.f.f.",
"f.f.f.f.f.f.f.f.f.f.f.f.f.# 5 k { ' Q ] ' ' ' ' ' @.' ' ' ' / ] z J J z A @.X.#.J z z z A J ' ' A Z z z z z x q # f.f.f.f.f.f.f.f.f.f.f.f.f.",
"f.f.f.f.f.f.f.f.f.f.f.f.f.f.5 j x k j j j j a j j j j j j j j 0 e 0 0 e i j k 0 0 e i 0 c c k c a i i i a x x 5 f.f.f.f.f.f.f.f.f.f.f.f.f.f.",
"f.f.f.f.f.f.f.f.f.f.f.f.f.f.f.5 w q c e 5 5 5 5 5 5 5 5 5 5 5 5 , , , , , , , , , , , 4 5 4 4 , , , 4 , , r p f.f.f.f.f.f.f.f.f.f.f.f.f.f.f.",
"f.f.f.f.f.f.f.f.f.f.f.f.f.f.f.f.# 2 *.s $ + # $ $ # # # # # # + X X X o X X X X O X O O o o O X O O O O O o f.f.f.f.f.f.f.f.f.f.f.f.f.f.f.f.",
"f.f.f.f.f.f.f.f.f.f.f.f.f.f.f.f.f.; t 9 X   O d h 2 .   *           & &         & & & = 7 u 3 * & & & & & f.f.f.f.f.f.f.f.f.f.f.f.f.f.f.f.f.",
"f.f.f.f.f.f.f.f.f.f.f.f.f.f.f.f.f.f.f.&   & - t f 3 * & & & & &     &   & &     & & & - t h 9 = & & f.f.f.f.f.f.f.f.f.f.f.f.f.f.f.f.f.f.f.f.",
"f.f.f.f.f.f.f.f.f.f.f.f.f.f.f.f.f.f.f.f.f.f.& & & & & & & & & &     & & &       & & & * : f.f.f.f.f.f.f.f.f.f.f.f.f.f.f.f.f.f.f.f.f.f.f.f.f.",
"f.f.f.f.f.f.f.f.f.f.f.f.f.f.f.f.f.f.f.f.f.f.f.f.f.f.f.f.f.f.f.f.f.f.f.f.f.f.f.f.f.f.f.f.f.f.f.f.f.f.f.f.f.f.f.f.f.f.f.f.f.f.f.f.f.f.f.f.f.f.",
"f.f.f.f.f.f.f.f.f.f.f.f.f.f.f.f.f.f.f.f.f.f.f.f.f.f.f.f.f.f.f.f.f.f.f.f.f.f.f.f.f.f.f.f.f.f.f.f.f.f.f.f.f.f.f.f.f.f.f.f.f.f.f.f.f.f.f.f.f.f.",
"f.f.f.f.f.f.f.f.f.f.f.f.f.f.f.f.f.f.f.f.f.f.f.f.f.f.f.f.f.f.f.f.f.f.f.f.f.f.f.f.f.f.f.f.f.f.f.f.f.f.f.f.f.f.f.f.f.f.f.f.f.f.f.f.f.f.f.f.f.f.",
"f.f.f.f.f.f.f.f.f.f.f.f.f.f.f.f.f.f.f.f.f.f.f.f.f.f.f.f.f.f.f.f.f.f.f.f.f.f.f.f.f.f.f.f.f.f.f.f.f.f.f.f.f.f.f.f.f.f.f.f.f.f.f.f.f.f.f.f.f.f.",
"f.f.f.f.f.f.f.f.f.f.f.f.f.f.f.f.f.f.f.f.f.f.f.f.f.f.f.f.f.f.f.f.f.f.f.f.f.f.f.f.f.f.f.f.f.f.f.f.f.f.f.f.f.f.f.f.f.f.f.f.f.f.f.f.f.f.f.f.f.f.",
"f.f.f.f.f.f.f.f.f.f.f.f.f.f.f.f.f.f.f.f.f.f.f.f.f.f.f.f.f.f.f.f.f.f.f.f.f.f.f.f.f.f.f.f.f.f.f.f.f.f.f.f.f.f.f.f.f.f.f.f.f.f.f.f.f.f.f.f.f.f.",
"f.f.f.f.f.f.f.f.f.f.f.f.f.f.f.f.f.f.f.f.f.f.f.f.f.f.f.f.f.f.f.f.f.f.f.f.f.f.f.f.f.f.f.f.f.f.f.f.f.f.f.f.f.f.f.f.f.f.f.f.f.f.f.f.f.f.f.f.f.f.",
"f.f.f.f.f.f.f.f.f.f.f.f.f.f.f.f.f.f.f.f.f.f.f.f.f.f.f.f.f.f.f.f.f.f.f.f.f.f.f.f.f.f.f.f.f.f.f.f.f.f.f.f.f.f.f.f.f.f.f.f.f.f.f.f.f.f.f.f.f.f.",
"f.f.f.f.f.f.f.f.f.f.f.f.f.f.f.f.f.f.f.f.f.f.f.f.f.f.f.f.f.f.f.f.f.f.f.f.f.f.f.f.f.f.f.f.f.f.f.f.f.f.f.f.f.f.f.f.f.f.f.f.f.f.f.f.f.f.f.f.f.f.",
"f.f.f.f.f.f.f.f.f.f.f.f.f.f.f.f.f.f.f.f.f.f.f.f.f.f.f.f.f.f.f.f.f.f.f.f.f.f.f.f.f.f.f.f.f.f.f.f.f.f.f.f.f.f.f.f.f.f.f.f.f.f.f.f.f.f.f.f.f.f."
};
